ply
format ascii 1.0
comment Created by Blender 2.80 (sub 75) - www.blender.org, source file: '100_subs.blend'
element vertex 356
property float x
property float y
property float z
property float nx
property float ny
property float nz
property float s
property float t
element face 260
property list uchar uint vertex_indices
end_header
-7.000000 -7.000000 1.000000 0.000000 0.000000 1.000000 0.691406 0.468750
8.000000 -7.000000 1.000000 0.000000 0.000000 1.000000 0.691406 0.000000
8.000000 -1.000000 1.000000 0.000000 0.000000 1.000000 0.878906 0.000000
-7.000000 -1.000000 1.000000 -0.000000 0.000000 1.000000 0.878906 0.468750
-4.000000 -3.000000 6.000000 -0.000000 1.000000 0.000000 0.343750 0.718750
-5.000000 -3.000000 6.000000 -0.000000 1.000000 0.000000 0.312500 0.718750
-5.000000 -3.000000 7.000000 -0.000000 1.000000 0.000000 0.312500 0.687500
-4.000000 -3.000000 7.000000 0.000000 1.000000 0.000000 0.343750 0.687500
-4.000000 -4.000000 5.000000 0.000000 0.000000 0.000000 0.000000 0.000000
-4.000000 -4.000000 5.000000 0.000000 0.000000 0.000000 0.000000 0.000000
-4.000000 -4.000000 6.000000 0.000000 0.000000 0.000000 0.000000 0.000000
-4.000000 -4.000000 6.000000 0.000000 0.000000 0.000000 0.000000 0.000000
-5.000000 -4.000000 6.000000 -0.000000 -1.000000 -0.000000 0.437500 0.718750
-4.000000 -4.000000 6.000000 -0.000000 -1.000000 -0.000000 0.406250 0.718750
-4.000000 -4.000000 7.000000 -0.000000 -1.000000 -0.000000 0.406250 0.687500
-5.000000 -4.000000 7.000000 0.000000 -1.000000 -0.000000 0.437500 0.687500
-4.000000 -3.000000 7.000000 0.000000 0.000000 1.000000 0.156250 0.906250
-5.000000 -3.000000 7.000000 0.000000 0.000000 1.000000 0.125000 0.906250
-5.000000 -4.000000 7.000000 0.000000 0.000000 1.000000 0.125000 0.875000
-4.000000 -4.000000 7.000000 0.000000 -0.000000 1.000000 0.156250 0.875000
-6.000000 -3.000000 5.000000 -1.000000 0.000000 0.000000 0.593750 0.843750
-6.000000 -4.000000 5.000000 -1.000000 0.000000 0.000000 0.593750 0.875000
-6.000000 -4.000000 6.000000 -1.000000 0.000000 0.000000 0.562500 0.875000
-6.000000 -3.000000 6.000000 -1.000000 -0.000000 -0.000000 0.562500 0.843750
-4.000000 -3.000000 7.000000 0.000000 0.000000 0.000000 0.000000 0.000000
-4.000000 -4.000000 7.000000 0.000000 0.000000 0.000000 0.000000 0.000000
-4.000000 -4.000000 7.000000 0.000000 0.000000 0.000000 0.000000 0.000000
-4.000000 -3.000000 7.000000 0.000000 0.000000 0.000000 0.000000 0.000000
-4.000000 -3.000000 5.000000 0.000000 0.000000 0.000000 0.000000 0.000000
-4.000000 -3.000000 5.000000 0.000000 0.000000 0.000000 0.000000 0.000000
-4.000000 -3.000000 6.000000 0.000000 0.000000 0.000000 0.000000 0.000000
-4.000000 -3.000000 6.000000 0.000000 0.000000 0.000000 0.000000 0.000000
-4.000000 -3.000000 2.000000 -0.000000 1.000000 0.000000 0.343750 0.843750
-5.000000 -3.000000 2.000000 -0.000000 1.000000 0.000000 0.312500 0.843750
-5.000000 -3.000000 5.000000 -0.000000 1.000000 0.000000 0.312500 0.750000
-4.000000 -3.000000 5.000000 0.000000 1.000000 0.000000 0.343750 0.750000
-5.000000 -4.000000 6.000000 -0.000000 0.000000 1.000000 0.343750 0.875000
-5.000000 -3.000000 6.000000 -0.000000 0.000000 1.000000 0.343750 0.906250
-6.000000 -3.000000 6.000000 -0.000000 0.000000 1.000000 0.312500 0.906250
-6.000000 -4.000000 6.000000 -0.000000 0.000000 1.000000 0.312500 0.875000
-5.000000 -3.000000 6.000000 -1.000000 0.000000 0.000000 0.656250 0.847656
-5.000000 -4.000000 6.000000 -1.000000 0.000000 0.000000 0.656250 0.878906
-5.000000 -4.000000 7.000000 -1.000000 0.000000 0.000000 0.625000 0.878906
-5.000000 -3.000000 7.000000 -1.000000 -0.000000 -0.000000 0.625000 0.847656
-4.000000 -4.000000 6.000000 1.000000 0.000000 0.000000 0.125000 0.843750
-4.000000 -3.000000 6.000000 1.000000 0.000000 0.000000 0.156250 0.843750
-4.000000 -3.000000 7.000000 1.000000 0.000000 0.000000 0.156250 0.875000
-4.000000 -4.000000 7.000000 1.000000 -0.000000 0.000000 0.125000 0.875000
-5.000000 -3.000000 2.000000 -1.000000 0.000000 0.000000 0.687500 0.816406
-5.000000 -4.000000 2.000000 -1.000000 0.000000 0.000000 0.656250 0.816406
-5.000000 -4.000000 5.000000 -1.000000 0.000000 0.000000 0.656250 0.722656
-5.000000 -3.000000 5.000000 -1.000000 -0.000000 -0.000000 0.687500 0.722656
-4.000000 -3.000000 2.000000 0.000000 0.000000 0.000000 0.000000 0.000000
-4.000000 -3.000000 2.000000 0.000000 0.000000 0.000000 0.000000 0.000000
-4.000000 -4.000000 2.000000 0.000000 -1.000000 0.000000 0.406250 0.843750
-4.000000 -4.000000 1.000000 0.000000 -1.000000 0.000000 0.406250 0.875000
-3.000000 -4.000000 1.000000 0.000000 -1.000000 0.000000 0.375000 0.875000
-3.000000 -4.000000 2.000000 -0.000000 -1.000000 -0.000000 0.375000 0.843750
-4.000000 -4.000000 1.000000 -0.000000 -0.000000 -1.000000 0.687500 0.847656
-4.000000 -3.000000 1.000000 -0.000000 -0.000000 -1.000000 0.656250 0.847656
-3.000000 -3.000000 1.000000 -0.000000 -0.000000 -1.000000 0.656250 0.816406
-3.000000 -4.000000 1.000000 -0.000000 0.000000 -1.000000 0.687500 0.816406
-5.000000 -4.000000 5.000000 -0.000000 -1.000000 -0.000000 0.437500 0.750000
-4.000000 -4.000000 5.000000 -0.000000 -1.000000 -0.000000 0.406250 0.750000
-4.000000 -4.000000 5.000000 1.000000 0.000000 0.000000 0.125000 0.812500
-4.000000 -3.000000 5.000000 1.000000 0.000000 0.000000 0.156250 0.812500
-3.000000 -4.000000 1.000000 0.000000 0.000000 0.000000 0.000000 0.000000
-3.000000 -3.000000 1.000000 0.000000 0.000000 0.000000 0.000000 0.000000
-3.000000 -3.000000 1.000000 0.000000 0.000000 0.000000 0.000000 0.000000
-3.000000 -4.000000 1.000000 0.000000 0.000000 0.000000 0.000000 0.000000
-3.000000 -3.000000 1.000000 1.000000 -0.000000 0.000000 0.562500 0.875000
-3.000000 -3.000000 2.000000 1.000000 -0.000000 0.000000 0.531250 0.875000
-3.000000 -4.000000 2.000000 1.000000 -0.000000 0.000000 0.531250 0.843750
-3.000000 -4.000000 1.000000 1.000000 -0.000000 0.000000 0.562500 0.843750
-3.000000 -3.000000 2.000000 0.000000 0.000000 0.000000 0.000000 0.000000
-3.000000 -3.000000 2.000000 0.000000 0.000000 0.000000 0.000000 0.000000
-3.000000 -4.000000 2.000000 0.000000 0.000000 0.000000 0.000000 0.000000
-3.000000 -4.000000 2.000000 0.000000 0.000000 0.000000 0.000000 0.000000
-4.000000 -4.000000 2.000000 0.000000 0.000000 0.000000 0.000000 0.000000
-4.000000 -4.000000 2.000000 0.000000 0.000000 0.000000 0.000000 0.000000
-5.000000 -4.000000 2.000000 -0.000000 -1.000000 -0.000000 0.437500 0.843750
-6.000000 -3.000000 5.000000 0.000000 1.000000 0.000000 0.281250 0.750000
-6.000000 -3.000000 6.000000 -0.000000 1.000000 0.000000 0.281250 0.718750
-6.000000 -4.000000 6.000000 0.000000 -1.000000 0.000000 0.468750 0.718750
-6.000000 -4.000000 5.000000 0.000000 -1.000000 0.000000 0.468750 0.750000
-7.000000 -7.000000 0.500000 0.000000 0.000000 1.000000 0.296875 0.484375
-7.000000 -1.000000 0.500000 0.000000 0.000000 1.000000 0.484375 0.484375
-7.500000 -0.500000 0.500000 0.000000 0.000000 1.000000 0.500000 0.500000
-7.500000 -7.500000 0.500000 -0.000000 0.000000 1.000000 0.281250 0.500000
-7.000000 -1.000000 1.000000 -1.000000 0.000000 0.000000 0.468750 0.718750
-7.000000 -1.000000 0.500000 -1.000000 0.000000 0.000000 0.484375 0.718750
-7.000000 -7.000000 0.500000 -1.000000 0.000000 0.000000 0.484375 0.906250
-7.000000 -7.000000 1.000000 -1.000000 0.000000 0.000000 0.468750 0.906250
8.000000 -7.000000 1.000000 1.000000 0.000000 -0.000000 0.894531 0.718750
8.000000 -7.000000 0.500000 1.000000 0.000000 -0.000000 0.878906 0.718750
8.000000 -1.000000 0.500000 1.000000 0.000000 -0.000000 0.878906 0.531250
8.000000 -1.000000 1.000000 1.000000 0.000000 0.000000 0.894531 0.531250
-7.000000 -7.000000 1.000000 0.000000 -1.000000 0.000000 0.857422 0.468750
-7.000000 -7.000000 0.500000 0.000000 -1.000000 0.000000 0.873047 0.468750
8.000000 -7.000000 0.500000 0.000000 -1.000000 0.000000 0.873047 0.937500
8.000000 -7.000000 1.000000 -0.000000 -1.000000 -0.000000 0.857422 0.937500
-5.000000 -3.000000 5.000000 0.000000 0.000000 -1.000000 0.343750 0.906250
-5.000000 -4.000000 5.000000 0.000000 0.000000 -1.000000 0.343750 0.875000
-6.000000 -4.000000 5.000000 0.000000 0.000000 -1.000000 0.375000 0.875000
-6.000000 -3.000000 5.000000 0.000000 0.000000 -1.000000 0.375000 0.906250
-5.000000 -4.000000 1.000000 0.000000 -1.000000 0.000000 0.437500 0.875000
-6.000000 -4.000000 2.000000 0.000000 -1.000000 0.000000 0.468750 0.843750
-6.000000 -4.000000 1.000000 0.000000 -1.000000 0.000000 0.468750 0.875000
-1.000000 -3.000000 7.000000 0.000000 -0.000000 1.000000 0.562500 0.750000
-1.000000 -4.000000 7.000000 0.000000 -0.000000 1.000000 0.593750 0.750000
1.000000 -4.000000 7.000000 0.000000 -0.000000 1.000000 0.593750 0.812500
1.000000 -3.000000 7.000000 0.000000 0.000000 1.000000 0.562500 0.812500
2.000000 -4.000000 7.000000 0.000000 -0.000000 1.000000 0.593750 0.843750
2.000000 -3.000000 7.000000 0.000000 0.000000 1.000000 0.562500 0.843750
-2.000000 -3.000000 6.000000 -1.000000 0.000000 0.000000 0.437500 0.531250
-2.000000 -4.000000 6.000000 -1.000000 0.000000 0.000000 0.406250 0.531250
-2.000000 -4.000000 7.000000 -1.000000 0.000000 0.000000 0.406250 0.500000
-2.000000 -3.000000 7.000000 -1.000000 -0.000000 -0.000000 0.437500 0.500000
1.000000 -4.000000 2.000000 0.000000 -1.000000 0.000000 0.531250 0.687500
1.000000 -4.000000 1.000000 0.000000 -1.000000 0.000000 0.531250 0.718750
2.000000 -4.000000 1.000000 0.000000 -1.000000 0.000000 0.500000 0.718750
2.000000 -4.000000 2.000000 -0.000000 -1.000000 -0.000000 0.500000 0.687500
-4.000000 -3.000000 1.000000 0.000000 1.000000 0.000000 0.343750 0.875000
-3.000000 -3.000000 2.000000 0.000000 1.000000 0.000000 0.375000 0.843750
-3.000000 -3.000000 1.000000 0.000000 1.000000 -0.000000 0.375000 0.875000
1.000000 -3.000000 6.000000 0.000000 1.000000 0.000000 0.093750 0.562500
1.000000 -3.000000 7.000000 0.000000 1.000000 0.000000 0.093750 0.531250
2.000000 -3.000000 7.000000 0.000000 1.000000 0.000000 0.125000 0.531250
2.000000 -3.000000 6.000000 0.000000 1.000000 -0.000000 0.125000 0.562500
-2.000000 -3.000000 1.000000 0.000000 0.000000 -1.000000 0.625000 0.718750
-1.000000 -3.000000 1.000000 0.000000 0.000000 -1.000000 0.625000 0.750000
-1.000000 -4.000000 1.000000 0.000000 0.000000 -1.000000 0.593750 0.750000
-2.000000 -4.000000 1.000000 0.000000 0.000000 -1.000000 0.593750 0.718750
-5.000000 -3.000000 1.000000 0.000000 0.000000 -1.000000 0.656250 0.878906
-5.000000 -4.000000 1.000000 0.000000 0.000000 -1.000000 0.687500 0.878906
-6.000000 -4.000000 1.000000 0.000000 0.000000 -1.000000 0.687500 0.910156
-6.000000 -3.000000 1.000000 0.000000 0.000000 -1.000000 0.656250 0.910156
-1.000000 -4.000000 2.000000 0.000000 -1.000000 0.000000 0.593750 0.687500
-1.000000 -4.000000 6.000000 0.000000 -1.000000 0.000000 0.593750 0.562500
-2.000000 -4.000000 6.000000 0.000000 -1.000000 0.000000 0.625000 0.562500
-2.000000 -4.000000 2.000000 0.000000 -1.000000 0.000000 0.625000 0.687500
-2.000000 -4.000000 2.000000 -1.000000 -0.000000 -0.000000 0.406250 0.656250
-2.000000 -3.000000 2.000000 -1.000000 -0.000000 0.000000 0.437500 0.656250
-6.000000 -4.000000 1.000000 -1.000000 -0.000000 -0.000000 0.625000 0.875000
-6.000000 -4.000000 2.000000 -1.000000 -0.000000 -0.000000 0.593750 0.875000
-6.000000 -3.000000 2.000000 -1.000000 -0.000000 -0.000000 0.593750 0.843750
-6.000000 -3.000000 1.000000 -1.000000 -0.000000 0.000000 0.625000 0.843750
-1.000000 -3.000000 2.000000 1.000000 -0.000000 0.000000 0.656250 0.722656
-1.000000 -3.000000 6.000000 1.000000 -0.000000 0.000000 0.656250 0.847656
-1.000000 -4.000000 6.000000 1.000000 -0.000000 0.000000 0.625000 0.847656
-1.000000 -4.000000 2.000000 1.000000 -0.000000 0.000000 0.625000 0.722656
-2.000000 -3.000000 1.000000 -1.000000 0.000000 0.000000 0.437500 0.687500
-2.000000 -4.000000 1.000000 -1.000000 0.000000 0.000000 0.406250 0.687500
-5.000000 -3.000000 1.000000 0.000000 1.000000 0.000000 0.312500 0.875000
2.000000 -3.000000 2.000000 -0.000000 1.000000 0.000000 0.125000 0.687500
1.000000 -3.000000 2.000000 -0.000000 1.000000 0.000000 0.093750 0.687500
-2.000000 -3.000000 2.000000 0.000000 1.000000 0.000000 0.000000 0.687500
-2.000000 -3.000000 6.000000 0.000000 1.000000 0.000000 0.000000 0.562500
-1.000000 -3.000000 6.000000 0.000000 1.000000 0.000000 0.031250 0.562500
-1.000000 -3.000000 2.000000 0.000000 1.000000 -0.000000 0.031250 0.687500
-4.000000 -4.000000 2.000000 1.000000 0.000000 0.000000 0.125000 0.718750
-4.000000 -3.000000 2.000000 1.000000 0.000000 0.000000 0.156250 0.718750
-1.000000 -3.000000 7.000000 0.000000 1.000000 0.000000 0.031250 0.531250
7.000000 -3.000000 2.000000 1.000000 0.000000 0.000000 0.125000 0.750000
7.000000 -4.000000 2.000000 1.000000 0.000000 0.000000 0.093750 0.750000
7.000000 -4.000000 1.000000 1.000000 0.000000 0.000000 0.093750 0.718750
7.000000 -3.000000 1.000000 1.000000 0.000000 -0.000000 0.125000 0.718750
1.000000 -4.000000 7.000000 0.000000 -1.000000 0.000000 0.531250 0.531250
1.000000 -4.000000 6.000000 0.000000 -1.000000 0.000000 0.531250 0.562500
2.000000 -4.000000 6.000000 0.000000 -1.000000 0.000000 0.500000 0.562500
2.000000 -4.000000 7.000000 -0.000000 -1.000000 -0.000000 0.500000 0.531250
-1.000000 -3.000000 1.000000 0.000000 1.000000 0.000000 0.031250 0.718750
1.000000 -3.000000 1.000000 0.000000 1.000000 -0.000000 0.093750 0.718750
2.000000 -4.000000 6.000000 1.000000 0.000000 0.000000 0.062500 0.875000
2.000000 -3.000000 6.000000 1.000000 0.000000 0.000000 0.093750 0.875000
2.000000 -3.000000 7.000000 1.000000 0.000000 0.000000 0.093750 0.906250
2.000000 -4.000000 7.000000 1.000000 -0.000000 0.000000 0.062500 0.906250
2.000000 -3.000000 1.000000 0.000000 1.000000 -0.000000 0.125000 0.718750
-2.000000 -3.000000 7.000000 0.000000 0.000000 1.000000 0.562500 0.718750
-2.000000 -4.000000 7.000000 0.000000 0.000000 1.000000 0.593750 0.718750
-6.000000 -3.000000 1.000000 0.000000 1.000000 0.000000 0.281250 0.875000
-6.000000 -3.000000 2.000000 -0.000000 1.000000 0.000000 0.281250 0.843750
-2.000000 -3.000000 1.000000 0.000000 1.000000 -0.000000 0.000000 0.718750
-5.000000 -4.000000 2.000000 -0.000000 0.000000 1.000000 0.312500 0.875000
-5.000000 -3.000000 2.000000 -0.000000 0.000000 1.000000 0.312500 0.906250
-6.000000 -3.000000 2.000000 -0.000000 0.000000 1.000000 0.281250 0.906250
-6.000000 -4.000000 2.000000 -0.000000 0.000000 1.000000 0.281250 0.875000
-4.000000 -3.000000 2.000000 0.000000 -0.000000 1.000000 0.375000 0.906250
-4.000000 -4.000000 2.000000 0.000000 -0.000000 1.000000 0.375000 0.875000
-3.000000 -4.000000 2.000000 0.000000 -0.000000 1.000000 0.406250 0.875000
-3.000000 -3.000000 2.000000 0.000000 0.000000 1.000000 0.406250 0.906250
-2.000000 -3.000000 7.000000 -0.000000 1.000000 0.000000 0.000000 0.531250
1.000000 -3.000000 2.000000 -1.000000 0.000000 0.000000 0.187500 0.843750
1.000000 -4.000000 2.000000 -1.000000 0.000000 0.000000 0.156250 0.843750
1.000000 -4.000000 6.000000 -1.000000 0.000000 0.000000 0.156250 0.718750
1.000000 -3.000000 6.000000 -1.000000 -0.000000 -0.000000 0.187500 0.718750
7.000000 -3.000000 6.000000 1.000000 0.000000 0.000000 0.125000 0.875000
7.000000 -4.000000 6.000000 1.000000 -0.000000 0.000000 0.093750 0.875000
6.000000 -3.000000 1.000000 0.000000 1.000000 0.000000 0.375000 0.687500
6.000000 -3.000000 2.000000 0.000000 1.000000 0.000000 0.375000 0.656250
7.000000 -3.000000 2.000000 0.000000 1.000000 0.000000 0.406250 0.656250
7.000000 -3.000000 1.000000 0.000000 1.000000 -0.000000 0.406250 0.687500
1.000000 -4.000000 1.000000 -0.000000 -0.000000 -1.000000 0.593750 0.812500
1.000000 -3.000000 1.000000 -0.000000 -0.000000 -1.000000 0.625000 0.812500
2.000000 -3.000000 1.000000 -0.000000 -0.000000 -1.000000 0.625000 0.843750
2.000000 -4.000000 1.000000 -0.000000 0.000000 -1.000000 0.593750 0.843750
-1.000000 -4.000000 7.000000 -0.000000 -1.000000 -0.000000 0.593750 0.531250
-2.000000 -4.000000 7.000000 0.000000 -1.000000 -0.000000 0.625000 0.531250
4.000000 -4.000000 2.000000 0.000000 -1.000000 0.000000 0.218750 0.687500
4.000000 -4.000000 1.000000 0.000000 -1.000000 0.000000 0.218750 0.718750
6.000000 -4.000000 1.000000 0.000000 -1.000000 0.000000 0.156250 0.718750
6.000000 -4.000000 2.000000 -0.000000 -1.000000 -0.000000 0.156250 0.687500
4.000000 -3.000000 2.000000 0.000000 -0.000000 1.000000 0.156250 0.843750
4.000000 -4.000000 2.000000 0.000000 -0.000000 1.000000 0.187500 0.843750
6.000000 -4.000000 2.000000 0.000000 -0.000000 1.000000 0.187500 0.906250
6.000000 -3.000000 2.000000 0.000000 0.000000 1.000000 0.156250 0.906250
3.000000 -4.000000 2.000000 0.000000 -1.000000 0.000000 0.250000 0.687500
3.000000 -4.000000 1.000000 0.000000 -1.000000 0.000000 0.250000 0.718750
6.000000 -4.000000 1.000000 -0.000000 -0.000000 -1.000000 0.500000 0.812500
6.000000 -3.000000 1.000000 -0.000000 -0.000000 -1.000000 0.531250 0.812500
7.000000 -3.000000 1.000000 -0.000000 -0.000000 -1.000000 0.531250 0.843750
7.000000 -4.000000 1.000000 -0.000000 0.000000 -1.000000 0.500000 0.843750
7.000000 -4.000000 2.000000 -0.000000 -1.000000 -0.000000 0.125000 0.687500
7.000000 -4.000000 6.000000 -0.000000 -1.000000 -0.000000 0.125000 0.562500
6.000000 -4.000000 6.000000 0.000000 -1.000000 -0.000000 0.156250 0.562500
6.000000 -4.000000 7.000000 0.000000 -1.000000 0.000000 0.156250 0.531250
7.000000 -4.000000 7.000000 -0.000000 -1.000000 -0.000000 0.125000 0.531250
-1.000000 -4.000000 6.000000 -0.000000 -0.000000 -1.000000 0.500000 0.843750
-1.000000 -3.000000 6.000000 -0.000000 -0.000000 -1.000000 0.531250 0.843750
1.000000 -3.000000 6.000000 -0.000000 -0.000000 -1.000000 0.531250 0.906250
1.000000 -4.000000 6.000000 -0.000000 0.000000 -1.000000 0.500000 0.906250
-1.000000 -3.000000 2.000000 0.000000 -0.000000 1.000000 0.218750 0.843750
-1.000000 -4.000000 2.000000 0.000000 -0.000000 1.000000 0.250000 0.843750
1.000000 -4.000000 2.000000 0.000000 -0.000000 1.000000 0.250000 0.906250
1.000000 -3.000000 2.000000 0.000000 0.000000 1.000000 0.218750 0.906250
2.000000 -3.000000 2.000000 1.000000 0.000000 0.000000 0.093750 0.750000
2.000000 -4.000000 2.000000 1.000000 0.000000 0.000000 0.062500 0.750000
2.000000 -4.000000 1.000000 1.000000 0.000000 0.000000 0.062500 0.718750
2.000000 -3.000000 1.000000 1.000000 0.000000 -0.000000 0.093750 0.718750
6.000000 -3.000000 2.000000 -1.000000 0.000000 0.000000 0.218750 0.843750
6.000000 -4.000000 2.000000 -1.000000 0.000000 0.000000 0.187500 0.843750
6.000000 -4.000000 6.000000 -1.000000 0.000000 0.000000 0.187500 0.718750
6.000000 -3.000000 6.000000 -1.000000 -0.000000 -0.000000 0.218750 0.718750
4.000000 -4.000000 1.000000 -0.000000 -0.000000 -1.000000 0.500000 0.750000
4.000000 -3.000000 1.000000 -0.000000 -0.000000 -1.000000 0.531250 0.750000
4.000000 -4.000000 6.000000 -0.000000 -0.000000 -1.000000 0.187500 0.843750
4.000000 -3.000000 6.000000 -0.000000 -0.000000 -1.000000 0.218750 0.843750
6.000000 -3.000000 6.000000 -0.000000 -0.000000 -1.000000 0.218750 0.906250
6.000000 -4.000000 6.000000 -0.000000 0.000000 -1.000000 0.187500 0.906250
-2.000000 -4.000000 1.000000 0.000000 -1.000000 0.000000 0.625000 0.718750
-1.000000 -4.000000 1.000000 0.000000 -1.000000 0.000000 0.593750 0.718750
4.000000 -4.000000 7.000000 0.000000 -1.000000 0.000000 0.218750 0.531250
4.000000 -4.000000 6.000000 0.000000 -1.000000 0.000000 0.218750 0.562500
7.000000 -3.000000 7.000000 1.000000 0.000000 0.000000 0.125000 0.906250
7.000000 -4.000000 7.000000 1.000000 -0.000000 0.000000 0.093750 0.906250
6.000000 -3.000000 6.000000 -0.000000 1.000000 0.000000 0.375000 0.531250
7.000000 -3.000000 6.000000 0.000000 1.000000 0.000000 0.406250 0.531250
4.000000 -3.000000 1.000000 0.000000 1.000000 0.000000 0.312500 0.687500
4.000000 -3.000000 2.000000 0.000000 1.000000 0.000000 0.312500 0.656250
3.000000 -4.000000 6.000000 -0.000000 -1.000000 -0.000000 0.250000 0.562500
3.000000 -4.000000 7.000000 0.000000 -1.000000 -0.000000 0.250000 0.531250
4.000000 -3.000000 6.000000 -0.000000 1.000000 0.000000 0.312500 0.531250
3.000000 -3.000000 6.000000 -0.000000 1.000000 0.000000 0.281250 0.531250
3.000000 -3.000000 7.000000 -0.000000 1.000000 0.000000 0.281250 0.500000
4.000000 -3.000000 7.000000 0.000000 1.000000 0.000000 0.312500 0.500000
3.000000 -3.000000 6.000000 -1.000000 0.000000 0.000000 0.468750 0.531250
3.000000 -4.000000 6.000000 -1.000000 0.000000 0.000000 0.437500 0.531250
3.000000 -4.000000 7.000000 -1.000000 0.000000 0.000000 0.437500 0.500000
3.000000 -3.000000 7.000000 -1.000000 -0.000000 -0.000000 0.468750 0.500000
4.000000 -3.000000 2.000000 1.000000 -0.000000 0.000000 0.562500 0.718750
4.000000 -3.000000 6.000000 1.000000 -0.000000 0.000000 0.562500 0.843750
4.000000 -4.000000 6.000000 1.000000 -0.000000 0.000000 0.531250 0.843750
4.000000 -4.000000 2.000000 1.000000 -0.000000 0.000000 0.531250 0.718750
7.000000 -4.000000 1.000000 0.000000 -1.000000 0.000000 0.125000 0.718750
6.000000 -3.000000 7.000000 0.000000 1.000000 0.000000 0.375000 0.500000
4.000000 -3.000000 7.000000 0.000000 -0.000000 1.000000 0.218750 0.750000
4.000000 -4.000000 7.000000 0.000000 -0.000000 1.000000 0.250000 0.750000
6.000000 -4.000000 7.000000 0.000000 -0.000000 1.000000 0.250000 0.812500
6.000000 -3.000000 7.000000 0.000000 0.000000 1.000000 0.218750 0.812500
7.000000 -4.000000 7.000000 0.000000 -0.000000 1.000000 0.250000 0.843750
7.000000 -3.000000 7.000000 0.000000 0.000000 1.000000 0.218750 0.843750
7.000000 -3.000000 7.000000 0.000000 1.000000 0.000000 0.406250 0.500000
3.000000 -3.000000 2.000000 0.000000 1.000000 -0.000000 0.281250 0.656250
3.000000 -3.000000 1.000000 0.000000 1.000000 -0.000000 0.281250 0.687500
3.000000 -4.000000 2.000000 -1.000000 0.000000 0.000000 0.437500 0.656250
3.000000 -3.000000 2.000000 -1.000000 0.000000 0.000000 0.468750 0.656250
3.000000 -3.000000 1.000000 -1.000000 0.000000 0.000000 0.468750 0.687500
3.000000 -4.000000 1.000000 -1.000000 0.000000 0.000000 0.437500 0.687500
3.000000 -3.000000 7.000000 0.000000 0.000000 1.000000 0.218750 0.718750
3.000000 -4.000000 7.000000 0.000000 0.000000 1.000000 0.250000 0.718750
3.000000 -3.000000 1.000000 0.000000 0.000000 -1.000000 0.531250 0.718750
3.000000 -4.000000 1.000000 0.000000 0.000000 -1.000000 0.500000 0.718750
8.000000 -7.000000 0.500000 0.000000 0.000000 1.000000 0.296875 0.015625
8.500000 -7.500000 0.500000 0.000000 -0.000000 1.000000 0.281250 0.000000
8.500000 -7.500000 0.500000 0.000000 -1.000000 0.000000 0.957031 0.000000
-7.500000 -7.500000 0.500000 0.000000 -1.000000 0.000000 0.957032 0.500000
-7.500000 -7.500000 0.000000 0.000000 -1.000000 0.000000 0.941407 0.500000
8.500000 -7.500000 0.000000 0.000000 -1.000000 0.000000 0.941406 0.000000
-7.500000 -7.500000 0.500000 -1.000000 0.000000 0.000000 0.468750 0.718750
-7.500000 -0.500000 0.500000 -1.000000 0.000000 0.000000 0.468750 0.500000
-7.500000 -0.500000 0.000000 -1.000000 0.000000 0.000000 0.484375 0.500000
-7.500000 -7.500000 0.000000 -1.000000 0.000000 0.000000 0.484375 0.718750
8.500000 -0.500000 0.500000 1.000000 0.000000 0.000000 0.265625 0.531250
8.500000 -7.500000 0.500000 1.000000 0.000000 0.000000 0.265625 0.750000
8.500000 -7.500000 0.000000 1.000000 0.000000 0.000000 0.250000 0.750000
8.500000 -0.500000 0.000000 1.000000 0.000000 -0.000000 0.250000 0.531250
-7.000000 -7.000000 0.000000 0.000000 0.000000 -1.000000 0.841797 0.953125
8.000000 -7.000000 0.000000 0.000000 0.000000 -1.000000 0.841797 0.484375
8.500000 -7.500000 0.000000 0.000000 0.000000 -1.000000 0.857422 0.468750
-7.500000 -7.500000 0.000000 0.000000 0.000000 -1.000000 0.857422 0.968750
8.000000 -1.000000 0.500000 0.000000 -0.000000 1.000000 0.484375 0.015625
8.500000 -0.500000 0.500000 0.000000 0.000000 1.000000 0.500000 0.000000
-8.000000 -1.000000 0.000000 -1.000000 -0.000000 -0.000000 0.625000 0.722656
-8.000000 -1.000000 6.000000 -1.000000 -0.000000 -0.000000 0.625000 0.535156
-8.000000 1.000000 6.000000 -1.000000 -0.000000 -0.000000 0.687500 0.535156
-8.000000 1.000000 0.000000 -1.000000 -0.000000 0.000000 0.687500 0.722656
9.000000 -1.000000 6.000000 1.000000 0.000000 0.000000 0.000000 0.906250
9.000000 1.000000 6.000000 1.000000 0.000000 0.000000 0.062500 0.906250
9.000000 1.000000 6.125000 1.000000 0.000000 0.000000 0.062500 0.910156
9.000000 -1.000000 6.125000 1.000000 -0.000000 0.000000 0.000000 0.910156
9.000000 1.000000 0.000000 1.000000 -0.000000 0.000000 0.062500 0.718750
9.000000 -1.000000 0.000000 1.000000 -0.000000 0.000000 0.000000 0.718750
9.000000 -1.000000 0.000000 0.000000 -1.000000 0.000000 0.500000 0.000000
9.000000 -1.000000 6.000000 0.000000 -1.000000 0.000000 0.687500 0.000000
-8.000000 -1.000000 6.000000 0.000000 -1.000000 0.000000 0.687500 0.531250
-8.000000 -1.000000 0.000000 0.000000 -1.000000 0.000000 0.500000 0.531250
9.000000 1.000000 6.125000 0.000000 0.000000 1.000000 0.941406 0.000000
-8.000000 1.000000 6.125000 0.000000 0.000000 1.000000 0.941406 0.531250
-8.000000 -1.000000 6.125000 0.000000 0.000000 1.000000 0.878906 0.531250
9.000000 -1.000000 6.125000 0.000000 -0.000000 1.000000 0.878906 0.000000
9.000000 -1.000000 6.125000 -0.000000 -1.000000 -0.000000 0.691406 0.000000
-8.000000 -1.000000 6.125000 0.000000 -1.000000 -0.000000 0.691406 0.531250
-8.000000 -1.000000 6.125000 -1.000000 0.000000 0.000000 0.625000 0.531250
-8.000000 1.000000 6.125000 -1.000000 -0.000000 -0.000000 0.687500 0.531250
8.999999 -10.187500 0.000000 -0.000000 -1.000000 0.000000 0.962891 0.000000
-8.000000 -10.187499 0.000000 -0.000000 -1.000000 0.000000 0.962891 0.531250
-8.000000 -10.187499 -0.187500 -0.000000 -1.000000 0.000000 0.957032 0.531250
8.999999 -10.187500 -0.187500 -0.000000 -1.000000 0.000000 0.957032 0.000000
8.999999 -10.187500 -0.187500 -0.000000 0.000000 1.000000 0.841797 0.468750
-8.000000 -10.187499 -0.187500 -0.000000 0.000000 1.000000 0.841797 1.000000
-8.000000 -15.000000 -0.187500 -0.000000 0.000000 1.000000 0.691406 1.000000
8.999999 -15.000000 -0.187500 0.000000 -0.000000 1.000000 0.691406 0.468750
-7.999999 -1.000000 0.000000 0.000000 -0.000000 1.000000 0.000000 0.000000
-8.000000 -9.999999 0.000000 0.000000 -0.000000 1.000000 0.281250 0.000000
8.999999 -10.000000 0.000000 0.000000 -0.000000 1.000000 0.281250 0.531250
9.000000 -1.000001 0.000000 0.000000 0.000000 1.000000 0.000000 0.531250
-8.000000 -9.999999 0.062500 0.000000 -0.000000 1.000000 0.970704 0.531250
-8.000000 -10.187499 0.062500 0.000000 -0.000000 1.000000 0.964844 0.531250
8.999999 -10.187500 0.062500 0.000000 -0.000000 1.000000 0.964844 0.000000
8.999999 -10.000000 0.062500 0.000000 0.000000 1.000000 0.970704 0.000000
8.999999 -10.000000 0.000000 0.000000 1.000000 0.000000 0.970704 0.531250
-8.000000 -9.999999 0.000000 0.000000 1.000000 0.000000 0.970704 0.000000
-8.000000 -9.999999 0.062500 0.000000 1.000000 0.000000 0.972657 0.000000
8.999999 -10.000000 0.062500 0.000000 1.000000 0.000000 0.972657 0.531250
8.999999 -10.187500 0.062500 -0.000000 -1.000000 -0.000000 0.964844 0.000000
-8.000000 -10.187499 0.062500 -0.000000 -1.000000 0.000000 0.964844 0.531250
3 0 1 2
3 0 2 3
3 4 5 6
3 4 6 7
3 8 9 10
3 8 10 11
3 12 13 14
3 12 14 15
3 16 17 18
3 16 18 19
3 20 21 22
3 20 22 23
3 24 25 26
3 24 26 27
3 28 29 30
3 28 30 31
3 32 33 34
3 32 34 35
3 31 30 24
3 31 24 27
3 36 37 38
3 36 38 39
3 40 41 42
3 40 42 43
3 44 45 46
3 44 46 47
3 48 49 50
3 48 50 51
3 52 53 29
3 52 29 28
3 54 55 56
3 54 56 57
3 58 59 60
3 58 60 61
3 35 34 5
3 35 5 4
3 62 63 13
3 62 13 12
3 11 10 26
3 11 26 25
3 64 65 45
3 64 45 44
3 66 67 68
3 66 68 69
3 70 71 72
3 70 72 73
3 53 52 74
3 53 74 75
3 67 75 74
3 67 74 68
3 76 66 69
3 76 69 77
3 78 79 76
3 78 76 77
3 80 54 63
3 80 63 62
3 5 34 81
3 5 81 82
3 62 12 83
3 62 83 84
3 85 86 87
3 85 87 88
3 89 90 91
3 89 91 92
3 93 94 95
3 93 95 96
3 97 98 99
3 97 99 100
3 101 102 103
3 101 103 104
3 105 80 106
3 105 106 107
3 108 109 110
3 108 110 111
3 111 110 112
3 111 112 113
3 114 115 116
3 114 116 117
3 118 119 120
3 118 120 121
3 122 32 123
3 122 123 124
3 125 126 127
3 125 127 128
3 129 130 131
3 129 131 132
3 133 134 135
3 133 135 136
3 137 138 139
3 137 139 140
3 79 78 9
3 79 9 8
3 141 115 114
3 141 114 142
3 143 144 145
3 143 145 146
3 147 148 149
3 147 149 150
3 141 142 151
3 141 151 152
3 55 54 80
3 55 80 105
3 153 33 32
3 153 32 122
3 154 155 125
3 154 125 128
3 156 157 158
3 156 158 159
3 160 161 65
3 160 65 64
3 158 162 126
3 158 126 125
3 163 164 165
3 163 165 166
3 167 168 169
3 167 169 170
3 171 159 155
3 171 155 172
3 173 174 175
3 173 175 176
3 172 155 154
3 172 154 177
3 133 59 58
3 133 58 134
3 108 178 179
3 108 179 109
3 33 153 180
3 33 180 181
3 156 159 171
3 156 171 182
3 183 184 185
3 183 185 186
3 187 188 189
3 187 189 190
3 158 157 191
3 158 191 162
3 118 121 169
3 118 169 168
3 192 193 194
3 192 194 195
3 164 163 196
3 164 196 197
3 198 199 200
3 198 200 201
3 202 203 204
3 202 204 205
3 139 138 206
3 139 206 207
3 208 209 210
3 208 210 211
3 212 213 214
3 212 214 215
3 208 216 217
3 208 217 209
3 218 219 220
3 218 220 221
3 211 222 223
3 211 223 224
3 225 224 223
3 225 223 226
3 227 228 229
3 227 229 230
3 131 130 203
3 131 203 202
3 206 138 168
3 206 168 167
3 231 232 233
3 231 233 234
3 235 236 237
3 235 237 238
3 239 240 241
3 239 241 242
3 243 244 219
3 243 219 218
3 245 246 247
3 245 247 248
3 137 140 249
3 137 249 250
3 137 250 119
3 137 119 118
3 251 252 224
3 251 224 225
3 197 196 253
3 197 253 254
3 200 199 255
3 200 255 256
3 257 258 199
3 257 199 198
3 259 252 251
3 259 251 260
3 261 262 263
3 261 263 264
3 265 266 267
3 265 267 268
3 269 270 271
3 269 271 272
3 211 210 273
3 211 273 222
3 261 264 274
3 261 274 255
3 236 235 174
3 236 174 173
3 275 276 277
3 275 277 278
3 278 277 279
3 278 279 280
3 255 274 281
3 255 281 256
3 282 258 257
3 282 257 283
3 284 285 286
3 284 286 287
3 275 288 289
3 275 289 276
3 282 262 261
3 282 261 258
3 284 266 265
3 284 265 285
3 208 252 259
3 208 259 216
3 290 244 243
3 290 243 291
3 292 85 88
3 292 88 293
3 294 295 296
3 294 296 297
3 298 299 300
3 298 300 301
3 302 303 304
3 302 304 305
3 306 307 308
3 306 308 309
3 310 292 293
3 310 293 311
3 312 313 314
3 312 314 315
3 316 317 318
3 316 318 319
3 320 317 316
3 320 316 321
3 322 323 324
3 322 324 325
3 326 327 328
3 326 328 329
3 324 323 330
3 324 330 331
3 314 313 332
3 314 332 333
3 334 335 336
3 334 336 337
3 338 339 340
3 338 340 341
3 342 343 344
3 342 344 345
3 346 347 348
3 346 348 349
3 350 351 352
3 350 352 353
3 335 334 354
3 335 354 355
