ply
format ascii 1.0
comment Created by Blender 2.80 (sub 75) - www.blender.org, source file: 'red_room.blend'
element vertex 186
property float x
property float y
property float z
property float nx
property float ny
property float nz
property float s
property float t
element face 84
property list uchar uint vertex_indices
end_header
0.250000 -0.093750 0.062500 0.000000 0.000000 -1.000000 -0.250000 -0.093750
0.250000 -0.187500 0.062500 0.000000 0.000000 -1.000000 -0.250000 -0.187500
-0.250000 -0.187500 0.062500 0.000000 0.000000 -1.000000 0.250000 -0.187500
-0.250000 -0.093750 0.062500 0.000000 0.000000 -1.000000 0.250000 -0.093750
0.250000 -0.093750 0.062500 1.000000 -0.000000 0.000000 -0.093750 0.062500
0.250000 -0.093750 0.156250 1.000000 -0.000000 0.000000 -0.093750 0.156250
0.250000 -0.187500 0.156250 1.000000 -0.000000 0.000000 -0.187500 0.156250
0.250000 -0.187500 0.062500 1.000000 -0.000000 0.000000 -0.187500 0.062500
-0.250000 -0.093750 0.062500 0.000000 1.000000 0.000000 0.250000 0.062500
-0.250000 -0.093750 0.156250 0.000000 1.000000 0.000000 0.250000 0.156250
0.250000 -0.093750 0.156250 0.000000 1.000000 0.000000 -0.250000 0.156250
0.250000 -0.093750 0.062500 0.000000 1.000000 -0.000000 -0.250000 0.062500
-0.250000 -0.187500 0.062500 -1.000000 -0.000000 -0.000000 0.187500 0.062500
-0.250000 -0.187500 0.156250 -1.000000 -0.000000 -0.000000 0.187500 0.156250
-0.250000 -0.093750 0.156250 -1.000000 -0.000000 -0.000000 0.093750 0.156250
-0.250000 -0.093750 0.062500 -1.000000 -0.000000 0.000000 0.093750 0.062500
0.250000 -0.187500 0.156250 0.000000 0.000000 1.000000 0.250000 -0.187500
0.250000 -0.093750 0.156250 0.000000 0.000000 1.000000 0.250000 -0.093750
-0.250000 -0.093750 0.156250 0.000000 0.000000 1.000000 -0.250000 -0.093750
-0.250000 -0.187500 0.156250 -0.000000 0.000000 1.000000 -0.250000 -0.187500
0.250000 -0.187500 0.062500 -0.000000 -1.000000 -0.000000 0.250000 0.062500
0.250000 -0.187500 0.156250 -0.000000 -1.000000 -0.000000 0.250000 0.156250
-0.250000 -0.187500 0.156250 -0.000000 -1.000000 -0.000000 -0.250000 0.156250
-0.250000 -0.187500 0.062500 -0.000000 -1.000000 0.000000 -0.250000 0.062500
0.093750 -0.250000 0.000000 -1.000000 -0.000000 -0.000000 0.250000 0.000000
0.093750 -0.250000 0.093750 -1.000000 -0.000000 -0.000000 0.250000 0.093750
0.093750 0.250000 0.093750 -1.000000 -0.000000 -0.000000 -0.250000 0.093750
0.093750 0.250000 0.000000 -1.000000 -0.000000 0.000000 -0.250000 0.000000
0.093750 0.250000 0.000000 0.000000 1.000000 0.000000 -0.093750 0.000000
0.093750 0.250000 0.093750 0.000000 1.000000 0.000000 -0.093750 0.093750
0.187500 0.250000 0.093750 0.000000 1.000000 0.000000 -0.187500 0.093750
0.187500 0.250000 0.000000 0.000000 1.000000 -0.000000 -0.187500 0.000000
0.187500 0.250000 0.000000 1.000000 -0.000000 0.000000 0.250000 0.000000
0.187500 0.250000 0.093750 1.000000 -0.000000 0.000000 0.250000 0.093750
0.187500 -0.250000 0.093750 1.000000 -0.000000 0.000000 -0.250000 0.093750
0.187500 -0.250000 0.000000 1.000000 -0.000000 0.000000 -0.250000 0.000000
0.187500 -0.250000 0.000000 0.000000 -1.000000 0.000000 0.187500 0.000000
0.187500 -0.250000 0.093750 0.000000 -1.000000 0.000000 0.187500 0.093750
0.093750 -0.250000 0.093750 0.000000 -1.000000 0.000000 0.093750 0.093750
0.093750 -0.250000 0.000000 0.000000 -1.000000 0.000000 0.093750 0.000000
0.093750 0.250000 0.000000 0.000000 0.000000 -1.000000 -0.093750 0.250000
0.187500 0.250000 0.000000 0.000000 0.000000 -1.000000 -0.187500 0.250000
0.187500 -0.250000 0.000000 0.000000 0.000000 -1.000000 -0.187500 -0.250000
0.093750 -0.250000 0.000000 0.000000 0.000000 -1.000000 -0.093750 -0.250000
0.187500 0.250000 0.093750 0.000000 0.000000 1.000000 0.187500 0.250000
0.093750 0.250000 0.093750 0.000000 0.000000 1.000000 0.093750 0.250000
0.093750 -0.250000 0.093750 0.000000 0.000000 1.000000 0.093750 -0.250000
0.187500 -0.250000 0.093750 0.000000 -0.000000 1.000000 0.187500 -0.250000
-0.187500 -0.250000 0.000000 -1.000000 -0.000000 -0.000000 0.250000 0.000000
-0.187500 -0.250000 0.093750 -1.000000 -0.000000 -0.000000 0.250000 0.093750
-0.187500 0.250000 0.093750 -1.000000 -0.000000 -0.000000 -0.250000 0.093750
-0.187500 0.250000 0.000000 -1.000000 -0.000000 0.000000 -0.250000 0.000000
-0.187500 0.250000 0.000000 0.000000 1.000000 0.000000 0.187500 0.000000
-0.187500 0.250000 0.093750 0.000000 1.000000 0.000000 0.187500 0.093750
-0.093750 0.250000 0.093750 0.000000 1.000000 0.000000 0.093750 0.093750
-0.093750 0.250000 0.000000 0.000000 1.000000 -0.000000 0.093750 0.000000
-0.093750 0.250000 0.000000 1.000000 -0.000000 0.000000 0.250000 0.000000
-0.093750 0.250000 0.093750 1.000000 -0.000000 0.000000 0.250000 0.093750
-0.093750 -0.250000 0.093750 1.000000 -0.000000 0.000000 -0.250000 0.093750
-0.093750 -0.250000 0.000000 1.000000 -0.000000 0.000000 -0.250000 0.000000
-0.093750 -0.250000 0.000000 0.000000 -1.000000 0.000000 -0.093750 0.000000
-0.093750 -0.250000 0.093750 0.000000 -1.000000 0.000000 -0.093750 0.093750
-0.187500 -0.250000 0.093750 0.000000 -1.000000 0.000000 -0.187500 0.093750
-0.187500 -0.250000 0.000000 0.000000 -1.000000 0.000000 -0.187500 0.000000
-0.187500 0.250000 0.000000 0.000000 0.000000 -1.000000 0.187500 0.250000
-0.093750 0.250000 0.000000 0.000000 0.000000 -1.000000 0.093750 0.250000
-0.093750 -0.250000 0.000000 0.000000 0.000000 -1.000000 0.093750 -0.250000
-0.187500 -0.250000 0.000000 0.000000 0.000000 -1.000000 0.187500 -0.250000
-0.093750 0.250000 0.093750 0.000000 0.000000 1.000000 -0.093750 0.250000
-0.187500 0.250000 0.093750 0.000000 0.000000 1.000000 -0.187500 0.250000
-0.187500 -0.250000 0.093750 0.000000 0.000000 1.000000 -0.187500 -0.250000
-0.093750 -0.250000 0.093750 0.000000 -0.000000 1.000000 -0.093750 -0.250000
-0.250000 0.187500 0.062500 0.000000 1.000000 0.000000 0.250000 0.062500
-0.250000 0.187500 0.156250 0.000000 1.000000 0.000000 0.250000 0.156250
0.250000 0.187500 0.156250 0.000000 1.000000 0.000000 -0.250000 0.156250
0.250000 0.187500 0.062500 0.000000 1.000000 -0.000000 -0.250000 0.062500
0.250000 0.187500 0.062500 1.000000 -0.000000 0.000000 0.187500 0.062500
0.250000 0.187500 0.156250 1.000000 -0.000000 0.000000 0.187500 0.156250
0.250000 0.093750 0.156250 1.000000 -0.000000 0.000000 0.093750 0.156250
0.250000 0.093750 0.062500 1.000000 -0.000000 0.000000 0.093750 0.062500
0.250000 0.093750 0.062500 -0.000000 -1.000000 -0.000000 0.250000 0.062500
0.250000 0.093750 0.156250 -0.000000 -1.000000 -0.000000 0.250000 0.156250
-0.250000 0.093750 0.156250 -0.000000 -1.000000 -0.000000 -0.250000 0.156250
-0.250000 0.093750 0.062500 -0.000000 -1.000000 0.000000 -0.250000 0.062500
-0.250000 0.093750 0.062500 -1.000000 -0.000000 -0.000000 -0.093750 0.062500
-0.250000 0.093750 0.156250 -1.000000 -0.000000 -0.000000 -0.093750 0.156250
-0.250000 0.187500 0.156250 -1.000000 -0.000000 -0.000000 -0.187500 0.156250
-0.250000 0.187500 0.062500 -1.000000 -0.000000 0.000000 -0.187500 0.062500
0.250000 0.187500 0.062500 0.000000 0.000000 -1.000000 -0.250000 0.187500
0.250000 0.093750 0.062500 0.000000 0.000000 -1.000000 -0.250000 0.093750
-0.250000 0.093750 0.062500 0.000000 0.000000 -1.000000 0.250000 0.093750
-0.250000 0.187500 0.062500 0.000000 0.000000 -1.000000 0.250000 0.187500
0.250000 0.093750 0.156250 -0.000000 0.000000 1.000000 0.250000 0.093750
0.250000 0.187500 0.156250 -0.000000 0.000000 1.000000 0.250000 0.187500
-0.250000 0.187500 0.156250 -0.000000 0.000000 1.000000 -0.250000 0.187500
-0.250000 0.093750 0.156250 -0.000000 0.000000 1.000000 -0.250000 0.093750
-0.010582 0.113996 0.393134 0.986125 0.155981 0.056811 0.250000 0.062500
-0.000639 0.033816 0.440688 0.986125 0.155981 0.056811 0.250000 0.156250
0.063216 -0.213276 0.010726 0.986125 0.155981 0.056811 -0.250000 0.156250
-0.010582 0.113996 0.393134 0.986125 0.155981 0.056812 0.250000 0.062500
0.063216 -0.213276 0.010726 0.986125 0.155981 0.056812 -0.250000 0.156250
0.053273 -0.133097 -0.036829 0.986125 0.155981 0.056812 -0.250000 0.062500
0.053273 -0.133097 -0.036829 0.127709 -0.494185 -0.859925 0.187500 0.062500
0.063216 -0.213276 0.010726 0.127709 -0.494185 -0.859925 0.187500 0.156250
-0.029233 -0.227900 0.005400 0.127709 -0.494185 -0.859925 0.093750 0.156250
-0.039176 -0.147720 -0.042155 0.127709 -0.494185 -0.859925 0.093750 0.062500
-0.039176 -0.147720 -0.042155 -0.986125 -0.155981 -0.056811 0.250000 0.062500
-0.029233 -0.227900 0.005400 -0.986125 -0.155981 -0.056811 0.250000 0.156250
-0.093088 0.019193 0.435362 -0.986125 -0.155981 -0.056811 -0.250000 0.156250
-0.103031 0.099373 0.387808 -0.986125 -0.155981 -0.056811 -0.250000 0.062500
-0.103031 0.099373 0.387808 -0.127709 0.494185 0.859925 -0.093750 0.062500
-0.093088 0.019193 0.435362 -0.127709 0.494185 0.859925 -0.093750 0.156250
-0.000639 0.033816 0.440688 -0.127709 0.494185 0.859925 -0.187500 0.156250
-0.010582 0.113996 0.393134 -0.127709 0.494185 0.859925 -0.187500 0.062500
0.053273 -0.133097 -0.036829 -0.106057 0.855249 -0.507249 -0.250000 0.187500
-0.039176 -0.147720 -0.042155 -0.106057 0.855249 -0.507249 -0.250000 0.093750
-0.103031 0.099373 0.387808 -0.106057 0.855249 -0.507249 0.250000 0.093750
-0.010582 0.113996 0.393134 -0.106057 0.855249 -0.507249 0.250000 0.187500
-0.029233 -0.227900 0.005400 0.106057 -0.855249 0.507249 0.250000 0.093750
0.063216 -0.213276 0.010726 0.106057 -0.855249 0.507249 0.250000 0.187500
-0.000639 0.033816 0.440688 0.106057 -0.855249 0.507249 -0.250000 0.187500
-0.093088 0.019193 0.435362 0.106057 -0.855249 0.507249 -0.250000 0.093750
-0.050683 -0.065365 0.393134 -0.811314 0.581843 0.056811 0.250000 0.062500
-0.001426 -0.001324 0.440688 -0.811314 0.581843 0.056811 0.250000 0.156250
0.126740 0.219370 0.010726 -0.811314 0.581843 0.056811 -0.250000 0.156250
-0.050683 -0.065365 0.393134 -0.811314 0.581843 0.056812 0.250000 0.062500
0.126740 0.219370 0.010726 -0.811314 0.581843 0.056812 -0.250000 0.156250
0.077482 0.155329 -0.036829 -0.811314 0.581843 0.056812 -0.250000 0.062500
0.077482 0.155329 -0.036829 0.256331 0.441388 -0.859925 0.187500 0.062500
0.126740 0.219370 0.010726 0.256331 0.441388 -0.859925 0.187500 0.156250
0.202801 0.164822 0.005400 0.256331 0.441388 -0.859925 0.093750 0.156250
0.153543 0.100781 -0.042155 0.256331 0.441388 -0.859925 0.093750 0.062500
0.153543 0.100781 -0.042155 0.811314 -0.581844 -0.056812 0.250000 0.062500
0.202801 0.164822 0.005400 0.811314 -0.581844 -0.056812 0.250000 0.156250
0.074635 -0.055871 0.435362 0.811314 -0.581844 -0.056812 -0.250000 0.156250
0.153543 0.100781 -0.042155 0.811314 -0.581843 -0.056812 0.250000 0.062500
0.074635 -0.055871 0.435362 0.811314 -0.581843 -0.056812 -0.250000 0.156250
0.025377 -0.119913 0.387808 0.811314 -0.581843 -0.056812 -0.250000 0.062500
0.025377 -0.119913 0.387808 -0.256331 -0.441388 0.859925 -0.093750 0.062500
0.074635 -0.055871 0.435362 -0.256331 -0.441388 0.859925 -0.093750 0.156250
-0.001426 -0.001324 0.440688 -0.256331 -0.441388 0.859925 -0.187500 0.156250
0.025377 -0.119913 0.387808 -0.256331 -0.441387 0.859925 -0.093750 0.062500
-0.001426 -0.001324 0.440688 -0.256331 -0.441387 0.859925 -0.187500 0.156250
-0.050683 -0.065365 0.393134 -0.256331 -0.441387 0.859925 -0.187500 0.062500
0.077482 0.155329 -0.036829 -0.525417 -0.683107 -0.507249 -0.250000 0.187500
0.153543 0.100781 -0.042155 -0.525417 -0.683107 -0.507249 -0.250000 0.093750
0.025377 -0.119913 0.387808 -0.525417 -0.683107 -0.507249 0.250000 0.093750
0.077482 0.155329 -0.036829 -0.525418 -0.683107 -0.507249 -0.250000 0.187500
0.025377 -0.119913 0.387808 -0.525418 -0.683107 -0.507249 0.250000 0.093750
-0.050683 -0.065365 0.393134 -0.525418 -0.683107 -0.507249 0.250000 0.187500
0.202801 0.164822 0.005400 0.525417 0.683107 0.507249 0.250000 0.093750
0.126740 0.219370 0.010726 0.525417 0.683107 0.507249 0.250000 0.187500
-0.001426 -0.001324 0.440688 0.525417 0.683107 0.507249 -0.250000 0.187500
0.202801 0.164822 0.005400 0.525418 0.683107 0.507249 0.250000 0.093750
-0.001426 -0.001324 0.440688 0.525418 0.683107 0.507249 -0.250000 0.187500
0.074635 -0.055871 0.435362 0.525418 0.683107 0.507249 -0.250000 0.093750
0.147774 0.010143 0.393134 -0.224278 -0.972868 0.056811 0.250000 0.062500
0.069697 0.030919 0.440688 -0.224278 -0.972868 0.056811 0.250000 0.156250
-0.183341 0.064145 0.010726 -0.224278 -0.972868 0.056811 -0.250000 0.156250
0.147774 0.010143 0.393134 -0.224278 -0.972868 0.056812 0.250000 0.062500
-0.183341 0.064145 0.010726 -0.224278 -0.972868 0.056812 -0.250000 0.156250
-0.105264 0.043369 -0.036829 -0.224278 -0.972868 0.056812 -0.250000 0.062500
-0.105264 0.043369 -0.036829 -0.506076 0.066451 -0.859925 0.187500 0.062500
-0.183341 0.064145 0.010726 -0.506076 0.066451 -0.859925 0.187500 0.156250
-0.162315 0.155351 0.005400 -0.506076 0.066451 -0.859925 0.093750 0.156250
-0.084238 0.134575 -0.042155 -0.506076 0.066451 -0.859925 0.093750 0.062500
-0.084238 0.134575 -0.042155 0.224278 0.972868 -0.056811 0.250000 0.062500
-0.162315 0.155351 0.005400 0.224278 0.972868 -0.056811 0.250000 0.156250
0.090723 0.122126 0.435362 0.224278 0.972868 -0.056811 -0.250000 0.156250
-0.084238 0.134575 -0.042155 0.224278 0.972868 -0.056812 0.250000 0.062500
0.090723 0.122126 0.435362 0.224278 0.972868 -0.056812 -0.250000 0.156250
0.168800 0.101349 0.387808 0.224278 0.972868 -0.056812 -0.250000 0.062500
0.168800 0.101349 0.387808 0.506076 -0.066451 0.859925 -0.093750 0.062500
0.090723 0.122126 0.435362 0.506076 -0.066451 0.859925 -0.093750 0.156250
0.069697 0.030919 0.440688 0.506076 -0.066451 0.859925 -0.187500 0.156250
0.147774 0.010143 0.393134 0.506076 -0.066451 0.859925 -0.187500 0.062500
-0.105264 0.043369 -0.036829 0.832819 -0.221612 -0.507249 -0.250000 0.187500
-0.084238 0.134575 -0.042155 0.832819 -0.221612 -0.507249 -0.250000 0.093750
0.168800 0.101349 0.387808 0.832819 -0.221612 -0.507249 0.250000 0.093750
-0.105264 0.043369 -0.036829 0.832818 -0.221613 -0.507249 -0.250000 0.187500
0.168800 0.101349 0.387808 0.832818 -0.221613 -0.507249 0.250000 0.093750
0.147774 0.010143 0.393134 0.832818 -0.221613 -0.507249 0.250000 0.187500
-0.162315 0.155351 0.005400 -0.832818 0.221613 0.507249 0.250000 0.093750
-0.183341 0.064145 0.010726 -0.832818 0.221613 0.507249 0.250000 0.187500
0.069697 0.030919 0.440688 -0.832818 0.221613 0.507249 -0.250000 0.187500
0.090723 0.122126 0.435362 -0.832818 0.221613 0.507249 -0.250000 0.093750
3 0 1 2
3 0 2 3
3 4 5 6
3 4 6 7
3 8 9 10
3 8 10 11
3 12 13 14
3 12 14 15
3 16 17 18
3 16 18 19
3 20 21 22
3 20 22 23
3 24 25 26
3 24 26 27
3 28 29 30
3 28 30 31
3 32 33 34
3 32 34 35
3 36 37 38
3 36 38 39
3 40 41 42
3 40 42 43
3 44 45 46
3 44 46 47
3 48 49 50
3 48 50 51
3 52 53 54
3 52 54 55
3 56 57 58
3 56 58 59
3 60 61 62
3 60 62 63
3 64 65 66
3 64 66 67
3 68 69 70
3 68 70 71
3 72 73 74
3 72 74 75
3 76 77 78
3 76 78 79
3 80 81 82
3 80 82 83
3 84 85 86
3 84 86 87
3 88 89 90
3 88 90 91
3 92 93 94
3 92 94 95
3 96 97 98
3 99 100 101
3 102 103 104
3 102 104 105
3 106 107 108
3 106 108 109
3 110 111 112
3 110 112 113
3 114 115 116
3 114 116 117
3 118 119 120
3 118 120 121
3 122 123 124
3 125 126 127
3 128 129 130
3 128 130 131
3 132 133 134
3 135 136 137
3 138 139 140
3 141 142 143
3 144 145 146
3 147 148 149
3 150 151 152
3 153 154 155
3 156 157 158
3 159 160 161
3 162 163 164
3 162 164 165
3 166 167 168
3 169 170 171
3 172 173 174
3 172 174 175
3 176 177 178
3 179 180 181
3 182 183 184
3 182 184 185
