ply
format ascii 1.0
comment Created by Blender 2.80 (sub 75) - www.blender.org, source file: ''
element vertex 482
property float x
property float y
property float z
property float nx
property float ny
property float nz
property uchar red
property uchar green
property uchar blue
property uchar alpha
element face 960
property list uchar uint vertex_indices
end_header
0.108386 -0.544895 -0.831470 0.109195 -0.548997 -0.828639 255 0 0 255
0.137950 -0.693520 -0.707107 0.138524 -0.696493 -0.704031 255 0 0 255
-0.000000 -0.707107 -0.707107 0.000000 -0.710135 -0.704031 255 0 0 255
-0.000000 -0.555570 -0.831470 0.000000 -0.559771 -0.828639 255 0 0 255
0.137950 -0.693520 0.707107 0.138524 -0.696493 0.704031 255 0 0 255
0.108386 -0.544896 0.831470 0.109195 -0.548997 0.828639 255 0 0 255
0.000000 -0.555571 0.831470 0.000000 -0.559771 0.828639 255 0 0 255
-0.000000 -0.707107 0.707107 0.000000 -0.710135 0.704031 255 0 0 255
0.000000 -0.000000 -1.000000 0.000000 0.000000 -1.000000 255 0 0 255
0.038060 -0.191342 -0.980785 0.039186 -0.197089 -0.979583 255 0 0 255
0.000000 -0.195091 -0.980785 0.000000 -0.200964 -0.979583 255 0 0 255
0.038060 -0.191342 0.980785 0.039186 -0.197089 0.979583 255 0 0 255
-0.000000 -0.000001 1.000000 0.000000 0.000000 1.000000 255 0 0 255
-0.000000 -0.195091 0.980785 0.000000 -0.200964 0.979583 255 0 0 255
0.162212 -0.815493 -0.555570 0.162572 -0.817316 -0.552751 255 0 0 255
-0.000000 -0.831470 -0.555570 0.000000 -0.833338 -0.552751 255 0 0 255
0.191342 -0.961940 0.195090 0.191382 -0.962157 0.193915 255 0 0 255
0.180240 -0.906128 0.382683 0.180395 -0.906980 0.380535 255 0 0 255
0.000000 -0.923880 0.382683 0.000000 -0.924741 0.380535 255 0 0 255
-0.000000 -0.980785 0.195090 0.000000 -0.980987 0.193915 255 0 0 255
0.180240 -0.906128 -0.382683 0.180395 -0.906980 -0.380535 255 0 0 255
0.191342 -0.961940 -0.195090 0.191382 -0.962157 -0.193915 255 0 0 255
-0.000000 -0.980785 -0.195090 0.000000 -0.980987 -0.193915 255 0 0 255
0.000000 -0.923880 -0.382683 0.000000 -0.924741 -0.380535 255 0 0 255
0.074658 -0.375331 0.923880 0.075655 -0.380413 0.921690 255 0 0 255
0.000000 -0.382684 0.923880 0.000000 -0.387860 0.921690 255 0 0 255
0.375330 -0.906128 -0.195090 0.375408 -0.906339 -0.193915 255 0 0 255
0.382683 -0.923880 0.000000 0.382672 -0.923856 0.000000 255 0 0 255
0.195090 -0.980786 0.000000 0.195074 -0.980773 0.000000 255 0 0 255
0.353553 -0.853554 -0.382683 0.353862 -0.854366 -0.380535 255 0 0 255
0.318190 -0.768178 -0.555570 0.318888 -0.769890 -0.552751 255 0 0 255
0.270598 -0.653282 0.707107 0.271737 -0.656056 0.704031 255 0 0 255
0.212608 -0.513280 0.831470 0.214209 -0.517136 0.828639 255 0 0 255
0.146447 -0.353554 -0.923880 0.148412 -0.358348 -0.921690 255 0 0 255
0.212608 -0.513280 -0.831470 0.214209 -0.517136 -0.828639 255 0 0 255
0.074658 -0.375331 -0.923880 0.075655 -0.380413 -0.921690 255 0 0 255
0.074658 -0.180240 0.980785 0.076907 -0.185644 0.979583 255 0 0 255
0.074658 -0.180240 -0.980785 0.076907 -0.185644 -0.979583 255 0 0 255
0.270598 -0.653282 -0.707107 0.271737 -0.656056 -0.704031 255 0 0 255
0.318190 -0.768178 0.555570 0.318888 -0.769890 0.552751 255 0 0 255
0.162212 -0.815493 0.555570 0.162572 -0.817316 0.552751 255 0 0 255
0.353553 -0.853554 0.382683 0.353862 -0.854366 0.380535 255 0 0 255
0.146447 -0.353554 0.923880 0.148412 -0.358348 0.921690 255 0 0 255
0.375330 -0.906128 0.195090 0.375408 -0.906339 0.193915 255 0 0 255
0.308658 -0.461940 -0.831470 0.310984 -0.465407 -0.828639 255 0 0 255
0.392848 -0.587938 -0.707107 0.394513 -0.590442 -0.704031 255 0 0 255
0.212608 -0.318190 -0.923880 0.215491 -0.322489 -0.921690 255 0 0 255
0.212608 -0.318190 0.923880 0.215491 -0.322489 0.921690 255 0 0 255
0.108386 -0.162212 0.980785 0.111637 -0.167089 0.979583 255 0 0 255
0.461940 -0.691342 -0.555570 0.462966 -0.692892 -0.552751 255 0 0 255
0.513280 -0.768178 -0.382683 0.513749 -0.768914 -0.380535 255 0 0 255
0.544895 -0.815493 0.195090 0.545000 -0.815668 0.193915 255 0 0 255
0.513280 -0.768178 0.382683 0.513749 -0.768914 0.380535 255 0 0 255
0.544895 -0.815493 -0.195090 0.545000 -0.815668 -0.193915 255 0 0 255
0.108386 -0.162212 -0.980785 0.111637 -0.167089 -0.979583 255 0 0 255
0.461940 -0.691342 0.555570 0.462966 -0.692892 0.552751 255 0 0 255
0.392848 -0.587938 0.707107 0.394513 -0.590442 0.704031 255 0 0 255
0.308658 -0.461940 0.831470 0.310984 -0.465407 0.828639 255 0 0 255
0.555570 -0.831470 0.000000 0.555559 -0.831446 0.000000 255 0 0 255
0.500000 -0.500000 -0.707107 0.502121 -0.502121 -0.704031 255 0 0 255
0.587938 -0.587938 -0.555570 0.589251 -0.589251 -0.552751 255 0 0 255
0.137950 -0.137950 -0.980785 0.142094 -0.142094 -0.979583 255 0 0 255
0.270598 -0.270598 -0.923880 0.274270 -0.274270 -0.921690 255 0 0 255
0.500000 -0.500000 0.707107 0.502121 -0.502121 0.704031 255 0 0 255
0.392848 -0.392848 0.831470 0.395795 -0.395795 0.828639 255 0 0 255
0.653282 -0.653282 -0.382683 0.653890 -0.653890 -0.380535 255 0 0 255
0.693520 -0.693520 -0.195090 0.693655 -0.693655 -0.193915 255 0 0 255
0.392848 -0.392848 -0.831470 0.395795 -0.395795 -0.828639 255 0 0 255
0.587938 -0.587938 0.555570 0.589251 -0.589251 0.552751 255 0 0 255
0.653282 -0.653282 0.382683 0.653890 -0.653890 0.380535 255 0 0 255
0.137950 -0.137950 0.980785 0.142094 -0.142094 0.979583 255 0 0 255
0.270598 -0.270599 0.923880 0.274270 -0.274270 0.921690 255 0 0 255
0.707107 -0.707107 0.000000 0.707083 -0.707083 0.000000 255 0 0 255
0.693520 -0.693520 0.195090 0.693655 -0.693655 0.193915 255 0 0 255
0.815493 -0.544895 0.195090 0.815668 -0.545000 0.193915 255 0 0 255
0.768178 -0.513280 0.382683 0.768914 -0.513749 0.380535 255 0 0 255
0.587938 -0.392848 0.707107 0.590442 -0.394513 0.704031 255 0 0 255
0.461940 -0.308659 0.831470 0.465407 -0.310984 0.828639 255 0 0 255
0.162212 -0.108387 -0.980785 0.167089 -0.111637 -0.979583 255 0 0 255
0.318190 -0.212608 -0.923880 0.322489 -0.215491 -0.921690 255 0 0 255
0.587938 -0.392848 -0.707107 0.590442 -0.394513 -0.704031 255 0 0 255
0.691342 -0.461940 -0.555570 0.692892 -0.462966 -0.552751 255 0 0 255
0.318190 -0.212608 0.923880 0.322489 -0.215491 0.921690 255 0 0 255
0.162212 -0.108387 0.980785 0.167089 -0.111637 0.979583 255 0 0 255
0.831470 -0.555571 0.000000 0.831446 -0.555559 0.000000 255 0 0 255
0.815493 -0.544895 -0.195090 0.815668 -0.545000 -0.193915 255 0 0 255
0.691342 -0.461940 0.555570 0.692892 -0.462966 0.552751 255 0 0 255
0.768178 -0.513280 -0.382683 0.768914 -0.513749 -0.380535 255 0 0 255
0.461940 -0.308659 -0.831470 0.465407 -0.310984 -0.828639 255 0 0 255
0.853554 -0.353554 0.382683 0.854366 -0.353893 0.380535 255 0 0 255
0.768178 -0.318190 0.555570 0.769890 -0.318888 0.552751 255 0 0 255
0.180240 -0.074658 0.980785 0.185644 -0.076907 0.979583 255 0 0 255
0.653282 -0.270598 0.707107 0.656056 -0.271737 0.704031 255 0 0 255
0.513280 -0.212608 0.831470 0.517136 -0.214209 0.828639 255 0 0 255
0.353554 -0.146447 0.923880 0.358348 -0.148412 0.921690 255 0 0 255
0.923880 -0.382684 0.000000 0.923856 -0.382672 0.000000 255 0 0 255
0.906127 -0.375331 0.195090 0.906339 -0.375408 0.193915 255 0 0 255
0.513280 -0.212608 -0.831470 0.517136 -0.214209 -0.828639 255 0 0 255
0.653282 -0.270598 -0.707107 0.656056 -0.271737 -0.704031 255 0 0 255
0.353553 -0.146447 -0.923880 0.358348 -0.148412 -0.921690 255 0 0 255
0.180240 -0.074658 -0.980785 0.185644 -0.076907 -0.979583 255 0 0 255
0.853554 -0.353554 -0.382683 0.854366 -0.353893 -0.380535 255 0 0 255
0.906127 -0.375331 -0.195090 0.906339 -0.375408 -0.193915 255 0 0 255
0.768178 -0.318190 -0.555570 0.769890 -0.318888 -0.552751 255 0 0 255
0.693520 -0.137950 -0.707107 0.696493 -0.138524 -0.704031 255 0 0 255
0.815493 -0.162212 -0.555570 0.817316 -0.162572 -0.552751 255 0 0 255
0.961940 -0.191342 -0.195090 0.962157 -0.191382 -0.193915 255 0 0 255
0.980785 -0.195091 0.000000 0.980773 -0.195074 0.000000 255 0 0 255
0.961940 -0.191342 0.195090 0.962157 -0.191382 0.193915 255 0 0 255
0.906128 -0.180240 0.382683 0.906980 -0.180395 0.380535 255 0 0 255
0.906128 -0.180240 -0.382683 0.906980 -0.180395 -0.380535 255 0 0 255
0.375331 -0.074658 0.923880 0.380413 -0.075655 0.921690 255 0 0 255
0.191342 -0.038061 0.980785 0.197089 -0.039186 0.979583 255 0 0 255
0.544895 -0.108387 0.831470 0.548997 -0.109195 0.828639 255 0 0 255
0.815493 -0.162212 0.555570 0.817316 -0.162572 0.552751 255 0 0 255
0.191342 -0.038061 -0.980785 0.197089 -0.039186 -0.979583 255 0 0 255
0.375330 -0.074658 -0.923880 0.380413 -0.075655 -0.921690 255 0 0 255
0.544895 -0.108387 -0.831470 0.548997 -0.109195 -0.828639 255 0 0 255
0.693520 -0.137950 0.707107 0.696493 -0.138524 0.704031 255 0 0 255
0.382684 -0.000000 -0.923880 0.387860 0.000000 -0.921690 255 0 0 255
0.555570 -0.000000 -0.831470 0.559771 0.000000 -0.828639 255 0 0 255
0.923880 -0.000000 -0.382683 0.924741 0.000000 -0.380535 255 0 0 255
0.980785 -0.000000 -0.195090 0.980987 0.000000 -0.193915 255 0 0 255
0.195090 -0.000000 -0.980785 0.200964 0.000000 -0.979583 255 0 0 255
0.923880 -0.000000 0.382683 0.924741 0.000000 0.380535 255 0 0 255
0.831470 -0.000000 0.555570 0.833338 0.000000 0.552751 255 0 0 255
0.707107 -0.000000 0.707107 0.710135 0.000000 0.704031 255 0 0 255
0.707107 -0.000000 -0.707107 0.710135 0.000000 -0.704031 255 0 0 255
0.831470 -0.000000 -0.555570 0.833338 0.000000 -0.552751 255 0 0 255
0.382684 -0.000000 0.923880 0.387860 0.000000 0.921690 255 0 0 255
0.195091 -0.000000 0.980785 0.200964 0.000000 0.979583 255 0 0 255
0.555570 -0.000000 0.831470 0.559771 0.000000 0.828639 255 0 0 255
1.000000 -0.000000 0.000000 1.000000 0.000000 0.000000 255 0 0 255
0.980785 -0.000000 0.195090 0.980987 0.000000 0.193915 255 0 0 255
0.191342 0.038060 -0.980785 0.197089 0.039186 -0.979583 255 0 0 255
0.693520 0.137949 0.707107 0.696493 0.138524 0.704031 255 0 0 255
0.544895 0.108386 0.831470 0.548997 0.109195 0.828639 255 0 0 255
0.693520 0.137949 -0.707107 0.696493 0.138524 -0.704031 255 0 0 255
0.815493 0.162211 -0.555570 0.817316 0.162572 -0.552751 255 0 0 255
0.191342 0.038060 0.980785 0.197089 0.039186 0.979583 255 0 0 255
0.815493 0.162211 0.555570 0.817316 0.162572 0.552751 255 0 0 255
0.375331 0.074658 0.923880 0.380413 0.075655 0.921690 255 0 0 255
0.906128 0.180240 -0.382683 0.906980 0.180395 -0.380535 255 0 0 255
0.906128 0.180240 0.382683 0.906980 0.180395 0.380535 255 0 0 255
0.961940 0.191341 0.195090 0.962157 0.191382 0.193915 255 0 0 255
0.980785 0.195090 0.000000 0.980773 0.195074 0.000000 255 0 0 255
0.544895 0.108386 -0.831470 0.548997 0.109195 -0.828639 255 0 0 255
0.961940 0.191341 -0.195090 0.962157 0.191382 -0.193915 255 0 0 255
0.375330 0.074658 -0.923880 0.380413 0.075655 -0.921690 255 0 0 255
0.180240 0.074658 0.980785 0.185644 0.076907 0.979583 255 0 0 255
0.653282 0.270598 -0.707107 0.656056 0.271737 -0.704031 255 0 0 255
0.768178 0.318189 -0.555570 0.769890 0.318888 -0.552751 255 0 0 255
0.906128 0.375330 -0.195090 0.906339 0.375408 -0.193915 255 0 0 255
0.923880 0.382683 0.000000 0.923856 0.382672 0.000000 255 0 0 255
0.180240 0.074658 -0.980785 0.185644 0.076907 -0.979583 255 0 0 255
0.353554 0.146446 -0.923880 0.358348 0.148412 -0.921690 255 0 0 255
0.653282 0.270598 0.707107 0.656056 0.271737 0.704031 255 0 0 255
0.513280 0.212607 0.831470 0.517136 0.214209 0.828639 255 0 0 255
0.853554 0.353553 -0.382683 0.854366 0.353862 -0.380535 255 0 0 255
0.906128 0.375330 0.195090 0.906339 0.375408 0.193915 255 0 0 255
0.853554 0.353553 0.382683 0.854366 0.353862 0.380535 255 0 0 255
0.768178 0.318189 0.555570 0.769890 0.318888 0.552751 255 0 0 255
0.513280 0.212607 -0.831470 0.517136 0.214209 -0.828639 255 0 0 255
0.353554 0.146446 0.923880 0.358348 0.148412 0.921690 255 0 0 255
0.587938 0.392847 -0.707107 0.590442 0.394513 -0.704031 255 0 0 255
0.691342 0.461940 -0.555570 0.692892 0.462966 -0.552751 255 0 0 255
0.461940 0.308658 0.831470 0.465407 0.310984 0.828639 255 0 0 255
0.318190 0.212607 0.923880 0.322489 0.215491 0.921690 255 0 0 255
0.162212 0.108386 -0.980785 0.167089 0.111637 -0.979583 255 0 0 255
0.318190 0.212607 -0.923880 0.322489 0.215491 -0.921690 255 0 0 255
0.461940 0.308658 -0.831470 0.465407 0.310984 -0.828639 255 0 0 255
0.768178 0.513280 0.382683 0.768914 0.513749 0.380535 255 0 0 255
0.691342 0.461940 0.555570 0.692892 0.462966 0.552751 255 0 0 255
0.587938 0.392847 0.707107 0.590442 0.394513 0.704031 255 0 0 255
0.162212 0.108386 0.980785 0.167089 0.111637 0.979583 255 0 0 255
0.137950 0.137949 -0.980785 0.142094 0.142094 -0.979583 255 0 0 255
0.693520 0.693520 -0.195090 0.693655 0.693655 -0.193915 255 0 0 255
0.707107 0.707107 0.000000 0.707083 0.707083 0.000000 255 0 0 255
0.831470 0.555570 0.000000 0.831446 0.555559 0.000000 255 0 0 255
0.815493 0.544895 -0.195090 0.815668 0.545000 -0.193915 255 0 0 255
0.587938 0.587938 0.555570 0.589251 0.589251 0.552751 255 0 0 255
0.500000 0.500000 0.707107 0.502121 0.502121 0.704031 255 0 0 255
0.693520 0.693520 0.195090 0.693655 0.693655 0.193915 255 0 0 255
0.815493 0.544895 0.195090 0.815668 0.545000 0.193915 255 0 0 255
0.653282 0.653281 0.382683 0.653890 0.653890 0.380535 255 0 0 255
0.392848 0.392847 0.831470 0.395795 0.395795 0.828639 255 0 0 255
0.137950 0.137950 0.980785 0.142094 0.142094 0.979583 255 0 0 255
0.653282 0.653281 -0.382683 0.653890 0.653890 -0.380535 255 0 0 255
0.768178 0.513280 -0.382683 0.768914 0.513749 -0.380535 255 0 0 255
0.270598 0.270598 0.923880 0.274270 0.274270 0.921690 255 0 0 255
0.270598 0.270598 -0.923880 0.274270 0.274270 -0.921690 255 0 0 255
0.587938 0.587938 -0.555570 0.589251 0.589251 -0.552751 255 0 0 255
0.308658 0.461940 0.831470 0.310984 0.465407 0.828639 255 0 0 255
0.212608 0.318190 0.923880 0.215491 0.322489 0.921690 255 0 0 255
0.555570 0.831469 0.000000 0.555559 0.831446 0.000000 255 0 0 255
0.544895 0.815493 0.195090 0.545000 0.815668 0.193915 255 0 0 255
0.513280 0.768178 0.382683 0.513749 0.768914 0.380535 255 0 0 255
0.461940 0.691342 0.555570 0.462966 0.692892 0.552751 255 0 0 255
0.392848 0.587938 0.707107 0.394513 0.590442 0.704031 255 0 0 255
0.461940 0.691342 -0.555570 0.462966 0.692892 -0.552751 255 0 0 255
0.513280 0.768178 -0.382683 0.513749 0.768914 -0.380535 255 0 0 255
0.544895 0.815493 -0.195090 0.545000 0.815668 -0.193915 255 0 0 255
0.308658 0.461940 -0.831470 0.310984 0.465407 -0.828639 255 0 0 255
0.392848 0.587938 -0.707107 0.394513 0.590442 -0.704031 255 0 0 255
0.500000 0.500000 -0.707107 0.502121 0.502121 -0.704031 255 0 0 255
0.392848 0.392847 -0.831470 0.395795 0.395795 -0.828639 255 0 0 255
0.108387 0.162212 0.980785 0.111637 0.167089 0.979583 255 0 0 255
0.108386 0.162211 -0.980785 0.111637 0.167089 -0.979583 255 0 0 255
0.212608 0.318189 -0.923880 0.215491 0.322489 -0.921690 255 0 0 255
0.318190 0.768178 -0.555570 0.318888 0.769890 -0.552751 255 0 0 255
0.353554 0.853553 -0.382683 0.353893 0.854366 -0.380535 255 0 0 255
0.375330 0.906127 -0.195090 0.375408 0.906339 -0.193915 255 0 0 255
0.382684 0.923879 0.000000 0.382672 0.923856 0.000000 255 0 0 255
0.074658 0.180240 -0.980785 0.076907 0.185644 -0.979583 255 0 0 255
0.318190 0.768178 0.555570 0.318888 0.769890 0.552751 255 0 0 255
0.270598 0.653281 0.707107 0.271737 0.656056 0.704031 255 0 0 255
0.074658 0.180240 0.980785 0.076907 0.185644 0.979583 255 0 0 255
0.146447 0.353553 -0.923880 0.148412 0.358348 -0.921690 255 0 0 255
0.146447 0.353553 0.923880 0.148412 0.358348 0.921690 255 0 0 255
0.212608 0.513280 0.831470 0.214209 0.517136 0.828639 255 0 0 255
0.375330 0.906127 0.195090 0.375408 0.906339 0.193915 255 0 0 255
0.353553 0.853553 0.382683 0.353862 0.854366 0.380535 255 0 0 255
0.074658 0.375330 0.923880 0.075655 0.380413 0.921690 255 0 0 255
0.038060 0.191342 0.980785 0.039186 0.197089 0.979583 255 0 0 255
0.270598 0.653281 -0.707107 0.271737 0.656056 -0.704031 255 0 0 255
0.212608 0.513280 -0.831470 0.214209 0.517136 -0.828639 255 0 0 255
0.038060 0.191341 -0.980785 0.039186 0.197089 -0.979583 255 0 0 255
0.074658 0.375330 -0.923880 0.075655 0.380413 -0.921690 255 0 0 255
0.180240 0.906127 0.382683 0.180395 0.906980 0.380535 255 0 0 255
0.162212 0.815493 0.555570 0.162572 0.817316 0.552751 255 0 0 255
0.137950 0.693520 -0.707107 0.138524 0.696493 -0.704031 255 0 0 255
0.162212 0.815493 -0.555570 0.162572 0.817316 -0.552751 255 0 0 255
0.108386 0.544895 -0.831470 0.109195 0.548997 -0.828639 255 0 0 255
0.191342 0.961940 -0.195090 0.191382 0.962157 -0.193915 255 0 0 255
0.195090 0.980785 0.000000 0.195074 0.980773 0.000000 255 0 0 255
0.137950 0.693520 0.707107 0.138524 0.696493 0.704031 255 0 0 255
0.180240 0.906127 -0.382683 0.180395 0.906980 -0.380535 255 0 0 255
0.108386 0.544895 0.831470 0.109195 0.548997 0.828639 255 0 0 255
0.191342 0.961940 0.195090 0.191382 0.962157 0.193915 255 0 0 255
0.000000 0.980785 0.195090 0.000000 0.980987 0.193915 255 0 0 255
0.000000 0.923879 0.382683 0.000000 0.924741 0.380535 255 0 0 255
0.000000 1.000000 0.000000 0.000000 1.000000 0.000000 255 0 0 255
0.000000 0.707106 -0.707107 0.000000 0.710135 -0.704031 255 0 0 255
0.000000 0.831470 -0.555570 0.000000 0.833338 -0.552751 255 0 0 255
0.000000 0.923880 -0.382683 0.000000 0.924741 -0.380535 255 0 0 255
0.000000 0.555570 0.831470 0.000000 0.559771 0.828639 255 0 0 255
0.000000 0.382683 0.923880 0.000000 0.387860 0.921690 255 0 0 255
0.000000 0.195090 0.980785 0.000000 0.200964 0.979583 255 0 0 255
0.000000 0.980785 -0.195090 0.000000 0.980987 -0.193915 255 0 0 255
0.000000 0.382683 -0.923880 0.000000 0.387860 -0.921690 255 0 0 255
0.000000 0.555570 -0.831470 0.000000 0.559771 -0.828639 255 0 0 255
0.000000 0.707107 0.707107 0.000000 0.710135 0.704031 255 0 0 255
0.000000 0.195090 -0.980785 0.000000 0.200964 -0.979583 255 0 0 255
0.000000 0.831470 0.555570 0.000000 0.833338 0.552751 255 0 0 255
-0.000000 -0.831470 0.555570 0.000000 -0.833338 0.552751 255 0 0 255
0.000000 -0.382684 -0.923880 0.000000 -0.387860 -0.921690 255 0 0 255
-0.000000 -1.000000 0.000000 0.000000 -1.000000 0.000000 255 0 0 255
-0.074658 -0.375331 0.923880 -0.075655 -0.380413 0.921690 255 0 0 255
-0.108386 -0.544896 0.831470 -0.109195 -0.548997 0.828639 255 0 0 255
-0.038060 -0.191342 0.980785 -0.039186 -0.197089 0.979583 255 0 0 255
-0.180240 -0.906128 0.382683 -0.180395 -0.906980 0.380535 255 0 0 255
-0.191342 -0.961940 0.195090 -0.191382 -0.962157 0.193915 255 0 0 255
-0.074658 -0.375331 -0.923880 -0.075655 -0.380413 -0.921690 255 0 0 255
-0.038060 -0.191342 -0.980785 -0.039186 -0.197089 -0.979583 255 0 0 255
-0.108386 -0.544895 -0.831470 -0.109195 -0.548997 -0.828639 255 0 0 255
-0.195090 -0.980786 0.000000 -0.195074 -0.980773 0.000000 255 0 0 255
-0.191342 -0.961940 -0.195090 -0.191382 -0.962157 -0.193915 255 0 0 255
-0.137950 -0.693520 0.707107 -0.138524 -0.696493 0.704031 255 0 0 255
-0.162212 -0.815493 0.555570 -0.162572 -0.817316 0.552751 255 0 0 255
-0.162212 -0.815493 -0.555570 -0.162572 -0.817316 -0.552751 255 0 0 255
-0.137950 -0.693520 -0.707107 -0.138524 -0.696493 -0.704031 255 0 0 255
-0.180240 -0.906128 -0.382683 -0.180395 -0.906980 -0.380535 255 0 0 255
-0.318190 -0.768178 -0.555570 -0.318888 -0.769890 -0.552751 255 0 0 255
-0.270598 -0.653282 -0.707107 -0.271737 -0.656056 -0.704031 255 0 0 255
-0.375330 -0.906127 0.195090 -0.375408 -0.906339 0.193915 255 0 0 255
-0.382684 -0.923880 0.000000 -0.382672 -0.923856 0.000000 255 0 0 255
-0.074658 -0.180240 -0.980785 -0.076907 -0.185644 -0.979583 255 0 0 255
-0.353553 -0.853554 -0.382683 -0.353862 -0.854366 -0.380535 255 0 0 255
-0.270598 -0.653282 0.707107 -0.271737 -0.656056 0.704031 255 0 0 255
-0.318190 -0.768178 0.555570 -0.318888 -0.769890 0.552751 255 0 0 255
-0.212608 -0.513280 -0.831470 -0.214209 -0.517136 -0.828639 255 0 0 255
-0.375330 -0.906127 -0.195090 -0.375408 -0.906339 -0.193915 255 0 0 255
-0.146447 -0.353554 0.923880 -0.148412 -0.358348 0.921690 255 0 0 255
-0.212608 -0.513280 0.831470 -0.214209 -0.517136 0.828639 255 0 0 255
-0.074658 -0.180240 0.980785 -0.076907 -0.185644 0.979583 255 0 0 255
-0.353553 -0.853554 0.382683 -0.353862 -0.854366 0.380535 255 0 0 255
-0.146447 -0.353554 -0.923880 -0.148412 -0.358348 -0.921690 255 0 0 255
-0.108386 -0.162212 0.980785 -0.111637 -0.167089 0.979583 255 0 0 255
-0.513280 -0.768178 0.382683 -0.513749 -0.768914 0.380535 255 0 0 255
-0.544895 -0.815493 0.195090 -0.545000 -0.815668 0.193915 255 0 0 255
-0.212607 -0.318190 -0.923880 -0.215491 -0.322489 -0.921690 255 0 0 255
-0.108386 -0.162212 -0.980785 -0.111637 -0.167089 -0.979583 255 0 0 255
-0.308658 -0.461940 -0.831470 -0.310984 -0.465407 -0.828639 255 0 0 255
-0.555570 -0.831470 0.000000 -0.555559 -0.831446 0.000000 255 0 0 255
-0.544895 -0.815493 -0.195090 -0.545000 -0.815668 -0.193915 255 0 0 255
-0.308658 -0.461940 0.831470 -0.310984 -0.465407 0.828639 255 0 0 255
-0.392847 -0.587938 0.707107 -0.394513 -0.590442 0.704031 255 0 0 255
-0.461940 -0.691342 0.555570 -0.462966 -0.692892 0.552751 255 0 0 255
-0.212608 -0.318190 0.923880 -0.215491 -0.322489 0.921690 255 0 0 255
-0.461940 -0.691342 -0.555570 -0.462966 -0.692892 -0.552751 255 0 0 255
-0.392847 -0.587938 -0.707107 -0.394513 -0.590442 -0.704031 255 0 0 255
-0.513280 -0.768178 -0.382683 -0.513749 -0.768914 -0.380535 255 0 0 255
-0.693520 -0.693520 0.195090 -0.693655 -0.693655 0.193915 255 0 0 255
-0.707107 -0.707107 0.000000 -0.707083 -0.707083 0.000000 255 0 0 255
-0.137950 -0.137950 -0.980785 -0.142094 -0.142094 -0.979583 255 0 0 255
-0.653281 -0.653282 -0.382683 -0.653890 -0.653890 -0.380535 255 0 0 255
-0.587938 -0.587938 -0.555570 -0.589251 -0.589251 -0.552751 255 0 0 255
-0.500000 -0.500000 0.707107 -0.502121 -0.502121 0.704031 255 0 0 255
-0.587938 -0.587938 0.555570 -0.589251 -0.589251 0.552751 255 0 0 255
-0.500000 -0.500000 -0.707107 -0.502121 -0.502121 -0.704031 255 0 0 255
-0.392847 -0.392848 -0.831470 -0.395795 -0.395795 -0.828639 255 0 0 255
-0.693520 -0.693520 -0.195090 -0.693655 -0.693655 -0.193915 255 0 0 255
-0.270598 -0.270598 0.923880 -0.274270 -0.274270 0.921690 255 0 0 255
-0.392848 -0.392848 0.831470 -0.395795 -0.395795 0.828639 255 0 0 255
-0.137950 -0.137950 0.980785 -0.142094 -0.142094 0.979583 255 0 0 255
-0.653281 -0.653282 0.382683 -0.653890 -0.653890 0.380535 255 0 0 255
-0.270598 -0.270598 -0.923880 -0.274270 -0.274270 -0.921690 255 0 0 255
-0.318190 -0.212608 -0.923880 -0.322489 -0.215491 -0.921690 255 0 0 255
-0.162212 -0.108387 -0.980785 -0.167089 -0.111637 -0.979583 255 0 0 255
-0.461940 -0.308658 -0.831470 -0.465407 -0.310984 -0.828639 255 0 0 255
-0.831470 -0.555570 0.000000 -0.831446 -0.555559 0.000000 255 0 0 255
-0.815493 -0.544895 -0.195090 -0.815668 -0.545000 -0.193915 255 0 0 255
-0.461940 -0.308659 0.831470 -0.465407 -0.310984 0.828639 255 0 0 255
-0.587938 -0.392848 0.707107 -0.590442 -0.394513 0.704031 255 0 0 255
-0.691342 -0.461940 0.555570 -0.692892 -0.462966 0.552751 255 0 0 255
-0.768178 -0.513280 0.382683 -0.768914 -0.513749 0.380535 255 0 0 255
-0.162212 -0.108387 0.980785 -0.167089 -0.111637 0.979583 255 0 0 255
-0.318190 -0.212608 0.923880 -0.322489 -0.215491 0.921690 255 0 0 255
-0.691342 -0.461940 -0.555570 -0.692892 -0.462966 -0.552751 255 0 0 255
-0.587938 -0.392848 -0.707107 -0.590442 -0.394513 -0.704031 255 0 0 255
-0.815493 -0.544895 0.195090 -0.815668 -0.545000 0.193915 255 0 0 255
-0.768178 -0.513280 -0.382683 -0.768914 -0.513749 -0.380535 255 0 0 255
-0.180240 -0.074658 -0.980785 -0.185644 -0.076907 -0.979583 255 0 0 255
-0.853553 -0.353554 -0.382683 -0.854366 -0.353862 -0.380535 255 0 0 255
-0.768177 -0.318190 -0.555570 -0.769890 -0.318888 -0.552751 255 0 0 255
-0.653281 -0.270598 0.707107 -0.656056 -0.271737 0.704031 255 0 0 255
-0.768177 -0.318190 0.555570 -0.769890 -0.318888 0.552751 255 0 0 255
-0.653281 -0.270598 -0.707107 -0.656056 -0.271737 -0.704031 255 0 0 255
-0.513280 -0.212608 -0.831470 -0.517136 -0.214209 -0.828639 255 0 0 255
-0.906127 -0.375330 -0.195090 -0.906339 -0.375408 -0.193915 255 0 0 255
-0.353553 -0.146447 0.923880 -0.358348 -0.148412 0.921690 255 0 0 255
-0.513280 -0.212608 0.831470 -0.517136 -0.214209 0.828639 255 0 0 255
-0.180240 -0.074658 0.980785 -0.185644 -0.076907 0.979583 255 0 0 255
-0.853553 -0.353554 0.382683 -0.854366 -0.353862 0.380535 255 0 0 255
-0.906127 -0.375330 0.195090 -0.906339 -0.375408 0.193915 255 0 0 255
-0.353553 -0.146447 -0.923880 -0.358348 -0.148412 -0.921690 255 0 0 255
-0.923880 -0.382684 0.000000 -0.923856 -0.382672 0.000000 255 0 0 255
-0.980785 -0.195090 0.000000 -0.980773 -0.195074 0.000000 255 0 0 255
-0.961939 -0.191342 -0.195090 -0.962157 -0.191382 -0.193915 255 0 0 255
-0.544895 -0.108387 0.831470 -0.548997 -0.109195 0.828639 255 0 0 255
-0.693520 -0.137950 0.707107 -0.696493 -0.138524 0.704031 255 0 0 255
-0.815493 -0.162212 0.555570 -0.817316 -0.162572 0.552751 255 0 0 255
-0.906127 -0.180240 0.382683 -0.906980 -0.180395 0.380535 255 0 0 255
-0.191342 -0.038061 0.980785 -0.197089 -0.039186 0.979583 255 0 0 255
-0.375330 -0.074658 0.923880 -0.380413 -0.075655 0.921690 255 0 0 255
-0.815493 -0.162212 -0.555570 -0.817316 -0.162572 -0.552751 255 0 0 255
-0.693520 -0.137950 -0.707107 -0.696493 -0.138524 -0.704031 255 0 0 255
-0.961939 -0.191342 0.195090 -0.962157 -0.191382 0.193915 255 0 0 255
-0.191342 -0.038061 -0.980785 -0.197089 -0.039186 -0.979583 255 0 0 255
-0.906127 -0.180240 -0.382683 -0.906980 -0.180395 -0.380535 255 0 0 255
-0.544895 -0.108387 -0.831470 -0.548997 -0.109195 -0.828639 255 0 0 255
-0.375330 -0.074658 -0.923880 -0.380413 -0.075655 -0.921690 255 0 0 255
-0.707107 -0.000000 0.707107 -0.710135 0.000000 0.704031 255 0 0 255
-0.831469 -0.000000 0.555570 -0.833338 0.000000 0.552751 255 0 0 255
-0.707107 -0.000000 -0.707107 -0.710135 0.000000 -0.704031 255 0 0 255
-0.555570 -0.000000 -0.831470 -0.559771 0.000000 -0.828639 255 0 0 255
-0.980785 -0.000000 -0.195090 -0.980987 0.000000 -0.193915 255 0 0 255
-0.923879 -0.000000 -0.382683 -0.924741 0.000000 -0.380535 255 0 0 255
-0.382683 -0.000000 0.923880 -0.387860 0.000000 0.921690 255 0 0 255
-0.555570 -0.000000 0.831470 -0.559771 0.000000 0.828639 255 0 0 255
-0.195090 -0.000000 0.980785 -0.200964 0.000000 0.979583 255 0 0 255
-0.923879 -0.000000 0.382683 -0.924741 0.000000 0.380535 255 0 0 255
-0.980785 -0.000000 0.195090 -0.980987 0.000000 0.193915 255 0 0 255
-0.382683 -0.000000 -0.923880 -0.387860 0.000000 -0.921690 255 0 0 255
-0.195090 -0.000000 -0.980785 -0.200964 0.000000 -0.979583 255 0 0 255
-1.000000 -0.000000 0.000000 -1.000000 0.000000 0.000000 255 0 0 255
-0.831469 -0.000000 -0.555570 -0.833338 0.000000 -0.552751 255 0 0 255
-0.544895 0.108386 0.831470 -0.548997 0.109195 0.828639 255 0 0 255
-0.693520 0.137949 0.707107 -0.696493 0.138524 0.704031 255 0 0 255
-0.815493 0.162211 0.555570 -0.817316 0.162572 0.552751 255 0 0 255
-0.906127 0.180240 0.382683 -0.906980 0.180395 0.380535 255 0 0 255
-0.191342 0.038060 0.980785 -0.197089 0.039186 0.979583 255 0 0 255
-0.375330 0.074658 0.923880 -0.380413 0.075655 0.921690 255 0 0 255
-0.815493 0.162211 -0.555570 -0.817316 0.162572 -0.552751 255 0 0 255
-0.693520 0.137949 -0.707107 -0.696493 0.138524 -0.704031 255 0 0 255
-0.961939 0.191342 0.195090 -0.962157 0.191382 0.193915 255 0 0 255
-0.980785 0.195090 0.000000 -0.980773 0.195074 0.000000 255 0 0 255
-0.191342 0.038060 -0.980785 -0.197089 0.039186 -0.979583 255 0 0 255
-0.906127 0.180240 -0.382683 -0.906980 0.180395 -0.380535 255 0 0 255
-0.544895 0.108386 -0.831470 -0.548997 0.109195 -0.828639 255 0 0 255
-0.961939 0.191342 -0.195090 -0.962157 0.191382 -0.193915 255 0 0 255
-0.375330 0.074658 -0.923880 -0.380413 0.075655 -0.921690 255 0 0 255
-0.653281 0.270598 -0.707107 -0.656056 0.271737 -0.704031 255 0 0 255
-0.513280 0.212607 -0.831470 -0.517136 0.214209 -0.828639 255 0 0 255
-0.906127 0.375330 -0.195090 -0.906339 0.375408 -0.193915 255 0 0 255
-0.853553 0.353553 -0.382683 -0.854366 0.353893 -0.380535 255 0 0 255
-0.353553 0.146446 0.923880 -0.358348 0.148412 0.921690 255 0 0 255
-0.513280 0.212607 0.831470 -0.517136 0.214209 0.828639 255 0 0 255
-0.180240 0.074658 0.980785 -0.185644 0.076907 0.979583 255 0 0 255
-0.853553 0.353553 0.382683 -0.854366 0.353893 0.380535 255 0 0 255
-0.906127 0.375330 0.195090 -0.906339 0.375408 0.193915 255 0 0 255
-0.353553 0.146446 -0.923880 -0.358348 0.148412 -0.921690 255 0 0 255
-0.180240 0.074657 -0.980785 -0.185644 0.076907 -0.979583 255 0 0 255
-0.923879 0.382683 0.000000 -0.923856 0.382672 0.000000 255 0 0 255
-0.653281 0.270598 0.707107 -0.656056 0.271737 0.704031 255 0 0 255
-0.768177 0.318189 0.555570 -0.769890 0.318888 0.552751 255 0 0 255
-0.768177 0.318189 -0.555570 -0.769890 0.318888 -0.552751 255 0 0 255
-0.691341 0.461939 0.555570 -0.692892 0.462966 0.552751 255 0 0 255
-0.768178 0.513280 0.382683 -0.768914 0.513749 0.380535 255 0 0 255
-0.162212 0.108386 0.980785 -0.167089 0.111637 0.979583 255 0 0 255
-0.318190 0.212607 0.923880 -0.322489 0.215491 0.921690 255 0 0 255
-0.691341 0.461939 -0.555570 -0.692892 0.462966 -0.552751 255 0 0 255
-0.587938 0.392847 -0.707107 -0.590442 0.394513 -0.704031 255 0 0 255
-0.815493 0.544895 0.195090 -0.815668 0.545000 0.193915 255 0 0 255
-0.831469 0.555570 0.000000 -0.831446 0.555559 0.000000 255 0 0 255
-0.162212 0.108386 -0.980785 -0.167089 0.111637 -0.979583 255 0 0 255
-0.768178 0.513280 -0.382683 -0.768914 0.513749 -0.380535 255 0 0 255
-0.587938 0.392847 0.707107 -0.590442 0.394513 0.704031 255 0 0 255
-0.461940 0.308658 -0.831470 -0.465407 0.310984 -0.828639 255 0 0 255
-0.815493 0.544895 -0.195090 -0.815668 0.545000 -0.193915 255 0 0 255
-0.461940 0.308658 0.831470 -0.465407 0.310984 0.828639 255 0 0 255
-0.318189 0.212607 -0.923880 -0.322489 0.215491 -0.921690 255 0 0 255
-0.693519 0.693519 -0.195090 -0.693655 0.693655 -0.193915 255 0 0 255
-0.653281 0.653281 -0.382683 -0.653890 0.653890 -0.380535 255 0 0 255
-0.270598 0.270598 0.923880 -0.274270 0.274270 0.921690 255 0 0 255
-0.392847 0.392847 0.831470 -0.395795 0.395795 0.828639 255 0 0 255
-0.137950 0.137949 0.980785 -0.142094 0.142094 0.979583 255 0 0 255
-0.653281 0.653281 0.382683 -0.653890 0.653890 0.380535 255 0 0 255
-0.693519 0.693519 0.195090 -0.693655 0.693655 0.193915 255 0 0 255
-0.270598 0.270598 -0.923880 -0.274270 0.274270 -0.921690 255 0 0 255
-0.137950 0.137949 -0.980785 -0.142094 0.142094 -0.979583 255 0 0 255
-0.392847 0.392847 -0.831470 -0.395795 0.395795 -0.828639 255 0 0 255
-0.707106 0.707106 0.000000 -0.707083 0.707083 0.000000 255 0 0 255
-0.500000 0.500000 0.707107 -0.502121 0.502121 0.704031 255 0 0 255
-0.587937 0.587937 0.555570 -0.589251 0.589251 0.552751 255 0 0 255
-0.587937 0.587937 -0.555570 -0.589251 0.589251 -0.552751 255 0 0 255
-0.500000 0.500000 -0.707107 -0.502121 0.502121 -0.704031 255 0 0 255
-0.108386 0.162211 0.980785 -0.111637 0.167089 0.979583 255 0 0 255
-0.212607 0.318189 0.923880 -0.215491 0.322489 0.921690 255 0 0 255
-0.461939 0.691341 -0.555570 -0.462966 0.692892 -0.552751 255 0 0 255
-0.392847 0.587937 -0.707107 -0.394513 0.590442 -0.704031 255 0 0 255
-0.544895 0.815492 0.195090 -0.545000 0.815668 0.193915 255 0 0 255
-0.555570 0.831469 0.000000 -0.555559 0.831446 0.000000 255 0 0 255
-0.108386 0.162211 -0.980785 -0.111637 0.167089 -0.979583 255 0 0 255
-0.513280 0.768177 -0.382683 -0.513749 0.768914 -0.380535 255 0 0 255
-0.392847 0.587937 0.707107 -0.394513 0.590442 0.704031 255 0 0 255
-0.461939 0.691341 0.555570 -0.462966 0.692892 0.552751 255 0 0 255
-0.308658 0.461939 -0.831470 -0.310984 0.465407 -0.828639 255 0 0 255
-0.544895 0.815492 -0.195090 -0.545000 0.815668 -0.193915 255 0 0 255
-0.308658 0.461939 0.831470 -0.310984 0.465407 0.828639 255 0 0 255
-0.513280 0.768177 0.382683 -0.513749 0.768914 0.380535 255 0 0 255
-0.212607 0.318189 -0.923880 -0.215491 0.322489 -0.921690 255 0 0 255
-0.146447 0.353553 0.923880 -0.148412 0.358348 0.921690 255 0 0 255
-0.212607 0.513280 0.831470 -0.214209 0.517136 0.828639 255 0 0 255
-0.074658 0.180240 0.980785 -0.076907 0.185644 0.979583 255 0 0 255
-0.353553 0.853553 0.382683 -0.353862 0.854366 0.380535 255 0 0 255
-0.375330 0.906127 0.195090 -0.375408 0.906339 0.193915 255 0 0 255
-0.146446 0.353553 -0.923880 -0.148412 0.358348 -0.921690 255 0 0 255
-0.074658 0.180240 -0.980785 -0.076907 0.185644 -0.979583 255 0 0 255
-0.212607 0.513279 -0.831470 -0.214209 0.517136 -0.828639 255 0 0 255
-0.382683 0.923879 0.000000 -0.382672 0.923856 0.000000 255 0 0 255
-0.375330 0.906127 -0.195090 -0.375408 0.906339 -0.193915 255 0 0 255
-0.270598 0.653281 0.707107 -0.271737 0.656056 0.704031 255 0 0 255
-0.318189 0.768177 0.555570 -0.318888 0.769890 0.552751 255 0 0 255
-0.318189 0.768177 -0.555570 -0.318888 0.769890 -0.552751 255 0 0 255
-0.270598 0.653281 -0.707107 -0.271737 0.656056 -0.704031 255 0 0 255
-0.353553 0.853553 -0.382683 -0.353862 0.854366 -0.380535 255 0 0 255
-0.162211 0.815492 -0.555570 -0.162572 0.817316 -0.552751 255 0 0 255
-0.137950 0.693520 -0.707107 -0.138524 0.696493 -0.704031 255 0 0 255
-0.191341 0.961939 0.195090 -0.191382 0.962157 0.193915 255 0 0 255
-0.195090 0.980785 0.000000 -0.195074 0.980773 0.000000 255 0 0 255
-0.038060 0.191341 -0.980785 -0.039186 0.197089 -0.979583 255 0 0 255
-0.180240 0.906127 -0.382683 -0.180395 0.906980 -0.380535 255 0 0 255
-0.137950 0.693520 0.707107 -0.138524 0.696493 0.704031 255 0 0 255
-0.162211 0.815492 0.555570 -0.162572 0.817316 0.552751 255 0 0 255
-0.108386 0.544895 -0.831470 -0.109195 0.548997 -0.828639 255 0 0 255
-0.191341 0.961939 -0.195090 -0.191382 0.962157 -0.193915 255 0 0 255
-0.074658 0.375330 0.923880 -0.075655 0.380413 0.921690 255 0 0 255
-0.108386 0.544895 0.831470 -0.109195 0.548997 0.828639 255 0 0 255
-0.038060 0.191342 0.980785 -0.039186 0.197089 0.979583 255 0 0 255
-0.180240 0.906127 0.382683 -0.180395 0.906980 0.380535 255 0 0 255
-0.074658 0.375330 -0.923880 -0.075655 0.380413 -0.921690 255 0 0 255
3 0 1 2
3 0 2 3
3 4 5 6
3 4 6 7
3 8 9 10
3 11 12 13
3 1 14 15
3 1 15 2
3 16 17 18
3 16 18 19
3 20 21 22
3 20 22 23
3 5 24 25
3 5 25 6
3 26 27 28
3 26 28 21
3 29 26 21
3 29 21 20
3 30 29 20
3 30 20 14
3 31 32 5
3 31 5 4
3 33 34 0
3 33 0 35
3 36 12 11
3 37 33 35
3 37 35 9
3 34 38 1
3 34 1 0
3 39 31 4
3 39 4 40
3 41 39 40
3 41 40 17
3 42 36 11
3 42 11 24
3 38 30 14
3 38 14 1
3 32 42 24
3 32 24 5
3 8 37 9
3 27 43 16
3 27 16 28
3 43 41 17
3 43 17 16
3 44 45 38
3 44 38 34
3 46 44 34
3 46 34 33
3 47 48 36
3 47 36 42
3 49 50 29
3 49 29 30
3 51 52 41
3 51 41 43
3 50 53 26
3 50 26 29
3 54 46 33
3 54 33 37
3 55 56 31
3 55 31 39
3 8 54 37
3 52 55 39
3 52 39 41
3 57 47 42
3 57 42 32
3 58 51 43
3 58 43 27
3 56 57 32
3 56 32 31
3 45 49 30
3 45 30 38
3 53 58 27
3 53 27 26
3 48 12 36
3 59 60 49
3 59 49 45
3 61 62 46
3 61 46 54
3 63 64 57
3 63 57 56
3 65 66 53
3 65 53 50
3 67 59 45
3 67 45 44
3 62 67 44
3 62 44 46
3 68 63 56
3 68 56 55
3 69 68 55
3 69 55 52
3 70 12 48
3 71 70 48
3 71 48 47
3 8 61 54
3 72 73 51
3 72 51 58
3 60 65 50
3 60 50 49
3 73 69 52
3 73 52 51
3 64 71 47
3 64 47 57
3 66 72 58
3 66 58 53
3 74 75 69
3 74 69 73
3 76 77 64
3 76 64 63
3 78 79 62
3 78 62 61
3 80 81 60
3 80 60 59
3 77 82 71
3 77 71 64
3 83 12 70
3 84 74 73
3 84 73 72
3 85 84 72
3 85 72 66
3 75 86 68
3 75 68 69
3 82 83 70
3 82 70 71
3 81 87 65
3 81 65 60
3 88 80 59
3 88 59 67
3 79 88 67
3 79 67 62
3 87 85 66
3 87 66 65
3 8 78 61
3 86 76 63
3 86 63 68
3 89 90 86
3 89 86 75
3 91 12 83
3 90 92 76
3 90 76 86
3 93 94 82
3 93 82 77
3 95 96 74
3 95 74 84
3 96 89 75
3 96 75 74
3 97 98 80
3 97 80 88
3 99 97 88
3 99 88 79
3 8 100 78
3 101 102 85
3 101 85 87
3 98 103 81
3 98 81 80
3 100 99 79
3 100 79 78
3 103 101 87
3 103 87 81
3 102 95 84
3 102 84 85
3 92 93 77
3 92 77 76
3 94 91 83
3 94 83 82
3 104 105 103
3 104 103 98
3 106 107 95
3 106 95 102
3 108 109 89
3 108 89 96
3 105 110 101
3 105 101 103
3 111 112 91
3 111 91 94
3 113 111 94
3 113 94 93
3 107 108 96
3 107 96 95
3 109 114 90
3 109 90 89
3 8 115 100
3 116 117 97
3 116 97 99
3 110 106 102
3 110 102 101
3 114 118 92
3 114 92 90
3 118 113 93
3 118 93 92
3 115 116 99
3 115 99 100
3 112 12 91
3 117 104 98
3 117 98 97
3 119 120 117
3 119 117 116
3 121 122 106
3 121 106 110
3 8 123 115
3 124 125 114
3 124 114 109
3 125 126 118
3 125 118 114
3 127 128 105
3 127 105 104
3 120 127 104
3 120 104 117
3 129 130 112
3 129 112 111
3 126 131 113
3 126 113 118
3 132 133 108
3 132 108 107
3 133 124 109
3 133 109 108
3 123 119 116
3 123 116 115
3 128 121 110
3 128 110 105
3 131 129 111
3 131 111 113
3 122 132 107
3 122 107 106
3 130 12 112
3 8 134 123
3 135 136 131
3 135 131 126
3 137 138 128
3 137 128 127
3 139 12 130
3 140 135 126
3 140 126 125
3 136 141 129
3 136 129 131
3 138 142 121
3 138 121 128
3 143 140 125
3 143 125 124
3 144 143 124
3 144 124 133
3 141 139 130
3 141 130 129
3 145 144 133
3 145 133 132
3 146 137 127
3 146 127 120
3 142 147 122
3 142 122 121
3 134 148 119
3 134 119 123
3 148 146 120
3 148 120 119
3 147 145 132
3 147 132 122
3 149 12 139
3 150 151 138
3 150 138 137
3 152 153 145
3 152 145 147
3 154 155 148
3 154 148 134
3 156 157 136
3 156 136 135
3 151 158 142
3 151 142 138
3 8 154 134
3 158 152 147
3 158 147 142
3 159 160 143
3 159 143 144
3 161 156 135
3 161 135 140
3 155 162 146
3 155 146 148
3 153 159 144
3 153 144 145
3 162 150 137
3 162 137 146
3 160 161 140
3 160 140 143
3 163 149 139
3 163 139 141
3 157 163 141
3 157 141 136
3 164 165 151
3 164 151 150
3 166 167 163
3 166 163 157
3 168 169 155
3 168 155 154
3 169 170 162
3 169 162 155
3 171 172 161
3 171 161 160
3 170 164 150
3 170 150 162
3 173 166 157
3 173 157 156
3 167 174 149
3 167 149 163
3 8 175 168
3 176 177 178
3 176 178 179
3 174 12 149
3 180 181 173
3 180 173 172
3 177 182 183
3 177 183 178
3 184 180 172
3 184 172 171
3 181 185 166
3 181 166 173
3 186 12 174
3 187 176 179
3 187 179 188
3 185 189 167
3 185 167 166
3 175 190 169
3 175 169 168
3 189 186 174
3 189 174 167
3 191 187 188
3 191 188 165
3 192 193 189
3 192 189 185
3 8 168 154
3 182 184 171
3 182 171 183
3 194 195 182
3 194 182 177
3 195 196 184
3 195 184 182
3 188 179 152
3 188 152 158
3 197 198 181
3 197 181 180
3 199 200 187
3 199 187 191
3 201 194 177
3 201 177 176
3 202 203 204
3 202 204 205
3 196 197 180
3 196 180 184
3 206 12 186
3 203 199 191
3 203 191 204
3 207 208 190
3 207 190 175
3 198 192 185
3 198 185 181
3 208 202 205
3 208 205 190
3 178 183 159
3 178 159 153
3 193 206 186
3 193 186 189
3 8 207 175
3 209 210 200
3 209 200 199
3 165 188 158
3 165 158 151
3 200 201 176
3 200 176 187
3 211 212 194
3 211 194 201
3 8 213 207
3 214 215 198
3 214 198 197
3 216 12 206
3 213 217 208
3 213 208 207
3 218 216 206
3 218 206 193
3 215 219 192
3 215 192 198
3 219 218 193
3 219 193 192
3 212 220 195
3 212 195 194
3 221 214 197
3 221 197 196
3 183 171 160
3 183 160 159
3 210 211 201
3 210 201 200
3 220 221 196
3 220 196 195
3 222 223 216
3 222 216 218
3 179 178 153
3 179 153 152
3 224 209 199
3 224 199 203
3 225 224 203
3 225 203 202
3 217 225 202
3 217 202 208
3 226 227 217
3 226 217 213
3 228 229 214
3 228 214 221
3 230 231 209
3 230 209 224
3 223 12 216
3 232 230 224
3 232 224 225
3 233 234 212
3 233 212 211
3 229 235 215
3 229 215 214
3 172 173 156
3 172 156 161
3 231 236 210
3 231 210 209
3 237 222 218
3 237 218 219
3 234 238 220
3 234 220 212
3 227 232 225
3 227 225 217
3 8 226 213
3 235 237 219
3 235 219 215
3 236 233 211
3 236 211 210
3 238 228 221
3 238 221 220
3 239 240 228
3 239 228 238
3 241 239 238
3 241 238 234
3 205 204 164
3 205 164 170
3 242 243 231
3 242 231 230
3 243 244 236
3 243 236 231
3 245 246 222
3 245 222 237
3 190 205 170
3 190 170 169
3 247 12 223
3 244 248 233
3 244 233 236
3 248 241 234
3 248 234 233
3 246 247 223
3 246 223 222
3 249 250 232
3 249 232 227
3 250 242 230
3 250 230 232
3 251 245 237
3 251 237 235
3 8 252 226
3 252 249 227
3 252 227 226
3 253 251 235
3 253 235 229
3 240 253 229
3 240 229 228
3 204 191 165
3 204 165 164
3 24 11 13
3 24 13 25
3 40 4 7
3 40 7 254
3 9 35 255
3 9 255 10
3 17 40 254
3 17 254 18
3 35 0 3
3 35 3 255
3 21 28 256
3 21 256 22
3 14 20 23
3 14 23 15
3 28 16 19
3 28 19 256
3 6 25 257
3 6 257 258
3 13 12 259
3 19 18 260
3 19 260 261
3 10 255 262
3 10 262 263
3 255 3 264
3 255 264 262
3 22 256 265
3 22 265 266
3 7 6 258
3 7 258 267
3 18 254 268
3 18 268 260
3 25 13 259
3 25 259 257
3 2 15 269
3 2 269 270
3 256 19 261
3 256 261 265
3 8 10 263
3 15 23 271
3 15 271 269
3 254 7 267
3 254 267 268
3 3 2 270
3 3 270 264
3 23 22 266
3 23 266 271
3 270 269 272
3 270 272 273
3 265 261 274
3 265 274 275
3 8 263 276
3 269 271 277
3 269 277 272
3 268 267 278
3 268 278 279
3 264 270 273
3 264 273 280
3 271 266 281
3 271 281 277
3 258 257 282
3 258 282 283
3 259 12 284
3 261 260 285
3 261 285 274
3 263 262 286
3 263 286 276
3 262 264 280
3 262 280 286
3 266 265 275
3 266 275 281
3 267 258 283
3 267 283 278
3 260 268 279
3 260 279 285
3 257 259 284
3 257 284 282
3 284 12 287
3 274 285 288
3 274 288 289
3 276 286 290
3 276 290 291
3 286 280 292
3 286 292 290
3 281 275 293
3 281 293 294
3 278 283 295
3 278 295 296
3 285 279 297
3 285 297 288
3 282 284 287
3 282 287 298
3 273 272 299
3 273 299 300
3 275 274 289
3 275 289 293
3 8 276 291
3 272 277 301
3 272 301 299
3 279 278 296
3 279 296 297
3 280 273 300
3 280 300 292
3 277 281 294
3 277 294 301
3 283 282 298
3 283 298 295
3 293 289 302
3 293 302 303
3 8 291 304
3 299 301 305
3 299 305 306
3 297 296 307
3 297 307 308
3 292 300 309
3 292 309 310
3 301 294 311
3 301 311 305
3 295 298 312
3 295 312 313
3 287 12 314
3 289 288 315
3 289 315 302
3 291 290 316
3 291 316 304
3 290 292 310
3 290 310 316
3 294 293 303
3 294 303 311
3 296 295 313
3 296 313 307
3 288 297 308
3 288 308 315
3 298 287 314
3 298 314 312
3 300 299 306
3 300 306 309
3 304 316 317
3 304 317 318
3 316 310 319
3 316 319 317
3 311 303 320
3 311 320 321
3 307 313 322
3 307 322 323
3 315 308 324
3 315 324 325
3 312 314 326
3 312 326 327
3 309 306 328
3 309 328 329
3 303 302 330
3 303 330 320
3 8 304 318
3 306 305 331
3 306 331 328
3 308 307 323
3 308 323 324
3 310 309 329
3 310 329 319
3 305 311 321
3 305 321 331
3 313 312 327
3 313 327 322
3 314 12 326
3 302 315 325
3 302 325 330
3 8 318 332
3 328 331 333
3 328 333 334
3 324 323 335
3 324 335 336
3 319 329 337
3 319 337 338
3 331 321 339
3 331 339 333
3 322 327 340
3 322 340 341
3 326 12 342
3 330 325 343
3 330 343 344
3 318 317 345
3 318 345 332
3 317 319 338
3 317 338 345
3 321 320 346
3 321 346 339
3 323 322 341
3 323 341 335
3 325 324 336
3 325 336 343
3 327 326 342
3 327 342 340
3 329 328 334
3 329 334 337
3 320 330 344
3 320 344 346
3 339 346 347
3 339 347 348
3 335 341 349
3 335 349 350
3 343 336 351
3 343 351 352
3 340 342 353
3 340 353 354
3 337 334 355
3 337 355 356
3 346 344 357
3 346 357 347
3 8 332 358
3 334 333 359
3 334 359 355
3 336 335 350
3 336 350 351
3 338 337 356
3 338 356 360
3 333 339 348
3 333 348 359
3 341 340 354
3 341 354 349
3 342 12 353
3 344 343 352
3 344 352 357
3 332 345 361
3 332 361 358
3 345 338 360
3 345 360 361
3 351 350 362
3 351 362 363
3 360 356 364
3 360 364 365
3 359 348 366
3 359 366 367
3 349 354 368
3 349 368 369
3 353 12 370
3 357 352 371
3 357 371 372
3 358 361 373
3 358 373 374
3 361 360 365
3 361 365 373
3 348 347 375
3 348 375 366
3 350 349 369
3 350 369 362
3 352 351 363
3 352 363 371
3 354 353 370
3 354 370 368
3 356 355 376
3 356 376 364
3 347 357 372
3 347 372 375
3 8 358 374
3 355 359 367
3 355 367 376
3 362 369 377
3 362 377 378
3 371 363 379
3 371 379 380
3 368 370 381
3 368 381 382
3 364 376 383
3 364 383 384
3 375 372 385
3 375 385 386
3 8 374 387
3 376 367 388
3 376 388 383
3 363 362 378
3 363 378 379
3 365 364 384
3 365 384 389
3 367 366 390
3 367 390 388
3 369 368 382
3 369 382 377
3 370 12 381
3 372 371 380
3 372 380 385
3 374 373 391
3 374 391 387
3 373 365 389
3 373 389 391
3 366 375 386
3 366 386 390
3 389 384 392
3 389 392 393
3 388 390 394
3 388 394 395
3 377 382 396
3 377 396 397
3 381 12 398
3 385 380 399
3 385 399 400
3 387 391 401
3 387 401 402
3 391 389 393
3 391 393 401
3 390 386 403
3 390 403 394
3 378 377 397
3 378 397 404
3 380 379 405
3 380 405 399
3 382 381 398
3 382 398 396
3 384 383 406
3 384 406 392
3 386 385 400
3 386 400 403
3 8 387 402
3 383 388 395
3 383 395 406
3 379 378 404
3 379 404 405
3 399 405 407
3 399 407 408
3 396 398 409
3 396 409 410
3 392 406 411
3 392 411 412
3 403 400 413
3 403 413 414
3 8 402 415
3 406 395 416
3 406 416 411
3 405 404 417
3 405 417 407
3 393 392 412
3 393 412 418
3 395 394 419
3 395 419 416
3 397 396 410
3 397 410 420
3 398 12 409
3 400 399 408
3 400 408 413
3 402 401 421
3 402 421 415
3 401 393 418
3 401 418 421
3 394 403 414
3 394 414 419
3 404 397 420
3 404 420 417
3 416 419 422
3 416 422 423
3 420 410 424
3 420 424 425
3 409 12 426
3 413 408 427
3 413 427 428
3 415 421 429
3 415 429 430
3 421 418 431
3 421 431 429
3 419 414 432
3 419 432 422
3 417 420 425
3 417 425 433
3 408 407 434
3 408 434 427
3 410 409 426
3 410 426 424
3 412 411 435
3 412 435 436
3 414 413 428
3 414 428 432
3 8 415 430
3 411 416 423
3 411 423 435
3 407 417 433
3 407 433 434
3 418 412 436
3 418 436 431
3 424 426 437
3 424 437 438
3 436 435 439
3 436 439 440
3 432 428 441
3 432 441 442
3 8 430 443
3 435 423 444
3 435 444 439
3 434 433 445
3 434 445 446
3 431 436 440
3 431 440 447
3 423 422 448
3 423 448 444
3 425 424 438
3 425 438 449
3 426 12 437
3 428 427 450
3 428 450 441
3 430 429 451
3 430 451 443
3 429 431 447
3 429 447 451
3 422 432 442
3 422 442 448
3 433 425 449
3 433 449 445
3 427 434 446
3 427 446 450
3 449 438 452
3 449 452 453
3 437 12 454
3 441 450 455
3 441 455 456
3 443 451 457
3 443 457 458
3 451 447 459
3 451 459 457
3 448 442 460
3 448 460 461
3 445 449 453
3 445 453 462
3 450 446 463
3 450 463 455
3 438 437 454
3 438 454 452
3 440 439 464
3 440 464 465
3 442 441 456
3 442 456 460
3 8 443 458
3 439 444 466
3 439 466 464
3 446 445 462
3 446 462 463
3 447 440 465
3 447 465 459
3 444 448 461
3 444 461 466
3 465 464 467
3 465 467 468
3 460 456 469
3 460 469 470
3 8 458 471
3 464 466 472
3 464 472 467
3 463 462 473
3 463 473 474
3 459 465 468
3 459 468 475
3 466 461 476
3 466 476 472
3 453 452 477
3 453 477 478
3 454 12 479
3 456 455 480
3 456 480 469
3 458 457 481
3 458 481 471
3 457 459 475
3 457 475 481
3 461 460 470
3 461 470 476
3 462 453 478
3 462 478 473
3 455 463 474
3 455 474 480
3 452 454 479
3 452 479 477
3 469 480 240
3 469 240 239
3 471 481 249
3 471 249 252
3 481 475 250
3 481 250 249
3 476 470 241
3 476 241 248
3 473 478 245
3 473 245 251
3 480 474 253
3 480 253 240
3 477 479 247
3 477 247 246
3 468 467 243
3 468 243 242
3 470 469 239
3 470 239 241
3 8 471 252
3 467 472 244
3 467 244 243
3 474 473 251
3 474 251 253
3 475 468 242
3 475 242 250
3 472 476 248
3 472 248 244
3 478 477 246
3 478 246 245
3 479 12 247
