ply
format ascii 1.0
comment Created by Blender 2.80 (sub 75) - www.blender.org, source file: ''
element vertex 64
property float x
property float y
property float z
property float nx
property float ny
property float nz
property uchar red
property uchar green
property uchar blue
property uchar alpha
element face 64
property list uchar uint vertex_indices
end_header
0.980785 -0.195090 -0.500000 0.980773 -0.195074 0.000000 255 0 0 255
0.980785 -0.195090 0.500000 0.980773 -0.195074 0.000000 255 0 0 255
0.923880 -0.382683 0.500000 0.923856 -0.382672 0.000000 255 0 0 255
0.923880 -0.382683 -0.500000 0.923856 -0.382672 0.000000 255 0 0 255
1.000000 0.000000 -0.500000 1.000000 0.000000 0.000000 255 0 0 255
1.000000 0.000000 0.500000 1.000000 0.000000 0.000000 255 0 0 255
0.980785 0.195090 -0.500000 0.980773 0.195074 0.000000 255 0 0 255
0.980785 0.195090 0.500000 0.980773 0.195074 0.000000 255 0 0 255
0.923880 0.382683 -0.500000 0.923856 0.382672 0.000000 255 0 0 255
0.923880 0.382683 0.500000 0.923856 0.382672 0.000000 255 0 0 255
0.831470 0.555570 -0.500000 0.831446 0.555559 0.000000 255 0 0 255
0.831470 0.555570 0.500000 0.831446 0.555559 0.000000 255 0 0 255
0.707107 0.707107 -0.500000 0.707083 0.707083 0.000000 255 0 0 255
0.707107 0.707107 0.500000 0.707083 0.707083 0.000000 255 0 0 255
0.555570 0.831470 -0.500000 0.555559 0.831446 0.000000 255 0 0 255
0.555570 0.831470 0.500000 0.555559 0.831446 0.000000 255 0 0 255
0.382683 0.923880 -0.500000 0.382672 0.923856 0.000000 255 0 0 255
0.382683 0.923880 0.500000 0.382672 0.923856 0.000000 255 0 0 255
0.195090 0.980785 -0.500000 0.195074 0.980773 0.000000 255 0 0 255
0.195090 0.980785 0.500000 0.195074 0.980773 0.000000 255 0 0 255
0.000000 1.000000 -0.500000 0.000000 1.000000 0.000000 255 0 0 255
0.000000 1.000000 0.500000 0.000000 1.000000 0.000000 255 0 0 255
0.831470 -0.555570 0.500000 0.831446 -0.555559 0.000000 255 0 0 255
0.831470 -0.555570 -0.500000 0.831446 -0.555559 0.000000 255 0 0 255
0.707107 -0.707107 0.500000 0.707083 -0.707083 0.000000 255 0 0 255
0.707107 -0.707107 -0.500000 0.707083 -0.707083 0.000000 255 0 0 255
0.555570 -0.831470 0.500000 0.555559 -0.831446 0.000000 255 0 0 255
0.555570 -0.831470 -0.500000 0.555559 -0.831446 0.000000 255 0 0 255
0.382683 -0.923880 0.500000 0.382672 -0.923856 0.000000 255 0 0 255
0.382683 -0.923880 -0.500000 0.382672 -0.923856 0.000000 255 0 0 255
0.195090 -0.980785 0.500000 0.195074 -0.980773 0.000000 255 0 0 255
0.195090 -0.980785 -0.500000 0.195074 -0.980773 0.000000 255 0 0 255
-0.000000 -1.000000 0.500000 0.000000 -0.999969 0.000000 255 0 0 255
-0.000000 -1.000000 -0.500000 0.000000 -0.999969 0.000000 255 0 0 255
-0.195091 -0.980785 0.500000 -0.195074 -0.980773 0.000000 255 0 0 255
-0.195091 -0.980785 -0.500000 -0.195074 -0.980773 0.000000 255 0 0 255
-0.382684 -0.923879 0.500000 -0.382672 -0.923856 0.000000 255 0 0 255
-0.382684 -0.923879 -0.500000 -0.382672 -0.923856 0.000000 255 0 0 255
-0.555571 -0.831469 0.500000 -0.555559 -0.831446 0.000000 255 0 0 255
-0.555571 -0.831469 -0.500000 -0.555559 -0.831446 0.000000 255 0 0 255
-0.707107 -0.707106 0.500000 -0.707083 -0.707083 0.000000 255 0 0 255
-0.707107 -0.707106 -0.500000 -0.707083 -0.707083 0.000000 255 0 0 255
-0.831470 -0.555570 0.500000 -0.831446 -0.555559 0.000000 255 0 0 255
-0.831470 -0.555570 -0.500000 -0.831446 -0.555559 0.000000 255 0 0 255
-0.923880 -0.382683 0.500000 -0.923856 -0.382672 0.000000 255 0 0 255
-0.923880 -0.382683 -0.500000 -0.923856 -0.382672 0.000000 255 0 0 255
-0.980785 -0.195089 0.500000 -0.980773 -0.195074 0.000000 255 0 0 255
-0.980785 -0.195089 -0.500000 -0.980773 -0.195074 0.000000 255 0 0 255
-1.000000 0.000001 0.500000 -0.999969 0.000000 0.000000 255 0 0 255
-1.000000 0.000001 -0.500000 -0.999969 0.000000 0.000000 255 0 0 255
-0.980785 0.195091 0.500000 -0.980773 0.195074 0.000000 255 0 0 255
-0.980785 0.195091 -0.500000 -0.980773 0.195074 0.000000 255 0 0 255
-0.923879 0.382684 0.500000 -0.923856 0.382672 0.000000 255 0 0 255
-0.923879 0.382684 -0.500000 -0.923856 0.382672 0.000000 255 0 0 255
-0.831469 0.555571 0.500000 -0.831446 0.555559 0.000000 255 0 0 255
-0.831469 0.555571 -0.500000 -0.831446 0.555559 0.000000 255 0 0 255
-0.707106 0.707108 0.500000 -0.707083 0.707083 0.000000 255 0 0 255
-0.707106 0.707108 -0.500000 -0.707083 0.707083 0.000000 255 0 0 255
-0.555569 0.831470 0.500000 -0.555559 0.831446 0.000000 255 0 0 255
-0.555569 0.831470 -0.500000 -0.555559 0.831446 0.000000 255 0 0 255
-0.382682 0.923880 0.500000 -0.382672 0.923856 0.000000 255 0 0 255
-0.382682 0.923880 -0.500000 -0.382672 0.923856 0.000000 255 0 0 255
-0.195089 0.980786 0.500000 -0.195074 0.980773 0.000000 255 0 0 255
-0.195089 0.980786 -0.500000 -0.195074 0.980773 0.000000 255 0 0 255
3 0 1 2
3 0 2 3
3 4 5 1
3 4 1 0
3 6 7 5
3 6 5 4
3 8 9 7
3 8 7 6
3 10 11 9
3 10 9 8
3 12 13 11
3 12 11 10
3 14 15 13
3 14 13 12
3 16 17 15
3 16 15 14
3 18 19 17
3 18 17 16
3 20 21 19
3 20 19 18
3 3 2 22
3 3 22 23
3 23 22 24
3 23 24 25
3 25 24 26
3 25 26 27
3 27 26 28
3 27 28 29
3 29 28 30
3 29 30 31
3 31 30 32
3 31 32 33
3 33 32 34
3 33 34 35
3 35 34 36
3 35 36 37
3 37 36 38
3 37 38 39
3 39 38 40
3 39 40 41
3 41 40 42
3 41 42 43
3 43 42 44
3 43 44 45
3 45 44 46
3 45 46 47
3 47 46 48
3 47 48 49
3 49 48 50
3 49 50 51
3 51 50 52
3 51 52 53
3 53 52 54
3 53 54 55
3 55 54 56
3 55 56 57
3 57 56 58
3 57 58 59
3 59 58 60
3 59 60 61
3 61 60 62
3 61 62 63
3 63 62 21
3 63 21 20
