ply
format ascii 1.0
comment Created by Blender 2.80 (sub 75) - www.blender.org, source file: ''
element vertex 36
property float x
property float y
property float z
property float nx
property float ny
property float nz
property float s
property float t
property uchar red
property uchar green
property uchar blue
property uchar alpha
element face 20
property list uchar uint vertex_indices
end_header
0.000000 -0.000000 -0.200000 0.500000 -0.000000 -0.866025 1.000000 0.500000 238 70 255 255
-0.000000 1.000000 -0.200000 0.500000 -0.000000 -0.866025 1.000000 1.000000 238 70 255 255
0.173205 1.000000 -0.100000 0.500000 -0.000000 -0.866025 0.833333 1.000000 238 70 255 255
0.173205 -0.000000 -0.100000 0.500000 -0.000000 -0.866025 0.833333 0.500000 238 70 255 255
0.173205 -0.000000 -0.100000 1.000000 0.000000 0.000000 0.833333 0.500000 238 70 255 255
0.173205 1.000000 -0.100000 1.000000 0.000000 0.000000 0.833333 1.000000 238 70 255 255
0.173205 1.000000 0.100000 1.000000 0.000000 0.000000 0.666667 1.000000 238 70 255 255
0.173205 0.000000 0.100000 1.000000 0.000000 0.000000 0.666667 0.500000 238 70 255 255
0.173205 0.000000 0.100000 0.500000 0.000000 0.866025 0.666667 0.500000 238 70 255 255
0.173205 1.000000 0.100000 0.500000 0.000000 0.866025 0.666667 1.000000 238 70 255 255
-0.000000 1.000000 0.200000 0.500000 0.000000 0.866025 0.500000 1.000000 238 70 255 255
-0.000000 0.000000 0.200000 0.500000 0.000000 0.866025 0.500000 0.500000 238 70 255 255
-0.000000 0.000000 0.200000 -0.500000 0.000000 0.866025 0.500000 0.500000 238 70 255 255
-0.000000 1.000000 0.200000 -0.500000 0.000000 0.866025 0.500000 1.000000 238 70 255 255
-0.173205 1.000000 0.100000 -0.500000 0.000000 0.866025 0.333333 1.000000 238 70 255 255
-0.173205 0.000000 0.100000 -0.500000 0.000000 0.866025 0.333333 0.500000 238 70 255 255
0.173205 1.000000 0.100000 0.000000 1.000000 0.000000 0.457846 0.130000 238 70 255 255
0.173205 1.000000 -0.100000 0.000000 1.000000 0.000000 0.457846 0.370000 238 70 255 255
-0.000000 1.000000 -0.200000 0.000000 1.000000 0.000000 0.250000 0.490000 238 70 255 255
-0.173205 1.000000 -0.100000 0.000000 1.000000 0.000000 0.042154 0.370000 238 70 255 255
-0.173205 1.000000 0.100000 0.000000 1.000000 0.000000 0.042154 0.130000 238 70 255 255
-0.000000 1.000000 0.200000 0.000000 1.000000 0.000000 0.250000 0.010000 238 70 255 255
-0.173205 0.000000 0.100000 -1.000000 0.000000 0.000000 0.333333 0.500000 238 70 255 255
-0.173205 1.000000 0.100000 -1.000000 0.000000 0.000000 0.333333 1.000000 238 70 255 255
-0.173205 1.000000 -0.100000 -1.000000 0.000000 0.000000 0.166667 1.000000 238 70 255 255
-0.173205 -0.000000 -0.100000 -1.000000 0.000000 0.000000 0.166667 0.500000 238 70 255 255
-0.173205 -0.000000 -0.100000 -0.500000 -0.000000 -0.866025 0.166667 0.500000 238 70 255 255
-0.173205 1.000000 -0.100000 -0.500000 -0.000000 -0.866025 0.166667 1.000000 238 70 255 255
-0.000000 1.000000 -0.200000 -0.500000 -0.000000 -0.866025 -0.000000 1.000000 238 70 255 255
0.000000 -0.000000 -0.200000 -0.500000 -0.000000 -0.866025 -0.000000 0.500000 238 70 255 255
-0.173205 -0.000000 -0.100000 0.000000 -1.000000 0.000000 0.542154 0.370000 238 70 255 255
0.000000 -0.000000 -0.200000 0.000000 -1.000000 0.000000 0.750000 0.490000 238 70 255 255
0.173205 -0.000000 -0.100000 0.000000 -1.000000 0.000000 0.957846 0.370000 238 70 255 255
0.173205 0.000000 0.100000 -0.000000 -1.000000 0.000000 0.957846 0.130000 238 70 255 255
-0.000000 0.000000 0.200000 -0.000000 -1.000000 0.000000 0.750000 0.010000 238 70 255 255
-0.173205 0.000000 0.100000 0.000000 -1.000000 0.000000 0.542154 0.130000 238 70 255 255
3 0 1 2
3 0 2 3
3 4 5 6
3 4 6 7
3 8 9 10
3 8 10 11
3 12 13 14
3 12 14 15
3 16 17 18
3 18 19 20
3 20 21 16
3 18 20 16
3 22 23 24
3 22 24 25
3 26 27 28
3 26 28 29
3 30 31 32
3 32 33 34
3 34 35 30
3 32 34 30
