# Blender v2.80 (sub 75) OBJ File: 'level_1.blend'
# www.blender.org
mtllib level_1.mtl
o Cube.004_Cube
v 4.000000 0.000000 -15.000000
v -10.000000 0.000000 -17.000000
v -16.000000 0.000000 -11.000000
v -11.000000 2.000000 -13.000000
v -13.000000 0.000000 -15.000000
v -3.000000 0.000000 9.000000
v -13.000000 0.000000 6.000000
v 6.000000 0.000000 5.000000
v -6.000000 2.000000 -5.000000
v -9.000000 2.000000 -15.000000
v -11.000000 2.000000 0.000000
v -12.000000 2.000000 -6.000000
v -7.000000 2.000000 -1.000000
v -8.000000 2.000000 0.000000
v -12.000000 2.000000 -1.000000
v -7.000000 2.000000 -4.000000
v -6.625000 0.000000 -0.843750
v -6.625000 2.000000 -0.843750
v -11.156250 0.000000 0.375000
v -7.843750 0.000000 0.375000
v -7.843750 2.000000 0.375000
v -11.156250 2.000000 0.375000
v -12.375000 0.000000 -0.843750
v -12.375000 2.000000 -0.843750
v -12.406250 0.000000 -6.031250
v -12.406250 2.000000 -6.031250
v -11.343750 2.000000 -13.187500
v -6.625000 0.000000 -3.843750
v -6.625000 2.000000 -3.843750
v -5.843750 0.000000 -4.625000
v -5.843750 2.000000 -4.625000
v -9.156250 0.000000 -15.375000
v -9.156250 2.000000 -15.375000
v -11.343750 0.000000 -13.187500
v -8.000000 2.750000 0.000000
v -11.000000 2.750000 0.000000
v -12.000000 2.750000 -1.000000
v -12.000000 2.750000 -6.000000
v -11.000000 2.750000 -13.000000
v -7.000000 2.750000 -1.000000
v -11.156250 2.750000 0.375000
v -7.000000 2.750000 -4.000000
v -12.375000 2.750000 -0.843750
v -6.000000 2.750000 -5.000000
v -6.625000 2.750000 -0.843750
v -7.843750 2.750000 0.375000
v -9.000000 2.750000 -15.000000
v -12.406250 2.750000 -6.031250
v -11.343750 2.750000 -13.187500
v -6.625000 2.750000 -3.843750
v -5.843750 2.750000 -4.625000
v -9.156250 2.750000 -15.375000
v -5.000000 2.000000 -5.000000
v -5.000000 2.000000 -4.625000
v -5.000000 0.000000 -4.625000
v -5.000000 2.750000 -5.000000
v -5.000000 2.750000 -4.625000
v -5.000000 2.000000 -15.000000
v -5.000000 2.000000 -15.375000
v -5.000000 0.000000 -15.375000
v -5.000000 2.750000 -15.000000
v -5.000000 2.750000 -15.375000
v -3.250000 2.000000 -5.656250
v -2.968750 2.000000 -5.437500
v -2.968750 0.000000 -5.437500
v -3.250000 2.750000 -5.656250
v -2.968750 2.750000 -5.437500
v -3.875000 2.000000 -14.406250
v -3.593750 2.000000 -14.656250
v -3.593750 0.000000 -14.656250
v -3.875000 2.750000 -14.406250
v -3.593750 2.750000 -14.656250
v -1.406250 2.000000 -8.062500
v -2.000000 2.000000 -12.093750
v -1.687500 2.000000 -12.312500
v -1.687500 0.000000 -12.312500
v -2.000000 2.750000 -12.093750
v -1.687500 2.750000 -12.312500
v -1.031250 2.000000 -8.000000
v -1.031250 0.000000 -8.000000
v -1.406250 2.750000 -8.062500
v -1.031250 2.750000 -8.000000
v 6.000000 0.000000 -14.000000
v 8.000000 0.000000 -6.000000
v 4.593750 1.750000 -15.687500
v -10.531250 1.750000 -17.843750
v -17.000000 1.750000 -11.375000
v -13.781250 1.750000 -15.687500
v -2.968750 1.750000 10.250000
v -13.781250 1.750000 7.000000
v 6.750000 1.750000 5.906250
v 6.750000 1.750000 -14.593750
v 8.906250 1.750000 -5.968750
v -6.625000 2.000000 -3.656250
v -6.625000 0.000000 -3.656250
v -7.000000 2.750000 -3.656250
v -6.625000 2.750000 -3.656250
v -6.625000 2.000000 -1.187500
v -7.000000 2.750000 -1.187500
v -6.625000 2.750000 -1.187500
v -6.625000 0.000000 -1.187500
v -7.000000 2.000000 -3.656250
v -7.000000 2.000000 -1.187500
v -3.593750 0.000000 -1.187500
v -3.593750 0.000000 -3.656250
vt 4.593750 1.750000
vt -10.000000 0.000000
vt 4.000000 0.000000
vt 6.000000 0.000000
vt 11.375000 1.750000
vt -6.000000 0.000000
vt 11.000000 0.000000
vt 13.000000 0.000000
vt 2.968750 1.750000
vt 3.000000 0.000000
vt -5.968750 1.750000
vt -14.000000 0.000000
vt -6.000000 0.000000
vt -6.750000 1.750000
vt -6.000000 0.000000
vt -10.531250 1.750000
vt -13.000000 0.000000
vt 15.687500 1.750000
vt 15.000000 0.000000
vt 5.000000 0.000000
vt -1.031250 8.000000
vt 6.000000 14.000000
vt -1.687500 12.312500
vt 8.000000 6.000000
vt -2.968750 5.437500
vt 6.000000 -5.000000
vt -3.593750 3.656250
vt -5.000000 4.625000
vt -5.843750 4.625000
vt -6.625000 3.656250
vt -6.625000 1.187500
vt -6.625000 0.843750
vt -3.593750 1.187500
vt -7.843750 -0.375000
vt -3.000000 -9.000000
vt -13.000000 -6.000000
vt -11.156250 -0.375000
vt -12.375000 0.843750
vt -16.000000 11.000000
vt -11.343750 13.187500
vt -13.000000 15.000000
vt -9.156250 15.375000
vt -10.000000 17.000000
vt -5.000000 15.375000
vt 4.000000 15.000000
vt -3.593750 14.656250
vt 6.750000 1.750000
vt -7.000000 1.750000
vt 13.781250 1.750000
vt -14.593750 1.750000
vt -13.781250 1.750000
vt 5.906250 1.750000
vt -6.625000 3.843750
vt -12.406250 6.031250
vt 6.000000 2.000000
vt 1.000000 2.750000
vt 1.000000 2.000000
vt 3.843750 2.000000
vt 3.656250 2.750000
vt 3.656250 2.000000
vt -6.031250 0.000000
vt -0.843750 2.000000
vt -6.031250 2.000000
vt -13.187500 2.000000
vt -13.187500 0.000000
vt -0.843750 0.000000
vt 0.375000 2.000000
vt -11.156250 0.000000
vt -7.843750 2.000000
vt -11.156250 2.000000
vt -0.375000 0.000000
vt 0.843750 2.000000
vt -0.375000 2.000000
vt 3.656250 0.000000
vt 3.843750 0.000000
vt 4.625000 2.000000
vt 5.000000 0.000000
vt 9.156250 2.000000
vt 5.000000 2.000000
vt -15.375000 0.000000
vt -15.375000 2.000000
vt 6.000000 2.000000
vt 5.000000 2.750000
vt 5.000000 2.000000
vt -0.843750 2.750000
vt 0.000000 2.750000
vt 0.000000 2.000000
vt -0.375000 2.750000
vt 0.000000 2.000000
vt -1.000000 2.750000
vt -1.000000 2.000000
vt -7.000000 1.000000
vt -6.625000 1.187500
vt -7.000000 1.187500
vt -5.000000 5.000000
vt -5.843750 4.625000
vt -5.000000 4.625000
vt -12.000000 1.000000
vt -11.156250 -0.375000
vt -11.000000 0.000000
vt -8.000000 0.000000
vt -6.625000 0.843750
vt -12.406250 6.031250
vt -12.375000 0.843750
vt -9.000000 15.000000
vt -11.343750 13.187500
vt -11.000000 13.000000
vt -7.843750 -0.375000
vt -7.000000 4.000000
vt -6.000000 5.000000
vt -12.000000 6.000000
vt -6.031250 2.750000
vt 15.000000 2.000000
vt 13.000000 2.750000
vt 13.000000 2.000000
vt -15.375000 2.750000
vt 11.000000 2.000000
vt 8.000000 2.750000
vt 8.000000 2.000000
vt -11.156250 2.750000
vt -4.000000 2.000000
vt -5.000000 2.750000
vt -5.000000 2.000000
vt 3.843750 2.750000
vt 5.000000 2.750000
vt 6.000000 2.750000
vt -13.187500 2.750000
vt -5.843750 0.000000
vt -5.000000 2.000000
vt -5.843750 2.000000
vt -5.843750 2.750000
vt -5.000000 2.000000
vt -9.000000 2.750000
vt -9.000000 2.000000
vt -5.000000 15.375000
vt -9.156250 15.375000
vt -3.250000 5.656250
vt -3.875000 2.750000
vt -5.000000 2.750000
vt 3.250000 2.000000
vt -5.000000 15.000000
vt -3.593750 14.656250
vt 3.593750 0.000000
vt -5.000000 0.000000
vt -2.968750 2.000000
vt 3.593750 2.000000
vt -2.968750 2.750000
vt -5.000000 2.750000
vt 14.656250 2.000000
vt 12.312500 0.000000
vt 14.656250 0.000000
vt 14.656250 2.750000
vt 12.312500 2.000000
vt 5.437500 2.000000
vt 8.000000 2.750000
vt 5.437500 2.750000
vt -2.968750 5.437500
vt -1.406250 8.062500
vt -14.406250 2.000000
vt -12.093750 2.750000
vt -14.406250 2.750000
vt -5.656250 2.750000
vt -8.062500 2.000000
vt -5.656250 2.000000
vt -2.000000 12.093750
vt -1.687500 12.312500
vt 5.437500 0.000000
vt 8.000000 2.000000
vt 8.000000 0.000000
vt -12.093750 2.000000
vt -8.062500 2.750000
vt -1.031250 8.000000
vt 12.312500 2.750000
vt 0.843750 0.000000
vt 1.187500 2.000000
vt -7.000000 3.656250
vt -6.625000 3.843750
vt 0.843750 2.750000
vt -7.000000 2.000000
vt -6.625000 2.750000
vt -7.000000 2.750000
vt -3.656250 2.000000
vt -4.000000 2.750000
vt 7.000000 2.000000
vt 6.625000 2.750000
vt 6.625000 2.000000
vt -1.187500 2.000000
vt -6.625000 2.000000
vt -6.625000 0.000000
vt -3.593750 0.000000
vt 6.625000 0.000000
vt 6.625000 2.000000
vt 3.593750 0.000000
vt 0.375000 0.000000
vt -7.843750 0.000000
vt 4.625000 0.000000
vt 9.156250 0.000000
vt 6.000000 2.750000
vt 0.375000 2.750000
vt 0.000000 2.750000
vt 15.000000 2.750000
vt 11.000000 2.750000
vt -7.843750 2.750000
vt 4.625000 2.750000
vt 9.156250 2.750000
vt -3.875000 2.000000
vt 3.250000 2.750000
vt -3.875000 14.406250
vt -2.968750 0.000000
vt 3.593750 2.750000
vt 1.187500 0.000000
vt -6.625000 3.656250
vt 1.187500 2.750000
vt -6.625000 2.000000
vt -3.656250 2.750000
vt 7.000000 2.750000
vt -1.187500 2.750000
vt -7.000000 4.000000
vt -6.000000 5.000000
vt -12.000000 6.000000
vt -6.625000 3.656250
vt -7.000000 1.187500
vt -6.625000 1.187500
vt -11.000000 0.000000
vt -8.000000 0.000000
vt -7.000000 1.000000
vt -12.000000 1.000000
vt -9.000000 15.000000
vt -11.000000 13.000000
vt -5.000000 15.000000
vt -3.875000 14.406250
vt -1.406250 8.062500
vt -2.000000 12.093750
vt -5.000000 5.000000
vt -3.250000 5.656250
vt -7.000000 3.656250
vn -0.1296 0.4004 0.9072
vn -0.3995 0.4494 0.7990
vn 0.8717 0.4652 -0.1538
vn 0.2377 0.5618 -0.7924
vn -0.8684 0.4458 0.2171
vn -0.3409 0.5434 -0.7671
vn 0.4820 0.4949 0.7230
vn 0.6882 0.5100 0.5161
vn -0.8755 0.4562 -0.1592
vn 0.0000 1.0000 0.0000
vn -0.1294 0.3985 0.9080
vn -0.4052 0.4447 0.7988
vn 0.8673 0.4740 -0.1519
vn 0.2385 0.5599 -0.7935
vn -0.3407 0.5505 -0.7622
vn 0.4794 0.4979 0.7226
vn 0.6914 0.5057 0.5160
vn -0.8750 0.4573 -0.1589
vn 1.0000 0.0000 0.0000
vn -1.0000 0.0000 0.0060
vn -0.9892 0.0000 -0.1469
vn -0.7071 0.0000 0.7071
vn 0.0000 0.0000 1.0000
vn 0.7071 0.0000 0.7071
vn 0.0000 0.0000 -1.0000
vn -0.7071 0.0000 -0.7071
vn 0.7071 0.0000 -0.7071
vn 0.9899 0.0000 0.1414
vn -0.4668 0.0000 0.8844
vn -0.3511 0.0000 -0.9363
vn 0.4551 0.0000 -0.8904
vn 0.3714 0.0000 0.9285
vn 0.7758 0.0000 -0.6310
vn 0.7977 0.0000 0.6031
vn -0.7768 0.0000 0.6298
vn -0.7938 0.0000 -0.6082
vn 0.9886 0.0000 -0.1504
vn -0.9893 0.0000 0.1457
vn -1.0000 0.0000 0.0000
vn 0.5507 0.8347 0.0000
usemtl Grass
s off
f 85/1/1 2/2/1 1/3/1
f 83/4/2 85/1/2 1/3/2
f 87/5/3 7/6/3 3/7/3
f 7/8/4 89/9/4 6/10/4
f 93/11/5 83/12/5 84/13/5
f 6/10/6 91/14/6 8/15/6
f 86/16/7 5/17/7 2/2/7
f 88/18/8 3/7/8 5/19/8
f 8/20/9 93/11/9 84/13/9
f 80/21/10 83/22/10 76/23/10
f 84/24/10 65/25/10 8/26/10
f 105/27/10 65/25/10 55/28/10
f 55/28/10 30/29/10 95/30/10
f 101/31/10 17/32/10 104/33/10
f 104/33/10 20/34/10 6/35/10
f 104/33/10 65/25/10 105/27/10
f 7/36/10 19/37/10 23/38/10
f 20/34/10 7/36/10 6/35/10
f 23/38/10 3/39/10 7/36/10
f 3/39/10 34/40/10 5/41/10
f 5/41/10 32/42/10 2/43/10
f 2/43/10 60/44/10 1/45/10
f 60/44/10 70/46/10 1/45/10
f 76/23/10 1/45/10 70/46/10
f 85/1/11 86/16/11 2/2/11
f 83/4/12 92/47/12 85/1/12
f 87/5/13 90/48/13 7/6/13
f 7/8/14 90/49/14 89/9/14
f 93/11/5 92/50/5 83/12/5
f 6/10/15 89/9/15 91/14/15
f 86/16/16 88/51/16 5/17/16
f 88/18/17 87/5/17 3/7/17
f 8/20/18 91/52/18 93/11/18
f 80/21/10 84/24/10 83/22/10
f 84/24/10 80/21/10 65/25/10
f 28/53/10 95/30/10 30/29/10
f 95/30/10 105/27/10 55/28/10
f 6/35/10 8/26/10 104/33/10
f 104/33/10 17/32/10 20/34/10
f 104/33/10 8/26/10 65/25/10
f 20/34/10 19/37/10 7/36/10
f 23/38/10 25/54/10 3/39/10
f 3/39/10 25/54/10 34/40/10
f 5/41/10 34/40/10 32/42/10
f 2/43/10 32/42/10 60/44/10
f 76/23/10 83/22/10 1/45/10
usemtl Masonry
f 12/55/19 37/56/19 15/57/19
f 29/58/19 97/59/19 94/60/19
f 25/61/20 24/62/20 26/63/20
f 25/61/21 27/64/21 34/65/21
f 23/66/22 22/67/22 24/62/22
f 19/68/23 21/69/23 22/70/23
f 20/71/24 18/72/24 21/73/24
f 95/74/19 29/58/19 94/60/19
f 28/75/24 31/76/24 29/58/24
f 60/77/25 33/78/25 59/79/25
f 32/80/26 27/64/26 33/81/26
f 9/82/25 56/83/25 53/84/25
f 22/67/22 43/85/22 24/62/22
f 15/57/27 36/86/27 11/87/27
f 18/72/24 46/88/24 21/73/24
f 14/89/26 40/90/26 13/91/26
f 40/92/10 100/93/10 99/94/10
f 56/95/10 51/96/10 57/97/10
f 37/98/10 41/99/10 36/100/10
f 35/101/10 45/102/10 40/92/10
f 37/98/10 48/103/10 43/104/10
f 47/105/10 49/106/10 39/107/10
f 36/100/10 46/108/10 35/101/10
f 42/109/10 51/96/10 44/110/10
f 39/107/10 48/103/10 38/111/10
f 24/62/20 48/112/20 26/63/20
f 10/113/24 39/114/24 4/115/24
f 27/64/26 52/116/26 33/81/26
f 11/117/25 35/118/25 14/119/25
f 21/69/23 41/120/23 22/70/23
f 16/121/26 44/122/26 9/123/26
f 31/76/24 50/124/24 29/58/24
f 33/78/25 62/125/25 59/79/25
f 4/115/28 38/126/28 12/55/28
f 26/63/21 49/127/21 27/64/21
f 30/128/23 54/129/23 31/130/23
f 54/129/23 51/131/23 31/130/23
f 58/132/23 47/133/23 10/134/23
f 47/105/10 62/135/10 52/136/10
f 57/97/10 66/137/10 56/95/10
f 58/132/29 71/138/29 61/139/29
f 56/83/30 63/140/30 53/84/30
f 61/141/10 72/142/10 62/135/10
f 59/79/31 70/143/31 60/77/31
f 55/144/32 64/145/32 54/129/32
f 62/125/31 69/146/31 59/79/31
f 54/129/32 67/147/32 57/148/32
f 69/149/33 76/150/33 70/151/33
f 72/152/33 75/153/33 69/149/33
f 64/154/34 82/155/34 67/156/34
f 67/157/10 81/158/10 66/137/10
f 68/159/35 77/160/35 71/161/35
f 66/162/36 73/163/36 63/164/36
f 72/142/10 77/165/10 78/166/10
f 65/167/34 79/168/34 64/154/34
f 75/153/37 80/169/37 76/150/37
f 74/170/38 81/171/38 77/160/38
f 77/165/10 82/172/10 78/166/10
f 78/173/37 79/168/37 75/153/37
f 17/174/19 98/175/19 18/72/19
f 96/176/10 50/177/10 42/109/10
f 98/175/19 45/178/19 18/72/19
f 102/179/23 97/180/23 96/181/23
f 102/182/39 42/183/39 16/121/39
f 103/184/25 100/185/25 98/186/25
f 40/90/39 103/187/39 13/91/39
f 98/188/23 101/189/23 104/190/23
f 95/191/25 94/192/25 105/193/25
f 12/55/19 38/126/19 37/56/19
f 29/58/19 50/124/19 97/59/19
f 25/61/20 23/66/20 24/62/20
f 25/61/21 26/63/21 27/64/21
f 23/66/22 19/194/22 22/67/22
f 19/68/23 20/195/23 21/69/23
f 20/71/24 17/174/24 18/72/24
f 95/74/19 28/75/19 29/58/19
f 28/75/24 30/196/24 31/76/24
f 60/77/25 32/197/25 33/78/25
f 32/80/26 34/65/26 27/64/26
f 9/82/25 44/198/25 56/83/25
f 22/67/22 41/199/22 43/85/22
f 15/57/27 37/56/27 36/86/27
f 18/72/24 45/178/24 46/88/24
f 14/89/26 35/200/26 40/90/26
f 40/92/10 45/102/10 100/93/10
f 56/95/10 44/110/10 51/96/10
f 37/98/10 43/104/10 41/99/10
f 35/101/10 46/108/10 45/102/10
f 37/98/10 38/111/10 48/103/10
f 47/105/10 52/136/10 49/106/10
f 36/100/10 41/99/10 46/108/10
f 42/109/10 50/177/10 51/96/10
f 39/107/10 49/106/10 48/103/10
f 24/62/20 43/85/20 48/112/20
f 10/113/24 47/201/24 39/114/24
f 27/64/26 49/127/26 52/116/26
f 11/117/25 36/202/25 35/118/25
f 21/69/23 46/203/23 41/120/23
f 16/121/26 42/183/26 44/122/26
f 31/76/24 51/204/24 50/124/24
f 33/78/25 52/205/25 62/125/25
f 4/115/28 39/114/28 38/126/28
f 26/63/21 48/112/21 49/127/21
f 30/128/23 55/144/23 54/129/23
f 54/129/23 57/148/23 51/131/23
f 58/132/23 61/139/23 47/133/23
f 47/105/10 61/141/10 62/135/10
f 57/97/10 67/157/10 66/137/10
f 58/132/29 68/206/29 71/138/29
f 56/83/30 66/207/30 63/140/30
f 61/141/10 71/208/10 72/142/10
f 59/79/31 69/146/31 70/143/31
f 55/144/32 65/209/32 64/145/32
f 62/125/31 72/210/31 69/146/31
f 54/129/32 64/145/32 67/147/32
f 69/149/33 75/153/33 76/150/33
f 72/152/33 78/173/33 75/153/33
f 64/154/34 79/168/34 82/155/34
f 67/157/10 82/172/10 81/158/10
f 68/159/35 74/170/35 77/160/35
f 66/162/36 81/171/36 73/163/36
f 72/142/10 71/208/10 77/165/10
f 65/167/34 80/169/34 79/168/34
f 75/153/37 79/168/37 80/169/37
f 74/170/38 73/163/38 81/171/38
f 77/165/10 81/158/10 82/172/10
f 78/173/37 82/155/37 79/168/37
f 17/174/19 101/211/19 98/175/19
f 96/176/10 97/212/10 50/177/10
f 98/175/19 100/213/19 45/178/19
f 102/179/23 94/214/23 97/180/23
f 102/182/39 96/215/39 42/183/39
f 103/184/25 99/216/25 100/185/25
f 40/90/39 99/217/39 103/187/39
usemtl PlateFloor
f 16/218/10 9/219/10 12/220/10
f 94/221/10 103/222/10 98/223/10
f 98/223/40 105/27/40 94/221/40
f 11/224/10 14/225/10 13/226/10
f 11/224/10 13/226/10 16/218/10
f 12/220/10 15/227/10 16/218/10
f 15/227/10 11/224/10 16/218/10
f 10/228/10 4/229/10 58/230/10
f 4/229/10 12/220/10 9/219/10
f 68/231/10 58/230/10 4/229/10
f 73/232/10 74/233/10 9/219/10
f 74/233/10 68/231/10 4/229/10
f 9/219/10 74/233/10 4/229/10
f 53/234/10 63/235/10 9/219/10
f 63/235/10 73/232/10 9/219/10
f 94/221/10 102/236/10 103/222/10
f 98/223/40 104/33/40 105/27/40
