ply
format ascii 1.0
comment Created by Blender 2.80 (sub 75) - www.blender.org, source file: 'level_1.blend'
element vertex 45
property float x
property float y
property float z
property float nx
property float ny
property float nz
property float s
property float t
element face 25
property list uchar uint vertex_indices
end_header
-13.781250 -7.000000 1.750000 0.287856 0.957674 0.000000 0.875000 0.500000
-13.781250 -7.000000 9.750000 0.287856 0.957674 0.000000 0.875000 0.500000
-2.968750 -10.250000 9.750000 0.287856 0.957674 0.000000 0.875000 0.750000
-2.968750 -10.250000 1.750000 0.287856 0.957674 -0.000000 0.875000 0.750000
-13.781250 15.687500 1.750000 0.801392 -0.598140 0.000000 0.875000 0.500000
-13.781250 15.687500 9.750000 0.801392 -0.598140 0.000000 0.875000 0.500000
-17.000000 11.375000 9.750000 0.801392 -0.598140 0.000000 0.875000 0.750000
-17.000000 11.375000 1.750000 0.801392 -0.598140 0.000000 0.875000 0.750000
6.750000 -5.906250 1.750000 -0.983911 0.178658 0.000000 0.625000 0.750000
6.750000 -5.906250 9.750000 -0.983911 0.178658 0.000000 0.625000 0.750000
8.906250 5.968750 9.750000 -0.983911 0.178658 0.000000 0.625000 0.750000
8.906250 5.968750 1.750000 -0.983911 0.178658 0.000000 0.625000 0.750000
8.906250 5.968750 1.750000 -0.970142 -0.242536 -0.000000 0.625000 0.750000
8.906250 5.968750 9.750000 -0.970142 -0.242536 -0.000000 0.625000 0.750000
6.750000 14.593750 9.750000 -0.970142 -0.242536 -0.000000 0.625000 0.500000
6.750000 14.593750 1.750000 -0.970142 -0.242536 0.000000 0.625000 0.500000
-10.531250 17.843750 1.750000 0.552850 -0.833281 0.000000 0.625000 0.500000
-10.531250 17.843750 9.750000 0.552850 -0.833281 0.000000 0.625000 0.500000
-13.781250 15.687500 9.750000 0.552850 -0.833281 0.000000 0.875000 0.500000
-13.781250 15.687500 1.750000 0.552850 -0.833281 0.000000 0.875000 0.500000
-17.000000 11.375000 1.750000 0.985002 0.172543 0.000000 0.875000 0.500000
-17.000000 11.375000 9.750000 0.985002 0.172543 0.000000 0.875000 0.500000
-13.781250 -7.000000 9.750000 0.985002 0.172543 0.000000 0.875000 0.750000
-13.781250 -7.000000 1.750000 0.985002 0.172543 -0.000000 0.875000 0.750000
-2.968750 -10.250000 1.750000 -0.408044 0.912962 0.000000 0.875000 0.750000
-2.968750 -10.250000 9.750000 -0.408044 0.912962 0.000000 0.875000 0.750000
6.750000 -5.906250 9.750000 -0.408044 0.912962 0.000000 0.625000 0.500000
6.750000 -5.906250 1.750000 -0.408044 0.912962 0.000000 0.625000 0.500000
6.750000 14.593750 1.750000 -0.452376 -0.891827 -0.000000 0.625000 0.500000
6.750000 14.593750 9.750000 -0.452376 -0.891827 -0.000000 0.625000 0.500000
4.593750 15.687500 9.750000 -0.452376 -0.891827 -0.000000 0.625000 0.500000
4.593750 15.687500 1.750000 -0.452376 -0.891827 0.000000 0.625000 0.500000
4.593750 15.687500 1.750000 -0.141135 -0.989990 -0.000000 0.625000 0.750000
4.593750 15.687500 9.750000 -0.141135 -0.989990 -0.000000 0.625000 0.750000
-10.531250 17.843750 9.750000 -0.141135 -0.989990 -0.000000 0.625000 0.500000
-10.531250 17.843750 1.750000 -0.141135 -0.989990 0.000000 0.625000 0.500000
-10.531250 17.843750 9.750000 0.000000 0.000000 -1.000000 0.625000 0.500000
4.593750 15.687500 9.750000 0.000000 0.000000 -1.000000 0.625000 0.750000
6.750000 14.593750 9.750000 0.000000 0.000000 -1.000000 0.625000 0.500000
8.906250 5.968750 9.750000 0.000000 0.000000 -1.000000 0.625000 0.750000
6.750000 -5.906250 9.750000 0.000000 0.000000 -1.000000 0.625000 0.500000
-2.968750 -10.250000 9.750000 0.000000 0.000000 -1.000000 0.875000 0.750000
-13.781250 -7.000000 9.750000 0.000000 0.000000 -1.000000 0.875000 0.750000
-17.000000 11.375000 9.750000 0.000000 -0.000000 -1.000000 0.875000 0.750000
-13.781250 15.687500 9.750000 0.000000 -0.000000 -1.000000 0.875000 0.500000
3 0 1 2
3 0 2 3
3 4 5 6
3 4 6 7
3 8 9 10
3 8 10 11
3 12 13 14
3 12 14 15
3 16 17 18
3 16 18 19
3 20 21 22
3 20 22 23
3 24 25 26
3 24 26 27
3 28 29 30
3 28 30 31
3 32 33 34
3 32 34 35
3 36 37 38
3 38 39 40
3 40 41 42
3 42 43 44
3 44 36 38
3 38 40 42
3 38 42 44
