ply
format ascii 1.0
comment Created by Blender 2.80 (sub 75) - www.blender.org, source file: 'level_1.blend'
element vertex 316
property float x
property float y
property float z
property float nx
property float ny
property float nz
property float s
property float t
element face 197
property list uchar uint vertex_indices
end_header
-11.000000 0.000000 2.000000 0.000000 0.000000 1.000000 0.657600 0.407200
-8.000000 0.000000 2.000000 0.000000 0.000000 1.000000 0.735200 0.407200
-7.000000 1.000000 2.000000 0.000000 0.000000 1.000000 0.760800 0.432800
-7.000000 4.000000 2.000000 0.000000 0.000000 1.000000 0.760800 0.510400
-12.000000 6.000000 2.000000 0.000000 -0.000000 1.000000 0.632000 0.561600
-12.000000 1.000000 2.000000 0.000000 -0.000000 1.000000 0.632000 0.432800
-9.000000 15.000000 2.000000 0.000000 0.000000 1.000000 0.709600 0.794400
-11.000000 13.000000 2.000000 0.000000 0.000000 1.000000 0.657600 0.742400
-3.875000 14.406250 2.000000 -0.000000 0.000000 1.000000 0.841600 0.779200
-5.000000 15.000000 2.000000 -0.000000 0.000000 1.000000 0.812800 0.794400
-1.406250 8.062500 2.000000 0.000000 0.000000 1.000000 0.905600 0.615200
-2.000000 12.093750 2.000000 0.000000 0.000000 1.000000 0.890400 0.719200
-5.000000 5.000000 2.000000 0.000000 0.000000 1.000000 0.812800 0.536000
-3.250000 5.656250 2.000000 0.000000 0.000000 1.000000 0.857600 0.552800
-11.000000 0.000000 2.000000 0.000000 0.000000 0.000000 0.657600 0.407200
-7.000000 4.000000 2.000000 0.000000 0.000000 0.000000 0.760800 0.510400
-6.000000 5.000000 2.000000 0.000000 0.000000 0.000000 0.787200 0.536000
-6.000000 5.000000 2.000000 0.000000 0.000000 1.000000 0.787200 0.536000
-12.000000 1.000000 2.000000 1.000000 0.000000 0.000000 0.220000 0.826400
-12.000000 6.000000 2.000000 1.000000 0.000000 0.000000 0.220000 0.955200
-12.000000 6.000000 2.750000 1.000000 0.000000 0.000000 0.200800 0.955200
-12.000000 1.000000 2.750000 1.000000 -0.000000 0.000000 0.200800 0.826400
-6.625000 3.656250 2.000000 1.000000 0.000000 0.000000 0.631200 0.658400
-6.625000 3.843750 2.000000 1.000000 0.000000 0.000000 0.626400 0.658400
-6.625000 3.843750 2.750000 1.000000 0.000000 0.000000 0.626400 0.639200
-6.625000 3.656250 2.750000 1.000000 -0.000000 0.000000 0.631200 0.639200
-12.406250 6.031250 2.000000 -0.999982 -0.006024 0.000000 0.300800 0.639200
-12.406250 6.031250 0.000000 -0.999982 -0.006024 0.000000 0.352000 0.639200
-12.375000 0.843750 0.000000 -0.999982 -0.006024 0.000000 0.352000 0.773600
-12.375000 0.843750 2.000000 -0.999982 -0.006024 -0.000000 0.300800 0.773600
-11.343750 13.187500 0.000000 -0.989157 0.146862 0.000000 0.230400 0.639200
-12.406250 6.031250 0.000000 -0.989157 0.146862 0.000000 0.230400 0.826400
-12.406250 6.031250 2.000000 -0.989157 0.146862 0.000000 0.179200 0.826400
-11.343750 13.187500 2.000000 -0.989157 0.146862 0.000000 0.179200 0.639200
-12.375000 0.843750 2.000000 -0.707107 -0.707107 0.000000 0.842400 0.845600
-12.375000 0.843750 0.000000 -0.707107 -0.707107 0.000000 0.842400 0.794400
-11.156250 -0.375000 0.000000 -0.707107 -0.707107 0.000000 0.887200 0.794400
-11.156250 -0.375000 2.000000 -0.707107 -0.707107 -0.000000 0.887200 0.845600
-11.156250 -0.375000 2.000000 0.000000 -1.000000 0.000000 0.598400 0.724800
-11.156250 -0.375000 0.000000 0.000000 -1.000000 0.000000 0.546400 0.724800
-7.843750 -0.375000 0.000000 0.000000 -1.000000 0.000000 0.546400 0.639200
-7.843750 -0.375000 2.000000 -0.000000 -1.000000 -0.000000 0.598400 0.639200
-7.843750 -0.375000 2.000000 0.707107 -0.707107 0.000000 0.591200 0.838400
-7.843750 -0.375000 0.000000 0.707107 -0.707107 0.000000 0.591200 0.889600
-6.625000 0.843750 0.000000 0.707107 -0.707107 0.000000 0.546400 0.889600
-6.625000 0.843750 2.000000 0.707107 -0.707107 0.000000 0.546400 0.838400
-6.625000 3.656250 0.000000 1.000000 0.000000 -0.000000 0.631200 0.710400
-6.625000 3.843750 0.000000 1.000000 0.000000 -0.000000 0.626400 0.710400
-6.625000 3.843750 2.000000 0.707107 -0.707107 0.000000 0.442400 0.881600
-6.625000 3.843750 0.000000 0.707107 -0.707107 0.000000 0.442400 0.829600
-5.843750 4.625000 0.000000 0.707107 -0.707107 0.000000 0.471200 0.829600
-5.843750 4.625000 2.000000 0.707107 -0.707107 0.000000 0.471200 0.881600
-5.000000 15.375000 2.000000 0.000000 1.000000 0.000000 0.475200 0.746400
-5.000000 15.375000 0.000000 0.000000 1.000000 0.000000 0.423200 0.746400
-9.156250 15.375000 0.000000 0.000000 1.000000 0.000000 0.423200 0.639200
-9.156250 15.375000 2.000000 -0.000000 1.000000 0.000000 0.475200 0.639200
-9.156250 15.375000 2.000000 -0.707107 0.707107 0.000000 0.371200 0.752000
-9.156250 15.375000 0.000000 -0.707107 0.707107 0.000000 0.423200 0.752000
-11.343750 13.187500 0.000000 -0.707107 0.707107 0.000000 0.423200 0.832000
-11.343750 13.187500 2.000000 -0.707107 0.707107 0.000000 0.371200 0.832000
-5.000000 5.000000 2.000000 -0.000000 1.000000 0.000000 0.861600 0.865600
-6.000000 5.000000 2.000000 -0.000000 1.000000 0.000000 0.861600 0.891200
-6.000000 5.000000 2.750000 -0.000000 1.000000 0.000000 0.842400 0.891200
-5.000000 5.000000 2.750000 0.000000 1.000000 0.000000 0.842400 0.865600
-11.156250 -0.375000 2.750000 -0.707107 -0.707107 -0.000000 0.887200 0.865600
-12.375000 0.843750 2.750000 -0.707107 -0.707107 0.000000 0.842400 0.865600
-11.000000 0.000000 2.000000 0.707107 0.707107 0.000000 0.792000 0.899200
-12.000000 1.000000 2.000000 0.707107 0.707107 0.000000 0.792000 0.862400
-12.000000 1.000000 2.750000 0.707107 0.707107 0.000000 0.811200 0.862400
-11.000000 0.000000 2.750000 0.707107 0.707107 0.000000 0.811200 0.899200
-6.625000 0.843750 2.750000 0.707107 -0.707107 0.000000 0.546400 0.818400
-7.843750 -0.375000 2.750000 0.707107 -0.707107 0.000000 0.591200 0.818400
-7.000000 1.000000 2.000000 -0.707107 0.707107 0.000000 0.754400 0.865600
-8.000000 0.000000 2.000000 -0.707107 0.707107 0.000000 0.754400 0.901600
-8.000000 0.000000 2.750000 -0.707107 0.707107 0.000000 0.735200 0.901600
-7.000000 1.000000 2.750000 -0.707107 0.707107 0.000000 0.735200 0.865600
-7.000000 1.187500 2.750000 0.000000 -0.000000 1.000000 0.772000 0.040000
-7.000000 1.000000 2.750000 0.000000 -0.000000 1.000000 0.772000 0.035200
-6.625000 0.843750 2.750000 0.000000 -0.000000 1.000000 0.781600 0.031200
-6.625000 1.187500 2.750000 0.000000 0.000000 1.000000 0.781600 0.040000
-5.000000 5.000000 2.750000 0.000000 -0.000000 1.000000 0.823200 0.139200
-6.000000 5.000000 2.750000 0.000000 -0.000000 1.000000 0.797600 0.139200
-5.843750 4.625000 2.750000 0.000000 -0.000000 1.000000 0.801600 0.128800
-5.000000 4.625000 2.750000 0.000000 -0.000000 1.000000 0.823200 0.128800
-11.000000 0.000000 2.750000 -0.000000 0.000000 1.000000 0.668000 0.009600
-12.000000 1.000000 2.750000 -0.000000 0.000000 1.000000 0.642400 0.035200
-12.375000 0.843750 2.750000 -0.000000 0.000000 1.000000 0.632800 0.031200
-11.156250 -0.375000 2.750000 -0.000000 -0.000000 1.000000 0.664000 0.000000
-8.000000 0.000000 2.750000 0.000000 -0.000000 1.000000 0.745600 0.009600
-7.843750 -0.375000 2.750000 0.000000 -0.000000 1.000000 0.749600 0.000000
-12.000000 6.000000 2.750000 0.000000 0.000000 1.000000 0.642400 0.164800
-12.406250 6.031250 2.750000 0.000000 0.000000 1.000000 0.632000 0.165600
-11.000000 13.000000 2.750000 0.000000 0.000000 1.000000 0.668000 0.345600
-9.000000 15.000000 2.750000 0.000000 0.000000 1.000000 0.720000 0.396800
-9.156250 15.375000 2.750000 0.000000 0.000000 1.000000 0.716000 0.407200
-11.343750 13.187500 2.750000 -0.000000 0.000000 1.000000 0.659200 0.350400
-7.000000 4.000000 2.750000 0.000000 -0.000000 1.000000 0.772000 0.112800
-6.625000 3.843750 2.750000 0.000000 -0.000000 1.000000 0.781600 0.108800
-12.375000 0.843750 2.750000 -0.999982 -0.006024 -0.000000 0.280800 0.773600
-12.406250 6.031250 2.750000 -0.999982 -0.006024 0.000000 0.280800 0.639200
-11.000000 13.000000 2.000000 0.707107 -0.707107 0.000000 0.300800 0.924000
-9.000000 15.000000 2.000000 0.707107 -0.707107 0.000000 0.300800 0.851200
-9.000000 15.000000 2.750000 0.707107 -0.707107 0.000000 0.320000 0.851200
-11.000000 13.000000 2.750000 0.707107 -0.707107 0.000000 0.320000 0.924000
-11.343750 13.187500 2.750000 -0.707107 0.707107 0.000000 0.352000 0.832000
-9.156250 15.375000 2.750000 -0.707107 0.707107 0.000000 0.352000 0.752000
-8.000000 0.000000 2.000000 -0.000000 1.000000 0.000000 0.412800 0.832000
-11.000000 0.000000 2.000000 -0.000000 1.000000 0.000000 0.412800 0.909600
-11.000000 0.000000 2.750000 -0.000000 1.000000 0.000000 0.393600 0.909600
-8.000000 0.000000 2.750000 0.000000 1.000000 0.000000 0.393600 0.832000
-7.843750 -0.375000 2.750000 -0.000000 -1.000000 -0.000000 0.617600 0.639200
-11.156250 -0.375000 2.750000 0.000000 -1.000000 -0.000000 0.617600 0.724800
-6.000000 5.000000 2.000000 -0.707107 0.707107 0.000000 0.830400 0.862400
-7.000000 4.000000 2.000000 -0.707107 0.707107 0.000000 0.830400 0.899200
-7.000000 4.000000 2.750000 -0.707107 0.707107 0.000000 0.811200 0.899200
-6.000000 5.000000 2.750000 -0.707107 0.707107 0.000000 0.811200 0.862400
-5.843750 4.625000 2.750000 0.707107 -0.707107 0.000000 0.471200 0.900800
-6.625000 3.843750 2.750000 0.707107 -0.707107 0.000000 0.442400 0.900800
-9.156250 15.375000 2.750000 -0.000000 1.000000 0.000000 0.494400 0.639200
-5.000000 15.375000 2.750000 0.000000 1.000000 0.000000 0.494400 0.746400
-12.000000 6.000000 2.000000 0.989950 -0.141421 0.000000 0.629600 0.724800
-11.000000 13.000000 2.000000 0.989950 -0.141421 0.000000 0.629600 0.907200
-11.000000 13.000000 2.750000 0.989950 -0.141421 0.000000 0.610400 0.907200
-12.000000 6.000000 2.750000 0.989950 -0.141421 0.000000 0.610400 0.724800
-12.406250 6.031250 2.750000 -0.989157 0.146862 0.000000 0.160000 0.826400
-11.343750 13.187500 2.750000 -0.989157 0.146862 0.000000 0.160000 0.639200
-5.843750 4.625000 2.000000 0.000000 -1.000000 0.000000 0.373600 0.851200
-5.843750 4.625000 0.000000 0.000000 -1.000000 0.000000 0.373600 0.903200
-5.000000 4.625000 0.000000 0.000000 -1.000000 0.000000 0.352000 0.903200
-5.000000 4.625000 2.000000 -0.000000 -1.000000 -0.000000 0.352000 0.851200
-5.000000 4.625000 2.750000 -0.000000 -1.000000 -0.000000 0.352000 0.832000
-5.843750 4.625000 2.750000 0.000000 -1.000000 -0.000000 0.373600 0.832000
-9.000000 15.000000 2.000000 -0.000000 -1.000000 -0.000000 0.471200 0.932800
-5.000000 15.000000 2.000000 -0.000000 -1.000000 -0.000000 0.471200 0.829600
-5.000000 15.000000 2.750000 -0.000000 -1.000000 -0.000000 0.490400 0.829600
-9.000000 15.000000 2.750000 0.000000 -1.000000 -0.000000 0.490400 0.932800
-5.000000 15.000000 2.750000 0.000000 0.000000 1.000000 0.823200 0.396800
-5.000000 15.375000 2.750000 0.000000 0.000000 1.000000 0.823200 0.407200
-2.968750 5.437500 2.750000 0.000000 -0.000000 1.000000 0.876000 0.150400
-3.250000 5.656250 2.750000 0.000000 0.000000 1.000000 0.868800 0.156000
-5.000000 15.000000 2.750000 -0.466759 -0.884385 0.000000 0.774400 0.898400
-5.000000 15.000000 2.000000 -0.466759 -0.884385 0.000000 0.754400 0.898400
-3.875000 14.406250 2.000000 -0.466759 -0.884385 0.000000 0.754400 0.865600
-3.875000 14.406250 2.750000 -0.466759 -0.884385 -0.000000 0.774400 0.865600
-5.000000 5.000000 2.000000 -0.351123 0.936329 0.000000 0.320000 0.851200
-5.000000 5.000000 2.750000 -0.351123 0.936329 0.000000 0.339200 0.851200
-3.250000 5.656250 2.750000 -0.351123 0.936329 0.000000 0.339200 0.899200
-3.250000 5.656250 2.000000 -0.351123 0.936329 0.000000 0.320000 0.899200
-3.875000 14.406250 2.750000 0.000000 -0.000000 1.000000 0.852000 0.381600
-3.593750 14.656250 2.750000 0.000000 0.000000 1.000000 0.859200 0.388000
-5.000000 15.375000 0.000000 0.455111 0.890435 0.000000 0.160000 0.896800
-5.000000 15.375000 2.000000 0.455111 0.890435 0.000000 0.160000 0.845600
-3.593750 14.656250 2.000000 0.455111 0.890435 0.000000 0.200800 0.845600
-3.593750 14.656250 0.000000 0.455111 0.890435 -0.000000 0.200800 0.896800
-5.000000 4.625000 2.000000 0.371391 -0.928477 0.000000 0.792000 0.813600
-5.000000 4.625000 0.000000 0.371391 -0.928477 0.000000 0.792000 0.865600
-2.968750 5.437500 0.000000 0.371391 -0.928477 0.000000 0.735200 0.865600
-2.968750 5.437500 2.000000 0.371391 -0.928477 0.000000 0.735200 0.813600
-5.000000 15.375000 2.750000 0.455111 0.890435 0.000000 0.160000 0.826400
-3.593750 14.656250 2.750000 0.455111 0.890435 0.000000 0.200800 0.826400
-5.000000 4.625000 2.750000 0.371391 -0.928477 0.000000 0.792000 0.794400
-2.968750 5.437500 2.750000 0.371391 -0.928477 0.000000 0.735200 0.794400
-3.593750 14.656250 0.000000 0.775798 0.630982 0.000000 0.352000 0.851200
-3.593750 14.656250 2.000000 0.775798 0.630982 0.000000 0.300800 0.851200
-1.687500 12.312500 2.000000 0.775798 0.630982 0.000000 0.300800 0.773600
-1.687500 12.312500 0.000000 0.775798 0.630982 -0.000000 0.352000 0.773600
-3.593750 14.656250 2.000000 0.775797 0.630982 0.000000 0.300800 0.851200
-3.593750 14.656250 2.750000 0.775797 0.630982 0.000000 0.280800 0.851200
-1.687500 12.312500 2.750000 0.775797 0.630982 0.000000 0.280800 0.773600
-1.687500 12.312500 2.000000 0.775797 0.630982 -0.000000 0.300800 0.773600
-2.968750 5.437500 2.750000 0.797659 -0.603108 0.000000 0.494400 0.829600
-2.968750 5.437500 2.000000 0.797659 -0.603108 0.000000 0.475200 0.829600
-1.031250 8.000000 2.000000 0.797659 -0.603108 0.000000 0.475200 0.746400
-1.031250 8.000000 2.750000 0.797659 -0.603108 0.000000 0.494400 0.746400
-1.031250 8.000000 2.750000 0.000000 0.000000 1.000000 0.925600 0.216000
-1.406250 8.062500 2.750000 0.000000 0.000000 1.000000 0.916000 0.217600
-3.875000 14.406250 2.750000 -0.776756 -0.629802 0.000000 0.280800 0.851200
-3.875000 14.406250 2.000000 -0.776756 -0.629802 0.000000 0.300800 0.851200
-2.000000 12.093750 2.000000 -0.776756 -0.629802 0.000000 0.300800 0.928000
-2.000000 12.093750 2.750000 -0.776756 -0.629802 -0.000000 0.280800 0.928000
-3.250000 5.656250 2.000000 -0.793772 0.608215 0.000000 0.393600 0.910400
-3.250000 5.656250 2.750000 -0.793772 0.608215 0.000000 0.373600 0.910400
-1.406250 8.062500 2.750000 -0.793772 0.608215 0.000000 0.373600 0.832000
-1.406250 8.062500 2.000000 -0.793772 0.608215 0.000000 0.393600 0.832000
-2.000000 12.093750 2.750000 0.000000 -0.000000 1.000000 0.900800 0.322400
-1.687500 12.312500 2.750000 0.000000 0.000000 1.000000 0.908800 0.328000
-2.968750 5.437500 0.000000 0.797659 -0.603108 0.000000 0.423200 0.829600
-1.031250 8.000000 0.000000 0.797659 -0.603108 0.000000 0.423200 0.746400
-1.687500 12.312500 0.000000 0.988619 0.150442 0.000000 0.352000 0.639200
-1.687500 12.312500 2.000000 0.988619 0.150442 0.000000 0.404000 0.639200
-1.031250 8.000000 2.000000 0.988619 0.150442 0.000000 0.404000 0.752000
-1.031250 8.000000 0.000000 0.988619 0.150442 -0.000000 0.352000 0.752000
-2.000000 12.093750 2.750000 -0.989327 -0.145715 0.000000 0.423200 0.829600
-2.000000 12.093750 2.000000 -0.989327 -0.145715 0.000000 0.442400 0.829600
-1.406250 8.062500 2.000000 -0.989327 -0.145715 0.000000 0.442400 0.935200
-1.406250 8.062500 2.750000 -0.989327 -0.145715 -0.000000 0.423200 0.935200
-1.687500 12.312500 2.750000 0.988619 0.150442 0.000000 0.423200 0.639200
-1.031250 8.000000 2.750000 0.988619 0.150442 0.000000 0.423200 0.752000
-6.625000 0.843750 2.000000 1.000000 0.000000 -0.000000 0.617600 0.691200
-6.625000 0.843750 0.000000 1.000000 0.000000 -0.000000 0.617600 0.639200
-6.625000 1.187500 0.000000 1.000000 0.000000 -0.000000 0.626400 0.639200
-6.625000 1.187500 2.000000 1.000000 0.000000 0.000000 0.626400 0.691200
-7.000000 3.656250 2.750000 0.000000 -0.000000 1.000000 0.772000 0.104000
-6.625000 3.656250 2.750000 0.000000 -0.000000 1.000000 0.781600 0.104000
4.000000 15.000000 0.000000 -0.129335 -0.907217 0.400288 0.925600 0.012800
4.593750 15.687500 1.750000 -0.129335 -0.907217 0.400288 0.975200 0.000000
-10.531250 17.843750 1.750000 -0.129335 -0.907217 0.400288 0.975200 0.394400
4.000000 15.000000 0.000000 -0.129713 -0.907991 0.398404 0.925600 0.012800
-10.531250 17.843750 1.750000 -0.129713 -0.907991 0.398404 0.975200 0.394400
-10.000000 17.000000 0.000000 -0.129713 -0.907991 0.398404 0.925600 0.377600
6.000000 14.000000 0.000000 -0.405190 -0.798802 0.444675 0.792000 0.804800
6.750000 14.593750 1.750000 -0.405190 -0.798802 0.444675 0.842400 0.794400
4.593750 15.687500 1.750000 -0.405190 -0.798802 0.444675 0.842400 0.856800
6.000000 14.000000 0.000000 -0.399501 -0.799002 0.449439 0.792000 0.804800
4.593750 15.687500 1.750000 -0.399501 -0.799002 0.449439 0.842400 0.856800
4.000000 15.000000 0.000000 -0.399501 -0.799002 0.449439 0.792000 0.862400
-16.000000 11.000000 0.000000 0.871801 0.152713 0.465448 0.905600 0.420800
-17.000000 11.375000 1.750000 0.871801 0.152713 0.465448 0.956800 0.407200
-13.781250 -7.000000 1.750000 0.871801 0.152713 0.465448 0.956800 0.888800
-16.000000 11.000000 0.000000 0.866900 0.152982 0.474427 0.905600 0.420800
-13.781250 -7.000000 1.750000 0.866900 0.152982 0.474427 0.956800 0.888800
-13.000000 -6.000000 0.000000 0.866900 0.152982 0.474427 0.905600 0.866400
-13.000000 -6.000000 0.000000 0.238506 0.793491 0.559899 0.000000 0.651200
-13.781250 -7.000000 1.750000 0.238506 0.793491 0.559899 0.054400 0.639200
-2.968750 -10.250000 1.750000 0.238506 0.793491 0.559899 0.054400 0.931200
-13.000000 -6.000000 0.000000 0.237723 0.792409 0.561761 0.000000 0.651200
-2.968750 -10.250000 1.750000 0.237723 0.792409 0.561761 0.054400 0.931200
-3.000000 -9.000000 0.000000 0.237723 0.792409 0.561761 0.000000 0.920800
8.000000 6.000000 0.000000 -0.868393 -0.217098 0.445827 0.280800 0.862400
8.906250 5.968750 1.750000 -0.868393 -0.217098 0.445827 0.230400 0.868800
6.750000 14.593750 1.750000 -0.868393 -0.217098 0.445827 0.230400 0.639200
6.000000 14.000000 0.000000 -0.868393 -0.217098 0.445827 0.280800 0.649600
-3.000000 -9.000000 0.000000 -0.340651 0.762176 0.550495 0.105600 0.652000
-2.968750 -10.250000 1.750000 -0.340651 0.762176 0.550495 0.160000 0.639200
6.750000 -5.906250 1.750000 -0.340651 0.762176 0.550495 0.160000 0.914400
-3.000000 -9.000000 0.000000 -0.340947 0.767130 0.543384 0.105600 0.652000
6.750000 -5.906250 1.750000 -0.340947 0.767130 0.543384 0.160000 0.914400
6.000000 -5.000000 0.000000 -0.340947 0.767130 0.543384 0.105600 0.906400
-10.000000 17.000000 0.000000 0.480388 -0.724063 0.494934 0.494400 0.779200
-10.531250 17.843750 1.750000 0.480388 -0.724063 0.494934 0.546400 0.778400
-13.781250 15.687500 1.750000 0.480388 -0.724063 0.494934 0.546400 0.879200
-10.000000 17.000000 0.000000 0.480975 -0.721462 0.498152 0.494400 0.779200
-13.781250 15.687500 1.750000 0.480975 -0.721462 0.498152 0.546400 0.879200
-13.000000 15.000000 0.000000 0.480975 -0.721462 0.498152 0.494400 0.872000
-13.000000 15.000000 0.000000 0.689383 -0.514540 0.509901 0.494400 0.641600
-13.781250 15.687500 1.750000 0.689383 -0.514540 0.509901 0.546400 0.639200
-17.000000 11.375000 1.750000 0.689383 -0.514540 0.509901 0.546400 0.778400
-13.000000 15.000000 0.000000 0.690307 -0.517730 0.505403 0.494400 0.641600
-17.000000 11.375000 1.750000 0.690307 -0.517730 0.505403 0.546400 0.778400
-16.000000 11.000000 0.000000 0.690307 -0.517730 0.505403 0.494400 0.770400
6.000000 -5.000000 0.000000 -0.875013 0.158884 0.457284 0.054400 0.659200
6.750000 -5.906250 1.750000 -0.875013 0.158884 0.457284 0.105600 0.639200
8.906250 5.968750 1.750000 -0.875013 0.158884 0.457284 0.105600 0.951200
6.000000 -5.000000 0.000000 -0.875508 0.159183 0.456231 0.054400 0.659200
8.906250 5.968750 1.750000 -0.875508 0.159183 0.456231 0.105600 0.951200
8.000000 6.000000 0.000000 -0.875508 0.159183 0.456231 0.054400 0.948000
-6.625000 1.187500 2.750000 1.000000 0.000000 0.000000 0.626400 0.710400
-6.625000 0.843750 2.750000 1.000000 -0.000000 0.000000 0.617600 0.710400
-6.625000 1.187500 2.000000 -0.000000 0.000000 1.000000 0.600800 0.818400
-6.625000 3.656250 2.000000 -0.000000 0.000000 1.000000 0.600800 0.882400
-7.000000 3.656250 2.000000 -0.000000 0.000000 1.000000 0.591200 0.882400
-7.000000 1.187500 2.000000 -0.000000 0.000000 1.000000 0.591200 0.818400
-7.000000 3.656250 2.750000 0.000000 -1.000000 0.000000 0.229600 0.826400
-7.000000 3.656250 2.000000 0.000000 -1.000000 0.000000 0.229600 0.845600
-6.625000 3.656250 2.000000 0.000000 -1.000000 0.000000 0.220000 0.845600
-6.625000 3.656250 2.750000 -0.000000 -1.000000 -0.000000 0.220000 0.826400
-7.000000 4.000000 2.000000 -1.000000 0.000000 0.000000 0.609600 0.838400
-7.000000 3.656250 2.000000 -1.000000 0.000000 0.000000 0.600800 0.838400
-7.000000 3.656250 2.750000 -1.000000 0.000000 0.000000 0.600800 0.818400
-7.000000 4.000000 2.750000 -1.000000 -0.000000 -0.000000 0.609600 0.818400
-6.625000 1.187500 2.000000 -0.000000 1.000000 0.000000 0.422400 0.851200
-7.000000 1.187500 2.000000 -0.000000 1.000000 0.000000 0.412800 0.851200
-7.000000 1.187500 2.750000 -0.000000 1.000000 0.000000 0.412800 0.832000
-6.625000 1.187500 2.750000 0.000000 1.000000 0.000000 0.422400 0.832000
-7.000000 1.000000 2.000000 -1.000000 -0.000000 -0.000000 0.605600 0.838400
-7.000000 1.000000 2.750000 -1.000000 -0.000000 -0.000000 0.605600 0.857600
-7.000000 1.187500 2.750000 -1.000000 -0.000000 -0.000000 0.600800 0.857600
-7.000000 1.187500 2.000000 -1.000000 -0.000000 0.000000 0.600800 0.838400
-6.625000 1.187500 2.000000 0.000000 -1.000000 0.000000 0.684000 0.872800
-6.625000 1.187500 0.000000 0.000000 -1.000000 0.000000 0.632000 0.872800
-3.593750 1.187500 0.000000 0.000000 -1.000000 0.000000 0.632000 0.794400
-6.625000 3.656250 2.000000 0.550722 -0.000000 0.834689 0.610400 0.818400
-6.625000 1.187500 2.000000 0.550722 -0.000000 0.834689 0.546400 0.818400
-3.593750 1.187500 0.000000 0.550722 -0.000000 0.834689 0.546400 0.724800
-3.593750 3.656250 0.000000 0.550722 0.000000 0.834689 0.610400 0.724800
-6.625000 3.656250 0.000000 0.000000 1.000000 0.000000 0.735200 0.872800
-6.625000 3.656250 2.000000 0.000000 1.000000 0.000000 0.684000 0.872800
-3.593750 3.656250 0.000000 0.000000 1.000000 0.000000 0.735200 0.794400
-1.031250 8.000000 0.000000 0.000000 0.000000 1.000000 0.393600 0.441600
8.000000 6.000000 0.000000 0.000000 0.000000 1.000000 0.632000 0.424000
6.000000 14.000000 0.000000 0.000000 0.000000 1.000000 0.551200 0.620800
-1.687500 12.312500 0.000000 -0.000000 0.000000 1.000000 0.360800 0.549600
-2.968750 5.437500 0.000000 -0.000000 0.000000 1.000000 0.353600 0.369600
6.000000 -5.000000 0.000000 0.000000 -0.000000 1.000000 0.620800 0.135200
-3.593750 3.656250 0.000000 -0.000000 0.000000 1.000000 0.344000 0.321600
-5.000000 4.625000 0.000000 -0.000000 0.000000 1.000000 0.304800 0.340800
-6.625000 3.843750 0.000000 0.000000 -0.000000 1.000000 0.265600 0.315200
-6.625000 3.656250 0.000000 0.000000 -0.000000 1.000000 0.266400 0.310400
-5.843750 4.625000 0.000000 -0.000000 0.000000 1.000000 0.283200 0.338400
-6.625000 1.187500 0.000000 0.000000 -0.000000 1.000000 0.275200 0.247200
-6.625000 0.843750 0.000000 0.000000 -0.000000 1.000000 0.276800 0.238400
-3.593750 1.187500 0.000000 0.000000 -0.000000 1.000000 0.352800 0.258400
-3.000000 -9.000000 0.000000 0.000000 0.000000 1.000000 0.405600 0.000000
-7.843750 -0.375000 0.000000 0.000000 0.000000 1.000000 0.250400 0.203200
-13.000000 -6.000000 0.000000 0.000000 0.000000 1.000000 0.139200 0.040000
-11.156250 -0.375000 0.000000 0.000000 0.000000 1.000000 0.165600 0.190400
-12.375000 0.843750 0.000000 0.000000 0.000000 1.000000 0.129600 0.217600
-12.406250 6.031250 0.000000 0.000000 0.000000 1.000000 0.110400 0.349600
-16.000000 11.000000 0.000000 0.000000 0.000000 1.000000 0.000000 0.464000
-11.343750 13.187500 0.000000 0.000000 0.000000 1.000000 0.111200 0.536800
-13.000000 15.000000 0.000000 0.000000 0.000000 1.000000 0.062400 0.576800
-9.156250 15.375000 0.000000 0.000000 0.000000 1.000000 0.159200 0.600800
-10.000000 17.000000 0.000000 0.000000 0.000000 1.000000 0.131200 0.639200
-5.000000 15.375000 0.000000 0.000000 0.000000 1.000000 0.265600 0.616000
4.000000 15.000000 0.000000 0.000000 0.000000 1.000000 0.496800 0.639200
-3.593750 14.656250 0.000000 0.000000 0.000000 1.000000 0.304000 0.602400
3 0 1 2
3 0 2 3
3 4 5 0
3 6 7 4
3 8 9 6
3 10 11 8
3 12 13 10
3 14 15 16
3 17 12 10
3 10 8 6
3 6 4 0
3 17 10 6
3 17 6 0
3 18 19 20
3 18 20 21
3 22 23 24
3 22 24 25
3 26 27 28
3 26 28 29
3 30 31 32
3 30 32 33
3 34 35 36
3 34 36 37
3 38 39 40
3 38 40 41
3 42 43 44
3 42 44 45
3 22 46 47
3 22 47 23
3 48 49 50
3 48 50 51
3 52 53 54
3 52 54 55
3 56 57 58
3 56 58 59
3 60 61 62
3 60 62 63
3 34 37 64
3 34 64 65
3 66 67 68
3 66 68 69
3 42 45 70
3 42 70 71
3 72 73 74
3 72 74 75
3 76 77 78
3 76 78 79
3 80 81 82
3 80 82 83
3 84 85 86
3 84 86 87
3 77 88 89
3 77 89 78
3 85 90 91
3 85 91 86
3 92 93 94
3 92 94 95
3 88 84 87
3 88 87 89
3 81 96 97
3 81 97 82
3 90 92 95
3 90 95 91
3 26 29 98
3 26 98 99
3 100 101 102
3 100 102 103
3 56 59 104
3 56 104 105
3 106 107 108
3 106 108 109
3 38 41 110
3 38 110 111
3 112 113 114
3 112 114 115
3 48 51 116
3 48 116 117
3 52 55 118
3 52 118 119
3 120 121 122
3 120 122 123
3 33 32 124
3 33 124 125
3 126 127 128
3 126 128 129
3 126 129 130
3 126 130 131
3 132 133 134
3 132 134 135
3 93 136 137
3 93 137 94
3 80 83 138
3 80 138 139
3 140 141 142
3 140 142 143
3 144 145 146
3 144 146 147
3 137 136 148
3 137 148 149
3 150 151 152
3 150 152 153
3 154 155 156
3 154 156 157
3 151 158 159
3 151 159 152
3 160 154 157
3 160 157 161
3 162 163 164
3 162 164 165
3 166 167 168
3 166 168 169
3 170 171 172
3 170 172 173
3 139 138 174
3 139 174 175
3 176 177 178
3 176 178 179
3 180 181 182
3 180 182 183
3 149 148 184
3 149 184 185
3 171 186 187
3 171 187 172
3 188 189 190
3 188 190 191
3 192 193 194
3 192 194 195
3 185 184 175
3 185 175 174
3 189 196 197
3 189 197 190
3 198 199 200
3 198 200 201
3 96 202 203
3 96 203 97
3 204 205 206
3 207 208 209
3 210 211 212
3 213 214 215
3 216 217 218
3 219 220 221
3 222 223 224
3 225 226 227
3 228 229 230
3 228 230 231
3 232 233 234
3 235 236 237
3 238 239 240
3 241 242 243
3 244 245 246
3 247 248 249
3 250 251 252
3 253 254 255
3 198 201 256
3 198 256 257
3 258 259 260
3 258 260 261
3 262 263 264
3 262 264 265
3 266 267 268
3 266 268 269
3 270 271 272
3 270 272 273
3 274 275 276
3 274 276 277
3 278 279 280
3 281 282 283
3 281 283 284
3 285 286 287
3 288 289 290
3 288 290 291
3 289 288 292
3 289 292 293
3 294 292 295
3 296 297 294
3 294 295 298
3 294 298 296
3 299 300 301
3 302 293 301
3 301 300 303
3 301 303 302
3 294 301 293
3 294 293 292
3 304 305 306
3 302 303 305
3 302 305 304
3 304 306 307
3 304 307 308
3 308 307 309
3 308 309 310
3 310 309 311
3 310 311 312
3 312 311 313
3 312 313 314
3 313 315 314
3 315 291 290
3 315 290 314
