ply
format ascii 1.0
comment Created by Blender 2.80 (sub 75) - www.blender.org, source file: ''
element vertex 336
property float x
property float y
property float z
property float nx
property float ny
property float nz
property uchar red
property uchar green
property uchar blue
property uchar alpha
element face 128
property list uchar uint vertex_indices
end_header
4.758650 4.758650 0.556797 0.000000 0.000000 1.000000 28 255 0 255
-4.758650 4.758650 0.556797 0.000000 0.000000 1.000000 28 255 0 255
-4.758650 -4.758650 0.556797 0.000000 0.000000 1.000000 28 255 0 255
4.758650 -4.758650 0.556797 0.000000 -0.000000 1.000000 28 255 0 255
4.758650 -4.758650 -0.556797 0.000000 -1.000000 0.000000 28 255 0 255
4.758650 -4.758650 0.556797 0.000000 -1.000000 0.000000 28 255 0 255
-4.758650 -4.758650 0.556797 0.000000 -1.000000 0.000000 28 255 0 255
-4.758650 -4.758650 -0.556797 0.000000 -1.000000 0.000000 28 255 0 255
-4.758650 -4.758650 -0.556797 -1.000000 -0.000000 -0.000000 28 255 0 255
-4.758650 -4.758650 0.556797 -1.000000 -0.000000 -0.000000 28 255 0 255
-4.758650 4.758650 0.556797 -1.000000 -0.000000 -0.000000 28 255 0 255
-4.758650 4.758650 -0.556797 -1.000000 -0.000000 0.000000 28 255 0 255
-4.758650 4.758650 -0.556797 0.000000 0.000000 -1.000000 28 255 0 255
4.758650 4.758650 -0.556797 0.000000 0.000000 -1.000000 28 255 0 255
4.758650 -4.758650 -0.556797 0.000000 0.000000 -1.000000 28 255 0 255
-4.758650 -4.758650 -0.556797 0.000000 0.000000 -1.000000 28 255 0 255
4.758650 4.758650 -0.556797 1.000000 -0.000000 0.000000 28 255 0 255
4.758650 4.758650 0.556797 1.000000 -0.000000 0.000000 28 255 0 255
4.758650 -4.758650 0.556797 1.000000 -0.000000 0.000000 28 255 0 255
4.758650 -4.758650 -0.556797 1.000000 -0.000000 0.000000 28 255 0 255
-4.758650 4.758650 -0.556797 0.000000 1.000000 0.000000 28 255 0 255
-4.758650 4.758650 0.556797 0.000000 1.000000 0.000000 28 255 0 255
4.758650 4.758650 0.556797 0.000000 1.000000 0.000000 28 255 0 255
4.758650 4.758650 -0.556797 0.000000 1.000000 -0.000000 28 255 0 255
2.053860 0.211550 0.175817 -1.000000 -0.000000 -0.000000 255 8 0 255
2.053860 0.211550 2.175817 -1.000000 -0.000000 -0.000000 255 8 0 255
2.053860 3.686750 2.175817 -1.000000 -0.000000 -0.000000 255 8 0 255
2.053860 3.686750 0.175817 -1.000000 -0.000000 0.000000 255 8 0 255
2.053860 3.686750 0.175817 0.000000 1.000000 0.000000 255 8 0 255
2.053860 3.686750 2.175817 0.000000 1.000000 0.000000 255 8 0 255
4.053860 3.686750 2.175817 0.000000 1.000000 0.000000 255 8 0 255
4.053860 3.686750 0.175817 0.000000 1.000000 -0.000000 255 8 0 255
4.053860 3.686750 0.175817 1.000000 -0.000000 0.000000 255 8 0 255
4.053860 3.686750 2.175817 1.000000 -0.000000 0.000000 255 8 0 255
4.053860 0.211550 2.175817 1.000000 -0.000000 0.000000 255 8 0 255
4.053860 0.211550 0.175817 1.000000 -0.000000 0.000000 255 8 0 255
4.053860 0.211550 0.175817 0.000000 -1.000000 0.000000 255 8 0 255
4.053860 0.211550 2.175817 0.000000 -1.000000 0.000000 255 8 0 255
2.053860 0.211550 2.175817 0.000000 -1.000000 0.000000 255 8 0 255
2.053860 0.211550 0.175817 0.000000 -1.000000 0.000000 255 8 0 255
2.053860 3.686750 0.175817 0.000000 0.000000 -1.000000 255 8 0 255
4.053860 3.686750 0.175817 0.000000 0.000000 -1.000000 255 8 0 255
4.053860 0.211550 0.175817 0.000000 0.000000 -1.000000 255 8 0 255
2.053860 0.211550 0.175817 0.000000 0.000000 -1.000000 255 8 0 255
4.053860 3.686750 2.175817 0.000000 0.000000 1.000000 255 8 0 255
2.053860 3.686750 2.175817 0.000000 0.000000 1.000000 255 8 0 255
2.053860 0.211550 2.175817 0.000000 0.000000 1.000000 255 8 0 255
4.053860 0.211550 2.175817 0.000000 -0.000000 1.000000 255 8 0 255
-2.616749 -1.000001 4.135290 -1.000000 -0.000000 -0.000000 0 64 255 255
-2.616749 -1.000001 4.716002 -1.000000 -0.000000 -0.000000 0 64 255 255
-2.616749 0.999999 4.716002 -1.000000 -0.000000 -0.000000 0 64 255 255
-2.616749 0.999999 4.135290 -1.000000 -0.000000 0.000000 0 64 255 255
-2.616749 0.999999 4.135290 0.000000 1.000000 0.000000 0 64 255 255
-2.616749 0.999999 4.716002 0.000000 1.000000 0.000000 0 64 255 255
-0.616749 0.999999 4.716002 0.000000 1.000000 0.000000 0 64 255 255
-0.616749 0.999999 4.135290 0.000000 1.000000 -0.000000 0 64 255 255
-0.616749 0.999999 4.135290 1.000000 -0.000000 0.000000 0 64 255 255
-0.616749 0.999999 4.716002 1.000000 -0.000000 0.000000 0 64 255 255
-0.616749 -1.000001 4.716002 1.000000 -0.000000 0.000000 0 64 255 255
-0.616749 -1.000001 4.135290 1.000000 -0.000000 0.000000 0 64 255 255
-0.616749 -1.000001 4.135290 0.000000 -1.000000 0.000000 0 64 255 255
-0.616749 -1.000001 4.716002 0.000000 -1.000000 0.000000 0 64 255 255
-2.616749 -1.000001 4.716002 0.000000 -1.000000 0.000000 0 64 255 255
-2.616749 -1.000001 4.135290 0.000000 -1.000000 0.000000 0 64 255 255
-2.616749 0.999999 4.135290 0.000000 0.000000 -1.000000 0 64 255 255
-0.616749 0.999999 4.135290 0.000000 0.000000 -1.000000 0 64 255 255
-0.616749 -1.000001 4.135290 0.000000 0.000000 -1.000000 0 64 255 255
-2.616749 -1.000001 4.135290 0.000000 0.000000 -1.000000 0 64 255 255
-0.616749 0.999999 4.716002 0.000000 0.000000 1.000000 0 64 255 255
-2.616749 0.999999 4.716002 0.000000 0.000000 1.000000 0 64 255 255
-2.616749 -1.000001 4.716002 0.000000 0.000000 1.000000 0 64 255 255
-0.616749 -1.000001 4.716002 0.000000 -0.000000 1.000000 0 64 255 255
2.098439 -2.996358 -0.405611 -0.739996 -0.672611 -0.000000 255 202 0 255
2.098439 -2.996358 2.953217 -0.739996 -0.672611 -0.000000 255 202 0 255
1.614764 -2.464227 2.953217 -0.739996 -0.672611 -0.000000 255 202 0 255
1.614764 -2.464227 -0.405611 -0.739996 -0.672611 0.000000 255 202 0 255
1.614764 -2.464227 -0.405611 -0.672611 0.739996 0.000000 255 202 0 255
1.614764 -2.464227 2.953217 -0.672611 0.739996 0.000000 255 202 0 255
3.094756 -1.119004 2.953217 -0.672611 0.739996 0.000000 255 202 0 255
3.094756 -1.119004 -0.405611 -0.672611 0.739996 0.000000 255 202 0 255
3.094756 -1.119004 -0.405611 0.739996 0.672611 0.000000 255 202 0 255
3.094756 -1.119004 2.953217 0.739996 0.672611 0.000000 255 202 0 255
3.578431 -1.651135 2.953217 0.739996 0.672611 0.000000 255 202 0 255
3.578431 -1.651135 -0.405611 0.739996 0.672611 -0.000000 255 202 0 255
3.578431 -1.651135 -0.405611 0.672611 -0.739996 0.000000 255 202 0 255
3.578431 -1.651135 2.953217 0.672611 -0.739996 0.000000 255 202 0 255
2.098439 -2.996358 2.953217 0.672611 -0.739996 0.000000 255 202 0 255
2.098439 -2.996358 -0.405611 0.672611 -0.739996 0.000000 255 202 0 255
1.614764 -2.464227 -0.405611 -0.000000 0.000000 -1.000000 255 202 0 255
3.094756 -1.119004 -0.405611 -0.000000 0.000000 -1.000000 255 202 0 255
3.578431 -1.651135 -0.405611 -0.000000 0.000000 -1.000000 255 202 0 255
2.098439 -2.996358 -0.405611 -0.000000 0.000000 -1.000000 255 202 0 255
3.094756 -1.119004 2.953217 0.000000 -0.000000 1.000000 255 202 0 255
1.614764 -2.464227 2.953217 0.000000 -0.000000 1.000000 255 202 0 255
2.098439 -2.996358 2.953217 0.000000 -0.000000 1.000000 255 202 0 255
3.578431 -1.651135 2.953217 0.000000 -0.000000 1.000000 255 202 0 255
-3.542687 -5.249603 -3.734842 0.102381 -0.315090 -0.943524 255 0 245 255
-2.246999 -6.190964 -3.279881 0.102381 -0.315090 -0.943524 255 0 245 255
-4.037585 -6.772771 -3.279882 0.102381 -0.315090 -0.943524 255 0 245 255
-1.338315 -6.851154 -2.050872 0.700224 -0.268032 -0.661699 255 0 245 255
-2.246999 -6.190964 -3.279881 0.700224 -0.268032 -0.661699 255 0 245 255
-0.951304 -5.249603 -2.290061 0.700224 -0.268032 -0.661699 255 0 245 255
-3.542687 -5.249603 -3.734842 -0.268034 -0.194736 -0.943523 255 0 245 255
-4.037585 -6.772771 -3.279882 -0.268034 -0.194736 -0.943523 255 0 245 255
-5.144251 -5.249603 -3.279873 -0.268034 -0.194736 -0.943523 255 0 245 255
-3.542687 -5.249603 -3.734842 -0.268034 0.194736 -0.943523 255 0 245 255
-5.144251 -5.249603 -3.279873 -0.268034 0.194736 -0.943523 255 0 245 255
-4.037585 -3.726436 -3.279882 -0.268034 0.194736 -0.943523 255 0 245 255
-3.542687 -5.249603 -3.734842 0.102381 0.315090 -0.943524 255 0 245 255
-4.037585 -3.726436 -3.279882 0.102381 0.315090 -0.943524 255 0 245 255
-2.246999 -4.308242 -3.279881 0.102381 0.315090 -0.943524 255 0 245 255
-1.338315 -6.851154 -2.050872 0.904989 -0.268031 -0.330385 255 0 245 255
-0.951304 -5.249603 -2.290061 0.904989 -0.268031 -0.330385 255 0 245 255
-0.645418 -6.190969 -0.688479 0.904989 -0.268031 -0.330385 255 0 245 255
-4.384665 -7.840990 -2.050873 0.024747 -0.943521 -0.330386 255 0 245 255
-2.741893 -7.714147 -2.290067 0.024747 -0.943521 -0.330386 255 0 245 255
-3.542687 -8.295966 -0.688479 0.024747 -0.943521 -0.330386 255 0 245 255
-6.267434 -5.249603 -2.050860 -0.889697 -0.315094 -0.330385 255 0 245 255
-5.639162 -6.772776 -2.290062 -0.889697 -0.315094 -0.330385 255 0 245 255
-6.439955 -6.190969 -0.688479 -0.889697 -0.315094 -0.330385 255 0 245 255
-4.384665 -2.658217 -2.050873 -0.574602 0.748784 -0.330387 255 0 245 255
-5.639162 -3.726431 -2.290062 -0.574602 0.748784 -0.330387 255 0 245 255
-5.333295 -2.785044 -0.688479 -0.574602 0.748784 -0.330387 255 0 245 255
-1.338315 -3.648053 -2.050872 0.534576 0.777865 -0.330386 255 0 245 255
-2.741893 -2.785059 -2.290067 0.534576 0.777865 -0.330386 255 0 245 255
-1.752078 -2.785044 -0.688479 0.534576 0.777865 -0.330386 255 0 245 255
-1.338315 -6.851154 -2.050872 0.802609 -0.583127 -0.125627 255 0 245 255
-0.645418 -6.190969 -0.688479 0.802609 -0.583127 -0.125627 255 0 245 255
-1.752078 -7.714162 -0.688479 0.802609 -0.583127 -0.125627 255 0 245 255
-4.384665 -7.840990 -2.050873 -0.306569 -0.943522 -0.125628 255 0 245 255
-3.542687 -8.295966 -0.688479 -0.306569 -0.943522 -0.125628 255 0 245 255
-5.333295 -7.714162 -0.688479 -0.306569 -0.943522 -0.125628 255 0 245 255
-6.267434 -5.249603 -2.050860 -0.992077 -0.000000 -0.125628 255 0 245 255
-6.439955 -6.190969 -0.688479 -0.992077 -0.000000 -0.125628 255 0 245 255
-6.439955 -4.308238 -0.688479 -0.992077 -0.000000 -0.125628 255 0 245 255
-4.384665 -2.658217 -2.050873 -0.306569 0.943521 -0.125629 255 0 245 255
-5.333295 -2.785044 -0.688479 -0.306569 0.943521 -0.125629 255 0 245 255
-3.542687 -2.203240 -0.688479 -0.306569 0.943521 -0.125629 255 0 245 255
-1.338315 -3.648053 -2.050872 0.802609 0.583127 -0.125627 255 0 245 255
-1.752078 -2.785044 -0.688479 0.802609 0.583127 -0.125627 255 0 245 255
-0.645418 -4.308238 -0.688479 0.802609 0.583127 -0.125627 255 0 245 255
-2.700708 -7.840990 0.673915 0.408946 -0.628425 0.661698 255 0 245 255
-1.446211 -6.772776 0.913105 0.408946 -0.628425 0.661698 255 0 245 255
-3.047788 -6.772771 1.902924 0.408946 -0.628425 0.661698 255 0 245 255
-5.747058 -6.851154 0.673914 -0.471300 -0.583122 0.661699 255 0 245 255
-4.343481 -7.714147 0.913109 -0.471300 -0.583122 0.661699 255 0 245 255
-4.838374 -6.190964 1.902923 -0.471300 -0.583122 0.661699 255 0 245 255
-5.747058 -3.648053 0.673914 -0.700224 0.268032 0.661699 255 0 245 255
-6.134069 -5.249603 0.913104 -0.700224 0.268032 0.661699 255 0 245 255
-4.838374 -4.308242 1.902923 -0.700224 0.268032 0.661699 255 0 245 255
-2.700708 -2.658217 0.673915 0.038531 0.748779 0.661699 255 0 245 255
-4.343481 -2.785059 0.913109 0.038531 0.748779 0.661699 255 0 245 255
-3.047788 -3.726436 1.902924 0.038531 0.748779 0.661699 255 0 245 255
-0.817939 -5.249603 0.673903 0.724042 0.194736 0.661695 255 0 245 255
-1.446211 -3.726431 0.913105 0.724042 0.194736 0.661695 255 0 245 255
-1.941123 -5.249603 1.902915 0.724042 0.194736 0.661695 255 0 245 255
-1.941123 -5.249603 1.902915 0.268034 0.194737 0.943523 255 0 245 255
-3.047788 -3.726436 1.902924 0.268034 0.194737 0.943523 255 0 245 255
-3.542687 -5.249603 2.357885 0.268034 0.194737 0.943523 255 0 245 255
-1.941123 -5.249603 1.902915 0.491119 0.356821 0.794657 255 0 245 255
-1.446211 -3.726431 0.913105 0.491119 0.356821 0.794657 255 0 245 255
-3.047788 -3.726436 1.902924 0.491119 0.356821 0.794657 255 0 245 255
-1.446211 -3.726431 0.913105 0.408946 0.628425 0.661698 255 0 245 255
-2.700708 -2.658217 0.673915 0.408946 0.628425 0.661698 255 0 245 255
-3.047788 -3.726436 1.902924 0.408946 0.628425 0.661698 255 0 245 255
-3.047788 -3.726436 1.902924 -0.102381 0.315090 0.943523 255 0 245 255
-4.838374 -4.308242 1.902923 -0.102381 0.315090 0.943523 255 0 245 255
-3.542687 -5.249603 2.357885 -0.102381 0.315090 0.943523 255 0 245 255
-3.047788 -3.726436 1.902924 -0.187594 0.577345 0.794658 255 0 245 255
-4.343481 -2.785059 0.913109 -0.187594 0.577345 0.794658 255 0 245 255
-4.838374 -4.308242 1.902923 -0.187594 0.577345 0.794658 255 0 245 255
-4.343481 -2.785059 0.913109 -0.471299 0.583122 0.661699 255 0 245 255
-5.747058 -3.648053 0.673914 -0.471299 0.583122 0.661699 255 0 245 255
-4.838374 -4.308242 1.902923 -0.471299 0.583122 0.661699 255 0 245 255
-4.838374 -4.308242 1.902923 -0.331305 0.000000 0.943524 255 0 245 255
-4.838374 -6.190964 1.902923 -0.331305 0.000000 0.943524 255 0 245 255
-3.542687 -5.249603 2.357885 -0.331305 0.000000 0.943524 255 0 245 255
-4.838374 -4.308242 1.902923 -0.607060 0.000000 0.794656 255 0 245 255
-6.134069 -5.249603 0.913104 -0.607060 0.000000 0.794656 255 0 245 255
-4.838374 -6.190964 1.902923 -0.607060 0.000000 0.794656 255 0 245 255
-6.134069 -5.249603 0.913104 -0.700224 -0.268032 0.661699 255 0 245 255
-5.747058 -6.851154 0.673914 -0.700224 -0.268032 0.661699 255 0 245 255
-4.838374 -6.190964 1.902923 -0.700224 -0.268032 0.661699 255 0 245 255
-4.838374 -6.190964 1.902923 -0.102381 -0.315090 0.943523 255 0 245 255
-3.047788 -6.772771 1.902924 -0.102381 -0.315090 0.943523 255 0 245 255
-3.542687 -5.249603 2.357885 -0.102381 -0.315090 0.943523 255 0 245 255
-4.838374 -6.190964 1.902923 -0.187594 -0.577345 0.794658 255 0 245 255
-4.343481 -7.714147 0.913109 -0.187594 -0.577345 0.794658 255 0 245 255
-3.047788 -6.772771 1.902924 -0.187594 -0.577345 0.794658 255 0 245 255
-4.343481 -7.714147 0.913109 0.038530 -0.748779 0.661699 255 0 245 255
-2.700708 -7.840990 0.673915 0.038530 -0.748779 0.661699 255 0 245 255
-3.047788 -6.772771 1.902924 0.038530 -0.748779 0.661699 255 0 245 255
-3.047788 -6.772771 1.902924 0.268034 -0.194737 0.943523 255 0 245 255
-1.941123 -5.249603 1.902915 0.268034 -0.194737 0.943523 255 0 245 255
-3.542687 -5.249603 2.357885 0.268034 -0.194737 0.943523 255 0 245 255
-3.047788 -6.772771 1.902924 0.491119 -0.356821 0.794657 255 0 245 255
-1.446211 -6.772776 0.913105 0.491119 -0.356821 0.794657 255 0 245 255
-1.941123 -5.249603 1.902915 0.491119 -0.356821 0.794657 255 0 245 255
-1.446211 -6.772776 0.913105 0.724042 -0.194736 0.661695 255 0 245 255
-0.817939 -5.249603 0.673903 0.724042 -0.194736 0.661695 255 0 245 255
-1.941123 -5.249603 1.902915 0.724042 -0.194736 0.661695 255 0 245 255
-0.645418 -4.308238 -0.688479 0.889697 0.315094 0.330385 255 0 245 255
-1.446211 -3.726431 0.913105 0.889697 0.315094 0.330385 255 0 245 255
-0.817939 -5.249603 0.673903 0.889697 0.315094 0.330385 255 0 245 255
-0.645418 -4.308238 -0.688479 0.794655 0.577348 0.187595 255 0 245 255
-1.752078 -2.785044 -0.688479 0.794655 0.577348 0.187595 255 0 245 255
-1.446211 -3.726431 0.913105 0.794655 0.577348 0.187595 255 0 245 255
-1.752078 -2.785044 -0.688479 0.574602 0.748784 0.330387 255 0 245 255
-2.700708 -2.658217 0.673915 0.574602 0.748784 0.330387 255 0 245 255
-1.446211 -3.726431 0.913105 0.574602 0.748784 0.330387 255 0 245 255
-3.542687 -2.203240 -0.688479 -0.024746 0.943521 0.330386 255 0 245 255
-4.343481 -2.785059 0.913109 -0.024746 0.943521 0.330386 255 0 245 255
-2.700708 -2.658217 0.673915 -0.024746 0.943521 0.330386 255 0 245 255
-3.542687 -2.203240 -0.688479 -0.303531 0.934171 0.187597 255 0 245 255
-5.333295 -2.785044 -0.688479 -0.303531 0.934171 0.187597 255 0 245 255
-4.343481 -2.785059 0.913109 -0.303531 0.934171 0.187597 255 0 245 255
-5.333295 -2.785044 -0.688479 -0.534576 0.777865 0.330386 255 0 245 255
-5.747058 -3.648053 0.673914 -0.534576 0.777865 0.330386 255 0 245 255
-4.343481 -2.785059 0.913109 -0.534576 0.777865 0.330386 255 0 245 255
-6.439955 -4.308238 -0.688479 -0.904989 0.268031 0.330385 255 0 245 255
-6.134069 -5.249603 0.913104 -0.904989 0.268031 0.330385 255 0 245 255
-5.747058 -3.648053 0.673914 -0.904989 0.268031 0.330385 255 0 245 255
-6.439955 -4.308238 -0.688479 -0.982246 0.000000 0.187599 255 0 245 255
-6.439955 -6.190969 -0.688479 -0.982246 0.000000 0.187599 255 0 245 255
-6.134069 -5.249603 0.913104 -0.982246 0.000000 0.187599 255 0 245 255
-6.439955 -6.190969 -0.688479 -0.904989 -0.268031 0.330385 255 0 245 255
-5.747058 -6.851154 0.673914 -0.904989 -0.268031 0.330385 255 0 245 255
-6.134069 -5.249603 0.913104 -0.904989 -0.268031 0.330385 255 0 245 255
-5.333295 -7.714162 -0.688479 -0.534576 -0.777865 0.330386 255 0 245 255
-4.343481 -7.714147 0.913109 -0.534576 -0.777865 0.330386 255 0 245 255
-5.747058 -6.851154 0.673914 -0.534576 -0.777865 0.330386 255 0 245 255
-5.333295 -7.714162 -0.688479 -0.303531 -0.934171 0.187597 255 0 245 255
-3.542687 -8.295966 -0.688479 -0.303531 -0.934171 0.187597 255 0 245 255
-4.343481 -7.714147 0.913109 -0.303531 -0.934171 0.187597 255 0 245 255
-3.542687 -8.295966 -0.688479 -0.024747 -0.943522 0.330386 255 0 245 255
-2.700708 -7.840990 0.673915 -0.024747 -0.943522 0.330386 255 0 245 255
-4.343481 -7.714147 0.913109 -0.024747 -0.943522 0.330386 255 0 245 255
-1.752078 -7.714162 -0.688479 0.574602 -0.748784 0.330387 255 0 245 255
-1.446211 -6.772776 0.913105 0.574602 -0.748784 0.330387 255 0 245 255
-2.700708 -7.840990 0.673915 0.574602 -0.748784 0.330387 255 0 245 255
-1.752078 -7.714162 -0.688479 0.794655 -0.577348 0.187595 255 0 245 255
-0.645418 -6.190969 -0.688479 0.794655 -0.577348 0.187595 255 0 245 255
-1.446211 -6.772776 0.913105 0.794655 -0.577348 0.187595 255 0 245 255
-0.645418 -6.190969 -0.688479 0.889697 -0.315094 0.330385 255 0 245 255
-0.817939 -5.249603 0.673903 0.889697 -0.315094 0.330385 255 0 245 255
-1.446211 -6.772776 0.913105 0.889697 -0.315094 0.330385 255 0 245 255
-1.752078 -2.785044 -0.688479 0.306569 0.943521 0.125629 255 0 245 255
-3.542687 -2.203240 -0.688479 0.306569 0.943521 0.125629 255 0 245 255
-2.700708 -2.658217 0.673915 0.306569 0.943521 0.125629 255 0 245 255
-1.752078 -2.785044 -0.688479 0.303531 0.934171 -0.187597 255 0 245 255
-2.741893 -2.785059 -2.290067 0.303531 0.934171 -0.187597 255 0 245 255
-3.542687 -2.203240 -0.688479 0.303531 0.934171 -0.187597 255 0 245 255
-2.741893 -2.785059 -2.290067 0.024746 0.943521 -0.330386 255 0 245 255
-4.384665 -2.658217 -2.050873 0.024746 0.943521 -0.330386 255 0 245 255
-3.542687 -2.203240 -0.688479 0.024746 0.943521 -0.330386 255 0 245 255
-5.333295 -2.785044 -0.688479 -0.802609 0.583127 0.125627 255 0 245 255
-6.439955 -4.308238 -0.688479 -0.802609 0.583127 0.125627 255 0 245 255
-5.747058 -3.648053 0.673914 -0.802609 0.583127 0.125627 255 0 245 255
-5.333295 -2.785044 -0.688479 -0.794655 0.577348 -0.187595 255 0 245 255
-5.639162 -3.726431 -2.290062 -0.794655 0.577348 -0.187595 255 0 245 255
-6.439955 -4.308238 -0.688479 -0.794655 0.577348 -0.187595 255 0 245 255
-5.639162 -3.726431 -2.290062 -0.889697 0.315094 -0.330385 255 0 245 255
-6.267434 -5.249603 -2.050860 -0.889697 0.315094 -0.330385 255 0 245 255
-6.439955 -4.308238 -0.688479 -0.889697 0.315094 -0.330385 255 0 245 255
-6.439955 -6.190969 -0.688479 -0.802609 -0.583127 0.125627 255 0 245 255
-5.333295 -7.714162 -0.688479 -0.802609 -0.583127 0.125627 255 0 245 255
-5.747058 -6.851154 0.673914 -0.802609 -0.583127 0.125627 255 0 245 255
-6.439955 -6.190969 -0.688479 -0.794655 -0.577348 -0.187595 255 0 245 255
-5.639162 -6.772776 -2.290062 -0.794655 -0.577348 -0.187595 255 0 245 255
-5.333295 -7.714162 -0.688479 -0.794655 -0.577348 -0.187595 255 0 245 255
-5.639162 -6.772776 -2.290062 -0.574602 -0.748784 -0.330387 255 0 245 255
-4.384665 -7.840990 -2.050873 -0.574602 -0.748784 -0.330387 255 0 245 255
-5.333295 -7.714162 -0.688479 -0.574602 -0.748784 -0.330387 255 0 245 255
-3.542687 -8.295966 -0.688479 0.306569 -0.943522 0.125628 255 0 245 255
-1.752078 -7.714162 -0.688479 0.306569 -0.943522 0.125628 255 0 245 255
-2.700708 -7.840990 0.673915 0.306569 -0.943522 0.125628 255 0 245 255
-3.542687 -8.295966 -0.688479 0.303531 -0.934171 -0.187597 255 0 245 255
-2.741893 -7.714147 -2.290067 0.303531 -0.934171 -0.187597 255 0 245 255
-1.752078 -7.714162 -0.688479 0.303531 -0.934171 -0.187597 255 0 245 255
-2.741893 -7.714147 -2.290067 0.534576 -0.777865 -0.330386 255 0 245 255
-1.338315 -6.851154 -2.050872 0.534576 -0.777865 -0.330386 255 0 245 255
-1.752078 -7.714162 -0.688479 0.534576 -0.777865 -0.330386 255 0 245 255
-0.645418 -6.190969 -0.688479 0.992077 0.000000 0.125629 255 0 245 255
-0.645418 -4.308238 -0.688479 0.992077 0.000000 0.125629 255 0 245 255
-0.817939 -5.249603 0.673903 0.992077 0.000000 0.125629 255 0 245 255
-0.645418 -6.190969 -0.688479 0.982246 0.000000 -0.187599 255 0 245 255
-0.951304 -5.249603 -2.290061 0.982246 0.000000 -0.187599 255 0 245 255
-0.645418 -4.308238 -0.688479 0.982246 0.000000 -0.187599 255 0 245 255
-0.951304 -5.249603 -2.290061 0.904989 0.268031 -0.330385 255 0 245 255
-1.338315 -3.648053 -2.050872 0.904989 0.268031 -0.330385 255 0 245 255
-0.645418 -4.308238 -0.688479 0.904989 0.268031 -0.330385 255 0 245 255
-2.246999 -4.308242 -3.279881 0.471300 0.583122 -0.661699 255 0 245 255
-2.741893 -2.785059 -2.290067 0.471300 0.583122 -0.661699 255 0 245 255
-1.338315 -3.648053 -2.050872 0.471300 0.583122 -0.661699 255 0 245 255
-2.246999 -4.308242 -3.279881 0.187595 0.577345 -0.794658 255 0 245 255
-4.037585 -3.726436 -3.279882 0.187595 0.577345 -0.794658 255 0 245 255
-2.741893 -2.785059 -2.290067 0.187595 0.577345 -0.794658 255 0 245 255
-4.037585 -3.726436 -3.279882 -0.038531 0.748779 -0.661699 255 0 245 255
-4.384665 -2.658217 -2.050873 -0.038531 0.748779 -0.661699 255 0 245 255
-2.741893 -2.785059 -2.290067 -0.038531 0.748779 -0.661699 255 0 245 255
-4.037585 -3.726436 -3.279882 -0.408946 0.628425 -0.661698 255 0 245 255
-5.639162 -3.726431 -2.290062 -0.408946 0.628425 -0.661698 255 0 245 255
-4.384665 -2.658217 -2.050873 -0.408946 0.628425 -0.661698 255 0 245 255
-4.037585 -3.726436 -3.279882 -0.491120 0.356821 -0.794657 255 0 245 255
-5.144251 -5.249603 -3.279873 -0.491120 0.356821 -0.794657 255 0 245 255
-5.639162 -3.726431 -2.290062 -0.491120 0.356821 -0.794657 255 0 245 255
-5.144251 -5.249603 -3.279873 -0.724042 0.194736 -0.661695 255 0 245 255
-6.267434 -5.249603 -2.050860 -0.724042 0.194736 -0.661695 255 0 245 255
-5.639162 -3.726431 -2.290062 -0.724042 0.194736 -0.661695 255 0 245 255
-5.144251 -5.249603 -3.279873 -0.724042 -0.194736 -0.661695 255 0 245 255
-5.639162 -6.772776 -2.290062 -0.724042 -0.194736 -0.661695 255 0 245 255
-6.267434 -5.249603 -2.050860 -0.724042 -0.194736 -0.661695 255 0 245 255
-5.144251 -5.249603 -3.279873 -0.491120 -0.356821 -0.794657 255 0 245 255
-4.037585 -6.772771 -3.279882 -0.491120 -0.356821 -0.794657 255 0 245 255
-5.639162 -6.772776 -2.290062 -0.491120 -0.356821 -0.794657 255 0 245 255
-4.037585 -6.772771 -3.279882 -0.408946 -0.628425 -0.661698 255 0 245 255
-4.384665 -7.840990 -2.050873 -0.408946 -0.628425 -0.661698 255 0 245 255
-5.639162 -6.772776 -2.290062 -0.408946 -0.628425 -0.661698 255 0 245 255
-0.951304 -5.249603 -2.290061 0.700224 0.268032 -0.661699 255 0 245 255
-2.246999 -4.308242 -3.279881 0.700224 0.268032 -0.661699 255 0 245 255
-1.338315 -3.648053 -2.050872 0.700224 0.268032 -0.661699 255 0 245 255
-0.951304 -5.249603 -2.290061 0.607060 0.000000 -0.794656 255 0 245 255
-2.246999 -6.190964 -3.279881 0.607060 0.000000 -0.794656 255 0 245 255
-2.246999 -4.308242 -3.279881 0.607060 0.000000 -0.794656 255 0 245 255
-2.246999 -6.190964 -3.279881 0.331305 0.000000 -0.943524 255 0 245 255
-3.542687 -5.249603 -3.734842 0.331305 0.000000 -0.943524 255 0 245 255
-2.246999 -4.308242 -3.279881 0.331305 0.000000 -0.943524 255 0 245 255
-4.037585 -6.772771 -3.279882 -0.038530 -0.748779 -0.661699 255 0 245 255
-2.741893 -7.714147 -2.290067 -0.038530 -0.748779 -0.661699 255 0 245 255
-4.384665 -7.840990 -2.050873 -0.038530 -0.748779 -0.661699 255 0 245 255
-4.037585 -6.772771 -3.279882 0.187595 -0.577345 -0.794658 255 0 245 255
-2.246999 -6.190964 -3.279881 0.187595 -0.577345 -0.794658 255 0 245 255
-2.741893 -7.714147 -2.290067 0.187595 -0.577345 -0.794658 255 0 245 255
-2.246999 -6.190964 -3.279881 0.471300 -0.583122 -0.661699 255 0 245 255
-1.338315 -6.851154 -2.050872 0.471300 -0.583122 -0.661699 255 0 245 255
-2.741893 -7.714147 -2.290067 0.471300 -0.583122 -0.661699 255 0 245 255
3 0 1 2
3 0 2 3
3 4 5 6
3 4 6 7
3 8 9 10
3 8 10 11
3 12 13 14
3 12 14 15
3 16 17 18
3 16 18 19
3 20 21 22
3 20 22 23
3 24 25 26
3 24 26 27
3 28 29 30
3 28 30 31
3 32 33 34
3 32 34 35
3 36 37 38
3 36 38 39
3 40 41 42
3 40 42 43
3 44 45 46
3 44 46 47
3 48 49 50
3 48 50 51
3 52 53 54
3 52 54 55
3 56 57 58
3 56 58 59
3 60 61 62
3 60 62 63
3 64 65 66
3 64 66 67
3 68 69 70
3 68 70 71
3 72 73 74
3 72 74 75
3 76 77 78
3 76 78 79
3 80 81 82
3 80 82 83
3 84 85 86
3 84 86 87
3 88 89 90
3 88 90 91
3 92 93 94
3 92 94 95
3 96 97 98
3 99 100 101
3 102 103 104
3 105 106 107
3 108 109 110
3 111 112 113
3 114 115 116
3 117 118 119
3 120 121 122
3 123 124 125
3 126 127 128
3 129 130 131
3 132 133 134
3 135 136 137
3 138 139 140
3 141 142 143
3 144 145 146
3 147 148 149
3 150 151 152
3 153 154 155
3 156 157 158
3 159 160 161
3 162 163 164
3 165 166 167
3 168 169 170
3 171 172 173
3 174 175 176
3 177 178 179
3 180 181 182
3 183 184 185
3 186 187 188
3 189 190 191
3 192 193 194
3 195 196 197
3 198 199 200
3 201 202 203
3 204 205 206
3 207 208 209
3 210 211 212
3 213 214 215
3 216 217 218
3 219 220 221
3 222 223 224
3 225 226 227
3 228 229 230
3 231 232 233
3 234 235 236
3 237 238 239
3 240 241 242
3 243 244 245
3 246 247 248
3 249 250 251
3 252 253 254
3 255 256 257
3 258 259 260
3 261 262 263
3 264 265 266
3 267 268 269
3 270 271 272
3 273 274 275
3 276 277 278
3 279 280 281
3 282 283 284
3 285 286 287
3 288 289 290
3 291 292 293
3 294 295 296
3 297 298 299
3 300 301 302
3 303 304 305
3 306 307 308
3 309 310 311
3 312 313 314
3 315 316 317
3 318 319 320
3 321 322 323
3 324 325 326
3 327 328 329
3 330 331 332
3 333 334 335
