# Blender v2.80 (sub 75) OBJ File: 'shotgun.blend'
# www.blender.org
mtllib shotgun.mtl
o Shotgun_Cube.005
v -0.062500 -0.125000 -0.312500
v -0.125000 0.000000 -0.312500
v -0.062500 -0.125000 -1.031250
v -0.125000 0.000000 -1.031250
v 0.062500 -0.125000 -0.312500
v 0.125000 0.000000 -0.312500
v 0.062500 -0.125000 -1.031250
v 0.125000 0.000000 -1.031250
v 0.093750 -0.125000 -0.843750
v 0.062500 -0.218750 -0.843750
v 0.093750 -0.125000 -0.281250
v 0.062500 -0.218750 -0.281250
v -0.093750 -0.125000 -0.843750
v -0.062500 -0.218750 -0.843750
v -0.093750 -0.125000 -0.281250
v -0.062500 -0.218750 -0.281250
v 0.093750 -0.031250 -0.281250
v 0.093750 -0.031250 -0.843750
v -0.093750 -0.031250 -0.281250
v -0.093750 -0.031250 -0.843750
v -0.062500 0.125000 -0.312500
v -0.062500 0.125000 -1.031250
v 0.062500 0.125000 -1.031250
v 0.062500 0.125000 -0.312500
v 0.062500 -0.125000 0.625000
v 0.062500 -0.125000 0.531250
v -0.062500 -0.125000 0.625000
v -0.062500 -0.125000 0.531250
v -0.125000 0.062500 0.625000
v -0.062500 0.125000 0.625000
v -0.125000 0.062500 0.281250
v -0.062500 0.125000 0.281250
v 0.062500 0.125000 0.625000
v 0.125000 0.062500 0.625000
v 0.062500 0.125000 0.281250
v 0.125000 0.062500 0.281250
v -0.031250 0.062500 0.843750
v -0.093750 0.000000 0.843750
v 0.093750 0.000000 0.843750
v 0.031250 0.062500 0.843750
v -0.093750 0.125000 0.281250
v -0.125000 0.093750 0.281250
v -0.125000 0.093750 -0.312500
v -0.093750 0.125000 -0.312500
v 0.125000 0.093750 0.281250
v 0.093750 0.125000 0.281250
v 0.093750 0.125000 -0.312500
v 0.125000 0.093750 -0.312500
v 0.000000 -0.093750 0.750000
v 0.000000 -0.093750 0.750000
v 0.062500 -0.343750 0.656250
v -0.062500 -0.343750 0.656250
v -0.062500 -0.343750 0.562500
v 0.062500 -0.343750 0.562500
v 0.000000 -0.312500 0.781250
v 0.000000 -0.312500 0.781250
v -0.062500 -0.156250 0.281250
v -0.125000 -0.093750 0.281250
v -0.062500 -0.156250 0.625000
v -0.125000 -0.093750 0.625000
v 0.125000 -0.093750 0.281250
v 0.062500 -0.156250 0.281250
v 0.125000 -0.093750 0.625000
v 0.062500 -0.156250 0.625000
v -0.093750 -0.031250 0.843750
v -0.031250 -0.093750 0.843750
v 0.031250 -0.093750 0.843750
v 0.093750 -0.031250 0.843750
v -0.125000 -0.125000 0.281250
v -0.093750 -0.156250 0.281250
v -0.093750 -0.156250 -0.312500
v -0.125000 -0.125000 -0.312500
v 0.093750 -0.156250 0.281250
v 0.125000 -0.125000 0.281250
v 0.125000 -0.125000 -0.312500
v 0.093750 -0.156250 -0.312500
v 0.031250 0.000000 0.843750
v -0.031250 0.000000 0.843750
v 0.031250 -0.031250 0.843750
v -0.031250 -0.031250 0.843750
vt 0.000000 0.796875
vt 0.078125 0.359375
vt 0.078125 0.796875
vt 0.906250 0.875000
vt 0.796875 0.796875
vt 0.875000 0.796875
vt 0.765625 0.359375
vt 0.687500 0.796875
vt 0.687500 0.359375
vt 0.843750 0.796875
vt 0.921875 0.359375
vt 0.921875 0.796875
vt 0.234375 0.796875
vt 0.156250 0.359375
vt 0.234375 0.359375
vt 0.468750 0.343750
vt 0.421875 0.687500
vt 0.468750 0.687500
vt 0.578125 0.906250
vt 0.625000 0.812500
vt 0.578125 0.796875
vt 0.625000 0.703125
vt 0.687500 0.359375
vt 0.625000 0.359375
vt 0.531250 0.906250
vt 0.437500 0.843750
vt 0.421875 0.906250
vt 0.578125 0.359375
vt 0.640625 0.703125
vt 0.640625 0.359375
vt 0.906250 0.000000
vt 0.843750 0.343750
vt 0.906250 0.343750
vt 0.421875 0.968750
vt 0.531250 0.687500
vt 0.843750 0.359375
vt 0.765625 0.796875
vt 0.765625 0.359375
vt 0.078125 0.359375
vt 0.156250 0.796875
vt 0.078125 0.796875
vt 0.796875 0.953125
vt 0.765625 0.875000
vt 0.578125 0.359375
vt 0.687500 0.000000
vt 0.687500 0.359375
vt 0.000000 0.000000
vt 0.000000 0.000000
vt 0.000000 0.000000
vt 0.265625 0.718750
vt 0.281250 0.703125
vt 0.421875 0.718750
vt 0.562500 0.828125
vt 0.546875 0.843750
vt 0.421875 0.828125
vt 0.843750 0.000000
vt 0.765625 0.203125
vt 0.765625 0.000000
vt 0.484375 0.125000
vt 0.546875 0.000000
vt 0.578125 0.125000
vt 0.609375 0.765625
vt 0.609375 0.781250
vt 0.578125 0.765625
vt 0.390625 0.125000
vt 0.296875 0.343750
vt 0.296875 0.125000
vt 0.843750 0.203125
vt 0.796875 0.343750
vt 0.359375 -0.000000
vt 0.281250 0.000000
vt 0.156250 0.359375
vt 0.156250 0.000000
vt 0.484375 0.343750
vt 0.578125 0.343750
vt 0.437500 0.343750
vt 0.437500 0.125000
vt 0.437500 0.125000
vt 0.437500 0.343750
vt 0.406250 0.000000
vt 0.468750 0.000000
vt 0.515625 0.000000
vt 0.687500 0.140625
vt 0.734375 0.000000
vt 0.765625 0.140625
vt 0.156250 0.359375
vt 0.125000 0.000000
vt 0.156250 0.000000
vt 0.296875 0.703125
vt 0.265625 0.359375
vt 0.296875 0.359375
vt 0.000000 0.359375
vt 0.000000 0.000000
vt 0.156250 0.796875
vt 0.078125 0.921875
vt 0.078125 0.796875
vt 0.000000 0.921875
vt 0.078125 0.875000
vt 0.078125 0.921875
vt 0.031250 0.796875
vt 0.046875 0.796875
vt 0.984375 0.796875
vt 0.906250 0.921875
vt 0.906250 0.796875
vt 0.703125 0.921875
vt 0.625000 0.796875
vt 0.703125 0.796875
vt 0.765625 0.796875
vt 0.765625 0.937500
vt 0.218750 0.921875
vt 0.156250 0.937500
vt 0.921875 0.500000
vt 0.984375 0.703125
vt 0.921875 0.703125
vt 0.906250 0.000000
vt 0.968750 0.203125
vt 0.906250 0.203125
vt 0.921875 0.343750
vt 0.953125 0.203125
vt 0.968750 0.343750
vt 0.937500 0.359375
vt 0.968750 0.500000
vt 0.687500 0.343750
vt 0.765625 0.343750
vt 1.000000 0.359375
vt 0.968750 0.000000
vt 1.000000 0.000000
vt 0.234375 0.359375
vt 0.265625 0.703125
vt 0.234375 0.703125
vt 0.312500 0.703125
vt 0.421875 0.343750
vt 0.421875 0.703125
vt 0.640625 0.765625
vt 0.671875 0.765625
vt 0.640625 0.781250
vt 0.640625 0.734375
vt 0.609375 0.734375
vt 0.671875 0.734375
vt 0.578125 0.734375
vt 0.640625 0.718750
vt 0.609375 0.718750
vt 0.000000 0.359375
vt 0.765625 0.796875
vt 0.843750 0.359375
vt 0.156250 0.796875
vt 0.421875 0.343750
vt 0.625000 0.890625
vt 0.687500 0.703125
vt 0.515625 0.843750
vt 0.578125 0.703125
vt 0.843750 0.000000
vt 0.531250 0.968750
vt 0.531250 0.343750
vt 0.843750 0.796875
vt 0.156250 0.359375
vt 0.875000 0.953125
vt 0.578125 0.000000
vt 0.000000 0.000000
vt 0.406250 0.703125
vt 0.421875 0.859375
vt 0.265625 0.859375
vt 0.406250 0.875000
vt 0.281250 0.875000
vt 0.437500 0.843750
vt 0.421875 0.703125
vt 0.562500 0.703125
vt 0.437500 0.687500
vt 0.546875 0.687500
vt 0.390625 0.343750
vt 0.812500 0.343750
vt 0.328125 -0.000000
vt 0.281250 0.359375
vt 0.718750 0.000000
vt 0.125000 0.359375
vt 0.265625 0.703125
vt 0.000000 0.875000
vt 0.984375 0.921875
vt 0.625000 0.937500
vt 0.218750 0.796875
vt 0.984375 0.500000
vt 0.968750 0.000000
vt 0.984375 0.359375
vt 0.968750 0.359375
vt 0.265625 0.359375
vt 0.312500 0.343750
vn -0.8944 -0.4472 0.0000
vn 0.0000 0.0000 -1.0000
vn 0.8944 -0.4472 0.0000
vn 0.0000 -1.0000 0.0000
vn 0.8944 0.4472 0.0000
vn 0.9487 -0.3162 0.0000
vn 0.0000 0.0000 1.0000
vn -0.9487 -0.3162 0.0000
vn -1.0000 0.0000 0.0000
vn 1.0000 0.0000 0.0000
vn 0.0000 1.0000 0.0000
vn -0.8944 0.4472 0.0000
vn 0.9899 0.0000 0.1414
vn 0.0000 0.9615 0.2747
vn -0.9899 0.0000 0.1414
vn -0.7071 0.7071 0.0000
vn 0.7071 0.7071 0.0000
vn -0.6767 0.6767 0.2900
vn 0.6767 0.6767 0.2900
vn 0.0000 -0.9615 0.2747
vn -0.8988 0.0620 0.4339
vn 0.0000 -0.1414 -0.9899
vn 0.8988 0.0620 0.4339
vn -0.7071 -0.7071 0.0000
vn 0.7071 -0.7071 0.0000
vn 0.6767 -0.6767 0.2900
vn -0.6767 -0.6767 0.2900
vn 0.0000 -0.9701 0.2425
usemtl Shot
s off
f 2/1/1 3/2/1 1/3/1
f 4/4/2 7/5/2 3/6/2
f 8/7/3 5/8/3 7/9/3
f 7/10/4 1/11/4 3/12/4
f 8/13/5 24/14/5 6/15/5
f 11/16/6 10/17/6 9/18/6
f 15/19/7 12/20/7 11/21/7
f 13/22/8 16/23/8 15/24/8
f 9/25/2 14/26/2 13/27/2
f 19/28/9 13/29/9 15/30/9
f 14/31/4 12/32/4 16/33/4
f 20/34/2 9/25/2 13/27/2
f 18/35/10 11/16/10 9/18/10
f 22/36/11 24/37/11 23/38/11
f 2/39/12 22/40/12 4/41/12
f 4/4/2 23/42/2 8/43/2
f 46/44/11 44/45/11 41/46/11
f 50/47/7 55/48/7 56/49/7
f 75/50/2 76/51/2 72/52/2
f 69/53/7 70/54/7 74/55/7
f 32/56/11 33/57/11 35/58/11
f 34/59/13 68/60/13 63/61/13
f 78/62/7 37/63/7 38/64/7
f 29/65/9 58/66/9 60/67/9
f 30/68/14 40/69/14 33/57/14
f 60/67/15 38/70/15 29/65/15
f 48/71/10 74/72/10 75/73/10
f 36/74/10 63/61/10 61/75/10
f 32/76/16 29/65/16 30/77/16
f 33/78/17 36/74/17 35/79/17
f 29/65/18 37/80/18 30/77/18
f 34/59/19 40/81/19 39/82/19
f 64/83/20 66/84/20 59/85/20
f 44/86/16 42/87/16 41/88/16
f 46/89/17 48/90/17 47/91/17
f 42/87/9 72/92/9 69/93/9
f 27/94/21 55/95/21 49/96/21
f 54/97/4 52/98/4 53/99/4
f 52/98/7 56/100/7 55/101/7
f 26/102/22 53/103/22 28/104/22
f 25/105/23 56/106/23 51/107/23
f 25/105/10 54/108/10 26/109/10
f 27/94/9 53/110/9 52/111/9
f 59/112/24 58/113/24 57/114/24
f 62/115/25 63/116/25 64/117/25
f 67/118/26 63/119/26 68/120/26
f 66/121/27 60/122/27 59/112/27
f 62/123/4 59/85/4 57/124/4
f 70/125/24 72/126/24 71/127/24
f 76/128/25 74/129/25 73/130/25
f 76/131/4 70/132/4 71/133/4
f 77/134/7 39/135/7 40/136/7
f 78/62/7 40/136/7 37/63/7
f 79/137/7 78/62/7 80/138/7
f 39/135/7 79/137/7 68/139/7
f 78/62/7 65/140/7 80/138/7
f 67/141/7 80/138/7 66/142/7
f 67/141/7 68/139/7 79/137/7
f 66/142/7 80/138/7 65/140/7
f 2/1/1 4/143/1 3/2/1
f 4/4/2 8/43/2 7/5/2
f 8/7/3 6/144/3 5/8/3
f 7/10/4 5/145/4 1/11/4
f 8/13/5 23/146/5 24/14/5
f 11/16/6 12/147/6 10/17/6
f 15/19/7 16/148/7 12/20/7
f 13/22/8 14/149/8 16/23/8
f 9/25/2 10/150/2 14/26/2
f 19/28/9 20/151/9 13/29/9
f 14/31/4 10/152/4 12/32/4
f 20/34/2 18/153/2 9/25/2
f 18/35/10 17/154/10 11/16/10
f 22/36/11 21/155/11 24/37/11
f 2/39/12 21/156/12 22/40/12
f 4/4/2 22/157/2 23/42/2
f 46/44/11 47/158/11 44/45/11
f 50/47/7 49/159/7 55/48/7
f 76/51/2 71/160/2 72/52/2
f 72/52/2 43/161/2 48/162/2
f 43/161/2 44/163/2 48/162/2
f 44/163/2 47/164/2 48/162/2
f 48/162/2 75/50/2 72/52/2
f 70/54/7 73/165/7 74/55/7
f 74/55/7 45/166/7 42/167/7
f 45/166/7 46/168/7 42/167/7
f 46/168/7 41/169/7 42/167/7
f 42/167/7 69/53/7 74/55/7
f 32/56/11 30/68/11 33/57/11
f 34/59/13 39/82/13 68/60/13
f 29/65/9 31/170/9 58/66/9
f 30/68/14 37/171/14 40/69/14
f 60/67/15 65/172/15 38/70/15
f 48/71/10 45/173/10 74/72/10
f 36/74/10 34/59/10 63/61/10
f 32/76/16 31/170/16 29/65/16
f 33/78/17 34/59/17 36/74/17
f 29/65/18 38/70/18 37/80/18
f 34/59/19 33/78/19 40/81/19
f 64/83/20 67/174/20 66/84/20
f 44/86/16 43/175/16 42/87/16
f 46/89/17 45/176/17 48/90/17
f 42/87/9 43/175/9 72/92/9
f 27/94/21 52/111/21 55/95/21
f 54/97/4 51/177/4 52/98/4
f 52/98/28 51/177/28 56/100/28
f 26/102/22 54/178/22 53/103/22
f 25/105/23 50/179/23 56/106/23
f 25/105/10 51/107/10 54/108/10
f 27/94/9 28/180/9 53/110/9
f 59/112/24 60/181/24 58/113/24
f 62/115/25 61/182/25 63/116/25
f 67/118/26 64/117/26 63/119/26
f 66/121/27 65/183/27 60/122/27
f 62/123/4 64/83/4 59/85/4
f 70/125/24 69/184/24 72/126/24
f 76/128/25 75/185/25 74/129/25
f 76/131/4 73/186/4 70/132/4
f 78/62/7 77/134/7 40/136/7
f 79/137/7 77/134/7 78/62/7
f 39/135/7 77/134/7 79/137/7
f 78/62/7 38/64/7 65/140/7
f 67/141/7 79/137/7 80/138/7
