ply
format ascii 1.0
comment Created by Blender 2.80 (sub 75) - www.blender.org, source file: ''
element vertex 128
property float x
property float y
property float z
property float nx
property float ny
property float nz
property uchar red
property uchar green
property uchar blue
property uchar alpha
element face 256
property list uchar uint vertex_indices
end_header
1.000000 0.000000 0.000000 1.000000 0.000000 0.000000 255 0 0 255
0.923880 0.382683 0.000000 0.923856 0.382672 0.000000 255 0 0 255
0.856230 0.354662 0.176777 0.673910 0.279122 0.684042 255 0 0 255
0.926777 0.000000 0.176777 0.729423 0.000000 0.684042 255 0 0 255
0.692910 0.287013 0.250000 0.044099 0.018250 0.998840 255 0 0 255
0.750000 0.000000 0.250000 0.047731 0.000000 0.998840 255 0 0 255
0.529589 0.219363 0.176777 -0.629688 -0.260811 0.731712 255 0 0 255
0.573223 0.000000 0.176777 -0.681600 0.000000 0.731712 255 0 0 255
0.461940 0.191342 0.000000 -0.923856 -0.382672 0.000000 255 0 0 255
0.500000 0.000000 0.000000 -1.000000 0.000000 0.000000 255 0 0 255
0.529589 0.219363 -0.176777 -0.629688 -0.260811 -0.731712 255 0 0 255
0.573223 0.000000 -0.176777 -0.681600 0.000000 -0.731712 255 0 0 255
0.692910 0.287013 -0.250000 0.044099 0.018250 -0.998840 255 0 0 255
0.750000 0.000000 -0.250000 0.047731 0.000000 -0.998840 255 0 0 255
0.856230 0.354662 -0.176777 0.673910 0.279122 -0.684042 255 0 0 255
0.926777 0.000000 -0.176777 0.729423 0.000000 -0.684042 255 0 0 255
0.707107 0.707107 0.000000 0.707083 0.707083 0.000000 255 0 0 255
0.655330 0.655330 0.176777 0.515763 0.515763 0.684042 255 0 0 255
0.530330 0.530330 0.250000 0.033753 0.033753 0.998840 255 0 0 255
0.405330 0.405330 0.176777 -0.481948 -0.481948 0.731712 255 0 0 255
0.353553 0.353553 0.000000 -0.707083 -0.707083 0.000000 255 0 0 255
0.405330 0.405330 -0.176777 -0.481948 -0.481948 -0.731712 255 0 0 255
0.530330 0.530330 -0.250000 0.033753 0.033753 -0.998840 255 0 0 255
0.655330 0.655330 -0.176777 0.515763 0.515763 -0.684042 255 0 0 255
0.382684 0.923879 0.000000 0.382672 0.923856 0.000000 255 0 0 255
0.354662 0.856230 0.176777 0.279122 0.673910 0.684042 255 0 0 255
0.287013 0.692910 0.250000 0.018250 0.044099 0.998840 255 0 0 255
0.219363 0.529589 0.176777 -0.260811 -0.629688 0.731712 255 0 0 255
0.191342 0.461940 0.000000 -0.382672 -0.923856 0.000000 255 0 0 255
0.219363 0.529589 -0.176777 -0.260811 -0.629688 -0.731712 255 0 0 255
0.287013 0.692910 -0.250000 0.018250 0.044099 -0.998840 255 0 0 255
0.354662 0.856230 -0.176777 0.279122 0.673910 -0.684042 255 0 0 255
0.000000 1.000000 0.000000 0.000000 1.000000 0.000000 255 0 0 255
0.000000 0.926777 0.176777 0.000000 0.729423 0.684042 255 0 0 255
0.000000 0.750000 0.250000 0.000000 0.047731 0.998840 255 0 0 255
0.000000 0.573223 0.176777 0.000000 -0.681600 0.731712 255 0 0 255
0.000000 0.500000 0.000000 0.000000 -0.999969 0.000000 255 0 0 255
0.000000 0.573223 -0.176777 0.000000 -0.681600 -0.731712 255 0 0 255
0.000000 0.750000 -0.250000 0.000000 0.047731 -0.998840 255 0 0 255
0.000000 0.926777 -0.176777 0.000000 0.729423 -0.684042 255 0 0 255
-0.382684 0.923880 0.000000 -0.382672 0.923856 0.000000 255 0 0 255
-0.354662 0.856230 0.176777 -0.279122 0.673910 0.684042 255 0 0 255
-0.287013 0.692910 0.250000 -0.018250 0.044099 0.998840 255 0 0 255
-0.219363 0.529589 0.176777 0.260811 -0.629688 0.731712 255 0 0 255
-0.191342 0.461940 0.000000 0.382672 -0.923856 0.000000 255 0 0 255
-0.219363 0.529589 -0.176777 0.260811 -0.629688 -0.731712 255 0 0 255
-0.287013 0.692910 -0.250000 -0.018250 0.044099 -0.998840 255 0 0 255
-0.354662 0.856230 -0.176777 -0.279122 0.673910 -0.684042 255 0 0 255
-0.707107 0.707107 0.000000 -0.707083 0.707083 0.000000 255 0 0 255
-0.655330 0.655330 0.176777 -0.515763 0.515763 0.684042 255 0 0 255
-0.530330 0.530330 0.250000 -0.033753 0.033753 0.998840 255 0 0 255
-0.405330 0.405330 0.176777 0.481948 -0.481948 0.731712 255 0 0 255
-0.353553 0.353553 0.000000 0.707083 -0.707083 0.000000 255 0 0 255
-0.405330 0.405330 -0.176777 0.481948 -0.481948 -0.731712 255 0 0 255
-0.530330 0.530330 -0.250000 -0.033753 0.033753 -0.998840 255 0 0 255
-0.655330 0.655330 -0.176777 -0.515763 0.515763 -0.684042 255 0 0 255
-0.923880 0.382683 0.000000 -0.923856 0.382672 0.000000 255 0 0 255
-0.856230 0.354662 0.176777 -0.673910 0.279122 0.684042 255 0 0 255
-0.692910 0.287013 0.250000 -0.044099 0.018250 0.998840 255 0 0 255
-0.529589 0.219363 0.176777 0.629688 -0.260811 0.731712 255 0 0 255
-0.461940 0.191342 0.000000 0.923856 -0.382672 0.000000 255 0 0 255
-0.529589 0.219363 -0.176777 0.629688 -0.260811 -0.731712 255 0 0 255
-0.692910 0.287013 -0.250000 -0.044099 0.018250 -0.998840 255 0 0 255
-0.856230 0.354662 -0.176777 -0.673910 0.279122 -0.684042 255 0 0 255
-1.000000 0.000000 0.000000 -1.000000 0.000000 0.000000 255 0 0 255
-0.926777 0.000000 0.176777 -0.729423 0.000000 0.684042 255 0 0 255
-0.750000 0.000000 0.250000 -0.047731 0.000000 0.998840 255 0 0 255
-0.573223 0.000000 0.176777 0.681600 0.000000 0.731712 255 0 0 255
-0.500000 0.000000 0.000000 0.999969 0.000000 0.000000 255 0 0 255
-0.573223 0.000000 -0.176777 0.681600 0.000000 -0.731712 255 0 0 255
-0.750000 0.000000 -0.250000 -0.047731 0.000000 -0.998840 255 0 0 255
-0.926777 0.000000 -0.176777 -0.729423 0.000000 -0.684042 255 0 0 255
-0.923880 -0.382683 0.000000 -0.923856 -0.382672 0.000000 255 0 0 255
-0.856230 -0.354662 0.176777 -0.673910 -0.279122 0.684042 255 0 0 255
-0.692910 -0.287012 0.250000 -0.044099 -0.018250 0.998840 255 0 0 255
-0.529589 -0.219363 0.176777 0.629688 0.260811 0.731712 255 0 0 255
-0.461940 -0.191342 0.000000 0.923856 0.382672 0.000000 255 0 0 255
-0.529589 -0.219363 -0.176777 0.629688 0.260811 -0.731712 255 0 0 255
-0.692910 -0.287012 -0.250000 -0.044099 -0.018250 -0.998840 255 0 0 255
-0.856230 -0.354662 -0.176777 -0.673910 -0.279122 -0.684042 255 0 0 255
-0.707107 -0.707107 0.000000 -0.707083 -0.707083 0.000000 255 0 0 255
-0.655330 -0.655330 0.176777 -0.515763 -0.515763 0.684042 255 0 0 255
-0.530330 -0.530330 0.250000 -0.033753 -0.033753 0.998840 255 0 0 255
-0.405330 -0.405330 0.176777 0.481948 0.481948 0.731712 255 0 0 255
-0.353553 -0.353553 0.000000 0.707083 0.707083 0.000000 255 0 0 255
-0.405330 -0.405330 -0.176777 0.481948 0.481948 -0.731712 255 0 0 255
-0.530330 -0.530330 -0.250000 -0.033753 -0.033753 -0.998840 255 0 0 255
-0.655330 -0.655330 -0.176777 -0.515763 -0.515763 -0.684042 255 0 0 255
-0.382684 -0.923880 0.000000 -0.382672 -0.923856 0.000000 255 0 0 255
-0.354662 -0.856230 0.176777 -0.279122 -0.673910 0.684042 255 0 0 255
-0.287013 -0.692910 0.250000 -0.018250 -0.044099 0.998840 255 0 0 255
-0.219363 -0.529589 0.176777 0.260811 0.629688 0.731712 255 0 0 255
-0.191342 -0.461940 0.000000 0.382672 0.923856 0.000000 255 0 0 255
-0.219363 -0.529589 -0.176777 0.260811 0.629688 -0.731712 255 0 0 255
-0.287013 -0.692910 -0.250000 -0.018250 -0.044099 -0.998840 255 0 0 255
-0.354662 -0.856230 -0.176777 -0.279122 -0.673910 -0.684042 255 0 0 255
0.000000 -1.000000 0.000000 0.000000 -1.000000 0.000000 255 0 0 255
0.000000 -0.926777 0.176777 0.000000 -0.729423 0.684042 255 0 0 255
0.000000 -0.750000 0.250000 0.000000 -0.047731 0.998840 255 0 0 255
0.000000 -0.573223 0.176777 0.000000 0.681600 0.731712 255 0 0 255
0.000000 -0.500000 0.000000 0.000000 0.999969 0.000000 255 0 0 255
0.000000 -0.573223 -0.176777 0.000000 0.681600 -0.731712 255 0 0 255
0.000000 -0.750000 -0.250000 0.000000 -0.047731 -0.998840 255 0 0 255
0.000000 -0.926777 -0.176777 0.000000 -0.729423 -0.684042 255 0 0 255
0.382684 -0.923879 0.000000 0.382672 -0.923856 0.000000 255 0 0 255
0.354662 -0.856230 0.176777 0.279122 -0.673910 0.684042 255 0 0 255
0.287013 -0.692910 0.250000 0.018250 -0.044099 0.998840 255 0 0 255
0.219363 -0.529589 0.176777 -0.260811 0.629688 0.731712 255 0 0 255
0.191342 -0.461940 0.000000 -0.382672 0.923856 0.000000 255 0 0 255
0.219363 -0.529589 -0.176777 -0.260811 0.629688 -0.731712 255 0 0 255
0.287013 -0.692910 -0.250000 0.018250 -0.044099 -0.998840 255 0 0 255
0.354662 -0.856230 -0.176777 0.279122 -0.673910 -0.684042 255 0 0 255
0.707106 -0.707107 0.000000 0.707083 -0.707083 0.000000 255 0 0 255
0.655330 -0.655330 0.176777 0.515763 -0.515763 0.684042 255 0 0 255
0.530330 -0.530330 0.250000 0.033753 -0.033753 0.998840 255 0 0 255
0.405330 -0.405330 0.176777 -0.481948 0.481948 0.731712 255 0 0 255
0.353553 -0.353554 0.000000 -0.707083 0.707083 0.000000 255 0 0 255
0.405330 -0.405330 -0.176777 -0.481948 0.481948 -0.731712 255 0 0 255
0.530330 -0.530330 -0.250000 0.033753 -0.033753 -0.998840 255 0 0 255
0.655330 -0.655330 -0.176777 0.515763 -0.515763 -0.684042 255 0 0 255
0.923879 -0.382684 0.000000 0.923856 -0.382672 0.000000 255 0 0 255
0.856230 -0.354662 0.176777 0.673910 -0.279122 0.684042 255 0 0 255
0.692910 -0.287013 0.250000 0.044099 -0.018250 0.998840 255 0 0 255
0.529589 -0.219363 0.176777 -0.629688 0.260811 0.731712 255 0 0 255
0.461940 -0.191342 0.000000 -0.923856 0.382672 0.000000 255 0 0 255
0.529589 -0.219363 -0.176777 -0.629688 0.260811 -0.731712 255 0 0 255
0.692910 -0.287013 -0.250000 0.044099 -0.018250 -0.998840 255 0 0 255
0.856230 -0.354662 -0.176777 0.673910 -0.279122 -0.684042 255 0 0 255
3 0 1 2
3 0 2 3
3 3 2 4
3 3 4 5
3 5 4 6
3 5 6 7
3 7 6 8
3 7 8 9
3 9 8 10
3 9 10 11
3 11 10 12
3 11 12 13
3 13 12 14
3 13 14 15
3 15 14 1
3 15 1 0
3 1 16 17
3 1 17 2
3 2 17 18
3 2 18 4
3 4 18 19
3 4 19 6
3 6 19 20
3 6 20 8
3 8 20 21
3 8 21 10
3 10 21 22
3 10 22 12
3 12 22 23
3 12 23 14
3 14 23 16
3 14 16 1
3 16 24 25
3 16 25 17
3 17 25 26
3 17 26 18
3 18 26 27
3 18 27 19
3 19 27 28
3 19 28 20
3 20 28 29
3 20 29 21
3 21 29 30
3 21 30 22
3 22 30 31
3 22 31 23
3 23 31 24
3 23 24 16
3 24 32 33
3 24 33 25
3 25 33 34
3 25 34 26
3 26 34 35
3 26 35 27
3 27 35 36
3 27 36 28
3 28 36 37
3 28 37 29
3 29 37 38
3 29 38 30
3 30 38 39
3 30 39 31
3 31 39 32
3 31 32 24
3 32 40 41
3 32 41 33
3 33 41 42
3 33 42 34
3 34 42 43
3 34 43 35
3 35 43 44
3 35 44 36
3 36 44 45
3 36 45 37
3 37 45 46
3 37 46 38
3 38 46 47
3 38 47 39
3 39 47 40
3 39 40 32
3 40 48 49
3 40 49 41
3 41 49 50
3 41 50 42
3 42 50 51
3 42 51 43
3 43 51 52
3 43 52 44
3 44 52 53
3 44 53 45
3 45 53 54
3 45 54 46
3 46 54 55
3 46 55 47
3 47 55 48
3 47 48 40
3 48 56 57
3 48 57 49
3 49 57 58
3 49 58 50
3 50 58 59
3 50 59 51
3 51 59 60
3 51 60 52
3 52 60 61
3 52 61 53
3 53 61 62
3 53 62 54
3 54 62 63
3 54 63 55
3 55 63 56
3 55 56 48
3 56 64 65
3 56 65 57
3 57 65 66
3 57 66 58
3 58 66 67
3 58 67 59
3 59 67 68
3 59 68 60
3 60 68 69
3 60 69 61
3 61 69 70
3 61 70 62
3 62 70 71
3 62 71 63
3 63 71 64
3 63 64 56
3 64 72 73
3 64 73 65
3 65 73 74
3 65 74 66
3 66 74 75
3 66 75 67
3 67 75 76
3 67 76 68
3 68 76 77
3 68 77 69
3 69 77 78
3 69 78 70
3 70 78 79
3 70 79 71
3 71 79 72
3 71 72 64
3 72 80 81
3 72 81 73
3 73 81 82
3 73 82 74
3 74 82 83
3 74 83 75
3 75 83 84
3 75 84 76
3 76 84 85
3 76 85 77
3 77 85 86
3 77 86 78
3 78 86 87
3 78 87 79
3 79 87 80
3 79 80 72
3 80 88 89
3 80 89 81
3 81 89 90
3 81 90 82
3 82 90 91
3 82 91 83
3 83 91 92
3 83 92 84
3 84 92 93
3 84 93 85
3 85 93 94
3 85 94 86
3 86 94 95
3 86 95 87
3 87 95 88
3 87 88 80
3 88 96 97
3 88 97 89
3 89 97 98
3 89 98 90
3 90 98 99
3 90 99 91
3 91 99 100
3 91 100 92
3 92 100 101
3 92 101 93
3 93 101 102
3 93 102 94
3 94 102 103
3 94 103 95
3 95 103 96
3 95 96 88
3 96 104 105
3 96 105 97
3 97 105 106
3 97 106 98
3 98 106 107
3 98 107 99
3 99 107 108
3 99 108 100
3 100 108 109
3 100 109 101
3 101 109 110
3 101 110 102
3 102 110 111
3 102 111 103
3 103 111 104
3 103 104 96
3 104 112 113
3 104 113 105
3 105 113 114
3 105 114 106
3 106 114 115
3 106 115 107
3 107 115 116
3 107 116 108
3 108 116 117
3 108 117 109
3 109 117 118
3 109 118 110
3 110 118 119
3 110 119 111
3 111 119 112
3 111 112 104
3 112 120 121
3 112 121 113
3 113 121 122
3 113 122 114
3 114 122 123
3 114 123 115
3 115 123 124
3 115 124 116
3 116 124 125
3 116 125 117
3 117 125 126
3 117 126 118
3 118 126 127
3 118 127 119
3 119 127 120
3 119 120 112
3 120 0 3
3 120 3 121
3 121 3 5
3 121 5 122
3 122 5 7
3 122 7 123
3 123 7 9
3 123 9 124
3 124 9 11
3 124 11 125
3 125 11 13
3 125 13 126
3 126 13 15
3 126 15 127
3 127 15 0
3 127 0 120
