ply
format ascii 1.0
comment Created by Blender 2.80 (sub 75) - www.blender.org, source file: 'test_world.blend'
element vertex 344
property float x
property float y
property float z
property float nx
property float ny
property float nz
property float s
property float t
property uchar red
property uchar green
property uchar blue
property uchar alpha
element face 188
property list uchar uint vertex_indices
end_header
-3.000000 4.000000 -2.000000 0.000000 1.000000 0.000000 0.750000 0.530734 255 31 0 255
-3.000000 4.000000 -1.000000 0.000000 1.000000 0.000000 0.875000 0.530637 255 31 0 255
3.000000 4.000000 -1.000000 0.000000 1.000000 0.000000 0.875000 0.719363 255 31 0 255
3.000000 4.000000 -2.000000 0.000000 1.000000 -0.000000 0.750000 0.719266 255 31 0 255
2.000000 -3.000000 -3.000000 0.000000 -0.707107 -0.707107 0.375000 0.291174 255 31 0 255
3.000000 -4.000000 -2.000000 0.000000 -0.707107 -0.707107 0.500000 0.280734 255 31 0 255
-3.000000 -4.000000 -2.000000 0.000000 -0.707107 -0.707107 0.500000 0.469266 255 31 0 255
-2.000000 -3.000000 -3.000000 0.000000 -0.707107 -0.707107 0.375000 0.458826 255 31 0 255
-3.000000 -2.000000 -3.000000 -0.707107 -0.000000 -0.707107 0.375000 0.541174 255 31 0 255
-4.000000 -3.000000 -2.000000 -0.707107 -0.000000 -0.707107 0.500000 0.530734 255 31 0 255
-4.000000 3.000000 -2.000000 -0.707107 -0.000000 -0.707107 0.500000 0.719266 255 31 0 255
-3.000000 2.000000 -3.000000 -0.707107 0.000000 -0.707107 0.375000 0.708826 255 31 0 255
3.000000 -4.000000 -2.000000 0.000000 -1.000000 0.000000 0.500000 0.280734 255 31 0 255
3.000000 -4.000000 -1.000000 0.000000 -1.000000 0.000000 0.625000 0.280637 255 31 0 255
-3.000000 -4.000000 -1.000000 0.000000 -1.000000 0.000000 0.625000 0.469363 255 31 0 255
-3.000000 -4.000000 -2.000000 0.000000 -1.000000 0.000000 0.500000 0.469266 255 31 0 255
4.000000 -3.000000 -1.000000 0.000000 0.000000 1.000000 0.375000 0.219363 255 31 0 255
4.000000 3.000000 -1.000000 0.000000 0.000000 1.000000 0.375000 0.030637 255 31 0 255
3.000000 4.000000 -1.000000 0.000000 0.000000 1.000000 0.405637 0.000000 255 31 0 255
-3.000000 4.000000 -1.000000 0.000000 0.000000 1.000000 0.594363 0.000000 255 31 0 255
-4.000000 3.000000 -1.000000 0.000000 0.000000 1.000000 0.625000 0.030637 255 31 0 255
-4.000000 -3.000000 -1.000000 0.000000 -0.000000 1.000000 0.625000 0.219363 255 31 0 255
-3.000000 -4.000000 -1.000000 0.000000 -0.000000 1.000000 0.594363 0.250000 255 31 0 255
3.000000 -4.000000 -1.000000 0.000000 0.000000 1.000000 0.405637 0.250000 255 31 0 255
-2.000000 3.000000 -3.000000 0.000000 0.707107 -0.707107 0.625000 0.541174 255 31 0 255
-3.000000 4.000000 -2.000000 0.000000 0.707107 -0.707107 0.750000 0.530734 255 31 0 255
3.000000 4.000000 -2.000000 0.000000 0.707107 -0.707107 0.750000 0.719266 255 31 0 255
2.000000 3.000000 -3.000000 0.000000 0.707107 -0.707107 0.625000 0.708826 255 31 0 255
3.000000 2.000000 -3.000000 0.707107 0.000000 -0.707107 0.125000 0.541174 255 31 0 255
4.000000 3.000000 -2.000000 0.707107 0.000000 -0.707107 0.250000 0.530734 255 31 0 255
4.000000 -3.000000 -2.000000 0.707107 0.000000 -0.707107 0.250000 0.719266 255 31 0 255
3.000000 -2.000000 -3.000000 0.707107 0.000000 -0.707107 0.125000 0.708826 255 31 0 255
-3.000000 -2.000000 -3.000000 0.000000 -0.000000 -1.000000 0.375000 0.958826 255 31 0 255
-3.000000 2.000000 -3.000000 0.000000 -0.000000 -1.000000 0.375000 0.791174 255 31 0 255
-2.000000 3.000000 -3.000000 0.000000 -0.000000 -1.000000 0.416174 0.750000 255 31 0 255
2.000000 3.000000 -3.000000 0.000000 0.000000 -1.000000 0.583826 0.750000 255 31 0 255
3.000000 2.000000 -3.000000 0.000000 0.000000 -1.000000 0.625000 0.791174 255 31 0 255
3.000000 -2.000000 -3.000000 0.000000 0.000000 -1.000000 0.625000 0.958826 255 31 0 255
2.000000 -3.000000 -3.000000 0.000000 0.000000 -1.000000 0.583826 1.000000 255 31 0 255
-2.000000 -3.000000 -3.000000 0.000000 0.000000 -1.000000 0.416174 1.000000 255 31 0 255
6.000000 10.000000 0.000000 0.000000 1.000000 0.000000 0.750000 0.530734 62 255 0 255
6.000000 10.000000 1.000000 0.000000 1.000000 0.000000 0.875000 0.530637 62 255 0 255
12.000000 10.000000 1.000000 0.000000 1.000000 0.000000 0.875000 0.719363 62 255 0 255
12.000000 10.000000 0.000000 0.000000 1.000000 -0.000000 0.750000 0.719266 62 255 0 255
-4.000000 -3.000000 -2.000000 -1.000000 -0.000000 -0.000000 0.500000 0.530734 255 31 0 255
-4.000000 -3.000000 -1.000000 -1.000000 -0.000000 -0.000000 0.625000 0.530637 255 31 0 255
-4.000000 3.000000 -1.000000 -1.000000 -0.000000 -0.000000 0.625000 0.719363 255 31 0 255
-4.000000 3.000000 -2.000000 -1.000000 -0.000000 0.000000 0.500000 0.719266 255 31 0 255
4.000000 3.000000 -2.000000 0.408248 0.408248 -0.816497 0.250000 0.530734 255 31 0 255
3.000000 2.000000 -3.000000 0.408248 0.408248 -0.816497 0.125000 0.541174 255 31 0 255
2.000000 3.000000 -3.000000 0.408248 0.408248 -0.816497 0.125000 0.500000 255 31 0 255
3.000000 4.000000 -2.000000 0.408248 0.408248 -0.816497 0.209021 0.500000 255 31 0 255
-3.000000 -4.000000 -2.000000 -0.707107 -0.707107 -0.000000 0.500000 0.469266 255 31 0 255
-3.000000 -4.000000 -1.000000 -0.707107 -0.707107 -0.000000 0.625000 0.469363 255 31 0 255
-4.000000 -3.000000 -1.000000 -0.707107 -0.707107 -0.000000 0.625000 0.530637 255 31 0 255
-4.000000 -3.000000 -2.000000 -0.707107 -0.707107 0.000000 0.500000 0.530734 255 31 0 255
3.000000 -4.000000 -2.000000 0.408248 -0.408248 -0.816497 0.500000 0.280734 255 31 0 255
2.000000 -3.000000 -3.000000 0.408248 -0.408248 -0.816497 0.375000 0.291174 255 31 0 255
3.000000 -2.000000 -3.000000 0.408248 -0.408248 -0.816497 0.375000 0.250000 255 31 0 255
4.000000 -3.000000 -2.000000 0.408248 -0.408248 -0.816497 0.459021 0.250000 255 31 0 255
-3.000000 4.000000 -2.000000 -0.408248 0.408248 -0.816497 0.750000 0.530734 255 31 0 255
-2.000000 3.000000 -3.000000 -0.408248 0.408248 -0.816497 0.625000 0.541174 255 31 0 255
-3.000000 2.000000 -3.000000 -0.408248 0.408248 -0.816497 0.625000 0.500000 255 31 0 255
-4.000000 3.000000 -2.000000 -0.408248 0.408248 -0.816497 0.709021 0.500000 255 31 0 255
4.000000 3.000000 -1.000000 0.707107 0.707107 -0.000000 0.375000 0.530637 255 31 0 255
4.000000 3.000000 -2.000000 0.707107 0.707107 -0.000000 0.250000 0.530734 255 31 0 255
3.000000 4.000000 -2.000000 0.707107 0.707107 -0.000000 0.250000 0.500000 255 31 0 255
3.000000 4.000000 -1.000000 0.707107 0.707107 0.000000 0.375000 0.500000 255 31 0 255
-2.000000 -3.000000 -3.000000 -0.408248 -0.408248 -0.816497 0.375000 0.458826 255 31 0 255
-3.000000 -4.000000 -2.000000 -0.408248 -0.408248 -0.816497 0.500000 0.469266 255 31 0 255
-4.000000 -3.000000 -2.000000 -0.408248 -0.408248 -0.816497 0.500000 0.530734 255 31 0 255
-3.000000 -2.000000 -3.000000 -0.408248 -0.408248 -0.816497 0.375000 0.541174 255 31 0 255
3.000000 -4.000000 -1.000000 0.707107 -0.707107 0.000000 0.625000 0.280637 255 31 0 255
3.000000 -4.000000 -2.000000 0.707107 -0.707107 0.000000 0.500000 0.280734 255 31 0 255
4.000000 -3.000000 -2.000000 0.707107 -0.707107 0.000000 0.500000 0.250000 255 31 0 255
4.000000 -3.000000 -1.000000 0.707107 -0.707107 0.000000 0.625000 0.250000 255 31 0 255
-3.000000 4.000000 -1.000000 -0.707107 0.707107 0.000000 0.875000 0.530637 255 31 0 255
-3.000000 4.000000 -2.000000 -0.707107 0.707107 0.000000 0.750000 0.530734 255 31 0 255
-4.000000 3.000000 -2.000000 -0.707107 0.707107 0.000000 0.750000 0.500000 255 31 0 255
-4.000000 3.000000 -1.000000 -0.707107 0.707107 0.000000 0.875000 0.500000 255 31 0 255
4.000000 3.000000 -2.000000 1.000000 -0.000000 0.000000 0.250000 0.530734 255 31 0 255
4.000000 3.000000 -1.000000 1.000000 -0.000000 0.000000 0.375000 0.530637 255 31 0 255
4.000000 -3.000000 -1.000000 1.000000 -0.000000 0.000000 0.375000 0.719363 255 31 0 255
4.000000 -3.000000 -2.000000 1.000000 -0.000000 0.000000 0.250000 0.719266 255 31 0 255
11.000000 3.000000 -1.000000 0.000000 -0.707107 -0.707107 0.375000 0.291174 62 255 0 255
12.000000 2.000000 0.000000 0.000000 -0.707107 -0.707107 0.500000 0.280734 62 255 0 255
6.000000 2.000000 0.000000 0.000000 -0.707107 -0.707107 0.500000 0.469266 62 255 0 255
7.000000 3.000000 -1.000000 0.000000 -0.707107 -0.707107 0.375000 0.458826 62 255 0 255
6.000000 4.000000 -1.000000 -0.707107 -0.000000 -0.707107 0.375000 0.541174 62 255 0 255
5.000000 3.000000 0.000000 -0.707107 -0.000000 -0.707107 0.500000 0.530734 62 255 0 255
5.000000 9.000000 0.000000 -0.707107 -0.000000 -0.707107 0.500000 0.719266 62 255 0 255
6.000000 8.000000 -1.000000 -0.707107 0.000000 -0.707107 0.375000 0.708826 62 255 0 255
12.000000 2.000000 0.000000 0.000000 -1.000000 0.000000 0.500000 0.280734 62 255 0 255
12.000000 2.000000 1.000000 0.000000 -1.000000 0.000000 0.625000 0.280637 62 255 0 255
6.000000 2.000000 1.000000 0.000000 -1.000000 0.000000 0.625000 0.469363 62 255 0 255
6.000000 2.000000 0.000000 0.000000 -1.000000 0.000000 0.500000 0.469266 62 255 0 255
13.000000 3.000000 1.000000 0.000000 0.000000 1.000000 0.375000 0.219363 62 255 0 255
13.000000 9.000000 1.000000 0.000000 0.000000 1.000000 0.375000 0.030637 62 255 0 255
12.000000 10.000000 1.000000 0.000000 0.000000 1.000000 0.405637 0.000000 62 255 0 255
6.000000 10.000000 1.000000 0.000000 0.000000 1.000000 0.594363 0.000000 62 255 0 255
5.000000 9.000000 1.000000 0.000000 0.000000 1.000000 0.625000 0.030637 62 255 0 255
5.000000 3.000000 1.000000 0.000000 -0.000000 1.000000 0.625000 0.219363 62 255 0 255
6.000000 2.000000 1.000000 0.000000 -0.000000 1.000000 0.594363 0.250000 62 255 0 255
12.000000 2.000000 1.000000 0.000000 0.000000 1.000000 0.405637 0.250000 62 255 0 255
7.000000 9.000000 -1.000000 0.000000 0.707107 -0.707107 0.625000 0.541174 62 255 0 255
6.000000 10.000000 0.000000 0.000000 0.707107 -0.707107 0.750000 0.530734 62 255 0 255
12.000000 10.000000 0.000000 0.000000 0.707107 -0.707107 0.750000 0.719266 62 255 0 255
11.000000 9.000000 -1.000000 0.000000 0.707107 -0.707107 0.625000 0.708826 62 255 0 255
12.000000 8.000000 -1.000000 0.707107 0.000000 -0.707107 0.125000 0.541174 62 255 0 255
13.000000 9.000000 0.000000 0.707107 0.000000 -0.707107 0.250000 0.530734 62 255 0 255
13.000000 3.000000 0.000000 0.707107 0.000000 -0.707107 0.250000 0.719266 62 255 0 255
12.000000 4.000000 -1.000000 0.707107 0.000000 -0.707107 0.125000 0.708826 62 255 0 255
6.000000 4.000000 -1.000000 0.000000 -0.000000 -1.000000 0.375000 0.958826 62 255 0 255
6.000000 8.000000 -1.000000 0.000000 -0.000000 -1.000000 0.375000 0.791174 62 255 0 255
7.000000 9.000000 -1.000000 0.000000 -0.000000 -1.000000 0.416174 0.750000 62 255 0 255
11.000000 9.000000 -1.000000 0.000000 0.000000 -1.000000 0.583826 0.750000 62 255 0 255
12.000000 8.000000 -1.000000 0.000000 0.000000 -1.000000 0.625000 0.791174 62 255 0 255
12.000000 4.000000 -1.000000 0.000000 0.000000 -1.000000 0.625000 0.958826 62 255 0 255
11.000000 3.000000 -1.000000 0.000000 0.000000 -1.000000 0.583826 1.000000 62 255 0 255
7.000000 3.000000 -1.000000 0.000000 0.000000 -1.000000 0.416174 1.000000 62 255 0 255
5.000000 3.000000 0.000000 -1.000000 -0.000000 -0.000000 0.500000 0.530734 62 255 0 255
5.000000 3.000000 1.000000 -1.000000 -0.000000 -0.000000 0.625000 0.530637 62 255 0 255
5.000000 9.000000 1.000000 -1.000000 -0.000000 -0.000000 0.625000 0.719363 62 255 0 255
5.000000 9.000000 0.000000 -1.000000 -0.000000 0.000000 0.500000 0.719266 62 255 0 255
13.000000 9.000000 0.000000 0.408248 0.408248 -0.816497 0.250000 0.530734 62 255 0 255
12.000000 8.000000 -1.000000 0.408248 0.408248 -0.816497 0.125000 0.541174 62 255 0 255
11.000000 9.000000 -1.000000 0.408248 0.408248 -0.816497 0.125000 0.500000 62 255 0 255
12.000000 10.000000 0.000000 0.408248 0.408248 -0.816497 0.209021 0.500000 62 255 0 255
6.000000 2.000000 0.000000 -0.707107 -0.707107 -0.000000 0.500000 0.469266 62 255 0 255
6.000000 2.000000 1.000000 -0.707107 -0.707107 -0.000000 0.625000 0.469363 62 255 0 255
5.000000 3.000000 1.000000 -0.707107 -0.707107 -0.000000 0.625000 0.530637 62 255 0 255
5.000000 3.000000 0.000000 -0.707107 -0.707107 0.000000 0.500000 0.530734 62 255 0 255
12.000000 2.000000 0.000000 0.408248 -0.408248 -0.816497 0.500000 0.280734 62 255 0 255
11.000000 3.000000 -1.000000 0.408248 -0.408248 -0.816497 0.375000 0.291174 62 255 0 255
12.000000 4.000000 -1.000000 0.408248 -0.408248 -0.816497 0.375000 0.250000 62 255 0 255
13.000000 3.000000 0.000000 0.408248 -0.408248 -0.816497 0.459021 0.250000 62 255 0 255
6.000000 10.000000 0.000000 -0.408248 0.408248 -0.816497 0.750000 0.530734 62 255 0 255
7.000000 9.000000 -1.000000 -0.408248 0.408248 -0.816497 0.625000 0.541174 62 255 0 255
6.000000 8.000000 -1.000000 -0.408248 0.408248 -0.816497 0.625000 0.500000 62 255 0 255
5.000000 9.000000 0.000000 -0.408248 0.408248 -0.816497 0.709021 0.500000 62 255 0 255
13.000000 9.000000 1.000000 0.707107 0.707107 -0.000000 0.375000 0.530637 62 255 0 255
13.000000 9.000000 0.000000 0.707107 0.707107 -0.000000 0.250000 0.530734 62 255 0 255
12.000000 10.000000 0.000000 0.707107 0.707107 -0.000000 0.250000 0.500000 62 255 0 255
12.000000 10.000000 1.000000 0.707107 0.707107 0.000000 0.375000 0.500000 62 255 0 255
7.000000 3.000000 -1.000000 -0.408248 -0.408248 -0.816497 0.375000 0.458826 62 255 0 255
6.000000 2.000000 0.000000 -0.408248 -0.408248 -0.816497 0.500000 0.469266 62 255 0 255
5.000000 3.000000 0.000000 -0.408248 -0.408248 -0.816497 0.500000 0.530734 62 255 0 255
6.000000 4.000000 -1.000000 -0.408248 -0.408248 -0.816497 0.375000 0.541174 62 255 0 255
12.000000 2.000000 1.000000 0.707107 -0.707107 0.000000 0.625000 0.280637 62 255 0 255
12.000000 2.000000 0.000000 0.707107 -0.707107 0.000000 0.500000 0.280734 62 255 0 255
13.000000 3.000000 0.000000 0.707107 -0.707107 0.000000 0.500000 0.250000 62 255 0 255
13.000000 3.000000 1.000000 0.707107 -0.707107 0.000000 0.625000 0.250000 62 255 0 255
6.000000 10.000000 1.000000 -0.707107 0.707107 0.000000 0.875000 0.530637 62 255 0 255
6.000000 10.000000 0.000000 -0.707107 0.707107 0.000000 0.750000 0.530734 62 255 0 255
5.000000 9.000000 0.000000 -0.707107 0.707107 0.000000 0.750000 0.500000 62 255 0 255
5.000000 9.000000 1.000000 -0.707107 0.707107 0.000000 0.875000 0.500000 62 255 0 255
13.000000 9.000000 0.000000 1.000000 -0.000000 0.000000 0.250000 0.530734 62 255 0 255
13.000000 9.000000 1.000000 1.000000 -0.000000 0.000000 0.375000 0.530637 62 255 0 255
13.000000 3.000000 1.000000 1.000000 -0.000000 0.000000 0.375000 0.719363 62 255 0 255
13.000000 3.000000 0.000000 1.000000 -0.000000 0.000000 0.250000 0.719266 62 255 0 255
-4.000000 16.000000 2.000000 0.000000 1.000000 0.000000 0.750000 0.530734 255 208 0 255
-4.000000 16.000000 3.000000 0.000000 1.000000 0.000000 0.875000 0.530637 255 208 0 255
2.000000 16.000000 3.000000 0.000000 1.000000 0.000000 0.875000 0.719363 255 208 0 255
2.000000 16.000000 2.000000 0.000000 1.000000 -0.000000 0.750000 0.719266 255 208 0 255
1.000000 9.000000 1.000000 0.000000 -0.707107 -0.707107 0.375000 0.291174 255 208 0 255
2.000000 8.000000 2.000000 0.000000 -0.707107 -0.707107 0.500000 0.280734 255 208 0 255
-4.000000 8.000000 2.000000 0.000000 -0.707107 -0.707107 0.500000 0.469266 255 208 0 255
-3.000000 9.000000 1.000000 0.000000 -0.707107 -0.707107 0.375000 0.458826 255 208 0 255
-4.000000 10.000000 1.000000 -0.707107 -0.000000 -0.707107 0.375000 0.541174 255 208 0 255
-5.000000 9.000000 2.000000 -0.707107 -0.000000 -0.707107 0.500000 0.530734 255 208 0 255
-5.000000 15.000000 2.000000 -0.707107 -0.000000 -0.707107 0.500000 0.719266 255 208 0 255
-4.000000 14.000000 1.000000 -0.707107 0.000000 -0.707107 0.375000 0.708826 255 208 0 255
2.000000 8.000000 2.000000 0.000000 -1.000000 0.000000 0.500000 0.280734 255 208 0 255
2.000000 8.000000 3.000000 0.000000 -1.000000 0.000000 0.625000 0.280637 255 208 0 255
-4.000000 8.000000 3.000000 0.000000 -1.000000 0.000000 0.625000 0.469363 255 208 0 255
-4.000000 8.000000 2.000000 0.000000 -1.000000 0.000000 0.500000 0.469266 255 208 0 255
3.000000 9.000000 3.000000 0.000000 0.000000 1.000000 0.375000 0.219363 255 208 0 255
3.000000 15.000000 3.000000 0.000000 0.000000 1.000000 0.375000 0.030637 255 208 0 255
2.000000 16.000000 3.000000 0.000000 0.000000 1.000000 0.405637 0.000000 255 208 0 255
-4.000000 16.000000 3.000000 0.000000 0.000000 1.000000 0.594363 0.000000 255 208 0 255
-5.000000 15.000000 3.000000 0.000000 0.000000 1.000000 0.625000 0.030637 255 208 0 255
-5.000000 9.000000 3.000000 0.000000 -0.000000 1.000000 0.625000 0.219363 255 208 0 255
-4.000000 8.000000 3.000000 0.000000 -0.000000 1.000000 0.594363 0.250000 255 208 0 255
2.000000 8.000000 3.000000 0.000000 0.000000 1.000000 0.405637 0.250000 255 208 0 255
-3.000000 15.000000 1.000000 0.000000 0.707107 -0.707107 0.625000 0.541174 255 208 0 255
-4.000000 16.000000 2.000000 0.000000 0.707107 -0.707107 0.750000 0.530734 255 208 0 255
2.000000 16.000000 2.000000 0.000000 0.707107 -0.707107 0.750000 0.719266 255 208 0 255
1.000000 15.000000 1.000000 0.000000 0.707107 -0.707107 0.625000 0.708826 255 208 0 255
2.000000 14.000000 1.000000 0.707107 0.000000 -0.707107 0.125000 0.541174 255 208 0 255
3.000000 15.000000 2.000000 0.707107 0.000000 -0.707107 0.250000 0.530734 255 208 0 255
3.000000 9.000000 2.000000 0.707107 0.000000 -0.707107 0.250000 0.719266 255 208 0 255
2.000000 10.000000 1.000000 0.707107 0.000000 -0.707107 0.125000 0.708826 255 208 0 255
-4.000000 10.000000 1.000000 0.000000 -0.000000 -1.000000 0.375000 0.958826 255 208 0 255
-4.000000 14.000000 1.000000 0.000000 -0.000000 -1.000000 0.375000 0.791174 255 208 0 255
-3.000000 15.000000 1.000000 0.000000 -0.000000 -1.000000 0.416174 0.750000 255 208 0 255
1.000000 15.000000 1.000000 0.000000 0.000000 -1.000000 0.583826 0.750000 255 208 0 255
2.000000 14.000000 1.000000 0.000000 0.000000 -1.000000 0.625000 0.791174 255 208 0 255
2.000000 10.000000 1.000000 0.000000 0.000000 -1.000000 0.625000 0.958826 255 208 0 255
1.000000 9.000000 1.000000 0.000000 0.000000 -1.000000 0.583826 1.000000 255 208 0 255
-3.000000 9.000000 1.000000 0.000000 0.000000 -1.000000 0.416174 1.000000 255 208 0 255
-5.000000 9.000000 2.000000 -1.000000 -0.000000 -0.000000 0.500000 0.530734 255 208 0 255
-5.000000 9.000000 3.000000 -1.000000 -0.000000 -0.000000 0.625000 0.530637 255 208 0 255
-5.000000 15.000000 3.000000 -1.000000 -0.000000 -0.000000 0.625000 0.719363 255 208 0 255
-5.000000 15.000000 2.000000 -1.000000 -0.000000 0.000000 0.500000 0.719266 255 208 0 255
3.000000 15.000000 2.000000 0.408248 0.408248 -0.816497 0.250000 0.530734 255 208 0 255
2.000000 14.000000 1.000000 0.408248 0.408248 -0.816497 0.125000 0.541174 255 208 0 255
1.000000 15.000000 1.000000 0.408248 0.408248 -0.816497 0.125000 0.500000 255 208 0 255
2.000000 16.000000 2.000000 0.408248 0.408248 -0.816497 0.209021 0.500000 255 208 0 255
-4.000000 8.000000 2.000000 -0.707107 -0.707107 -0.000000 0.500000 0.469266 255 208 0 255
-4.000000 8.000000 3.000000 -0.707107 -0.707107 -0.000000 0.625000 0.469363 255 208 0 255
-5.000000 9.000000 3.000000 -0.707107 -0.707107 -0.000000 0.625000 0.530637 255 208 0 255
-5.000000 9.000000 2.000000 -0.707107 -0.707107 0.000000 0.500000 0.530734 255 208 0 255
2.000000 8.000000 2.000000 0.408248 -0.408248 -0.816497 0.500000 0.280734 255 208 0 255
1.000000 9.000000 1.000000 0.408248 -0.408248 -0.816497 0.375000 0.291174 255 208 0 255
2.000000 10.000000 1.000000 0.408248 -0.408248 -0.816497 0.375000 0.250000 255 208 0 255
3.000000 9.000000 2.000000 0.408248 -0.408248 -0.816497 0.459021 0.250000 255 208 0 255
-4.000000 16.000000 2.000000 -0.408248 0.408248 -0.816497 0.750000 0.530734 255 208 0 255
-3.000000 15.000000 1.000000 -0.408248 0.408248 -0.816497 0.625000 0.541174 255 208 0 255
-4.000000 14.000000 1.000000 -0.408248 0.408248 -0.816497 0.625000 0.500000 255 208 0 255
-5.000000 15.000000 2.000000 -0.408248 0.408248 -0.816497 0.709021 0.500000 255 208 0 255
3.000000 15.000000 3.000000 0.707107 0.707107 -0.000000 0.375000 0.530637 255 208 0 255
3.000000 15.000000 2.000000 0.707107 0.707107 -0.000000 0.250000 0.530734 255 208 0 255
2.000000 16.000000 2.000000 0.707107 0.707107 -0.000000 0.250000 0.500000 255 208 0 255
2.000000 16.000000 3.000000 0.707107 0.707107 0.000000 0.375000 0.500000 255 208 0 255
-3.000000 9.000000 1.000000 -0.408248 -0.408248 -0.816497 0.375000 0.458826 255 208 0 255
-4.000000 8.000000 2.000000 -0.408248 -0.408248 -0.816497 0.500000 0.469266 255 208 0 255
-5.000000 9.000000 2.000000 -0.408248 -0.408248 -0.816497 0.500000 0.530734 255 208 0 255
-4.000000 10.000000 1.000000 -0.408248 -0.408248 -0.816497 0.375000 0.541174 255 208 0 255
2.000000 8.000000 3.000000 0.707107 -0.707107 0.000000 0.625000 0.280637 255 208 0 255
2.000000 8.000000 2.000000 0.707107 -0.707107 0.000000 0.500000 0.280734 255 208 0 255
3.000000 9.000000 2.000000 0.707107 -0.707107 0.000000 0.500000 0.250000 255 208 0 255
3.000000 9.000000 3.000000 0.707107 -0.707107 0.000000 0.625000 0.250000 255 208 0 255
-4.000000 16.000000 3.000000 -0.707107 0.707107 0.000000 0.875000 0.530637 255 208 0 255
-4.000000 16.000000 2.000000 -0.707107 0.707107 0.000000 0.750000 0.530734 255 208 0 255
-5.000000 15.000000 2.000000 -0.707107 0.707107 0.000000 0.750000 0.500000 255 208 0 255
-5.000000 15.000000 3.000000 -0.707107 0.707107 0.000000 0.875000 0.500000 255 208 0 255
3.000000 15.000000 2.000000 1.000000 -0.000000 0.000000 0.250000 0.530734 255 208 0 255
3.000000 15.000000 3.000000 1.000000 -0.000000 0.000000 0.375000 0.530637 255 208 0 255
3.000000 9.000000 3.000000 1.000000 -0.000000 0.000000 0.375000 0.719363 255 208 0 255
3.000000 9.000000 2.000000 1.000000 -0.000000 0.000000 0.250000 0.719266 255 208 0 255
-8.000000 7.000000 4.000000 0.000000 1.000000 0.000000 0.750000 0.530734 72 0 255 255
-8.000000 7.000000 5.000000 0.000000 1.000000 0.000000 0.875000 0.530637 72 0 255 255
-2.000000 7.000000 5.000000 0.000000 1.000000 0.000000 0.875000 0.719363 72 0 255 255
-2.000000 7.000000 4.000000 0.000000 1.000000 -0.000000 0.750000 0.719266 72 0 255 255
-3.000000 0.000000 3.000000 0.000000 -0.707107 -0.707107 0.375000 0.291174 72 0 255 255
-2.000000 -1.000000 4.000000 0.000000 -0.707107 -0.707107 0.500000 0.280734 72 0 255 255
-8.000000 -1.000000 4.000000 0.000000 -0.707107 -0.707107 0.500000 0.469266 72 0 255 255
-7.000000 0.000000 3.000000 0.000000 -0.707107 -0.707107 0.375000 0.458826 72 0 255 255
-8.000000 1.000000 3.000000 -0.707107 -0.000000 -0.707107 0.375000 0.541174 72 0 255 255
-9.000000 0.000000 4.000000 -0.707107 -0.000000 -0.707107 0.500000 0.530734 72 0 255 255
-9.000000 6.000000 4.000000 -0.707107 -0.000000 -0.707107 0.500000 0.719266 72 0 255 255
-8.000000 5.000000 3.000000 -0.707107 0.000000 -0.707107 0.375000 0.708826 72 0 255 255
-2.000000 -1.000000 4.000000 0.000000 -1.000000 0.000000 0.500000 0.280734 72 0 255 255
-2.000000 -1.000000 5.000000 0.000000 -1.000000 0.000000 0.625000 0.280637 72 0 255 255
-8.000000 -1.000000 5.000000 0.000000 -1.000000 0.000000 0.625000 0.469363 72 0 255 255
-8.000000 -1.000000 4.000000 0.000000 -1.000000 0.000000 0.500000 0.469266 72 0 255 255
-1.000000 0.000000 5.000000 0.000000 0.000000 1.000000 0.375000 0.219363 72 0 255 255
-1.000000 6.000000 5.000000 0.000000 0.000000 1.000000 0.375000 0.030637 72 0 255 255
-2.000000 7.000000 5.000000 0.000000 0.000000 1.000000 0.405637 0.000000 72 0 255 255
-8.000000 7.000000 5.000000 0.000000 0.000000 1.000000 0.594363 0.000000 72 0 255 255
-9.000000 6.000000 5.000000 0.000000 0.000000 1.000000 0.625000 0.030637 72 0 255 255
-9.000000 0.000000 5.000000 0.000000 -0.000000 1.000000 0.625000 0.219363 72 0 255 255
-8.000000 -1.000000 5.000000 0.000000 -0.000000 1.000000 0.594363 0.250000 72 0 255 255
-2.000000 -1.000000 5.000000 0.000000 0.000000 1.000000 0.405637 0.250000 72 0 255 255
-7.000000 6.000000 3.000000 0.000000 0.707107 -0.707107 0.625000 0.541174 72 0 255 255
-8.000000 7.000000 4.000000 0.000000 0.707107 -0.707107 0.750000 0.530734 72 0 255 255
-2.000000 7.000000 4.000000 0.000000 0.707107 -0.707107 0.750000 0.719266 72 0 255 255
-3.000000 6.000000 3.000000 0.000000 0.707107 -0.707107 0.625000 0.708826 72 0 255 255
-2.000000 5.000000 3.000000 0.707107 0.000000 -0.707107 0.125000 0.541174 72 0 255 255
-1.000000 6.000000 4.000000 0.707107 0.000000 -0.707107 0.250000 0.530734 72 0 255 255
-1.000000 0.000000 4.000000 0.707107 0.000000 -0.707107 0.250000 0.719266 72 0 255 255
-2.000000 1.000000 3.000000 0.707107 0.000000 -0.707107 0.125000 0.708826 72 0 255 255
-8.000000 1.000000 3.000000 0.000000 -0.000000 -1.000000 0.375000 0.958826 72 0 255 255
-8.000000 5.000000 3.000000 0.000000 -0.000000 -1.000000 0.375000 0.791174 72 0 255 255
-7.000000 6.000000 3.000000 0.000000 -0.000000 -1.000000 0.416174 0.750000 72 0 255 255
-3.000000 6.000000 3.000000 0.000000 0.000000 -1.000000 0.583826 0.750000 72 0 255 255
-2.000000 5.000000 3.000000 0.000000 0.000000 -1.000000 0.625000 0.791174 72 0 255 255
-2.000000 1.000000 3.000000 0.000000 0.000000 -1.000000 0.625000 0.958826 72 0 255 255
-3.000000 0.000000 3.000000 0.000000 0.000000 -1.000000 0.583826 1.000000 72 0 255 255
-7.000000 0.000000 3.000000 0.000000 0.000000 -1.000000 0.416174 1.000000 72 0 255 255
-9.000000 0.000000 4.000000 -1.000000 -0.000000 -0.000000 0.500000 0.530734 72 0 255 255
-9.000000 0.000000 5.000000 -1.000000 -0.000000 -0.000000 0.625000 0.530637 72 0 255 255
-9.000000 6.000000 5.000000 -1.000000 -0.000000 -0.000000 0.625000 0.719363 72 0 255 255
-9.000000 6.000000 4.000000 -1.000000 -0.000000 0.000000 0.500000 0.719266 72 0 255 255
-1.000000 6.000000 4.000000 0.408248 0.408248 -0.816497 0.250000 0.530734 72 0 255 255
-2.000000 5.000000 3.000000 0.408248 0.408248 -0.816497 0.125000 0.541174 72 0 255 255
-3.000000 6.000000 3.000000 0.408248 0.408248 -0.816497 0.125000 0.500000 72 0 255 255
-2.000000 7.000000 4.000000 0.408248 0.408248 -0.816497 0.209021 0.500000 72 0 255 255
-8.000000 -1.000000 4.000000 -0.707107 -0.707107 -0.000000 0.500000 0.469266 72 0 255 255
-8.000000 -1.000000 5.000000 -0.707107 -0.707107 -0.000000 0.625000 0.469363 72 0 255 255
-9.000000 0.000000 5.000000 -0.707107 -0.707107 -0.000000 0.625000 0.530637 72 0 255 255
-9.000000 0.000000 4.000000 -0.707107 -0.707107 0.000000 0.500000 0.530734 72 0 255 255
-2.000000 -1.000000 4.000000 0.408248 -0.408248 -0.816497 0.500000 0.280734 72 0 255 255
-3.000000 0.000000 3.000000 0.408248 -0.408248 -0.816497 0.375000 0.291174 72 0 255 255
-2.000000 1.000000 3.000000 0.408248 -0.408248 -0.816497 0.375000 0.250000 72 0 255 255
-1.000000 0.000000 4.000000 0.408248 -0.408248 -0.816497 0.459021 0.250000 72 0 255 255
-8.000000 7.000000 4.000000 -0.408248 0.408248 -0.816497 0.750000 0.530734 72 0 255 255
-7.000000 6.000000 3.000000 -0.408248 0.408248 -0.816497 0.625000 0.541174 72 0 255 255
-8.000000 5.000000 3.000000 -0.408248 0.408248 -0.816497 0.625000 0.500000 72 0 255 255
-9.000000 6.000000 4.000000 -0.408248 0.408248 -0.816497 0.709021 0.500000 72 0 255 255
-1.000000 6.000000 5.000000 0.707107 0.707107 -0.000000 0.375000 0.530637 72 0 255 255
-1.000000 6.000000 4.000000 0.707107 0.707107 -0.000000 0.250000 0.530734 72 0 255 255
-2.000000 7.000000 4.000000 0.707107 0.707107 -0.000000 0.250000 0.500000 72 0 255 255
-2.000000 7.000000 5.000000 0.707107 0.707107 0.000000 0.375000 0.500000 72 0 255 255
-7.000000 0.000000 3.000000 -0.408248 -0.408248 -0.816497 0.375000 0.458826 72 0 255 255
-8.000000 -1.000000 4.000000 -0.408248 -0.408248 -0.816497 0.500000 0.469266 72 0 255 255
-9.000000 0.000000 4.000000 -0.408248 -0.408248 -0.816497 0.500000 0.530734 72 0 255 255
-8.000000 1.000000 3.000000 -0.408248 -0.408248 -0.816497 0.375000 0.541174 72 0 255 255
-2.000000 -1.000000 5.000000 0.707107 -0.707107 0.000000 0.625000 0.280637 72 0 255 255
-2.000000 -1.000000 4.000000 0.707107 -0.707107 0.000000 0.500000 0.280734 72 0 255 255
-1.000000 0.000000 4.000000 0.707107 -0.707107 0.000000 0.500000 0.250000 72 0 255 255
-1.000000 0.000000 5.000000 0.707107 -0.707107 0.000000 0.625000 0.250000 72 0 255 255
-8.000000 7.000000 5.000000 -0.707107 0.707107 0.000000 0.875000 0.530637 72 0 255 255
-8.000000 7.000000 4.000000 -0.707107 0.707107 0.000000 0.750000 0.530734 72 0 255 255
-9.000000 6.000000 4.000000 -0.707107 0.707107 0.000000 0.750000 0.500000 72 0 255 255
-9.000000 6.000000 5.000000 -0.707107 0.707107 0.000000 0.875000 0.500000 72 0 255 255
-1.000000 6.000000 4.000000 1.000000 -0.000000 0.000000 0.250000 0.530734 72 0 255 255
-1.000000 6.000000 5.000000 1.000000 -0.000000 0.000000 0.375000 0.530637 72 0 255 255
-1.000000 0.000000 5.000000 1.000000 -0.000000 0.000000 0.375000 0.719363 72 0 255 255
-1.000000 0.000000 4.000000 1.000000 -0.000000 0.000000 0.250000 0.719266 72 0 255 255
-20.952477 -20.952477 -20.952477 1.000000 0.000000 0.000000 0.375000 0.000000 195 255 235 255
-20.952477 20.952477 -20.952477 1.000000 0.000000 0.000000 0.375000 0.250000 195 255 235 255
-20.952477 20.952477 20.952477 1.000000 0.000000 0.000000 0.625000 0.250000 195 255 235 255
-20.952477 -20.952477 20.952477 1.000000 -0.000000 0.000000 0.625000 0.000000 195 255 235 255
-20.952477 20.952477 -20.952477 -0.000000 -1.000000 -0.000000 0.375000 0.250000 195 255 235 255
20.952477 20.952477 -20.952477 -0.000000 -1.000000 -0.000000 0.375000 0.500000 195 255 235 255
20.952477 20.952477 20.952477 -0.000000 -1.000000 -0.000000 0.625000 0.500000 195 255 235 255
-20.952477 20.952477 20.952477 0.000000 -1.000000 -0.000000 0.625000 0.250000 195 255 235 255
20.952477 20.952477 -20.952477 -1.000000 0.000000 0.000000 0.375000 0.500000 195 255 235 255
20.952477 -20.952477 -20.952477 -1.000000 0.000000 0.000000 0.375000 0.750000 195 255 235 255
20.952477 -20.952477 20.952477 -1.000000 0.000000 0.000000 0.625000 0.750000 195 255 235 255
20.952477 20.952477 20.952477 -1.000000 -0.000000 -0.000000 0.625000 0.500000 195 255 235 255
20.952477 -20.952477 -20.952477 -0.000000 1.000000 0.000000 0.375000 0.750000 195 255 235 255
-20.952477 -20.952477 -20.952477 -0.000000 1.000000 0.000000 0.375000 1.000000 195 255 235 255
-20.952477 -20.952477 20.952477 -0.000000 1.000000 0.000000 0.625000 1.000000 195 255 235 255
20.952477 -20.952477 20.952477 0.000000 1.000000 0.000000 0.625000 0.750000 195 255 235 255
-20.952477 20.952477 -20.952477 0.000000 -0.000000 1.000000 0.125000 0.500000 195 255 235 255
-20.952477 -20.952477 -20.952477 0.000000 -0.000000 1.000000 0.125000 0.750000 195 255 235 255
20.952477 -20.952477 -20.952477 0.000000 -0.000000 1.000000 0.375000 0.750000 195 255 235 255
20.952477 20.952477 -20.952477 0.000000 0.000000 1.000000 0.375000 0.500000 195 255 235 255
20.952477 20.952477 20.952477 0.000000 0.000000 -1.000000 0.625000 0.500000 195 255 235 255
20.952477 -20.952477 20.952477 0.000000 0.000000 -1.000000 0.625000 0.750000 195 255 235 255
-20.952477 -20.952477 20.952477 0.000000 0.000000 -1.000000 0.875000 0.750000 195 255 235 255
-20.952477 20.952477 20.952477 0.000000 0.000000 -1.000000 0.875000 0.500000 195 255 235 255
3 0 1 2
3 0 2 3
3 4 5 6
3 4 6 7
3 8 9 10
3 8 10 11
3 12 13 14
3 12 14 15
3 16 17 18
3 18 19 20
3 20 21 22
3 22 23 16
3 16 18 20
3 20 22 16
3 24 25 26
3 24 26 27
3 28 29 30
3 28 30 31
3 32 33 34
3 34 35 36
3 36 37 38
3 38 39 32
3 32 34 36
3 36 38 32
3 40 41 42
3 40 42 43
3 44 45 46
3 44 46 47
3 48 49 50
3 48 50 51
3 52 53 54
3 52 54 55
3 56 57 58
3 56 58 59
3 60 61 62
3 60 62 63
3 64 65 66
3 64 66 67
3 68 69 70
3 68 70 71
3 72 73 74
3 72 74 75
3 76 77 78
3 76 78 79
3 80 81 82
3 80 82 83
3 84 85 86
3 84 86 87
3 88 89 90
3 88 90 91
3 92 93 94
3 92 94 95
3 96 97 98
3 98 99 100
3 100 101 102
3 102 103 96
3 96 98 100
3 100 102 96
3 104 105 106
3 104 106 107
3 108 109 110
3 108 110 111
3 112 113 114
3 114 115 116
3 116 117 118
3 118 119 112
3 112 114 116
3 116 118 112
3 120 121 122
3 120 122 123
3 124 125 126
3 124 126 127
3 128 129 130
3 128 130 131
3 132 133 134
3 132 134 135
3 136 137 138
3 136 138 139
3 140 141 142
3 140 142 143
3 144 145 146
3 144 146 147
3 148 149 150
3 148 150 151
3 152 153 154
3 152 154 155
3 156 157 158
3 156 158 159
3 160 161 162
3 160 162 163
3 164 165 166
3 164 166 167
3 168 169 170
3 168 170 171
3 172 173 174
3 172 174 175
3 176 177 178
3 178 179 180
3 180 181 182
3 182 183 176
3 176 178 180
3 180 182 176
3 184 185 186
3 184 186 187
3 188 189 190
3 188 190 191
3 192 193 194
3 194 195 196
3 196 197 198
3 198 199 192
3 192 194 196
3 196 198 192
3 200 201 202
3 200 202 203
3 204 205 206
3 204 206 207
3 208 209 210
3 208 210 211
3 212 213 214
3 212 214 215
3 216 217 218
3 216 218 219
3 220 221 222
3 220 222 223
3 224 225 226
3 224 226 227
3 228 229 230
3 228 230 231
3 232 233 234
3 232 234 235
3 236 237 238
3 236 238 239
3 240 241 242
3 240 242 243
3 244 245 246
3 244 246 247
3 248 249 250
3 248 250 251
3 252 253 254
3 252 254 255
3 256 257 258
3 258 259 260
3 260 261 262
3 262 263 256
3 256 258 260
3 260 262 256
3 264 265 266
3 264 266 267
3 268 269 270
3 268 270 271
3 272 273 274
3 274 275 276
3 276 277 278
3 278 279 272
3 272 274 276
3 276 278 272
3 280 281 282
3 280 282 283
3 284 285 286
3 284 286 287
3 288 289 290
3 288 290 291
3 292 293 294
3 292 294 295
3 296 297 298
3 296 298 299
3 300 301 302
3 300 302 303
3 304 305 306
3 304 306 307
3 308 309 310
3 308 310 311
3 312 313 314
3 312 314 315
3 316 317 318
3 316 318 319
3 320 321 322
3 320 322 323
3 324 325 326
3 324 326 327
3 328 329 330
3 328 330 331
3 332 333 334
3 332 334 335
3 336 337 338
3 336 338 339
3 340 341 342
3 340 342 343
