ply
format ascii 1.0
comment Created by Blender 2.80 (sub 75) - www.blender.org, source file: ''
element vertex 458
property float x
property float y
property float z
property float nx
property float ny
property float nz
property uchar red
property uchar green
property uchar blue
property uchar alpha
element face 240
property list uchar uint vertex_indices
end_header
1.250000 0.000000 0.000000 0.921602 0.246943 0.299447 255 0 0 255
1.082532 0.625000 0.000000 0.921602 0.246943 0.299447 255 0 0 255
1.041183 0.601127 0.146946 0.921602 0.246943 0.299447 255 0 0 255
1.202254 0.000000 0.146946 0.921602 0.246943 0.299447 255 0 0 255
1.202254 0.000000 0.146946 0.580628 0.155579 0.799166 255 0 0 255
1.041183 0.601127 0.146946 0.580628 0.155579 0.799166 255 0 0 255
0.932930 0.538627 0.237764 0.580628 0.155579 0.799166 255 0 0 255
1.077254 0.000000 0.237764 0.580628 0.155579 0.799166 255 0 0 255
1.077254 0.000000 0.237764 -0.000000 0.000000 1.000000 255 0 0 255
0.932930 0.538627 0.237764 -0.000000 0.000000 1.000000 255 0 0 255
0.799121 0.461373 0.237764 -0.000000 0.000000 1.000000 255 0 0 255
0.922746 0.000000 0.237764 -0.000000 -0.000000 1.000000 255 0 0 255
0.922746 0.000000 0.237764 -0.580628 -0.155579 0.799166 255 0 0 255
0.799121 0.461373 0.237764 -0.580628 -0.155579 0.799166 255 0 0 255
0.690868 0.398873 0.146946 -0.580628 -0.155579 0.799166 255 0 0 255
0.797746 0.000000 0.146946 -0.580628 -0.155579 0.799166 255 0 0 255
0.797746 0.000000 0.146946 -0.921602 -0.246943 0.299447 255 0 0 255
0.690868 0.398873 0.146946 -0.921602 -0.246943 0.299447 255 0 0 255
0.649519 0.375000 0.000000 -0.921602 -0.246943 0.299447 255 0 0 255
0.750000 0.000000 0.000000 -0.921602 -0.246943 0.299447 255 0 0 255
0.750000 0.000000 0.000000 -0.921602 -0.246943 -0.299447 255 0 0 255
0.649519 0.375000 0.000000 -0.921602 -0.246943 -0.299447 255 0 0 255
0.690868 0.398873 -0.146946 -0.921602 -0.246943 -0.299447 255 0 0 255
0.797746 0.000000 -0.146946 -0.921602 -0.246943 -0.299447 255 0 0 255
0.797746 0.000000 -0.146946 -0.580628 -0.155579 -0.799166 255 0 0 255
0.690868 0.398873 -0.146946 -0.580628 -0.155579 -0.799166 255 0 0 255
0.799121 0.461373 -0.237764 -0.580628 -0.155579 -0.799166 255 0 0 255
0.922746 0.000000 -0.237764 -0.580628 -0.155579 -0.799166 255 0 0 255
0.922746 0.000000 -0.237764 0.000000 -0.000000 -1.000000 255 0 0 255
0.799121 0.461373 -0.237764 0.000000 -0.000000 -1.000000 255 0 0 255
0.932930 0.538627 -0.237764 0.000000 -0.000000 -1.000000 255 0 0 255
1.077254 0.000000 -0.237764 -0.000000 0.000000 -1.000000 255 0 0 255
1.077254 0.000000 -0.237764 0.580628 0.155579 -0.799166 255 0 0 255
0.932930 0.538627 -0.237764 0.580628 0.155579 -0.799166 255 0 0 255
1.041183 0.601127 -0.146946 0.580628 0.155579 -0.799166 255 0 0 255
1.202254 0.000000 -0.146946 0.580628 0.155579 -0.799166 255 0 0 255
1.202254 0.000000 -0.146946 0.921602 0.246943 -0.299447 255 0 0 255
1.041183 0.601127 -0.146946 0.921602 0.246943 -0.299447 255 0 0 255
1.082532 0.625000 0.000000 0.921602 0.246943 -0.299447 255 0 0 255
1.250000 0.000000 0.000000 0.921602 0.246943 -0.299447 255 0 0 255
1.082532 0.625000 0.000000 0.674660 0.674660 0.299447 255 0 0 255
0.625000 1.082532 0.000000 0.674660 0.674660 0.299447 255 0 0 255
0.601127 1.041183 0.146946 0.674660 0.674660 0.299447 255 0 0 255
1.041183 0.601127 0.146946 0.674660 0.674660 0.299447 255 0 0 255
1.041183 0.601127 0.146946 0.425049 0.425049 0.799166 255 0 0 255
0.601127 1.041183 0.146946 0.425049 0.425049 0.799166 255 0 0 255
0.538627 0.932930 0.237764 0.425049 0.425049 0.799166 255 0 0 255
0.932930 0.538627 0.237764 0.425049 0.425049 0.799166 255 0 0 255
0.538627 0.932930 0.237764 -0.000000 0.000000 1.000000 255 0 0 255
0.461373 0.799121 0.237764 -0.000000 0.000000 1.000000 255 0 0 255
0.799121 0.461373 0.237764 -0.425049 -0.425049 0.799166 255 0 0 255
0.461373 0.799121 0.237764 -0.425049 -0.425049 0.799166 255 0 0 255
0.398873 0.690868 0.146946 -0.425049 -0.425049 0.799166 255 0 0 255
0.690868 0.398873 0.146946 -0.425049 -0.425049 0.799166 255 0 0 255
0.690868 0.398873 0.146946 -0.674660 -0.674660 0.299447 255 0 0 255
0.398873 0.690868 0.146946 -0.674660 -0.674660 0.299447 255 0 0 255
0.375000 0.649519 0.000000 -0.674660 -0.674660 0.299447 255 0 0 255
0.649519 0.375000 0.000000 -0.674660 -0.674660 0.299447 255 0 0 255
0.649519 0.375000 0.000000 -0.674660 -0.674660 -0.299447 255 0 0 255
0.375000 0.649519 0.000000 -0.674660 -0.674660 -0.299447 255 0 0 255
0.398873 0.690868 -0.146946 -0.674660 -0.674660 -0.299447 255 0 0 255
0.690868 0.398873 -0.146946 -0.674660 -0.674660 -0.299447 255 0 0 255
0.690868 0.398873 -0.146946 -0.425049 -0.425049 -0.799166 255 0 0 255
0.398873 0.690868 -0.146946 -0.425049 -0.425049 -0.799166 255 0 0 255
0.461373 0.799121 -0.237764 -0.425049 -0.425049 -0.799166 255 0 0 255
0.799121 0.461373 -0.237764 -0.425049 -0.425049 -0.799166 255 0 0 255
0.461373 0.799121 -0.237764 0.000000 -0.000000 -1.000000 255 0 0 255
0.538627 0.932930 -0.237764 0.000000 -0.000000 -1.000000 255 0 0 255
0.932930 0.538627 -0.237764 0.425049 0.425049 -0.799166 255 0 0 255
0.538627 0.932930 -0.237764 0.425049 0.425049 -0.799166 255 0 0 255
0.601127 1.041183 -0.146946 0.425049 0.425049 -0.799166 255 0 0 255
1.041183 0.601127 -0.146946 0.425049 0.425049 -0.799166 255 0 0 255
1.041183 0.601127 -0.146946 0.674660 0.674660 -0.299447 255 0 0 255
0.601127 1.041183 -0.146946 0.674660 0.674660 -0.299447 255 0 0 255
0.625000 1.082532 0.000000 0.674660 0.674660 -0.299447 255 0 0 255
1.082532 0.625000 0.000000 0.674660 0.674660 -0.299447 255 0 0 255
0.625000 1.082532 0.000000 0.246943 0.921602 0.299447 255 0 0 255
0.000000 1.250000 0.000000 0.246943 0.921602 0.299447 255 0 0 255
0.000000 1.202254 0.146946 0.246943 0.921602 0.299447 255 0 0 255
0.601127 1.041183 0.146946 0.246943 0.921602 0.299447 255 0 0 255
0.601127 1.041183 0.146946 0.155579 0.580628 0.799166 255 0 0 255
0.000000 1.202254 0.146946 0.155579 0.580628 0.799166 255 0 0 255
0.000000 1.077254 0.237764 0.155579 0.580628 0.799166 255 0 0 255
0.538627 0.932930 0.237764 0.155579 0.580628 0.799166 255 0 0 255
0.000000 1.077254 0.237764 -0.000000 0.000000 1.000000 255 0 0 255
0.000000 0.922746 0.237764 -0.000000 0.000000 1.000000 255 0 0 255
0.461373 0.799121 0.237764 -0.155579 -0.580628 0.799166 255 0 0 255
0.000000 0.922746 0.237764 -0.155579 -0.580628 0.799166 255 0 0 255
0.000000 0.797746 0.146946 -0.155579 -0.580628 0.799166 255 0 0 255
0.398873 0.690868 0.146946 -0.155579 -0.580628 0.799166 255 0 0 255
0.398873 0.690868 0.146946 -0.246943 -0.921602 0.299447 255 0 0 255
0.000000 0.797746 0.146946 -0.246943 -0.921602 0.299447 255 0 0 255
0.000000 0.750000 0.000000 -0.246943 -0.921602 0.299447 255 0 0 255
0.375000 0.649519 0.000000 -0.246943 -0.921602 0.299447 255 0 0 255
0.375000 0.649519 0.000000 -0.246943 -0.921602 -0.299447 255 0 0 255
0.000000 0.750000 0.000000 -0.246943 -0.921602 -0.299447 255 0 0 255
0.000000 0.797746 -0.146946 -0.246943 -0.921602 -0.299447 255 0 0 255
0.398873 0.690868 -0.146946 -0.246943 -0.921602 -0.299447 255 0 0 255
0.398873 0.690868 -0.146946 -0.155579 -0.580628 -0.799166 255 0 0 255
0.000000 0.797746 -0.146946 -0.155579 -0.580628 -0.799166 255 0 0 255
0.000000 0.922746 -0.237764 -0.155579 -0.580628 -0.799166 255 0 0 255
0.461373 0.799121 -0.237764 -0.155579 -0.580628 -0.799166 255 0 0 255
0.000000 0.922746 -0.237764 0.000000 -0.000000 -1.000000 255 0 0 255
0.000000 1.077254 -0.237764 0.000000 -0.000000 -1.000000 255 0 0 255
0.538627 0.932930 -0.237764 0.155579 0.580628 -0.799166 255 0 0 255
0.000000 1.077254 -0.237764 0.155579 0.580628 -0.799166 255 0 0 255
0.000000 1.202254 -0.146946 0.155579 0.580628 -0.799166 255 0 0 255
0.601127 1.041183 -0.146946 0.155579 0.580628 -0.799166 255 0 0 255
0.601127 1.041183 -0.146946 0.246943 0.921602 -0.299446 255 0 0 255
0.000000 1.202254 -0.146946 0.246943 0.921602 -0.299446 255 0 0 255
0.000000 1.250000 0.000000 0.246943 0.921602 -0.299446 255 0 0 255
0.601127 1.041183 -0.146946 0.246943 0.921602 -0.299447 255 0 0 255
0.000000 1.250000 0.000000 0.246943 0.921602 -0.299447 255 0 0 255
0.625000 1.082532 0.000000 0.246943 0.921602 -0.299447 255 0 0 255
0.000000 1.250000 0.000000 -0.246942 0.921602 0.299447 255 0 0 255
-0.625000 1.082532 0.000000 -0.246942 0.921602 0.299447 255 0 0 255
-0.601127 1.041183 0.146946 -0.246942 0.921602 0.299447 255 0 0 255
0.000000 1.250000 0.000000 -0.246943 0.921603 0.299446 255 0 0 255
-0.601127 1.041183 0.146946 -0.246943 0.921603 0.299446 255 0 0 255
0.000000 1.202254 0.146946 -0.246943 0.921603 0.299446 255 0 0 255
0.000000 1.202254 0.146946 -0.155579 0.580628 0.799166 255 0 0 255
-0.601127 1.041183 0.146946 -0.155579 0.580628 0.799166 255 0 0 255
-0.538627 0.932930 0.237764 -0.155579 0.580628 0.799166 255 0 0 255
0.000000 1.077254 0.237764 -0.155579 0.580628 0.799166 255 0 0 255
-0.538627 0.932930 0.237764 0.000000 -0.000000 1.000000 255 0 0 255
-0.461373 0.799121 0.237764 0.000000 -0.000000 1.000000 255 0 0 255
0.000000 0.922746 0.237764 0.155579 -0.580628 0.799166 255 0 0 255
-0.461373 0.799121 0.237764 0.155579 -0.580628 0.799166 255 0 0 255
-0.398873 0.690868 0.146946 0.155579 -0.580628 0.799166 255 0 0 255
0.000000 0.797746 0.146946 0.155579 -0.580628 0.799166 255 0 0 255
0.000000 0.797746 0.146946 0.246942 -0.921602 0.299447 255 0 0 255
-0.398873 0.690868 0.146946 0.246942 -0.921602 0.299447 255 0 0 255
-0.375000 0.649519 0.000000 0.246942 -0.921602 0.299447 255 0 0 255
0.000000 0.750000 0.000000 0.246942 -0.921602 0.299447 255 0 0 255
0.000000 0.750000 0.000000 0.246942 -0.921602 -0.299447 255 0 0 255
-0.375000 0.649519 0.000000 0.246942 -0.921602 -0.299447 255 0 0 255
-0.398873 0.690868 -0.146946 0.246942 -0.921602 -0.299447 255 0 0 255
0.000000 0.797746 -0.146946 0.246942 -0.921602 -0.299447 255 0 0 255
0.000000 0.797746 -0.146946 0.155579 -0.580628 -0.799166 255 0 0 255
-0.398873 0.690868 -0.146946 0.155579 -0.580628 -0.799166 255 0 0 255
-0.461373 0.799121 -0.237764 0.155579 -0.580628 -0.799166 255 0 0 255
0.000000 0.922746 -0.237764 0.155579 -0.580628 -0.799166 255 0 0 255
-0.461373 0.799121 -0.237764 0.000000 0.000000 -1.000000 255 0 0 255
-0.538627 0.932930 -0.237764 0.000000 0.000000 -1.000000 255 0 0 255
0.000000 1.077254 -0.237764 -0.155579 0.580628 -0.799166 255 0 0 255
-0.538627 0.932930 -0.237764 -0.155579 0.580628 -0.799166 255 0 0 255
-0.601127 1.041183 -0.146946 -0.155579 0.580628 -0.799166 255 0 0 255
0.000000 1.202254 -0.146946 -0.155579 0.580628 -0.799166 255 0 0 255
0.000000 1.202254 -0.146946 -0.246942 0.921602 -0.299447 255 0 0 255
-0.601127 1.041183 -0.146946 -0.246942 0.921602 -0.299447 255 0 0 255
-0.625000 1.082532 0.000000 -0.246942 0.921602 -0.299447 255 0 0 255
0.000000 1.202254 -0.146946 -0.246942 0.921603 -0.299447 255 0 0 255
-0.625000 1.082532 0.000000 -0.246942 0.921603 -0.299447 255 0 0 255
0.000000 1.250000 0.000000 -0.246942 0.921603 -0.299447 255 0 0 255
-0.625000 1.082532 0.000000 -0.674660 0.674660 0.299446 255 0 0 255
-1.082532 0.625000 0.000000 -0.674660 0.674660 0.299446 255 0 0 255
-1.041183 0.601127 0.146946 -0.674660 0.674660 0.299446 255 0 0 255
-0.625000 1.082532 0.000000 -0.674660 0.674660 0.299447 255 0 0 255
-1.041183 0.601127 0.146946 -0.674660 0.674660 0.299447 255 0 0 255
-0.601127 1.041183 0.146946 -0.674660 0.674660 0.299447 255 0 0 255
-0.601127 1.041183 0.146946 -0.425049 0.425049 0.799166 255 0 0 255
-1.041183 0.601127 0.146946 -0.425049 0.425049 0.799166 255 0 0 255
-0.932929 0.538627 0.237764 -0.425049 0.425049 0.799166 255 0 0 255
-0.538627 0.932930 0.237764 -0.425049 0.425049 0.799166 255 0 0 255
-0.932929 0.538627 0.237764 0.000000 -0.000000 1.000000 255 0 0 255
-0.799121 0.461373 0.237764 0.000000 -0.000000 1.000000 255 0 0 255
-0.461373 0.799121 0.237764 0.425049 -0.425049 0.799166 255 0 0 255
-0.799121 0.461373 0.237764 0.425049 -0.425049 0.799166 255 0 0 255
-0.690868 0.398873 0.146946 0.425049 -0.425049 0.799166 255 0 0 255
-0.398873 0.690868 0.146946 0.425049 -0.425049 0.799166 255 0 0 255
-0.398873 0.690868 0.146946 0.674660 -0.674660 0.299447 255 0 0 255
-0.690868 0.398873 0.146946 0.674660 -0.674660 0.299447 255 0 0 255
-0.649519 0.375000 0.000000 0.674660 -0.674660 0.299447 255 0 0 255
-0.375000 0.649519 0.000000 0.674660 -0.674660 0.299447 255 0 0 255
-0.375000 0.649519 0.000000 0.674660 -0.674660 -0.299447 255 0 0 255
-0.649519 0.375000 0.000000 0.674660 -0.674660 -0.299447 255 0 0 255
-0.690868 0.398873 -0.146946 0.674660 -0.674660 -0.299447 255 0 0 255
-0.398873 0.690868 -0.146946 0.674660 -0.674660 -0.299447 255 0 0 255
-0.398873 0.690868 -0.146946 0.425049 -0.425049 -0.799166 255 0 0 255
-0.690868 0.398873 -0.146946 0.425049 -0.425049 -0.799166 255 0 0 255
-0.799121 0.461373 -0.237764 0.425049 -0.425049 -0.799166 255 0 0 255
-0.461373 0.799121 -0.237764 0.425049 -0.425049 -0.799166 255 0 0 255
-0.799121 0.461373 -0.237764 0.000000 0.000000 -1.000000 255 0 0 255
-0.932929 0.538627 -0.237764 0.000000 0.000000 -1.000000 255 0 0 255
-0.538627 0.932930 -0.237764 -0.425049 0.425049 -0.799166 255 0 0 255
-0.932929 0.538627 -0.237764 -0.425049 0.425049 -0.799166 255 0 0 255
-1.041183 0.601127 -0.146946 -0.425049 0.425049 -0.799166 255 0 0 255
-0.601127 1.041183 -0.146946 -0.425049 0.425049 -0.799166 255 0 0 255
-0.601127 1.041183 -0.146946 -0.674660 0.674660 -0.299446 255 0 0 255
-1.041183 0.601127 -0.146946 -0.674660 0.674660 -0.299446 255 0 0 255
-1.082532 0.625000 0.000000 -0.674660 0.674660 -0.299446 255 0 0 255
-0.601127 1.041183 -0.146946 -0.674660 0.674660 -0.299447 255 0 0 255
-1.082532 0.625000 0.000000 -0.674660 0.674660 -0.299447 255 0 0 255
-0.625000 1.082532 0.000000 -0.674660 0.674660 -0.299447 255 0 0 255
-1.082532 0.625000 0.000000 -0.921602 0.246943 0.299446 255 0 0 255
-1.250000 0.000000 0.000000 -0.921602 0.246943 0.299446 255 0 0 255
-1.202254 0.000000 0.146946 -0.921602 0.246943 0.299446 255 0 0 255
-1.082532 0.625000 0.000000 -0.921603 0.246943 0.299446 255 0 0 255
-1.202254 0.000000 0.146946 -0.921603 0.246943 0.299446 255 0 0 255
-1.041183 0.601127 0.146946 -0.921603 0.246943 0.299446 255 0 0 255
-1.041183 0.601127 0.146946 -0.580628 0.155579 0.799166 255 0 0 255
-1.202254 0.000000 0.146946 -0.580628 0.155579 0.799166 255 0 0 255
-1.077254 0.000000 0.237764 -0.580628 0.155579 0.799166 255 0 0 255
-0.932929 0.538627 0.237764 -0.580628 0.155579 0.799166 255 0 0 255
-1.077254 0.000000 0.237764 0.000000 -0.000000 1.000000 255 0 0 255
-0.922746 0.000000 0.237764 0.000000 -0.000000 1.000000 255 0 0 255
-0.799121 0.461373 0.237764 0.580628 -0.155579 0.799166 255 0 0 255
-0.922746 0.000000 0.237764 0.580628 -0.155579 0.799166 255 0 0 255
-0.797746 0.000000 0.146946 0.580628 -0.155579 0.799166 255 0 0 255
-0.690868 0.398873 0.146946 0.580628 -0.155579 0.799166 255 0 0 255
-0.690868 0.398873 0.146946 0.921602 -0.246943 0.299447 255 0 0 255
-0.797746 0.000000 0.146946 0.921602 -0.246943 0.299447 255 0 0 255
-0.750000 0.000000 0.000000 0.921602 -0.246943 0.299447 255 0 0 255
-0.649519 0.375000 0.000000 0.921602 -0.246943 0.299447 255 0 0 255
-0.649519 0.375000 0.000000 0.921602 -0.246943 -0.299447 255 0 0 255
-0.750000 0.000000 0.000000 0.921602 -0.246943 -0.299447 255 0 0 255
-0.797746 0.000000 -0.146946 0.921602 -0.246943 -0.299447 255 0 0 255
-0.690868 0.398873 -0.146946 0.921602 -0.246943 -0.299447 255 0 0 255
-0.690868 0.398873 -0.146946 0.580628 -0.155579 -0.799166 255 0 0 255
-0.797746 0.000000 -0.146946 0.580628 -0.155579 -0.799166 255 0 0 255
-0.922746 0.000000 -0.237764 0.580628 -0.155579 -0.799166 255 0 0 255
-0.799121 0.461373 -0.237764 0.580628 -0.155579 -0.799166 255 0 0 255
-0.922746 0.000000 -0.237764 0.000000 0.000000 -1.000000 255 0 0 255
-1.077254 0.000000 -0.237764 0.000000 0.000000 -1.000000 255 0 0 255
-0.932929 0.538627 -0.237764 -0.580628 0.155579 -0.799166 255 0 0 255
-1.077254 0.000000 -0.237764 -0.580628 0.155579 -0.799166 255 0 0 255
-1.202254 0.000000 -0.146946 -0.580628 0.155579 -0.799166 255 0 0 255
-1.041183 0.601127 -0.146946 -0.580628 0.155579 -0.799166 255 0 0 255
-1.041183 0.601127 -0.146946 -0.921602 0.246943 -0.299446 255 0 0 255
-1.202254 0.000000 -0.146946 -0.921602 0.246943 -0.299446 255 0 0 255
-1.250000 0.000000 0.000000 -0.921602 0.246943 -0.299446 255 0 0 255
-1.041183 0.601127 -0.146946 -0.921603 0.246943 -0.299446 255 0 0 255
-1.250000 0.000000 0.000000 -0.921603 0.246943 -0.299446 255 0 0 255
-1.082532 0.625000 0.000000 -0.921603 0.246943 -0.299446 255 0 0 255
-1.250000 0.000000 0.000000 -0.921602 -0.246942 0.299447 255 0 0 255
-1.082532 -0.625000 0.000000 -0.921602 -0.246942 0.299447 255 0 0 255
-1.041183 -0.601127 0.146946 -0.921602 -0.246942 0.299447 255 0 0 255
-1.250000 0.000000 0.000000 -0.921602 -0.246943 0.299447 255 0 0 255
-1.041183 -0.601127 0.146946 -0.921602 -0.246943 0.299447 255 0 0 255
-1.202254 0.000000 0.146946 -0.921602 -0.246943 0.299447 255 0 0 255
-1.202254 0.000000 0.146946 -0.580628 -0.155579 0.799166 255 0 0 255
-1.041183 -0.601127 0.146946 -0.580628 -0.155579 0.799166 255 0 0 255
-0.932930 -0.538627 0.237764 -0.580628 -0.155579 0.799166 255 0 0 255
-1.077254 0.000000 0.237764 -0.580628 -0.155579 0.799166 255 0 0 255
-0.932930 -0.538627 0.237764 0.000000 0.000000 1.000000 255 0 0 255
-0.799121 -0.461373 0.237764 0.000000 0.000000 1.000000 255 0 0 255
-0.922746 0.000000 0.237764 0.580628 0.155579 0.799166 255 0 0 255
-0.799121 -0.461373 0.237764 0.580628 0.155579 0.799166 255 0 0 255
-0.690868 -0.398873 0.146946 0.580628 0.155579 0.799166 255 0 0 255
-0.797746 0.000000 0.146946 0.580628 0.155579 0.799166 255 0 0 255
-0.797746 0.000000 0.146946 0.921603 0.246942 0.299447 255 0 0 255
-0.690868 -0.398873 0.146946 0.921603 0.246942 0.299447 255 0 0 255
-0.649519 -0.375000 0.000000 0.921603 0.246942 0.299447 255 0 0 255
-0.797746 0.000000 0.146946 0.921602 0.246942 0.299447 255 0 0 255
-0.649519 -0.375000 0.000000 0.921602 0.246942 0.299447 255 0 0 255
-0.750000 0.000000 0.000000 0.921602 0.246942 0.299447 255 0 0 255
-0.750000 0.000000 0.000000 0.921602 0.246942 -0.299447 255 0 0 255
-0.649519 -0.375000 0.000000 0.921602 0.246942 -0.299447 255 0 0 255
-0.690868 -0.398873 -0.146946 0.921602 0.246942 -0.299447 255 0 0 255
-0.797746 0.000000 -0.146946 0.921602 0.246942 -0.299447 255 0 0 255
-0.797746 0.000000 -0.146946 0.580628 0.155579 -0.799166 255 0 0 255
-0.690868 -0.398873 -0.146946 0.580628 0.155579 -0.799166 255 0 0 255
-0.799121 -0.461373 -0.237764 0.580628 0.155579 -0.799166 255 0 0 255
-0.922746 0.000000 -0.237764 0.580628 0.155579 -0.799166 255 0 0 255
-0.799121 -0.461373 -0.237764 0.000000 0.000000 -1.000000 255 0 0 255
-0.932930 -0.538627 -0.237764 0.000000 0.000000 -1.000000 255 0 0 255
-1.077254 0.000000 -0.237764 -0.580628 -0.155579 -0.799166 255 0 0 255
-0.932930 -0.538627 -0.237764 -0.580628 -0.155579 -0.799166 255 0 0 255
-1.041183 -0.601127 -0.146946 -0.580628 -0.155579 -0.799166 255 0 0 255
-1.202254 0.000000 -0.146946 -0.580628 -0.155579 -0.799166 255 0 0 255
-1.202254 0.000000 -0.146946 -0.921602 -0.246943 -0.299447 255 0 0 255
-1.041183 -0.601127 -0.146946 -0.921602 -0.246943 -0.299447 255 0 0 255
-1.082532 -0.625000 0.000000 -0.921602 -0.246943 -0.299447 255 0 0 255
-1.202254 0.000000 -0.146946 -0.921603 -0.246942 -0.299447 255 0 0 255
-1.082532 -0.625000 0.000000 -0.921603 -0.246942 -0.299447 255 0 0 255
-1.250000 0.000000 0.000000 -0.921603 -0.246942 -0.299447 255 0 0 255
-1.082532 -0.625000 0.000000 -0.674660 -0.674660 0.299447 255 0 0 255
-0.625000 -1.082532 0.000000 -0.674660 -0.674660 0.299447 255 0 0 255
-0.601127 -1.041183 0.146946 -0.674660 -0.674660 0.299447 255 0 0 255
-1.041183 -0.601127 0.146946 -0.674660 -0.674660 0.299447 255 0 0 255
-1.041183 -0.601127 0.146946 -0.425049 -0.425049 0.799166 255 0 0 255
-0.601127 -1.041183 0.146946 -0.425049 -0.425049 0.799166 255 0 0 255
-0.538627 -0.932930 0.237764 -0.425049 -0.425049 0.799166 255 0 0 255
-0.932930 -0.538627 0.237764 -0.425049 -0.425049 0.799166 255 0 0 255
-0.538627 -0.932930 0.237764 0.000000 0.000000 1.000000 255 0 0 255
-0.461373 -0.799121 0.237764 0.000000 0.000000 1.000000 255 0 0 255
-0.799121 -0.461373 0.237764 0.425049 0.425049 0.799166 255 0 0 255
-0.461373 -0.799121 0.237764 0.425049 0.425049 0.799166 255 0 0 255
-0.398873 -0.690868 0.146946 0.425049 0.425049 0.799166 255 0 0 255
-0.690868 -0.398873 0.146946 0.425049 0.425049 0.799166 255 0 0 255
-0.690868 -0.398873 0.146946 0.674660 0.674660 0.299447 255 0 0 255
-0.398873 -0.690868 0.146946 0.674660 0.674660 0.299447 255 0 0 255
-0.375000 -0.649519 0.000000 0.674660 0.674660 0.299447 255 0 0 255
-0.649519 -0.375000 0.000000 0.674660 0.674660 0.299447 255 0 0 255
-0.649519 -0.375000 0.000000 0.674660 0.674660 -0.299447 255 0 0 255
-0.375000 -0.649519 0.000000 0.674660 0.674660 -0.299447 255 0 0 255
-0.398873 -0.690868 -0.146946 0.674660 0.674660 -0.299447 255 0 0 255
-0.690868 -0.398873 -0.146946 0.674660 0.674660 -0.299447 255 0 0 255
-0.690868 -0.398873 -0.146946 0.425049 0.425049 -0.799166 255 0 0 255
-0.398873 -0.690868 -0.146946 0.425049 0.425049 -0.799166 255 0 0 255
-0.461373 -0.799121 -0.237764 0.425049 0.425049 -0.799166 255 0 0 255
-0.799121 -0.461373 -0.237764 0.425049 0.425049 -0.799166 255 0 0 255
-0.461373 -0.799121 -0.237764 0.000000 0.000000 -1.000000 255 0 0 255
-0.538627 -0.932930 -0.237764 0.000000 0.000000 -1.000000 255 0 0 255
-0.932930 -0.538627 -0.237764 -0.425049 -0.425049 -0.799166 255 0 0 255
-0.538627 -0.932930 -0.237764 -0.425049 -0.425049 -0.799166 255 0 0 255
-0.601127 -1.041183 -0.146946 -0.425049 -0.425049 -0.799166 255 0 0 255
-1.041183 -0.601127 -0.146946 -0.425049 -0.425049 -0.799166 255 0 0 255
-1.041183 -0.601127 -0.146946 -0.674660 -0.674660 -0.299447 255 0 0 255
-0.601127 -1.041183 -0.146946 -0.674660 -0.674660 -0.299447 255 0 0 255
-0.625000 -1.082532 0.000000 -0.674660 -0.674660 -0.299447 255 0 0 255
-1.082532 -0.625000 0.000000 -0.674660 -0.674660 -0.299447 255 0 0 255
-0.625000 -1.082532 0.000000 -0.246942 -0.921603 0.299447 255 0 0 255
0.000000 -1.250000 0.000000 -0.246942 -0.921603 0.299447 255 0 0 255
0.000000 -1.202254 0.146946 -0.246942 -0.921603 0.299447 255 0 0 255
-0.625000 -1.082532 0.000000 -0.246942 -0.921602 0.299447 255 0 0 255
0.000000 -1.202254 0.146946 -0.246942 -0.921602 0.299447 255 0 0 255
-0.601127 -1.041183 0.146946 -0.246942 -0.921602 0.299447 255 0 0 255
-0.601127 -1.041183 0.146946 -0.155579 -0.580628 0.799166 255 0 0 255
0.000000 -1.202254 0.146946 -0.155579 -0.580628 0.799166 255 0 0 255
0.000000 -1.077254 0.237764 -0.155579 -0.580628 0.799166 255 0 0 255
-0.538627 -0.932930 0.237764 -0.155579 -0.580628 0.799166 255 0 0 255
0.000000 -1.077254 0.237764 0.000000 0.000000 1.000000 255 0 0 255
0.000000 -0.922746 0.237764 0.000000 0.000000 1.000000 255 0 0 255
-0.461373 -0.799121 0.237764 0.155579 0.580628 0.799166 255 0 0 255
0.000000 -0.922746 0.237764 0.155579 0.580628 0.799166 255 0 0 255
0.000000 -0.797746 0.146946 0.155579 0.580628 0.799166 255 0 0 255
-0.398873 -0.690868 0.146946 0.155579 0.580628 0.799166 255 0 0 255
-0.398873 -0.690868 0.146946 0.246942 0.921602 0.299447 255 0 0 255
0.000000 -0.797746 0.146946 0.246942 0.921602 0.299447 255 0 0 255
0.000000 -0.750000 0.000000 0.246942 0.921602 0.299447 255 0 0 255
-0.375000 -0.649519 0.000000 0.246942 0.921602 0.299447 255 0 0 255
-0.375000 -0.649519 0.000000 0.246942 0.921602 -0.299447 255 0 0 255
0.000000 -0.750000 0.000000 0.246942 0.921602 -0.299447 255 0 0 255
0.000000 -0.797746 -0.146946 0.246942 0.921602 -0.299447 255 0 0 255
-0.398873 -0.690868 -0.146946 0.246942 0.921602 -0.299447 255 0 0 255
-0.398873 -0.690868 -0.146946 0.155579 0.580628 -0.799166 255 0 0 255
0.000000 -0.797746 -0.146946 0.155579 0.580628 -0.799166 255 0 0 255
0.000000 -0.922746 -0.237764 0.155579 0.580628 -0.799166 255 0 0 255
-0.461373 -0.799121 -0.237764 0.155579 0.580628 -0.799166 255 0 0 255
0.000000 -0.922746 -0.237764 0.000000 0.000000 -1.000000 255 0 0 255
0.000000 -1.077254 -0.237764 0.000000 0.000000 -1.000000 255 0 0 255
-0.538627 -0.932930 -0.237764 -0.155579 -0.580628 -0.799166 255 0 0 255
0.000000 -1.077254 -0.237764 -0.155579 -0.580628 -0.799166 255 0 0 255
0.000000 -1.202254 -0.146946 -0.155579 -0.580628 -0.799166 255 0 0 255
-0.601127 -1.041183 -0.146946 -0.155579 -0.580628 -0.799166 255 0 0 255
-0.601127 -1.041183 -0.146946 -0.246943 -0.921603 -0.299447 255 0 0 255
0.000000 -1.202254 -0.146946 -0.246943 -0.921603 -0.299447 255 0 0 255
0.000000 -1.250000 0.000000 -0.246943 -0.921603 -0.299447 255 0 0 255
-0.601127 -1.041183 -0.146946 -0.246942 -0.921602 -0.299447 255 0 0 255
0.000000 -1.250000 0.000000 -0.246942 -0.921602 -0.299447 255 0 0 255
-0.625000 -1.082532 0.000000 -0.246942 -0.921602 -0.299447 255 0 0 255
0.000000 -1.250000 0.000000 0.246943 -0.921602 0.299447 255 0 0 255
0.625000 -1.082532 0.000000 0.246943 -0.921602 0.299447 255 0 0 255
0.601127 -1.041183 0.146946 0.246943 -0.921602 0.299447 255 0 0 255
0.000000 -1.202254 0.146946 0.246943 -0.921602 0.299447 255 0 0 255
0.000000 -1.202254 0.146946 0.155579 -0.580628 0.799166 255 0 0 255
0.601127 -1.041183 0.146946 0.155579 -0.580628 0.799166 255 0 0 255
0.538627 -0.932930 0.237764 0.155579 -0.580628 0.799166 255 0 0 255
0.000000 -1.077254 0.237764 0.155579 -0.580628 0.799166 255 0 0 255
0.538627 -0.932930 0.237764 0.000000 0.000000 1.000000 255 0 0 255
0.461373 -0.799121 0.237764 0.000000 0.000000 1.000000 255 0 0 255
0.000000 -0.922746 0.237764 -0.155579 0.580628 0.799166 255 0 0 255
0.461373 -0.799121 0.237764 -0.155579 0.580628 0.799166 255 0 0 255
0.398873 -0.690868 0.146946 -0.155579 0.580628 0.799166 255 0 0 255
0.000000 -0.797746 0.146946 -0.155579 0.580628 0.799166 255 0 0 255
0.000000 -0.797746 0.146946 -0.246943 0.921602 0.299447 255 0 0 255
0.398873 -0.690868 0.146946 -0.246943 0.921602 0.299447 255 0 0 255
0.375000 -0.649519 0.000000 -0.246943 0.921602 0.299447 255 0 0 255
0.000000 -0.750000 0.000000 -0.246943 0.921602 0.299447 255 0 0 255
0.000000 -0.750000 0.000000 -0.246943 0.921602 -0.299447 255 0 0 255
0.375000 -0.649519 0.000000 -0.246943 0.921602 -0.299447 255 0 0 255
0.398873 -0.690868 -0.146946 -0.246943 0.921602 -0.299447 255 0 0 255
0.000000 -0.797746 -0.146946 -0.246943 0.921602 -0.299447 255 0 0 255
0.000000 -0.797746 -0.146946 -0.155579 0.580628 -0.799166 255 0 0 255
0.398873 -0.690868 -0.146946 -0.155579 0.580628 -0.799166 255 0 0 255
0.461373 -0.799121 -0.237764 -0.155579 0.580628 -0.799166 255 0 0 255
0.000000 -0.922746 -0.237764 -0.155579 0.580628 -0.799166 255 0 0 255
0.461373 -0.799121 -0.237764 -0.000000 0.000000 -1.000000 255 0 0 255
0.538627 -0.932930 -0.237764 -0.000000 0.000000 -1.000000 255 0 0 255
0.000000 -1.077254 -0.237764 0.155579 -0.580628 -0.799166 255 0 0 255
0.538627 -0.932930 -0.237764 0.155579 -0.580628 -0.799166 255 0 0 255
0.601127 -1.041183 -0.146946 0.155579 -0.580628 -0.799166 255 0 0 255
0.000000 -1.202254 -0.146946 0.155579 -0.580628 -0.799166 255 0 0 255
0.000000 -1.202254 -0.146946 0.246943 -0.921602 -0.299447 255 0 0 255
0.601127 -1.041183 -0.146946 0.246943 -0.921602 -0.299447 255 0 0 255
0.625000 -1.082532 0.000000 0.246943 -0.921602 -0.299447 255 0 0 255
0.000000 -1.250000 0.000000 0.246943 -0.921602 -0.299447 255 0 0 255
0.625000 -1.082532 0.000000 0.674660 -0.674660 0.299447 255 0 0 255
1.082532 -0.625000 0.000000 0.674660 -0.674660 0.299447 255 0 0 255
1.041183 -0.601127 0.146946 0.674660 -0.674660 0.299447 255 0 0 255
0.601127 -1.041183 0.146946 0.674660 -0.674660 0.299447 255 0 0 255
0.601127 -1.041183 0.146946 0.425049 -0.425049 0.799166 255 0 0 255
1.041183 -0.601127 0.146946 0.425049 -0.425049 0.799166 255 0 0 255
0.932930 -0.538627 0.237764 0.425049 -0.425049 0.799166 255 0 0 255
0.538627 -0.932930 0.237764 0.425049 -0.425049 0.799166 255 0 0 255
0.932930 -0.538627 0.237764 0.000000 0.000000 1.000000 255 0 0 255
0.799121 -0.461373 0.237764 0.000000 0.000000 1.000000 255 0 0 255
0.461373 -0.799121 0.237764 -0.425049 0.425049 0.799166 255 0 0 255
0.799121 -0.461373 0.237764 -0.425049 0.425049 0.799166 255 0 0 255
0.690868 -0.398873 0.146946 -0.425049 0.425049 0.799166 255 0 0 255
0.398873 -0.690868 0.146946 -0.425049 0.425049 0.799166 255 0 0 255
0.398873 -0.690868 0.146946 -0.674660 0.674660 0.299447 255 0 0 255
0.690868 -0.398873 0.146946 -0.674660 0.674660 0.299447 255 0 0 255
0.649519 -0.375000 0.000000 -0.674660 0.674660 0.299447 255 0 0 255
0.375000 -0.649519 0.000000 -0.674660 0.674660 0.299447 255 0 0 255
0.375000 -0.649519 0.000000 -0.674660 0.674660 -0.299447 255 0 0 255
0.649519 -0.375000 0.000000 -0.674660 0.674660 -0.299447 255 0 0 255
0.690868 -0.398873 -0.146946 -0.674660 0.674660 -0.299447 255 0 0 255
0.398873 -0.690868 -0.146946 -0.674660 0.674660 -0.299447 255 0 0 255
0.398873 -0.690868 -0.146946 -0.425049 0.425049 -0.799166 255 0 0 255
0.690868 -0.398873 -0.146946 -0.425049 0.425049 -0.799166 255 0 0 255
0.799121 -0.461373 -0.237764 -0.425049 0.425049 -0.799166 255 0 0 255
0.461373 -0.799121 -0.237764 -0.425049 0.425049 -0.799166 255 0 0 255
0.799121 -0.461373 -0.237764 -0.000000 0.000000 -1.000000 255 0 0 255
0.932930 -0.538627 -0.237764 -0.000000 0.000000 -1.000000 255 0 0 255
0.538627 -0.932930 -0.237764 0.425049 -0.425049 -0.799166 255 0 0 255
0.932930 -0.538627 -0.237764 0.425049 -0.425049 -0.799166 255 0 0 255
1.041183 -0.601127 -0.146946 0.425049 -0.425049 -0.799166 255 0 0 255
0.601127 -1.041183 -0.146946 0.425049 -0.425049 -0.799166 255 0 0 255
0.601127 -1.041183 -0.146946 0.674660 -0.674660 -0.299447 255 0 0 255
1.041183 -0.601127 -0.146946 0.674660 -0.674660 -0.299447 255 0 0 255
1.082532 -0.625000 0.000000 0.674660 -0.674660 -0.299447 255 0 0 255
0.625000 -1.082532 0.000000 0.674660 -0.674660 -0.299447 255 0 0 255
1.082532 -0.625000 0.000000 0.921602 -0.246943 0.299447 255 0 0 255
1.250000 0.000000 0.000000 0.921602 -0.246943 0.299447 255 0 0 255
1.202254 0.000000 0.146946 0.921602 -0.246943 0.299447 255 0 0 255
1.041183 -0.601127 0.146946 0.921602 -0.246943 0.299447 255 0 0 255
1.041183 -0.601127 0.146946 0.580628 -0.155579 0.799166 255 0 0 255
1.202254 0.000000 0.146946 0.580628 -0.155579 0.799166 255 0 0 255
1.077254 0.000000 0.237764 0.580628 -0.155579 0.799166 255 0 0 255
0.932930 -0.538627 0.237764 0.580628 -0.155579 0.799166 255 0 0 255
0.799121 -0.461373 0.237764 -0.580628 0.155579 0.799166 255 0 0 255
0.922746 0.000000 0.237764 -0.580628 0.155579 0.799166 255 0 0 255
0.797746 0.000000 0.146946 -0.580628 0.155579 0.799166 255 0 0 255
0.690868 -0.398873 0.146946 -0.580628 0.155579 0.799166 255 0 0 255
0.690868 -0.398873 0.146946 -0.921602 0.246943 0.299447 255 0 0 255
0.797746 0.000000 0.146946 -0.921602 0.246943 0.299447 255 0 0 255
0.750000 0.000000 0.000000 -0.921602 0.246943 0.299447 255 0 0 255
0.649519 -0.375000 0.000000 -0.921602 0.246943 0.299447 255 0 0 255
0.649519 -0.375000 0.000000 -0.921602 0.246943 -0.299447 255 0 0 255
0.750000 0.000000 0.000000 -0.921602 0.246943 -0.299447 255 0 0 255
0.797746 0.000000 -0.146946 -0.921602 0.246943 -0.299447 255 0 0 255
0.690868 -0.398873 -0.146946 -0.921602 0.246943 -0.299447 255 0 0 255
0.690868 -0.398873 -0.146946 -0.580628 0.155579 -0.799166 255 0 0 255
0.797746 0.000000 -0.146946 -0.580628 0.155579 -0.799166 255 0 0 255
0.922746 0.000000 -0.237764 -0.580628 0.155579 -0.799166 255 0 0 255
0.799121 -0.461373 -0.237764 -0.580628 0.155579 -0.799166 255 0 0 255
0.932930 -0.538627 -0.237764 0.580628 -0.155579 -0.799166 255 0 0 255
1.077254 0.000000 -0.237764 0.580628 -0.155579 -0.799166 255 0 0 255
1.202254 0.000000 -0.146946 0.580628 -0.155579 -0.799166 255 0 0 255
1.041183 -0.601127 -0.146946 0.580628 -0.155579 -0.799166 255 0 0 255
1.041183 -0.601127 -0.146946 0.921602 -0.246943 -0.299446 255 0 0 255
1.202254 0.000000 -0.146946 0.921602 -0.246943 -0.299446 255 0 0 255
1.250000 0.000000 0.000000 0.921602 -0.246943 -0.299446 255 0 0 255
1.041183 -0.601127 -0.146946 0.921602 -0.246943 -0.299447 255 0 0 255
1.250000 0.000000 0.000000 0.921602 -0.246943 -0.299447 255 0 0 255
1.082532 -0.625000 0.000000 0.921602 -0.246943 -0.299447 255 0 0 255
3 0 1 2
3 0 2 3
3 4 5 6
3 4 6 7
3 8 9 10
3 8 10 11
3 12 13 14
3 12 14 15
3 16 17 18
3 16 18 19
3 20 21 22
3 20 22 23
3 24 25 26
3 24 26 27
3 28 29 30
3 28 30 31
3 32 33 34
3 32 34 35
3 36 37 38
3 36 38 39
3 40 41 42
3 40 42 43
3 44 45 46
3 44 46 47
3 9 48 49
3 9 49 10
3 50 51 52
3 50 52 53
3 54 55 56
3 54 56 57
3 58 59 60
3 58 60 61
3 62 63 64
3 62 64 65
3 29 66 67
3 29 67 30
3 68 69 70
3 68 70 71
3 72 73 74
3 72 74 75
3 76 77 78
3 76 78 79
3 80 81 82
3 80 82 83
3 48 84 85
3 48 85 49
3 86 87 88
3 86 88 89
3 90 91 92
3 90 92 93
3 94 95 96
3 94 96 97
3 98 99 100
3 98 100 101
3 66 102 103
3 66 103 67
3 104 105 106
3 104 106 107
3 108 109 110
3 111 112 113
3 114 115 116
3 117 118 119
3 120 121 122
3 120 122 123
3 84 124 125
3 84 125 85
3 126 127 128
3 126 128 129
3 130 131 132
3 130 132 133
3 134 135 136
3 134 136 137
3 138 139 140
3 138 140 141
3 102 142 143
3 102 143 103
3 144 145 146
3 144 146 147
3 148 149 150
3 151 152 153
3 154 155 156
3 157 158 159
3 160 161 162
3 160 162 163
3 124 164 165
3 124 165 125
3 166 167 168
3 166 168 169
3 170 171 172
3 170 172 173
3 174 175 176
3 174 176 177
3 178 179 180
3 178 180 181
3 142 182 183
3 142 183 143
3 184 185 186
3 184 186 187
3 188 189 190
3 191 192 193
3 194 195 196
3 197 198 199
3 200 201 202
3 200 202 203
3 164 204 205
3 164 205 165
3 206 207 208
3 206 208 209
3 210 211 212
3 210 212 213
3 214 215 216
3 214 216 217
3 218 219 220
3 218 220 221
3 182 222 223
3 182 223 183
3 224 225 226
3 224 226 227
3 228 229 230
3 231 232 233
3 234 235 236
3 237 238 239
3 240 241 242
3 240 242 243
3 204 244 245
3 204 245 205
3 246 247 248
3 246 248 249
3 250 251 252
3 253 254 255
3 256 257 258
3 256 258 259
3 260 261 262
3 260 262 263
3 222 264 265
3 222 265 223
3 266 267 268
3 266 268 269
3 270 271 272
3 273 274 275
3 276 277 278
3 276 278 279
3 280 281 282
3 280 282 283
3 244 284 285
3 244 285 245
3 286 287 288
3 286 288 289
3 290 291 292
3 290 292 293
3 294 295 296
3 294 296 297
3 298 299 300
3 298 300 301
3 264 302 303
3 264 303 265
3 304 305 306
3 304 306 307
3 308 309 310
3 308 310 311
3 312 313 314
3 315 316 317
3 318 319 320
3 318 320 321
3 284 322 323
3 284 323 285
3 324 325 326
3 324 326 327
3 328 329 330
3 328 330 331
3 332 333 334
3 332 334 335
3 336 337 338
3 336 338 339
3 302 340 341
3 302 341 303
3 342 343 344
3 342 344 345
3 346 347 348
3 349 350 351
3 352 353 354
3 352 354 355
3 356 357 358
3 356 358 359
3 322 360 361
3 322 361 323
3 362 363 364
3 362 364 365
3 366 367 368
3 366 368 369
3 370 371 372
3 370 372 373
3 374 375 376
3 374 376 377
3 340 378 379
3 340 379 341
3 380 381 382
3 380 382 383
3 384 385 386
3 384 386 387
3 388 389 390
3 388 390 391
3 392 393 394
3 392 394 395
3 360 396 397
3 360 397 361
3 398 399 400
3 398 400 401
3 402 403 404
3 402 404 405
3 406 407 408
3 406 408 409
3 410 411 412
3 410 412 413
3 378 414 415
3 378 415 379
3 416 417 418
3 416 418 419
3 420 421 422
3 420 422 423
3 424 425 426
3 424 426 427
3 428 429 430
3 428 430 431
3 396 8 11
3 396 11 397
3 432 433 434
3 432 434 435
3 436 437 438
3 436 438 439
3 440 441 442
3 440 442 443
3 444 445 446
3 444 446 447
3 414 28 31
3 414 31 415
3 448 449 450
3 448 450 451
3 452 453 454
3 455 456 457
