ply
format ascii 1.0
comment Created by Blender 2.80 (sub 75) - www.blender.org, source file: ''
element vertex 15
property float x
property float y
property float z
property float nx
property float ny
property float nz
property float s
property float t
property uchar red
property uchar green
property uchar blue
property uchar alpha
element face 5
property list uchar uint vertex_indices
end_header
-0.315056 -1.081096 -0.349644 -0.486534 0.689369 0.536708 0.375000 0.250000 255 4 0 255
-0.503113 0.057772 -1.982927 -0.486534 0.689369 0.536708 0.625000 0.250000 255 4 0 255
-2.052230 -1.976676 -0.774101 -0.486534 0.689369 0.536708 0.375000 0.500000 255 4 0 255
4.839669 -0.245361 -1.829383 0.234198 -0.373065 -0.897760 0.375000 0.250000 255 4 0 255
5.145924 -2.040882 -1.003361 0.234198 -0.373065 -0.897760 0.625000 0.250000 255 4 0 255
2.919561 -0.713757 -2.135639 0.234198 -0.373065 -0.897760 0.375000 0.500000 255 4 0 255
2.358654 -0.121298 1.196633 -0.704615 -0.192168 -0.683073 0.375000 0.250000 255 4 0 255
3.231674 -1.873953 0.789154 -0.704615 -0.192168 -0.683073 0.625000 0.250000 255 4 0 255
1.239768 -1.004750 2.599347 -0.704615 -0.192168 -0.683073 0.375000 0.500000 255 4 0 255
-2.795346 -0.978579 -2.376923 -0.017722 0.998599 -0.049853 0.375000 0.250000 255 4 0 255
-4.056862 -1.078285 -3.925675 -0.017722 0.998599 -0.049853 0.625000 0.250000 255 4 0 255
-4.346900 -0.943136 -1.115406 -0.017722 0.998599 -0.049853 0.375000 0.500000 255 4 0 255
-1.908780 -1.000000 1.864845 0.000000 -1.000000 -0.000000 0.375000 0.250000 255 4 0 255
-0.005662 -1.000000 2.479777 0.000000 -1.000000 -0.000000 0.625000 0.250000 255 4 0 255
-2.523713 -1.000001 3.767963 0.000000 -1.000000 -0.000000 0.375000 0.500000 255 4 0 255
3 0 1 2
3 3 4 5
3 6 7 8
3 9 10 11
3 12 13 14
