ply
format ascii 1.0
comment Created by Blender 2.80 (sub 75) - www.blender.org, source file: 'yellow_room.blend'
element vertex 496
property float x
property float y
property float z
property float nx
property float ny
property float nz
property float s
property float t
element face 394
property list uchar uint vertex_indices
end_header
15.000000 -3.000000 0.000000 -0.000000 -0.000000 -1.000000 0.250000 0.875000
15.000000 1.000000 0.000000 -0.000000 -0.000000 -1.000000 0.125000 0.875000
19.000000 1.000000 0.000000 -0.000000 -0.000000 -1.000000 0.125000 0.750000
19.000000 -3.000000 0.000000 -0.000000 0.000000 -1.000000 0.250000 0.750000
15.000000 1.000000 1.000000 0.000000 1.000000 -0.000000 0.554688 0.871094
19.000000 1.000000 1.000000 0.000000 1.000000 -0.000000 0.554688 0.746094
19.000000 1.000000 0.000000 0.000000 1.000000 -0.000000 0.585938 0.746094
15.000000 1.000000 0.000000 0.000000 1.000000 -0.000000 0.585938 0.871094
19.000000 -3.000000 1.000000 -0.000000 0.000000 1.000000 0.750000 0.000000
19.000000 1.000000 1.000000 -0.000000 0.000000 1.000000 0.750000 0.125000
15.000000 1.000000 1.000000 -0.000000 0.000000 1.000000 0.625000 0.125000
15.000000 -3.000000 1.000000 -0.000000 0.000000 1.000000 0.625000 0.000000
15.000000 -3.000000 1.000000 -1.000000 0.000000 0.000000 0.335938 0.878906
15.000000 1.000000 1.000000 -1.000000 0.000000 0.000000 0.335938 0.753906
15.000000 1.000000 0.000000 -1.000000 0.000000 0.000000 0.367188 0.753906
15.000000 -3.000000 0.000000 -1.000000 0.000000 0.000000 0.367188 0.878906
19.000000 -3.000000 1.000000 0.000000 -1.000000 0.000000 0.953125 0.625000
15.000000 -3.000000 1.000000 0.000000 -1.000000 0.000000 0.953125 0.750000
15.000000 -3.000000 0.000000 0.000000 -1.000000 0.000000 0.921875 0.750000
19.000000 -3.000000 0.000000 0.000000 -1.000000 0.000000 0.921875 0.625000
23.000000 1.000000 0.000000 -0.000000 -0.000000 -1.000000 0.125000 0.625000
23.000000 -3.000000 0.000000 -0.000000 0.000000 -1.000000 0.250000 0.625000
23.000000 1.000000 1.000000 1.000000 0.000000 0.000000 0.921875 0.375000
23.000000 -3.000000 1.000000 1.000000 0.000000 0.000000 0.921875 0.250000
23.000000 -3.000000 0.000000 1.000000 0.000000 0.000000 0.953125 0.250000
23.000000 1.000000 0.000000 1.000000 0.000000 -0.000000 0.953125 0.375000
23.000000 -3.000000 1.000000 -0.000000 0.000000 1.000000 0.875000 0.000000
23.000000 1.000000 1.000000 -0.000000 0.000000 1.000000 0.875000 0.125000
23.000000 -3.000000 1.000000 0.000000 -1.000000 0.000000 0.953125 0.500000
23.000000 -3.000000 0.000000 0.000000 -1.000000 0.000000 0.921875 0.500000
19.000000 5.000000 0.000000 -0.000000 -0.000000 -1.000000 0.000000 0.750000
23.000000 5.000000 0.000000 -0.000000 -0.000000 -1.000000 0.000000 0.625000
19.000000 5.000000 1.000000 0.000000 1.000000 -0.000000 0.585938 0.871094
23.000000 5.000000 1.000000 0.000000 1.000000 -0.000000 0.585938 0.746094
23.000000 5.000000 0.000000 0.000000 1.000000 -0.000000 0.617188 0.746094
19.000000 5.000000 0.000000 0.000000 1.000000 -0.000000 0.617188 0.871094
23.000000 5.000000 1.000000 1.000000 0.000000 0.000000 0.921875 0.500000
23.000000 5.000000 0.000000 1.000000 0.000000 -0.000000 0.953125 0.500000
23.000000 5.000000 1.000000 -0.000000 0.000000 1.000000 0.875000 0.250000
19.000000 5.000000 1.000000 -0.000000 0.000000 1.000000 0.750000 0.250000
19.000000 1.000000 1.000000 -1.000000 0.000000 0.000000 0.921875 0.875000
19.000000 5.000000 1.000000 -1.000000 0.000000 0.000000 0.921875 0.750000
19.000000 5.000000 0.000000 -1.000000 0.000000 0.000000 0.953125 0.750000
19.000000 1.000000 0.000000 -1.000000 0.000000 0.000000 0.953125 0.875000
-10.000000 -10.000000 0.000000 0.000000 0.000000 1.000000 0.000000 0.000000
10.000000 -10.000000 0.000000 0.000000 0.000000 1.000000 0.625000 0.000000
10.000000 10.000000 0.000000 0.000000 0.000000 1.000000 0.625000 0.625000
-10.000000 10.000000 0.000000 -0.000000 0.000000 1.000000 0.000000 0.625000
-2.000000 -2.000000 0.250000 -1.000000 -0.000000 -0.000000 0.832031 0.750000
-2.000000 -2.000000 3.000000 -1.000000 -0.000000 -0.000000 0.746094 0.750000
-2.000000 2.000000 3.000000 -1.000000 -0.000000 -0.000000 0.746094 0.625000
-2.000000 2.000000 0.250000 -1.000000 -0.000000 0.000000 0.832031 0.625000
-2.000000 2.000000 0.250000 0.000000 1.000000 0.000000 0.835938 0.500000
-2.000000 2.000000 3.000000 0.000000 1.000000 0.000000 0.750000 0.500000
2.000000 2.000000 3.000000 0.000000 1.000000 0.000000 0.750000 0.375000
2.000000 2.000000 0.250000 0.000000 1.000000 -0.000000 0.835938 0.375000
2.000000 2.000000 0.250000 1.000000 -0.000000 0.000000 0.468750 0.871094
2.000000 2.000000 3.000000 1.000000 -0.000000 0.000000 0.382813 0.871094
2.000000 -2.000000 3.000000 1.000000 -0.000000 0.000000 0.382813 0.746094
2.000000 -2.000000 0.250000 1.000000 -0.000000 0.000000 0.468750 0.746094
2.000000 -2.000000 3.000000 0.000000 -1.000000 0.000000 0.828125 0.500000
-2.000000 -2.000000 3.000000 0.000000 -1.000000 0.000000 0.828125 0.625000
0.000000 -2.000000 2.250000 0.000000 -1.000000 0.000000 0.804688 0.562500
1.000000 -2.000000 2.250000 0.000000 -1.000000 0.000000 0.804688 0.531250
-2.000000 -2.000000 0.250000 0.000000 0.000000 1.000000 0.251953 0.626953
-2.000000 2.000000 0.250000 0.000000 0.000000 1.000000 0.251953 0.751953
-2.062500 2.062500 0.250000 0.000000 0.000000 1.000000 0.250000 0.753906
-2.062500 -2.062500 0.250000 -0.000000 0.000000 1.000000 0.250000 0.625000
2.000000 -2.000000 3.125000 -0.000000 -1.000000 -0.000000 0.832031 0.500000
-2.000000 -2.000000 3.125000 0.000000 -1.000000 -0.000000 0.832031 0.625000
-2.000000 2.000000 3.125000 -0.000000 1.000000 0.000000 0.746094 0.500000
2.000000 2.000000 3.125000 0.000000 1.000000 0.000000 0.746094 0.375000
-2.000000 -2.000000 3.125000 0.000000 0.000000 1.000000 0.625000 0.375000
2.000000 -2.000000 3.125000 0.000000 0.000000 1.000000 0.625000 0.250000
2.000000 2.000000 3.125000 0.000000 0.000000 1.000000 0.750000 0.250000
-2.000000 2.000000 3.125000 -0.000000 0.000000 1.000000 0.750000 0.375000
-2.000000 -2.000000 3.125000 -1.000000 0.000000 0.000000 0.742188 0.750000
-2.000000 2.000000 3.125000 -1.000000 -0.000000 -0.000000 0.742188 0.625000
0.000000 -2.000000 0.250000 0.000000 0.000000 1.000000 0.314453 0.626953
1.000000 -2.000000 0.250000 0.000000 0.000000 1.000000 0.345703 0.626953
1.000000 -1.875000 0.250000 0.000000 0.000000 1.000000 0.345703 0.630859
0.000000 -1.875000 0.250000 -0.000000 0.000000 1.000000 0.314453 0.630859
2.000000 -2.000000 0.250000 0.000000 -1.000000 0.000000 0.742188 0.500000
1.000000 -2.000000 0.250000 0.000000 -1.000000 0.000000 0.742188 0.531250
-2.000000 -2.000000 0.250000 0.000000 -1.000000 0.000000 0.742188 0.625000
0.000000 -2.000000 0.250000 0.000000 -1.000000 0.000000 0.742188 0.562500
2.000000 -2.000000 0.250000 0.000000 0.000000 1.000000 0.376953 0.626953
1.000000 -2.062500 0.250000 0.000000 0.000000 1.000000 0.345703 0.625000
2.062500 -2.062500 0.250000 0.000000 -0.000000 1.000000 0.378906 0.625000
1.000000 -1.875000 0.250000 0.000000 -1.000000 0.000000 0.742188 0.929688
1.000000 -1.875000 2.250000 0.000000 -1.000000 0.000000 0.742188 0.867188
0.000000 -1.875000 2.250000 0.000000 -1.000000 0.000000 0.773438 0.867188
0.000000 -1.875000 0.250000 0.000000 -1.000000 0.000000 0.773438 0.929688
0.000000 -2.000000 2.250000 1.000000 0.000000 -0.000000 0.906250 0.929688
0.000000 -2.000000 0.250000 1.000000 0.000000 -0.000000 0.906250 0.867188
0.000000 -1.875000 0.250000 1.000000 0.000000 -0.000000 0.910156 0.867188
0.000000 -1.875000 2.250000 1.000000 0.000000 0.000000 0.910156 0.929688
1.000000 -2.000000 2.250000 0.000000 0.000000 -1.000000 0.277344 0.902344
0.000000 -2.000000 2.250000 0.000000 0.000000 -1.000000 0.277344 0.871094
0.000000 -1.875000 2.250000 0.000000 0.000000 -1.000000 0.281250 0.871094
1.000000 -1.875000 2.250000 -0.000000 -0.000000 -1.000000 0.281250 0.902344
1.000000 -2.000000 0.250000 -1.000000 -0.000000 -0.000000 0.535156 0.925781
1.000000 -2.000000 2.250000 -1.000000 -0.000000 -0.000000 0.535156 0.863281
1.000000 -1.875000 2.250000 -1.000000 -0.000000 -0.000000 0.539063 0.863281
1.000000 -1.875000 0.250000 -1.000000 -0.000000 0.000000 0.539063 0.925781
2.000000 2.000000 0.250000 0.000000 -0.000000 1.000000 0.376953 0.751953
2.062500 2.062500 0.250000 0.000000 0.000000 1.000000 0.378906 0.753906
0.000000 -2.062500 0.250000 0.000000 0.000000 1.000000 0.314453 0.625000
2.062500 2.062500 0.250000 1.000000 0.000000 0.000000 0.367188 0.882812
2.062500 -2.062500 0.250000 1.000000 0.000000 0.000000 0.367188 0.753906
2.062500 -2.062500 0.000000 1.000000 0.000000 0.000000 0.375000 0.753906
2.062500 2.062500 0.000000 1.000000 0.000000 -0.000000 0.375000 0.882812
0.000000 -2.062500 0.250000 0.000000 -1.000000 0.000000 0.960938 0.314453
-2.062500 -2.062500 0.250000 0.000000 -1.000000 0.000000 0.960938 0.378906
-2.062500 -2.062500 0.000000 0.000000 -1.000000 0.000000 0.953125 0.378906
0.000000 -2.062500 0.000000 0.000000 -1.000000 0.000000 0.953125 0.314453
1.000000 -2.062500 0.250000 0.000000 -1.000000 0.000000 0.960938 0.283203
1.000000 -2.062500 0.000000 0.000000 -1.000000 0.000000 0.953125 0.283203
-2.062500 -2.062500 0.250000 -1.000000 0.000000 0.000000 0.953125 0.507812
-2.062500 2.062500 0.250000 -1.000000 0.000000 0.000000 0.953125 0.378906
-2.062500 2.062500 0.000000 -1.000000 0.000000 0.000000 0.960938 0.378906
-2.062500 -2.062500 0.000000 -1.000000 0.000000 0.000000 0.960938 0.507812
-2.062500 2.062500 0.250000 0.000000 1.000000 -0.000000 0.914063 0.878906
2.062500 2.062500 0.250000 0.000000 1.000000 -0.000000 0.914063 0.750000
2.062500 2.062500 0.000000 0.000000 1.000000 -0.000000 0.921875 0.750000
-2.062500 2.062500 0.000000 0.000000 1.000000 -0.000000 0.921875 0.878906
2.062500 -2.062500 0.250000 0.000000 -1.000000 0.000000 0.960938 0.250000
2.062500 -2.062500 0.000000 0.000000 -1.000000 0.000000 0.953125 0.250000
2.000000 2.000000 3.125000 1.000000 0.000000 0.000000 0.378906 0.871094
2.000000 -2.000000 3.125000 1.000000 -0.000000 0.000000 0.378906 0.746094
-13.000000 -1.000000 5.125000 0.000000 0.000000 1.000000 0.687500 0.375000
-12.000000 -1.000000 5.125000 0.000000 0.000000 1.000000 0.718750 0.375000
-12.000000 -0.875000 5.125000 0.000000 0.000000 1.000000 0.718750 0.378906
-13.000000 -0.875000 5.125000 -0.000000 0.000000 1.000000 0.687500 0.378906
-13.000000 1.156250 5.125000 0.000000 0.000000 1.000000 0.687500 0.442383
-12.000000 1.156250 5.125000 0.000000 0.000000 1.000000 0.718750 0.442383
-12.000000 2.875000 5.125000 0.000000 0.000000 1.000000 0.718750 0.496094
-13.000000 2.875000 5.125000 -0.000000 0.000000 1.000000 0.687500 0.496094
-13.000000 -1.000000 7.125000 1.000000 0.000000 -0.000000 0.253906 0.933594
-13.000000 -1.000000 5.125000 1.000000 0.000000 -0.000000 0.253906 0.871094
-13.000000 -0.875000 5.125000 1.000000 0.000000 -0.000000 0.257812 0.871094
-13.000000 -0.875000 7.125000 1.000000 0.000000 0.000000 0.257812 0.933594
-12.000000 -1.000000 7.125000 0.000000 0.000000 -1.000000 0.625000 0.687500
-13.000000 -1.000000 7.125000 0.000000 0.000000 -1.000000 0.625000 0.718750
-13.000000 -0.875000 7.125000 0.000000 0.000000 -1.000000 0.621094 0.718750
-12.000000 -0.875000 7.125000 -0.000000 -0.000000 -1.000000 0.621094 0.687500
-12.000000 -1.000000 5.125000 -1.000000 -0.000000 -0.000000 0.542969 0.925781
-12.000000 -1.000000 7.125000 -1.000000 -0.000000 -0.000000 0.542969 0.863281
-12.000000 -0.875000 7.125000 -1.000000 -0.000000 -0.000000 0.546875 0.863281
-12.000000 -0.875000 5.125000 -1.000000 -0.000000 0.000000 0.546875 0.925781
-12.000000 3.000000 5.125000 0.000000 0.000000 1.000000 0.718750 0.500000
-13.000000 3.000000 5.125000 -0.000000 0.000000 1.000000 0.687500 0.500000
-14.875000 2.875000 5.125000 -0.000000 0.000000 1.000000 0.628906 0.496094
-14.875000 1.156250 5.125000 -0.000000 0.000000 1.000000 0.628906 0.442383
-14.875000 2.875000 7.125000 -0.000000 -1.000000 -0.000000 0.804688 0.867188
-13.000000 2.875000 7.125000 -0.000000 -1.000000 -0.000000 0.804688 0.808594
-13.000000 2.875000 7.875000 -0.000000 -1.000000 -0.000000 0.828125 0.808594
-14.875000 2.875000 7.875000 0.000000 -1.000000 -0.000000 0.828125 0.867188
-12.000000 2.875000 7.125000 -0.000000 -1.000000 -0.000000 0.804688 0.777344
-12.000000 2.875000 7.875000 -0.000000 -1.000000 -0.000000 0.828125 0.777344
-11.125000 1.156250 5.125000 -1.000000 -0.000000 -0.000000 0.335938 0.807617
-11.125000 1.156250 7.125000 -1.000000 -0.000000 -0.000000 0.273438 0.807617
-11.125000 2.875000 7.125000 -1.000000 -0.000000 -0.000000 0.273438 0.753906
-11.125000 2.875000 5.125000 -1.000000 -0.000000 0.000000 0.335938 0.753906
-12.000000 -0.875000 5.125000 0.000000 1.000000 0.000000 0.921875 0.402344
-12.000000 -0.875000 7.125000 0.000000 1.000000 0.000000 0.859375 0.402344
-11.125000 -0.875000 7.125000 0.000000 1.000000 0.000000 0.859375 0.375000
-11.125000 -0.875000 5.125000 0.000000 1.000000 -0.000000 0.921875 0.375000
-12.000000 2.875000 5.125000 0.000000 -1.000000 0.000000 0.742188 0.777344
-11.125000 2.875000 5.125000 0.000000 -1.000000 0.000000 0.742188 0.750000
-11.125000 2.875000 7.125000 -0.000000 -1.000000 -0.000000 0.804688 0.750000
-12.000000 0.156250 5.125000 0.000000 -0.000000 1.000000 0.718750 0.411133
-11.125000 -0.875000 5.125000 0.000000 -0.000000 1.000000 0.746094 0.378906
-11.125000 0.156250 5.125000 0.000000 0.000000 1.000000 0.746094 0.411133
-14.875000 1.156250 7.125000 1.000000 0.000000 -0.000000 0.855469 0.680664
-14.875000 1.156250 5.125000 1.000000 0.000000 -0.000000 0.917969 0.680664
-14.875000 2.875000 5.125000 1.000000 0.000000 -0.000000 0.917969 0.734375
-14.875000 2.875000 7.125000 1.000000 0.000000 0.000000 0.855469 0.734375
-13.000000 -0.875000 7.125000 -0.000000 1.000000 0.000000 0.859375 0.433594
-13.000000 -0.875000 7.875000 -0.000000 1.000000 0.000000 0.835938 0.433594
-12.000000 -0.875000 7.875000 0.000000 1.000000 0.000000 0.835938 0.402344
-13.000000 -0.875000 5.125000 0.000000 1.000000 0.000000 0.921875 0.433594
-14.875000 -0.875000 5.125000 0.000000 1.000000 0.000000 0.921875 0.492188
-14.875000 -0.875000 7.125000 -0.000000 1.000000 0.000000 0.859375 0.492188
-13.000000 2.875000 5.125000 0.000000 -1.000000 0.000000 0.742188 0.808594
-14.875000 2.875000 5.125000 0.000000 -1.000000 0.000000 0.742188 0.867188
-12.000000 1.156250 7.875000 0.000000 0.000000 -1.000000 0.678711 0.527344
-13.000000 1.156250 7.875000 0.000000 0.000000 -1.000000 0.678711 0.558594
-13.000000 2.875000 7.875000 0.000000 0.000000 -1.000000 0.625000 0.558594
-12.000000 2.875000 7.875000 -0.000000 -0.000000 -1.000000 0.625000 0.527344
-11.125000 2.875000 7.875000 -0.000000 -0.000000 -1.000000 0.625000 0.500000
-11.125000 1.156250 7.875000 -0.000000 0.000000 -1.000000 0.678711 0.500000
-13.000000 0.156250 7.875000 0.000000 0.000000 -1.000000 0.709961 0.558594
-13.000000 -0.875000 7.875000 0.000000 0.000000 -1.000000 0.742188 0.558594
-14.875000 -0.875000 7.875000 0.000000 0.000000 -1.000000 0.742188 0.617187
-14.875000 0.156250 7.875000 0.000000 0.000000 -1.000000 0.709961 0.617187
-11.125000 2.875000 7.875000 -0.000000 -1.000000 -0.000000 0.828125 0.750000
-14.875000 2.875000 7.875000 1.000000 0.000000 0.000000 0.832031 0.734375
-14.875000 1.156250 7.875000 1.000000 -0.000000 0.000000 0.832031 0.680664
-11.125000 -0.875000 7.875000 0.000000 1.000000 0.000000 0.835938 0.375000
-14.875000 -0.875000 7.875000 -0.000000 1.000000 0.000000 0.835938 0.492188
-11.125000 0.156250 7.125000 -1.000000 0.000000 0.000000 0.273438 0.838867
-11.125000 -0.875000 7.125000 -1.000000 0.000000 0.000000 0.273438 0.871094
-11.125000 -0.875000 7.875000 -1.000000 0.000000 0.000000 0.250000 0.871094
-11.125000 0.156250 7.875000 -1.000000 -0.000000 -0.000000 0.250000 0.838867
-11.125000 1.156250 7.875000 -1.000000 -0.000000 -0.000000 0.250000 0.807617
-14.875000 -0.875000 7.125000 1.000000 0.000000 0.000000 0.855469 0.617187
-14.875000 0.156250 7.125000 1.000000 0.000000 0.000000 0.855469 0.649414
-14.875000 0.156250 7.875000 1.000000 0.000000 0.000000 0.832031 0.649414
-14.875000 -0.875000 7.875000 1.000000 -0.000000 0.000000 0.832031 0.617187
-14.875000 1.156250 7.875000 0.000000 0.000000 -1.000000 0.678711 0.617187
-12.000000 -0.875000 7.875000 -0.000000 -0.000000 -1.000000 0.742188 0.527344
-12.000000 0.156250 7.875000 -0.000000 -0.000000 -1.000000 0.709961 0.527344
-11.125000 0.156250 7.875000 -0.000000 -0.000000 -1.000000 0.709961 0.500000
-11.125000 -0.875000 7.875000 -0.000000 0.000000 -1.000000 0.742188 0.500000
-14.875000 -0.875000 5.125000 1.000000 0.000000 -0.000000 0.917969 0.617187
-14.875000 0.156250 5.125000 1.000000 0.000000 -0.000000 0.917969 0.649414
-11.125000 1.156250 5.125000 0.000000 0.000000 1.000000 0.746094 0.442383
-11.125000 -0.875000 5.125000 -1.000000 -0.000000 -0.000000 0.335938 0.871094
-11.125000 0.156250 5.125000 -1.000000 -0.000000 0.000000 0.335938 0.838867
-13.000000 0.156250 5.125000 -0.000000 0.000000 1.000000 0.687500 0.411133
-14.875000 0.156250 5.125000 -0.000000 0.000000 1.000000 0.628906 0.411133
-14.875000 -0.875000 5.125000 -0.000000 0.000000 1.000000 0.628906 0.378906
-11.125000 2.875000 5.125000 0.000000 0.000000 1.000000 0.746094 0.496094
-14.875000 2.875000 7.875000 0.000000 0.000000 -1.000000 0.625000 0.617187
-11.125000 2.875000 7.875000 -1.000000 -0.000000 -0.000000 0.250000 0.753906
-15.000000 1.156250 5.125000 -0.000000 0.000000 1.000000 0.625000 0.442383
-15.000000 0.156250 5.125000 -0.000000 0.000000 1.000000 0.625000 0.411133
-15.000000 0.156250 7.125000 1.000000 0.000000 -0.000000 0.710938 0.914062
-15.000000 0.156250 5.125000 1.000000 0.000000 -0.000000 0.710938 0.851562
-15.000000 1.156250 5.125000 1.000000 0.000000 -0.000000 0.742188 0.851562
-15.000000 1.156250 7.125000 1.000000 0.000000 0.000000 0.742188 0.914062
-14.875000 0.156250 7.125000 0.000000 1.000000 0.000000 0.621094 0.808594
-14.875000 0.156250 5.125000 0.000000 1.000000 0.000000 0.621094 0.871094
-15.000000 0.156250 5.125000 0.000000 1.000000 0.000000 0.617188 0.871094
-15.000000 0.156250 7.125000 -0.000000 1.000000 0.000000 0.617188 0.808594
-14.875000 1.156250 7.125000 0.000000 0.000000 -1.000000 0.273438 0.871094
-14.875000 0.156250 7.125000 0.000000 0.000000 -1.000000 0.273438 0.902344
-15.000000 0.156250 7.125000 0.000000 0.000000 -1.000000 0.269531 0.902344
-15.000000 1.156250 7.125000 0.000000 0.000000 -1.000000 0.269531 0.871094
-14.875000 1.156250 5.125000 0.000000 -1.000000 0.000000 0.617188 0.808594
-14.875000 1.156250 7.125000 0.000000 -1.000000 0.000000 0.617188 0.746094
-15.000000 1.156250 7.125000 0.000000 -1.000000 0.000000 0.621094 0.746094
-15.000000 1.156250 5.125000 0.000000 -1.000000 0.000000 0.621094 0.808594
-13.000000 -1.000000 5.125000 0.000000 1.000000 0.000000 0.468750 0.925781
-13.000000 -1.000000 7.125000 0.000000 1.000000 0.000000 0.468750 0.863281
-12.000000 -1.000000 7.125000 0.000000 1.000000 0.000000 0.500000 0.863281
-12.000000 -1.000000 5.125000 0.000000 1.000000 -0.000000 0.500000 0.925781
-12.000000 3.000000 5.125000 0.000000 -1.000000 0.000000 0.867188 0.929688
-12.000000 3.000000 7.125000 0.000000 -1.000000 0.000000 0.867188 0.867188
-13.000000 3.000000 7.125000 0.000000 -1.000000 0.000000 0.898437 0.867188
-13.000000 3.000000 5.125000 0.000000 -1.000000 0.000000 0.898438 0.929688
-13.000000 2.875000 7.125000 1.000000 0.000000 -0.000000 0.917969 0.562500
-13.000000 2.875000 5.125000 1.000000 0.000000 -0.000000 0.917969 0.500000
-13.000000 3.000000 5.125000 1.000000 0.000000 -0.000000 0.921875 0.500000
-13.000000 3.000000 7.125000 1.000000 0.000000 0.000000 0.921875 0.562500
-12.000000 2.875000 7.125000 0.000000 0.000000 -1.000000 0.257813 0.902344
-13.000000 2.875000 7.125000 0.000000 0.000000 -1.000000 0.257813 0.871094
-13.000000 3.000000 7.125000 0.000000 0.000000 -1.000000 0.261719 0.871094
-12.000000 3.000000 7.125000 -0.000000 -0.000000 -1.000000 0.261719 0.902344
-12.000000 2.875000 5.125000 -1.000000 -0.000000 -0.000000 0.621094 0.687500
-12.000000 2.875000 7.125000 -1.000000 -0.000000 -0.000000 0.621094 0.625000
-12.000000 3.000000 7.125000 -1.000000 -0.000000 -0.000000 0.625000 0.625000
-12.000000 3.000000 5.125000 -1.000000 -0.000000 0.000000 0.625000 0.687500
-15.000000 1.000000 8.125000 0.000000 -0.000000 1.000000 0.558594 0.746094
-15.000000 0.000000 8.125000 0.000000 -0.000000 1.000000 0.527344 0.746094
-14.875000 0.000000 8.125000 0.000000 -0.000000 1.000000 0.527344 0.742188
-14.875000 1.000000 8.125000 0.000000 0.000000 1.000000 0.558594 0.742188
-12.000000 1.000000 8.125000 0.000000 -0.000000 1.000000 0.558594 0.652344
-12.000000 0.000000 8.125000 0.000000 -0.000000 1.000000 0.527344 0.652344
-11.125000 0.000000 8.125000 0.000000 -0.000000 1.000000 0.527344 0.625000
-11.125000 1.000000 8.125000 0.000000 0.000000 1.000000 0.558594 0.625000
-15.000000 1.000000 10.125000 0.000000 -1.000000 0.000000 0.906250 0.867188
-15.000000 1.000000 8.125000 0.000000 -1.000000 0.000000 0.906250 0.929688
-14.875000 1.000000 8.125000 0.000000 -1.000000 0.000000 0.902344 0.929688
-14.875000 1.000000 10.125000 -0.000000 -1.000000 -0.000000 0.902344 0.867188
-15.000000 0.000000 10.125000 -0.000000 -0.000000 -1.000000 0.273438 0.902344
-15.000000 1.000000 10.125000 -0.000000 -0.000000 -1.000000 0.273438 0.871094
-14.875000 1.000000 10.125000 -0.000000 -0.000000 -1.000000 0.277344 0.871094
-14.875000 0.000000 10.125000 -0.000000 0.000000 -1.000000 0.277344 0.902344
-15.000000 0.000000 8.125000 0.000000 1.000000 0.000000 0.910156 0.929688
-15.000000 0.000000 10.125000 0.000000 1.000000 0.000000 0.910156 0.867188
-14.875000 0.000000 10.125000 0.000000 1.000000 0.000000 0.914062 0.867188
-14.875000 0.000000 8.125000 0.000000 1.000000 -0.000000 0.914062 0.929688
-11.125000 0.000000 8.125000 -1.000000 -0.000000 -0.000000 0.960938 0.207031
-11.125000 0.000000 10.125000 -1.000000 -0.000000 -0.000000 0.898438 0.207031
-11.125000 1.000000 10.125000 -1.000000 -0.000000 -0.000000 0.898438 0.175781
-11.125000 1.000000 8.125000 -1.000000 -0.000000 0.000000 0.960938 0.175781
-11.125000 2.875000 8.125000 0.000000 0.000000 1.000000 0.617188 0.625000
-12.000000 2.875000 8.125000 -0.000000 0.000000 1.000000 0.617188 0.652344
-11.125000 2.875000 10.125000 -1.000000 0.000000 0.000000 0.898438 0.117188
-11.125000 1.000000 10.875000 -1.000000 0.000000 0.000000 0.875000 0.175781
-11.125000 2.875000 10.875000 -1.000000 -0.000000 -0.000000 0.875000 0.117188
-11.125000 0.000000 10.875000 -1.000000 0.000000 0.000000 0.875000 0.207031
-12.000000 -0.875000 8.125000 0.000000 1.000000 0.000000 0.875000 0.089844
-12.000000 -0.875000 10.125000 0.000000 1.000000 0.000000 0.937500 0.089844
-11.125000 -0.875000 10.125000 0.000000 1.000000 0.000000 0.937500 0.117188
-11.125000 -0.875000 8.125000 0.000000 1.000000 -0.000000 0.875000 0.117188
-14.875000 0.000000 8.125000 1.000000 -0.000000 0.000000 0.835938 0.277344
-14.875000 0.000000 10.125000 1.000000 -0.000000 0.000000 0.773438 0.277344
-14.875000 -0.875000 10.125000 1.000000 -0.000000 0.000000 0.773438 0.250000
-14.875000 -0.875000 8.125000 1.000000 -0.000000 0.000000 0.835938 0.250000
-11.125000 -0.875000 8.125000 -1.000000 0.000000 0.000000 0.960938 0.234375
-11.125000 -0.875000 10.125000 -1.000000 0.000000 0.000000 0.898438 0.234375
-13.000000 0.000000 8.125000 0.000000 0.000000 1.000000 0.527344 0.683594
-14.875000 -0.875000 8.125000 0.000000 0.000000 1.000000 0.500000 0.742188
-13.000000 -0.875000 8.125000 0.000000 -0.000000 1.000000 0.500000 0.683594
-12.000000 2.875000 10.125000 0.000000 -1.000000 0.000000 0.894531 0.527344
-12.000000 2.875000 8.125000 0.000000 -1.000000 0.000000 0.832031 0.527344
-11.125000 2.875000 8.125000 0.000000 -1.000000 0.000000 0.832031 0.500000
-11.125000 2.875000 10.125000 -0.000000 -1.000000 -0.000000 0.894531 0.500000
-14.875000 1.000000 10.125000 1.000000 0.000000 0.000000 0.773438 0.308594
-14.875000 1.000000 10.875000 1.000000 0.000000 0.000000 0.750000 0.308594
-14.875000 0.000000 10.875000 1.000000 -0.000000 0.000000 0.750000 0.277344
-14.875000 1.000000 8.125000 1.000000 0.000000 -0.000000 0.835938 0.308594
-14.875000 2.875000 8.125000 1.000000 0.000000 -0.000000 0.835938 0.367188
-14.875000 2.875000 10.125000 1.000000 0.000000 0.000000 0.773438 0.367188
-11.125000 2.875000 8.125000 -1.000000 -0.000000 0.000000 0.960938 0.117188
-12.000000 0.000000 10.875000 -0.000000 -0.000000 -1.000000 0.714844 0.644531
-12.000000 1.000000 10.875000 -0.000000 -0.000000 -1.000000 0.683594 0.644531
-11.125000 1.000000 10.875000 -0.000000 -0.000000 -1.000000 0.683594 0.617187
-11.125000 0.000000 10.875000 -0.000000 0.000000 -1.000000 0.714844 0.617187
-11.125000 -0.875000 10.875000 0.000000 0.000000 -1.000000 0.742188 0.617187
-12.000000 -0.875000 10.875000 0.000000 0.000000 -1.000000 0.742188 0.644531
-13.000000 1.000000 10.875000 0.000000 0.000000 -1.000000 0.683594 0.675781
-14.875000 1.000000 10.875000 0.000000 0.000000 -1.000000 0.683594 0.734375
-14.875000 2.875000 10.875000 0.000000 0.000000 -1.000000 0.625000 0.734375
-13.000000 2.875000 10.875000 -0.000000 -0.000000 -1.000000 0.625000 0.675781
-11.125000 -0.875000 10.875000 -1.000000 0.000000 0.000000 0.875000 0.234375
-11.125000 2.875000 10.875000 -0.000000 -1.000000 -0.000000 0.917969 0.500000
-12.000000 2.875000 10.875000 0.000000 -1.000000 -0.000000 0.917969 0.527344
-14.875000 -0.875000 10.875000 1.000000 -0.000000 0.000000 0.750000 0.250000
-14.875000 2.875000 10.875000 1.000000 0.000000 0.000000 0.750000 0.367188
-13.000000 -0.875000 10.125000 -0.000000 1.000000 0.000000 0.937500 0.058594
-14.875000 -0.875000 10.125000 -0.000000 1.000000 0.000000 0.937500 0.000000
-14.875000 -0.875000 10.875000 -0.000000 1.000000 0.000000 0.960938 0.000000
-13.000000 -0.875000 10.875000 0.000000 1.000000 0.000000 0.960938 0.058594
-12.000000 -0.875000 10.875000 0.000000 1.000000 0.000000 0.960938 0.089844
-14.875000 2.875000 10.125000 -0.000000 -1.000000 -0.000000 0.894531 0.617188
-13.000000 2.875000 10.125000 -0.000000 -1.000000 -0.000000 0.894531 0.558594
-13.000000 2.875000 10.875000 -0.000000 -1.000000 -0.000000 0.917969 0.558594
-14.875000 2.875000 10.875000 0.000000 -1.000000 -0.000000 0.917969 0.617188
-12.000000 2.875000 10.875000 -0.000000 -0.000000 -1.000000 0.625000 0.644531
-14.875000 0.000000 10.875000 0.000000 0.000000 -1.000000 0.714844 0.734375
-13.000000 0.000000 10.875000 0.000000 0.000000 -1.000000 0.714844 0.675781
-13.000000 -0.875000 10.875000 0.000000 0.000000 -1.000000 0.742188 0.675781
-14.875000 -0.875000 10.875000 0.000000 0.000000 -1.000000 0.742188 0.734375
-14.875000 2.875000 8.125000 0.000000 -1.000000 0.000000 0.832031 0.617188
-13.000000 2.875000 8.125000 0.000000 -1.000000 0.000000 0.832031 0.558594
-12.000000 -0.875000 8.125000 0.000000 -0.000000 1.000000 0.500000 0.652344
-14.875000 -0.875000 8.125000 0.000000 1.000000 0.000000 0.875000 0.000000
-13.000000 -0.875000 8.125000 0.000000 1.000000 -0.000000 0.875000 0.058594
-13.000000 1.000000 8.125000 0.000000 0.000000 1.000000 0.558594 0.683594
-13.000000 2.875000 8.125000 0.000000 0.000000 1.000000 0.617188 0.683594
-14.875000 2.875000 8.125000 -0.000000 0.000000 1.000000 0.617188 0.742188
-11.125000 -0.875000 8.125000 0.000000 -0.000000 1.000000 0.500000 0.625000
-11.125000 2.875000 10.875000 -0.000000 -0.000000 -1.000000 0.625000 0.617187
-11.125000 -0.875000 10.875000 0.000000 1.000000 0.000000 0.960938 0.117188
-12.000000 3.000000 8.125000 0.000000 0.000000 1.000000 0.621094 0.652344
-13.000000 3.000000 8.125000 -0.000000 0.000000 1.000000 0.621094 0.683594
-13.000000 3.000000 10.125000 0.000000 -1.000000 0.000000 0.867188 0.867188
-13.000000 3.000000 8.125000 0.000000 -1.000000 0.000000 0.867188 0.929688
-12.000000 3.000000 8.125000 0.000000 -1.000000 0.000000 0.835938 0.929688
-12.000000 3.000000 10.125000 -0.000000 -1.000000 -0.000000 0.835938 0.867188
-13.000000 2.875000 10.125000 1.000000 0.000000 -0.000000 0.542969 0.863281
-13.000000 2.875000 8.125000 1.000000 0.000000 -0.000000 0.542969 0.925781
-13.000000 3.000000 8.125000 1.000000 0.000000 -0.000000 0.539063 0.925781
-13.000000 3.000000 10.125000 1.000000 0.000000 0.000000 0.539063 0.863281
-12.000000 2.875000 10.125000 0.000000 0.000000 -1.000000 0.265625 0.902344
-13.000000 2.875000 10.125000 0.000000 0.000000 -1.000000 0.265625 0.871094
-13.000000 3.000000 10.125000 0.000000 0.000000 -1.000000 0.269531 0.871094
-12.000000 3.000000 10.125000 -0.000000 -0.000000 -1.000000 0.269531 0.902344
-12.000000 2.875000 8.125000 -1.000000 -0.000000 -0.000000 0.546875 0.925781
-12.000000 2.875000 10.125000 -1.000000 -0.000000 -0.000000 0.546875 0.863281
-12.000000 3.000000 10.125000 -1.000000 -0.000000 -0.000000 0.550781 0.863281
-12.000000 3.000000 8.125000 -1.000000 -0.000000 0.000000 0.550781 0.925781
-15.000000 1.000000 8.125000 1.000000 -0.000000 0.000000 0.835938 0.867188
-15.000000 1.000000 10.125000 1.000000 -0.000000 0.000000 0.835938 0.929688
-15.000000 0.000000 10.125000 1.000000 -0.000000 0.000000 0.804688 0.929688
-15.000000 0.000000 8.125000 1.000000 -0.000000 0.000000 0.804688 0.867188
-15.000000 1.000000 11.125000 0.000000 -0.000000 1.000000 0.437500 0.746094
-15.000000 0.000000 11.125000 0.000000 -0.000000 1.000000 0.406250 0.746094
-14.875000 0.000000 11.125000 0.000000 -0.000000 1.000000 0.406250 0.742188
-14.875000 1.000000 11.125000 0.000000 0.000000 1.000000 0.437500 0.742188
-12.000000 1.000000 11.125000 0.000000 -0.000000 1.000000 0.437500 0.652344
-12.000000 0.000000 11.125000 0.000000 -0.000000 1.000000 0.406250 0.652344
-11.125000 0.000000 11.125000 0.000000 -0.000000 1.000000 0.406250 0.625000
-11.125000 1.000000 11.125000 0.000000 0.000000 1.000000 0.437500 0.625000
-15.000000 1.000000 13.125000 0.000000 -1.000000 0.000000 0.902344 0.867188
-15.000000 1.000000 11.125000 0.000000 -1.000000 0.000000 0.902344 0.929688
-14.875000 1.000000 11.125000 0.000000 -1.000000 0.000000 0.898438 0.929688
-14.875000 1.000000 13.125000 -0.000000 -1.000000 -0.000000 0.898438 0.867188
-15.000000 0.000000 13.125000 -0.000000 -0.000000 -1.000000 0.281250 0.902344
-15.000000 1.000000 13.125000 -0.000000 -0.000000 -1.000000 0.281250 0.871094
-14.875000 1.000000 13.125000 -0.000000 -0.000000 -1.000000 0.285156 0.871094
-14.875000 0.000000 13.125000 -0.000000 0.000000 -1.000000 0.285156 0.902344
-15.000000 0.000000 11.125000 0.000000 1.000000 0.000000 0.250000 0.933594
-15.000000 0.000000 13.125000 0.000000 1.000000 0.000000 0.250000 0.871094
-14.875000 0.000000 13.125000 0.000000 1.000000 0.000000 0.253906 0.871094
-14.875000 0.000000 11.125000 0.000000 1.000000 -0.000000 0.253906 0.933594
-11.125000 0.000000 11.125000 -1.000000 -0.000000 -0.000000 0.921875 0.339844
-11.125000 0.000000 13.125000 -1.000000 -0.000000 -0.000000 0.859375 0.339844
-11.125000 1.000000 13.125000 -1.000000 -0.000000 -0.000000 0.859375 0.308594
-11.125000 1.000000 11.125000 -1.000000 -0.000000 0.000000 0.921875 0.308594
-11.125000 2.875000 11.125000 0.000000 0.000000 1.000000 0.496094 0.625000
-12.000000 2.875000 11.125000 -0.000000 0.000000 1.000000 0.496094 0.652344
-11.125000 2.875000 13.125000 -1.000000 0.000000 0.000000 0.859375 0.250000
-11.125000 1.000000 13.875000 -1.000000 0.000000 0.000000 0.835938 0.308594
-11.125000 2.875000 13.875000 -1.000000 -0.000000 -0.000000 0.835938 0.250000
-11.125000 0.000000 13.875000 -1.000000 0.000000 0.000000 0.835938 0.339844
-12.000000 -0.875000 11.125000 0.000000 1.000000 0.000000 0.468750 0.835938
-12.000000 -0.875000 13.125000 0.000000 1.000000 0.000000 0.531250 0.835938
-11.125000 -0.875000 13.125000 0.000000 1.000000 0.000000 0.531250 0.863281
-11.125000 -0.875000 11.125000 0.000000 1.000000 -0.000000 0.468750 0.863281
-14.875000 0.000000 11.125000 1.000000 -0.000000 0.000000 0.914063 0.777344
-14.875000 0.000000 13.125000 1.000000 -0.000000 0.000000 0.851563 0.777344
-14.875000 -0.875000 13.125000 1.000000 -0.000000 0.000000 0.851563 0.750000
-14.875000 -0.875000 11.125000 1.000000 -0.000000 0.000000 0.914063 0.750000
-11.125000 -0.875000 11.125000 -1.000000 0.000000 0.000000 0.921875 0.367188
-11.125000 -0.875000 13.125000 -1.000000 0.000000 0.000000 0.859375 0.367188
-13.000000 0.000000 11.125000 0.000000 0.000000 1.000000 0.406250 0.683594
-14.875000 -0.875000 11.125000 0.000000 0.000000 1.000000 0.378906 0.742188
-13.000000 -0.875000 11.125000 0.000000 -0.000000 1.000000 0.378906 0.683594
-12.000000 2.875000 13.125000 0.000000 -1.000000 0.000000 0.687500 0.878906
-12.000000 2.875000 11.125000 0.000000 -1.000000 0.000000 0.625000 0.878906
-11.125000 2.875000 11.125000 0.000000 -1.000000 0.000000 0.625000 0.851562
-11.125000 2.875000 13.125000 -0.000000 -1.000000 -0.000000 0.687500 0.851562
-14.875000 1.000000 13.125000 1.000000 0.000000 0.000000 0.851563 0.808594
-14.875000 1.000000 13.875000 1.000000 0.000000 0.000000 0.828125 0.808594
-14.875000 0.000000 13.875000 1.000000 -0.000000 0.000000 0.828125 0.777344
-14.875000 1.000000 11.125000 1.000000 0.000000 -0.000000 0.914063 0.808594
-14.875000 2.875000 11.125000 1.000000 0.000000 -0.000000 0.914062 0.867188
-14.875000 2.875000 13.125000 1.000000 0.000000 0.000000 0.851563 0.867188
-11.125000 2.875000 11.125000 -1.000000 -0.000000 0.000000 0.921875 0.250000
-12.000000 0.000000 13.875000 -0.000000 -0.000000 -1.000000 0.714844 0.761719
-12.000000 1.000000 13.875000 -0.000000 -0.000000 -1.000000 0.683594 0.761719
-11.125000 1.000000 13.875000 -0.000000 -0.000000 -1.000000 0.683594 0.734375
-11.125000 0.000000 13.875000 -0.000000 0.000000 -1.000000 0.714844 0.734375
-11.125000 -0.875000 13.875000 0.000000 0.000000 -1.000000 0.742188 0.734375
-12.000000 -0.875000 13.875000 0.000000 0.000000 -1.000000 0.742188 0.761719
-13.000000 1.000000 13.875000 0.000000 0.000000 -1.000000 0.683594 0.792969
-14.875000 1.000000 13.875000 0.000000 0.000000 -1.000000 0.683594 0.851562
-14.875000 2.875000 13.875000 0.000000 0.000000 -1.000000 0.625000 0.851562
-13.000000 2.875000 13.875000 -0.000000 -0.000000 -1.000000 0.625000 0.792969
-11.125000 -0.875000 13.875000 -1.000000 0.000000 0.000000 0.835938 0.367188
-11.125000 2.875000 13.875000 -0.000000 -1.000000 -0.000000 0.710938 0.851562
-12.000000 2.875000 13.875000 0.000000 -1.000000 -0.000000 0.710938 0.878906
-14.875000 -0.875000 13.875000 1.000000 -0.000000 0.000000 0.828125 0.750000
-14.875000 2.875000 13.875000 1.000000 0.000000 0.000000 0.828125 0.867188
-13.000000 -0.875000 13.125000 -0.000000 1.000000 0.000000 0.531250 0.804688
-14.875000 -0.875000 13.125000 -0.000000 1.000000 0.000000 0.531250 0.746094
-14.875000 -0.875000 13.875000 -0.000000 1.000000 0.000000 0.554688 0.746094
-13.000000 -0.875000 13.875000 0.000000 1.000000 0.000000 0.554688 0.804688
-12.000000 -0.875000 13.875000 0.000000 1.000000 0.000000 0.554688 0.835938
-14.875000 2.875000 13.125000 -0.000000 -1.000000 -0.000000 0.687500 0.968750
-13.000000 2.875000 13.125000 -0.000000 -1.000000 -0.000000 0.687500 0.910156
-13.000000 2.875000 13.875000 -0.000000 -1.000000 -0.000000 0.710938 0.910156
-14.875000 2.875000 13.875000 0.000000 -1.000000 -0.000000 0.710938 0.968750
-12.000000 2.875000 13.875000 -0.000000 -0.000000 -1.000000 0.625000 0.761719
-14.875000 0.000000 13.875000 0.000000 0.000000 -1.000000 0.714844 0.851562
-13.000000 0.000000 13.875000 0.000000 0.000000 -1.000000 0.714844 0.792969
-13.000000 -0.875000 13.875000 0.000000 0.000000 -1.000000 0.742188 0.792969
-14.875000 -0.875000 13.875000 0.000000 0.000000 -1.000000 0.742188 0.851562
-14.875000 2.875000 11.125000 0.000000 -1.000000 0.000000 0.625000 0.968750
-13.000000 2.875000 11.125000 0.000000 -1.000000 0.000000 0.625000 0.910156
-12.000000 -0.875000 11.125000 0.000000 -0.000000 1.000000 0.378906 0.652344
-14.875000 -0.875000 11.125000 0.000000 1.000000 0.000000 0.468750 0.746094
-13.000000 -0.875000 11.125000 0.000000 1.000000 -0.000000 0.468750 0.804688
-13.000000 1.000000 11.125000 0.000000 0.000000 1.000000 0.437500 0.683594
-13.000000 2.875000 11.125000 0.000000 0.000000 1.000000 0.496094 0.683594
-14.875000 2.875000 11.125000 -0.000000 0.000000 1.000000 0.496094 0.742188
-11.125000 -0.875000 11.125000 0.000000 -0.000000 1.000000 0.378906 0.625000
-11.125000 2.875000 13.875000 -0.000000 -0.000000 -1.000000 0.625000 0.734375
-11.125000 -0.875000 13.875000 0.000000 1.000000 0.000000 0.554688 0.863281
-12.000000 3.000000 11.125000 0.000000 0.000000 1.000000 0.500000 0.652344
-13.000000 3.000000 11.125000 -0.000000 0.000000 1.000000 0.500000 0.683594
-13.000000 3.000000 13.125000 0.000000 -1.000000 0.000000 0.804688 0.867188
-13.000000 3.000000 11.125000 0.000000 -1.000000 0.000000 0.804688 0.929688
-12.000000 3.000000 11.125000 0.000000 -1.000000 0.000000 0.773438 0.929688
-12.000000 3.000000 13.125000 -0.000000 -1.000000 -0.000000 0.773438 0.867188
-13.000000 2.875000 13.125000 1.000000 0.000000 -0.000000 0.531250 0.925781
-13.000000 2.875000 11.125000 1.000000 0.000000 -0.000000 0.531250 0.863281
-13.000000 3.000000 11.125000 1.000000 0.000000 -0.000000 0.535156 0.863281
-13.000000 3.000000 13.125000 1.000000 0.000000 0.000000 0.535156 0.925781
-12.000000 2.875000 13.125000 0.000000 0.000000 -1.000000 0.261719 0.902344
-13.000000 2.875000 13.125000 0.000000 0.000000 -1.000000 0.261719 0.871094
-13.000000 3.000000 13.125000 0.000000 0.000000 -1.000000 0.265625 0.871094
-12.000000 3.000000 13.125000 -0.000000 -0.000000 -1.000000 0.265625 0.902344
-12.000000 2.875000 11.125000 -1.000000 -0.000000 -0.000000 0.550781 0.925781
-12.000000 2.875000 13.125000 -1.000000 -0.000000 -0.000000 0.550781 0.863281
-12.000000 3.000000 13.125000 -1.000000 -0.000000 -0.000000 0.554688 0.863281
-12.000000 3.000000 11.125000 -1.000000 -0.000000 0.000000 0.554688 0.925781
-15.000000 1.000000 11.125000 1.000000 -0.000000 0.000000 0.500000 0.925781
-15.000000 1.000000 13.125000 1.000000 -0.000000 0.000000 0.500000 0.863281
-15.000000 0.000000 13.125000 1.000000 -0.000000 0.000000 0.531250 0.863281
-15.000000 0.000000 11.125000 1.000000 -0.000000 0.000000 0.531250 0.925781
3 0 1 2
3 0 2 3
3 4 5 6
3 4 6 7
3 8 9 10
3 8 10 11
3 12 13 14
3 12 14 15
3 16 17 18
3 16 18 19
3 3 2 20
3 3 20 21
3 22 23 24
3 22 24 25
3 26 27 9
3 26 9 8
3 28 16 19
3 28 19 29
3 2 30 31
3 2 31 20
3 32 33 34
3 32 34 35
3 36 22 25
3 36 25 37
3 27 38 39
3 27 39 9
3 40 41 42
3 40 42 43
3 44 45 46
3 44 46 47
3 48 49 50
3 48 50 51
3 52 53 54
3 52 54 55
3 56 57 58
3 56 58 59
3 60 61 62
3 60 62 63
3 64 65 66
3 64 66 67
3 61 60 68
3 61 68 69
3 54 53 70
3 54 70 71
3 72 73 74
3 72 74 75
3 50 49 76
3 50 76 77
3 78 79 80
3 78 80 81
3 82 60 63
3 82 63 83
3 61 84 85
3 61 85 62
3 86 79 87
3 86 87 88
3 89 90 91
3 89 91 92
3 93 94 95
3 93 95 96
3 97 98 99
3 97 99 100
3 101 102 103
3 101 103 104
3 105 86 88
3 105 88 106
3 79 78 107
3 79 107 87
3 78 64 67
3 78 67 107
3 65 105 106
3 65 106 66
3 108 109 110
3 108 110 111
3 112 113 114
3 112 114 115
3 116 112 115
3 116 115 117
3 118 119 120
3 118 120 121
3 122 123 124
3 122 124 125
3 126 116 117
3 126 117 127
3 58 57 128
3 58 128 129
3 130 131 132
3 130 132 133
3 134 135 136
3 134 136 137
3 138 139 140
3 138 140 141
3 142 143 144
3 142 144 145
3 146 147 148
3 146 148 149
3 137 136 150
3 137 150 151
3 134 137 152
3 134 152 153
3 154 155 156
3 154 156 157
3 155 158 159
3 155 159 156
3 160 161 162
3 160 162 163
3 164 165 166
3 164 166 167
3 158 168 169
3 158 169 170
3 171 132 172
3 171 172 173
3 174 175 176
3 174 176 177
3 165 178 179
3 165 179 180
3 178 181 182
3 178 182 183
3 184 155 154
3 184 154 185
3 186 187 188
3 186 188 189
3 186 189 190
3 186 190 191
3 192 193 194
3 192 194 195
3 158 170 196
3 158 196 159
3 174 177 197
3 174 197 198
3 166 165 180
3 166 180 199
3 178 183 200
3 178 200 179
3 201 202 203
3 201 203 204
3 161 201 204
3 161 204 205
3 206 207 208
3 206 208 209
3 187 192 195
3 187 195 210
3 211 212 213
3 211 213 214
3 211 193 192
3 211 192 212
3 206 215 216
3 206 216 207
3 135 171 173
3 135 173 217
3 218 202 201
3 218 201 219
3 133 220 221
3 133 221 222
3 133 132 171
3 133 171 220
3 136 135 217
3 136 217 223
3 188 187 210
3 188 210 224
3 162 161 205
3 162 205 225
3 207 174 198
3 207 198 208
3 212 186 191
3 212 191 213
3 212 192 187
3 212 187 186
3 221 153 226
3 221 226 227
3 219 201 161
3 219 161 160
3 220 134 153
3 220 153 221
3 220 171 135
3 220 135 134
3 228 229 230
3 228 230 231
3 232 233 234
3 232 234 235
3 236 237 238
3 236 238 239
3 240 241 242
3 240 242 243
3 244 245 246
3 244 246 247
3 248 249 250
3 248 250 251
3 252 253 254
3 252 254 255
3 256 257 258
3 256 258 259
3 260 261 262
3 260 262 263
3 264 265 266
3 264 266 267
3 268 269 270
3 268 270 271
3 272 273 274
3 272 274 275
3 276 277 278
3 276 278 279
3 280 281 282
3 280 282 283
3 284 285 286
3 284 286 287
3 268 271 288
3 268 288 289
3 290 286 291
3 290 291 292
3 286 285 293
3 286 293 291
3 294 295 296
3 294 296 297
3 298 299 300
3 298 300 301
3 285 284 302
3 285 302 303
3 304 266 305
3 304 305 306
3 307 308 309
3 307 309 310
3 299 311 312
3 299 312 313
3 311 314 315
3 311 315 316
3 287 286 290
3 287 290 317
3 318 319 320
3 318 320 321
3 318 321 322
3 318 322 323
3 324 325 326
3 324 326 327
3 285 303 328
3 285 328 293
3 307 310 329
3 307 329 330
3 300 299 313
3 300 313 331
3 311 316 332
3 311 332 312
3 333 334 335
3 333 335 336
3 295 333 336
3 295 336 337
3 338 339 340
3 338 340 341
3 319 324 327
3 319 327 342
3 343 344 345
3 343 345 346
3 343 325 324
3 343 324 344
3 338 347 348
3 338 348 339
3 269 304 306
3 269 306 349
3 350 334 333
3 350 333 351
3 267 352 353
3 267 353 354
3 267 266 304
3 267 304 352
3 270 269 349
3 270 349 355
3 320 319 342
3 320 342 356
3 296 295 337
3 296 337 357
3 339 307 330
3 339 330 340
3 344 318 323
3 344 323 345
3 344 324 319
3 344 319 318
3 353 289 358
3 353 358 359
3 351 333 295
3 351 295 294
3 352 268 289
3 352 289 353
3 352 304 269
3 352 269 268
3 360 361 362
3 360 362 363
3 364 365 366
3 364 366 367
3 368 369 370
3 368 370 371
3 372 373 374
3 372 374 375
3 376 377 378
3 376 378 379
3 380 381 382
3 380 382 383
3 384 385 386
3 384 386 387
3 388 389 390
3 388 390 391
3 392 393 394
3 392 394 395
3 396 397 398
3 396 398 399
3 400 401 402
3 400 402 403
3 384 387 404
3 384 404 405
3 406 402 407
3 406 407 408
3 402 401 409
3 402 409 407
3 410 411 412
3 410 412 413
3 414 415 416
3 414 416 417
3 401 400 418
3 401 418 419
3 420 382 421
3 420 421 422
3 423 424 425
3 423 425 426
3 415 427 428
3 415 428 429
3 427 430 431
3 427 431 432
3 403 402 406
3 403 406 433
3 434 435 436
3 434 436 437
3 434 437 438
3 434 438 439
3 440 441 442
3 440 442 443
3 401 419 444
3 401 444 409
3 423 426 445
3 423 445 446
3 416 415 429
3 416 429 447
3 427 432 448
3 427 448 428
3 449 450 451
3 449 451 452
3 411 449 452
3 411 452 453
3 454 455 456
3 454 456 457
3 435 440 443
3 435 443 458
3 459 460 461
3 459 461 462
3 459 441 440
3 459 440 460
3 454 463 464
3 454 464 455
3 385 420 422
3 385 422 465
3 466 450 449
3 466 449 467
3 383 468 469
3 383 469 470
3 383 382 420
3 383 420 468
3 386 385 465
3 386 465 471
3 436 435 458
3 436 458 472
3 412 411 453
3 412 453 473
3 455 423 446
3 455 446 456
3 460 434 439
3 460 439 461
3 460 440 435
3 460 435 434
3 469 405 474
3 469 474 475
3 467 449 411
3 467 411 410
3 468 384 405
3 468 405 469
3 468 420 385
3 468 385 384
3 476 477 478
3 476 478 479
3 480 481 482
3 480 482 483
3 484 485 486
3 484 486 487
3 488 489 490
3 488 490 491
3 492 493 494
3 492 494 495
